<?xml version="1.0" encoding="UTF-8"?>
<svg version="1.1" xmlns="http://www.w3.org/2000/svg" width="512" height="512">
<path d="M0 0 C12.03667116 1.05983268 22.61380207 6.72854337 32 14 C32.83917969 14.64066406 33.67835937 15.28132812 34.54296875 15.94140625 C45.90403632 25.46013854 53.21700756 40.41480056 55 55 C56.43201998 73.93594617 52.59239221 90.48367474 40.8125 105.8125 C30.81589776 117.33659664 17.14789136 125.49240988 2 128 C1.01 127.67 0.02 127.34 -1 127 C-1.84375 125.00415039 -1.84375 125.00415039 -2.5 122.34765625 C-2.7460498 121.35693115 -2.99209961 120.36620605 -3.24560547 119.34545898 C-3.49455566 118.26208252 -3.74350586 117.17870605 -4 116.0625 C-4.26055176 114.94238525 -4.52110352 113.82227051 -4.78955078 112.66821289 C-12.99246741 75.85255861 -12.17129819 37.15414199 -1 1 C-0.67 0.67 -0.34 0.34 0 0 Z " fill="#E53834" transform="translate(52,192)"/>
<path d="M0 0 C0.85961914 2.1862793 0.85961914 2.1862793 1.53515625 5.07421875 C1.78628174 6.12770508 2.03740723 7.18119141 2.29614258 8.26660156 C2.6754895 9.95994629 2.6754895 9.95994629 3.0625 11.6875 C3.32635498 12.83057617 3.59020996 13.97365234 3.86206055 15.15136719 C5.65574573 23.07305492 7.19322936 30.91133849 8 39 C8.16435547 40.46179688 8.16435547 40.46179688 8.33203125 41.953125 C10.99367306 69.63419985 9.55279523 101.00258901 -1 127 C-13.21416234 125.18949363 -23.26952554 120.53816652 -33 113 C-33.83917969 112.35933594 -34.67835938 111.71867187 -35.54296875 111.05859375 C-46.90403632 101.53986146 -54.21700756 86.58519944 -56 72 C-57.43201998 53.06405383 -53.59239221 36.51632526 -41.8125 21.1875 C-33.65825618 11.78727664 -13.72618457 -4.57539486 0 0 Z " fill="#E53834" transform="translate(461,193)"/>
<path d="M0 0 C-1.81050637 12.21416234 -6.46183348 22.26952554 -14 32 C-14.64066406 32.83917969 -15.28132813 33.67835937 -15.94140625 34.54296875 C-25.46013854 45.90403632 -40.41480056 53.21700756 -55 55 C-73.93594617 56.43201998 -90.48367474 52.59239221 -105.8125 40.8125 C-117.33659664 30.81589776 -125.49240988 17.14789136 -128 2 C-127.67 1.01 -127.34 0.02 -127 -1 C-124.8137207 -1.85961914 -124.8137207 -1.85961914 -121.92578125 -2.53515625 C-120.34555176 -2.91184448 -120.34555176 -2.91184448 -118.73339844 -3.29614258 C-117.60450195 -3.54904053 -116.47560547 -3.80193848 -115.3125 -4.0625 C-114.16942383 -4.32635498 -113.02634766 -4.59020996 -111.84863281 -4.86206055 C-103.92694508 -6.65574573 -96.08866151 -8.19322936 -88 -9 C-87.02546875 -9.10957031 -86.0509375 -9.21914063 -85.046875 -9.33203125 C-57.36580015 -11.99367306 -25.99741099 -10.55279523 0 0 Z " fill="#E53834" transform="translate(320,52)"/>
<path d="M0 0 C11.52409664 9.99660224 19.67990988 23.66460864 22.1875 38.8125 C21.8575 39.8025 21.5275 40.7925 21.1875 41.8125 C19.0012207 42.67211914 19.0012207 42.67211914 16.11328125 43.34765625 C15.05979492 43.59878174 14.00630859 43.84990723 12.92089844 44.10864258 C11.79200195 44.36154053 10.66310547 44.61443848 9.5 44.875 C8.35692383 45.13885498 7.21384766 45.40270996 6.03613281 45.67456055 C-1.88555492 47.46824573 -9.72383849 49.00572936 -17.8125 49.8125 C-19.27429688 49.97685547 -19.27429688 49.97685547 -20.765625 50.14453125 C-48.44669985 52.80617306 -79.81508901 51.36529523 -105.8125 40.8125 C-104.00199363 28.59833766 -99.35066652 18.54297446 -91.8125 8.8125 C-91.17183594 7.97332031 -90.53117188 7.13414062 -89.87109375 6.26953125 C-67.41996289 -20.52697977 -26.25506544 -20.17648683 0 0 Z " fill="#E53834" transform="translate(297.8125,419.1875)"/>
<path d="M0 0 C1.49609375 1.80078125 1.49609375 1.80078125 2 4 C-11.66895543 38.45519455 -46.31455007 68.30155273 -77.0625 87.0625 C-77.68157227 87.44470703 -78.30064453 87.82691406 -78.93847656 88.22070312 C-82.26520217 90.20544911 -85.1404718 91.52576686 -89 92 C-99.06314346 74.2879114 -103.73052368 57.54600584 -99 37 C-93.7251574 19.24615234 -83.23795196 5.96108421 -67.21484375 -3.3125 C-46.55872991 -14.15507737 -19.30790092 -14.06768738 0 0 Z " fill="#E53834" transform="translate(443,353)"/>
<path d="M0 0 C4.60274783 0.56555503 8.06038588 2.54324207 11.9375 4.9375 C12.59355225 5.33864014 13.24960449 5.73978027 13.92553711 6.15307617 C43.60434508 24.53991114 67.97130533 49.27014482 86.0625 79.125 C86.44470703 79.75245117 86.82691406 80.37990234 87.22070312 81.02636719 C88.95982333 83.95734316 90.45169441 86.60894083 91 90 C78.95752783 100.322119 63.55581901 103.61906173 48.0625 102.7890625 C29.71044308 101.12552662 13.92827303 93.18336942 2 79 C-9.57671008 62.90457407 -13.85941679 45.70054068 -11 26 C-8.9664969 16.44032512 -4.87671648 8.36987015 0 0 Z " fill="#E53834" transform="translate(354,67)"/>
<path d="M0 0 C10.17046444 17.90098372 14.44102667 34.25311423 10 55 C4.83624651 72.74161217 -5.82515588 86.08394792 -21.7890625 95.3125 C-37.18335875 103.40293307 -54.88609897 105.02462879 -71.625 100.3125 C-86.11705085 95.47007718 -86.11705085 95.47007718 -90.49609375 90.19921875 C-91.52977109 85.68789827 -87.88200921 81.78896986 -85.6015625 78.05078125 C-70.71612381 54.61108545 -31.61431762 0 0 0 Z " fill="#E53834" transform="translate(158,67)"/>
<path d="M0 0 C13.04222263 13.40513665 19.24609375 29.67474808 19.24609375 48.30859375 C18.43424733 60.05499662 15.49491745 72.72076008 8.24609375 82.30859375 C6.4765625 83.75 6.4765625 83.75 4.24609375 84.30859375 C-30.2091008 70.63963832 -60.05545898 35.99404368 -78.81640625 5.24609375 C-79.19861328 4.62702148 -79.58082031 4.00794922 -79.97460938 3.37011719 C-81.95935536 0.04339158 -83.27967311 -2.83187805 -83.75390625 -6.69140625 C-55.80312249 -22.57167611 -24.66162889 -23.39895349 0 0 Z " fill="#E53834" transform="translate(150.75390625,360.69140625)"/>
<path d="M0 0 C5.65842186 3.35748683 9.01834623 8.14105438 11.0546875 14.30859375 C12.61328751 20.65089687 11.70385218 25.48921562 8.90234375 31.26171875 C5.99765338 35.84316916 1.60911022 39.38856832 -3.4375 41.375 C-10.81953986 42.2386623 -17.72157656 42.50233474 -23.82421875 37.86328125 C-29.33731269 32.77735197 -32.05274241 28.22257589 -32.8125 20.625 C-32.62001392 14.71454509 -30.68736936 8.96608178 -26.7890625 4.4765625 C-19.38125262 -2.15488303 -9.29654974 -4.24177174 0 0 Z " fill="#E53834" transform="translate(266.4375,342.625)"/>
<path d="M0 0 C4.58145041 2.90469037 8.12684957 7.29323353 10.11328125 12.33984375 C10.97694355 19.72188361 11.24061599 26.62392031 6.6015625 32.7265625 C1.51563322 38.23965644 -3.03914286 40.95508616 -10.63671875 41.71484375 C-16.54717366 41.52235767 -22.29563697 39.58971311 -26.78515625 35.69140625 C-32.14106031 29.70846951 -33.35533552 24.29009703 -33.19921875 16.34765625 C-32.57840423 10.37231648 -30.27913394 6.76390474 -26.13671875 2.52734375 C-17.61977045 -3.20521761 -9.39712202 -4.56060671 0 0 Z " fill="#E53834" transform="translate(373.88671875,236.66015625)"/>
<path d="M0 0 C4.66634793 4.05184944 7.59854379 8.61563081 8.3359375 14.83203125 C8.4227458 21.45550454 8.05029573 26.59121999 4 32 C-1.24900959 37.36830526 -6.59619901 39.62179989 -13.9375 40.4375 C-19.56237669 40.17227988 -24.67947597 38.13250716 -28.83203125 34.31640625 C-34.51079798 27.89152418 -35.51296418 23.09480035 -35.37890625 14.48828125 C-34.68878205 8.13486978 -31.66047551 4.33475594 -27.0625 0.125 C-18.26486968 -5.97947818 -9.02106338 -5.15920347 0 0 Z " fill="#E53834" transform="translate(163,238)"/>
<path d="M0 0 C5.30020616 3.15174783 9.22263819 7.33459586 11.79296875 12.96484375 C13.52331869 20.83007076 12.47917854 27.09794769 8.48046875 34.08984375 C4.42861931 38.75619168 -0.13516206 41.68838754 -6.3515625 42.42578125 C-12.97503579 42.51258955 -18.11075124 42.14013948 -23.51953125 38.08984375 C-28.88783651 32.84083416 -31.14133114 27.49364474 -31.95703125 20.15234375 C-31.69181113 14.52746706 -29.65203841 9.41036778 -25.8359375 5.2578125 C-18.45660835 -1.26456229 -9.64671512 -3.48478236 0 0 Z " fill="#E53834" transform="translate(265.51953125,128.91015625)"/>
<path d="M0 0 C4.99119246 3.61861454 9.47452219 7.85521233 11.5 13.8125 C12.38458266 20.29943952 12.20319635 26.33099558 8.8359375 32.0625 C4.72920774 37.44207583 -0.23901898 41.19069785 -7.04296875 42.18359375 C-14.20920869 42.36354365 -19.63285444 41.05164481 -25.5 36.8125 C-31.20643336 30.81746541 -31.86691848 25.0774208 -31.76953125 17.109375 C-31.31024245 11.49140764 -29.71748567 7.84705426 -25.55859375 4.03125 C-17.99997749 -1.87087393 -9.21371181 -3.12608079 0 0 Z " fill="#E53834" transform="translate(341.5,311.1875)"/>
<path d="M0 0 C5.09620539 3.01237564 8.70841667 7.93775001 10.5625 13.5 C11.16522587 22.18157077 11.08890385 28.26831538 5.375 35.125 C-0.64379451 40.20753758 -5.80364959 42.2201236 -13.76171875 41.87890625 C-20.60746991 40.90950791 -24.87540611 37.59849851 -29.2109375 32.37890625 C-33.06810991 26.47030776 -33.4092344 20.36180869 -32.4375 13.5 C-29.9320202 7.16718381 -26.50787379 2.60263549 -20.4375 -0.5 C-14.1537238 -2.59459207 -6.12809057 -2.6958848 0 0 Z " fill="#E53834" transform="translate(191.4375,311.5)"/>
<path d="M0 0 C5.70105836 3.34937178 9.55167053 8.18936684 11.625 14.4375 C12.78183398 22.36485705 11.32814439 28.9281605 6.625 35.4375 C0.62996541 41.14393336 -5.1100792 41.80441848 -13.078125 41.70703125 C-18.69609236 41.24774245 -22.34044574 39.65498567 -26.15625 35.49609375 C-31.6956503 28.40200327 -31.97675913 22.31071194 -31.375 13.4375 C-29.21470298 7.07030877 -24.44869339 2.33759253 -18.5234375 -0.83203125 C-12.58452627 -2.85126107 -5.72516068 -2.53841097 0 0 Z " fill="#E53834" transform="translate(341.375,160.5625)"/>
<path d="M0 0 C5.52013044 3.08039076 8.60528998 6.87836995 10.625 12.9375 C11.25606462 20.49993008 11.64723759 27.81621319 6.625 33.9375 C-0.0649654 40.07557691 -5.20758247 41.24223835 -14.20703125 41.15234375 C-19.41721387 40.79900214 -22.12446988 39.00938296 -26 35.6875 C-31.45106335 29.37574244 -33.07719763 25.22452585 -32.75390625 16.87109375 C-31.84774012 9.85531268 -28.59794082 5.60295897 -23.25390625 1.1640625 C-16.04505584 -3.54192301 -7.71848698 -3.50735432 0 0 Z " fill="#E53834" transform="translate(191.375,161.0625)"/>
</svg>
