<?xml version="1.0" encoding="UTF-8"?>
<svg version="1.1" xmlns="http://www.w3.org/2000/svg" width="512" height="512">
<path d="M0 0 C7.61533228 6.09226583 12.89272765 13.57869401 14.8125 23.25 C15.72672822 35.24045476 13.46037123 44.85249786 5.8125 54.25 C-0.57257288 61.27671011 -8.42788961 64.17864807 -17.75 65.125 C-27.81088662 65.58445501 -35.07369584 63.32191967 -43.1875 57.25 C-49.99882654 50.95862205 -54.74801972 43.30906414 -55.42578125 33.96484375 C-55.64455801 22.83025835 -54.35577115 14.57449241 -46.9375 5.875 C-33.51457141 -7.98802461 -16.60768697 -9.11794579 0 0 Z M-33.5 18.625 C-36.65896466 23.53894503 -37.66492544 27.57940776 -36.7265625 33.296875 C-35.23447343 38.7029948 -31.62711818 42.09553445 -27.1875 45.25 C-23.47545513 47.10602244 -19.2387695 46.69875601 -15.1875 46.25 C-9.77245028 43.54247514 -6.42505737 39.90190864 -3.875 34.4375 C-2.7127243 29.04876722 -3.32755758 25.00428254 -5.75 20.0625 C-9.22287939 16.05533147 -12.9533291 12.95843744 -18.23828125 11.80078125 C-24.72621552 11.43544126 -29.07936606 14.08488946 -33.5 18.625 Z " fill="#00BCEB" transform="translate(396.1875,293.75)"/>
<path d="M0 0 C0 4.95 0 9.9 0 15 C-1.08539063 14.90460938 -2.17078125 14.80921875 -3.2890625 14.7109375 C-4.73432537 14.59831961 -6.17964091 14.48637618 -7.625 14.375 C-8.69427734 14.27832031 -8.69427734 14.27832031 -9.78515625 14.1796875 C-14.34488399 13.84502858 -17.68688582 14.21760897 -22 16 C-22 17.98 -22 19.96 -22 22 C-21.39414063 22.15855469 -20.78828125 22.31710937 -20.1640625 22.48046875 C-2.71408169 27.33961725 -2.71408169 27.33961725 2 35 C2.391875 35.598125 2.78375 36.19625 3.1875 36.8125 C5.56221386 43.2059604 5.56432904 49.6937316 3 56 C-1.61563738 63.3876349 -7.73182214 66.68295553 -16 68.75 C-24.61698914 69.46808243 -32.46409498 68.43762611 -41 67 C-41 61.39 -41 55.78 -41 50 C-39.185 50.33 -37.37 50.66 -35.5 51 C-27.79885975 52.25936294 -22.00107695 53.20064617 -15 49 C-14.7886547 46.6087705 -14.7886547 46.6087705 -16 44 C-18.82668265 42.27829329 -21.92484992 41.20431887 -25 40 C-32.81656925 36.6055076 -37.93449362 33.88210599 -41.375 25.75 C-42.5357986 18.78520843 -42.02772519 11.97214425 -38 6 C-28.03016545 -3.96983455 -12.89928504 -4.29976168 0 0 Z " fill="#00BCEB" transform="translate(254,290)"/>
<path d="M0 0 C1.10118164 -0.01836914 1.10118164 -0.01836914 2.22460938 -0.03710938 C3.31418945 -0.04000977 3.31418945 -0.04000977 4.42578125 -0.04296875 C5.07587158 -0.04707764 5.72596191 -0.05118652 6.39575195 -0.05541992 C9.56420969 0.28042917 12.62388506 1.31218145 15.6875 2.1875 C15.6875 8.4575 15.6875 14.7275 15.6875 21.1875 C11.2325 20.1975 11.2325 20.1975 6.6875 19.1875 C0.45969951 18.57817263 -5.03059928 18.45152145 -10.3125 22.1875 C-15.17101902 27.43995299 -15.58341284 31.60474445 -15.546875 38.51953125 C-15.26487117 41.72967488 -14.27448021 43.65327556 -12.3125 46.1875 C-12.3125 46.8475 -12.3125 47.5075 -12.3125 48.1875 C-2.48317017 53.48021606 5.19082095 52.18655116 15.6875 49.1875 C15.6875 55.4575 15.6875 61.7275 15.6875 68.1875 C4.88359339 72.50906264 -5.39032275 72.04666929 -16.3125 68.1875 C-25.26496576 63.79339983 -31.1960895 56.53333616 -34.6171875 47.21875 C-36.94007015 37.09202565 -36.59904755 25.2929013 -31.3125 16.1875 C-23.29703361 4.84177874 -13.66177815 0.01180793 0 0 Z " fill="#00BCEB" transform="translate(309.3125,287.8125)"/>
<path d="M0 0 C0.67289063 -0.00773437 1.34578125 -0.01546875 2.0390625 -0.0234375 C6.9319045 -0.00454622 10.07919689 0.84405625 15 2.25 C15 8.52 15 14.79 15 21.25 C10 20.25 10 20.25 7 19.25 C-0.34906673 18.59460077 -6.19157057 18.40964215 -12 23.25 C-15.15420232 27.50581924 -16.69621764 31.92738122 -16.3828125 37.234375 C-15.35942161 42.6228413 -13.21507349 46.28290069 -8.9375 49.6875 C-0.49207494 54.17974737 6.27293297 51.83579764 15 49.25 C15 55.52 15 61.79 15 68.25 C6.00282175 72.74858912 -3.956179 72.09132442 -13.3984375 69.21875 C-21.66814736 66.13933852 -28.0580893 60.67024759 -32.2890625 52.875 C-36.7305588 43.16122392 -37.54472168 33.35740561 -34.4375 23 C-30.68466789 13.08833889 -24.66644496 6.63730017 -15 2.25 C-9.94328368 0.5028091 -5.31378415 -0.06107798 0 0 Z " fill="#00BCEB" transform="translate(137,287.75)"/>
<path d="M0 0 C3.33761045 2.15090451 4.73470933 3.20412799 6 7 C6.11222389 9.96551472 6.16771448 12.90811922 6.17700195 15.87426758 C6.18357315 16.78190353 6.19014435 17.68953949 6.19691467 18.62467957 C6.21664143 21.63129762 6.22830837 24.63786577 6.23828125 27.64453125 C6.24235678 28.67135199 6.2464323 29.69817272 6.25063133 30.75610924 C6.27148854 36.19002456 6.28579228 41.62391464 6.29516602 47.05786133 C6.30623496 52.67022421 6.34064167 58.28219112 6.38033772 63.89441395 C6.40648012 68.2104313 6.41485571 72.5263539 6.41844749 76.84244347 C6.4233189 78.91128911 6.43494858 80.98013037 6.45348549 83.0488987 C6.47782801 85.94543506 6.47692084 88.84094153 6.4699707 91.73754883 C6.48278076 92.59023346 6.49559082 93.44291809 6.50878906 94.32144165 C6.46222486 99.65154045 5.65566002 102.83912703 2 107 C-1.93695713 108.21687766 -4.0025297 108.42115413 -7.8125 106.8125 C-10.5235248 104.56622231 -11.79404302 102.57518182 -12.25447559 99.05374241 C-12.25652846 98.37073535 -12.25858133 97.68772829 -12.26069641 96.98402405 C-12.26778122 96.19482071 -12.27486603 95.40561737 -12.28216553 94.59249878 C-12.2784494 93.30739914 -12.2784494 93.30739914 -12.2746582 91.99633789 C-12.27976913 91.08694962 -12.28488007 90.17756134 -12.29014587 89.24061584 C-12.30404578 86.23456237 -12.30308482 83.22873805 -12.30078125 80.22265625 C-12.30466789 78.13284724 -12.3090025 76.04303901 -12.31376648 73.95323181 C-12.3212295 69.57271769 -12.32093675 65.19228416 -12.31567383 60.81176758 C-12.30987843 55.19826441 -12.32681163 49.58509111 -12.3500185 43.97164249 C-12.36475008 39.65565563 -12.36562833 35.33974832 -12.36250877 31.02374077 C-12.36302225 28.95408919 -12.36826495 26.88443319 -12.37832069 24.81480598 C-12.39065676 21.92067144 -12.38391034 19.02718088 -12.37231445 16.13305664 C-12.38378006 14.85099335 -12.38378006 14.85099335 -12.39547729 13.54302979 C-12.35416398 8.87812512 -12.05381389 5.76936734 -9 2 C-5.48746854 -0.34168764 -4.13530644 -0.49623677 0 0 Z " fill="#00BCEB" transform="translate(169,153)"/>
<path d="M0 0 C3.14957266 2.83260037 4.2460607 5.08201228 4.50793457 9.2121582 C4.53162797 10.90820344 4.53333045 12.60464367 4.51757812 14.30078125 C4.5245874 15.22982269 4.53159668 16.15886414 4.53881836 17.11605835 C4.55639911 20.18184447 4.54477509 23.24670477 4.53125 26.3125 C4.53394488 28.4457212 4.53782727 30.5789412 4.54284668 32.7121582 C4.54874185 37.1809459 4.54017794 41.64941359 4.52148438 46.11816406 C4.49869508 51.84499077 4.51181803 57.57106763 4.53577423 63.29786682 C4.55023153 67.70224655 4.54562647 72.10644864 4.53526306 76.51083374 C4.5325956 78.62234587 4.53586619 80.73387416 4.54518127 82.84536743 C4.55534549 85.79708549 4.53984708 88.74759096 4.51757812 91.69921875 C4.52567505 92.57105804 4.53377197 93.44289734 4.54211426 94.34115601 C4.4856209 98.38512189 4.30559578 100.50035241 2.15124512 104.02270508 C-0.6069277 106.55785138 -2.27730516 106.92402664 -6 107 C-9.84624466 105.95102418 -10.73691641 105.39462539 -13 102 C-13.25726891 100.11152744 -13.25726891 100.11152744 -13.26742554 97.94569397 C-13.28022049 96.71129829 -13.28022049 96.71129829 -13.29327393 95.45196533 C-13.29236755 94.55266296 -13.29146118 93.6533606 -13.29052734 92.72680664 C-13.29724457 91.77694382 -13.30396179 90.82708099 -13.31088257 89.84843445 C-13.32991148 86.7022888 -13.33378911 83.55635589 -13.3359375 80.41015625 C-13.34236157 78.22684134 -13.34908963 76.04352731 -13.35610962 73.86021423 C-13.36809432 69.28121952 -13.37178917 64.70230032 -13.37060547 60.12329102 C-13.37040211 54.25063782 -13.3977166 48.37846763 -13.43214989 42.50592899 C-13.45436618 37.99610664 -13.45844464 33.48640155 -13.45738602 28.97653008 C-13.45974946 26.81114473 -13.46861451 24.6457565 -13.48405075 22.48042488 C-13.5036057 19.45413303 -13.49791401 16.42889605 -13.48583984 13.40258789 C-13.49707886 12.50530975 -13.50831787 11.60803162 -13.51989746 10.68356323 C-13.4581664 4.60720348 -13.4581664 4.60720348 -11.09463501 1.47483826 C-7.04937154 -1.37344285 -4.85363193 -1.17156633 0 0 Z " fill="#00BCEB" transform="translate(351,154)"/>
<path d="M0 0 C5.61 0 11.22 0 17 0 C17 22.44 17 44.88 17 68 C11.39 68 5.78 68 0 68 C0 45.56 0 23.12 0 0 Z " fill="#00BCEB" transform="translate(174,289)"/>
<path d="M0 0 C3.84280473 3.39594263 5.28761487 5.68588928 5.61523438 10.82446289 C5.6346058 12.70710797 5.62591496 14.59018628 5.59375 16.47265625 C5.59379028 17.47332626 5.59383057 18.47399628 5.59387207 19.50498962 C5.58852578 21.61382349 5.57098138 23.72265745 5.54199219 25.83129883 C5.50009135 29.05547048 5.50093064 32.2775547 5.5078125 35.50195312 C5.49732085 37.55470198 5.48438289 39.60744011 5.46875 41.66015625 C5.46854858 42.62172134 5.46834717 43.58328644 5.46813965 44.57398987 C5.38098047 49.51048155 5.24869928 53.01191042 2 57 C-0.71437679 59.13272462 -2.04826833 58.99745956 -5.5625 58.8125 C-10.10367893 57.73913043 -10.10367893 57.73913043 -12 55 C-12.92879906 52.21360283 -13.13583034 50.48974269 -13.16113281 47.60791016 C-13.17074036 46.72334137 -13.1803479 45.83877258 -13.19024658 44.92739868 C-13.19449646 43.97424774 -13.19874634 43.0210968 -13.203125 42.0390625 C-13.20882507 41.05634369 -13.21452515 40.07362488 -13.22039795 39.06112671 C-13.22984519 36.98151729 -13.23638083 34.90189293 -13.24023438 32.82226562 C-13.24994116 29.64426519 -13.28096786 26.46691118 -13.3125 23.2890625 C-13.31903011 21.26823301 -13.32428055 19.24739889 -13.328125 17.2265625 C-13.3404718 16.27746002 -13.3528186 15.32835754 -13.36553955 14.35049438 C-13.34899693 9.43983506 -13.29845789 5.92935801 -10 2 C-6.23500419 -0.5099972 -4.45706394 -0.61476744 0 0 Z " fill="#00BCEB" transform="translate(125,185)"/>
<path d="M0 0 C2.98414043 2.05749345 4.73781704 3.68026296 5.46072388 7.31912231 C5.64661444 10.24645752 5.66653423 13.13335276 5.62890625 16.06640625 C5.63131821 17.13745102 5.63373016 18.20849579 5.63621521 19.31199646 C5.63523722 21.57221181 5.6218553 23.83245125 5.59692383 26.0925293 C5.56258384 29.55404861 5.57627671 33.01301956 5.59570312 36.47460938 C5.58880557 38.67188588 5.57913401 40.86915579 5.56640625 43.06640625 C5.57136612 44.10189102 5.57632599 45.13737579 5.58143616 46.20423889 C5.46442263 53.33142324 5.46442263 53.33142324 3.17944336 56.62084961 C0.03445223 58.61099802 -2.28821339 59 -6 59 C-8.80189446 57.23358828 -10.51524911 55.96950178 -12 53 C-12.1149054 51.48500543 -12.16942263 49.96520981 -12.19287109 48.44604492 C-12.20893402 47.50133835 -12.22499695 46.55663177 -12.24154663 45.58329773 C-12.28597262 41.26086107 -12.32706033 36.93857833 -12.35009766 32.6159668 C-12.36666096 30.33558957 -12.39395565 28.05526434 -12.43212891 25.77514648 C-12.48686781 22.4891463 -12.50876757 19.20436334 -12.5234375 15.91796875 C-12.54610687 14.90010788 -12.56877625 13.88224701 -12.59213257 12.83354187 C-12.5779698 8.09199117 -12.56193946 5.76334359 -9.68603516 1.85668945 C-6.1258249 -0.60426301 -4.24334583 -0.75774033 0 0 Z " fill="#00BCEB" transform="translate(395,185)"/>
<path d="M0 0 C2.97540787 2.05728667 4.73058184 3.68699589 5.47445679 7.31225586 C5.67997964 10.22959495 5.71904314 13.10667298 5.69921875 16.03125 C5.70637405 17.0999231 5.71352936 18.16859619 5.72090149 19.26965332 C5.72867439 21.52562628 5.72367517 23.78167452 5.70678711 26.03759766 C5.68756268 29.48874775 5.72695255 32.93587108 5.77148438 36.38671875 C5.77177474 38.58073156 5.76863471 40.77474807 5.76171875 42.96875 C5.77700119 43.99907349 5.79228363 45.02939697 5.80802917 46.09094238 C5.69549275 53.01090269 5.69549275 53.01090269 3.7406311 55.79101562 C0.88641513 58.33974744 -0.78374624 58.99627149 -4.625 59.0625 C-8.49947032 57.84275934 -9.68525569 57.32018523 -12 54 C-12.62048529 50.36064304 -12.5840557 46.75112661 -12.56640625 43.06640625 C-12.57260483 41.99631821 -12.57880341 40.92623016 -12.58518982 39.82371521 C-12.59229039 37.56176666 -12.58910991 35.29976587 -12.57641602 33.0378418 C-12.5625632 29.57828432 -12.59660493 26.12143784 -12.63476562 22.66210938 C-12.63571694 20.463541 -12.63385734 18.26496925 -12.62890625 16.06640625 C-12.64216446 15.03294571 -12.65542267 13.99948517 -12.66908264 12.93470764 C-12.60736523 8.16927563 -12.56695775 5.7702394 -9.67944336 1.84741211 C-6.1226732 -0.60489584 -4.23581237 -0.75639507 0 0 Z " fill="#00BCEB" transform="translate(305,185)"/>
<path d="M0 0 C2.36497439 1.86708505 3.66030715 3.32061431 5 6 C5.10972285 7.48450641 5.15903275 8.97371086 5.17700195 10.4621582 C5.18983719 11.38684402 5.20267242 12.31152985 5.21589661 13.26423645 C5.22328354 14.26629623 5.23067047 15.26835602 5.23828125 16.30078125 C5.246353 17.3293071 5.25442474 18.35783295 5.26274109 19.41752625 C5.27658767 21.59726268 5.28730725 23.77702086 5.29516602 25.95678711 C5.31237689 29.28866727 5.35625835 32.61955486 5.40039062 35.95117188 C5.41051756 38.06770103 5.41903366 40.18423863 5.42578125 42.30078125 C5.44328934 43.29676834 5.46079742 44.29275543 5.47883606 45.31892395 C5.46519181 49.6755725 5.41709228 52.28491239 3.18823242 56.10620117 C0.13720643 58.74670197 -2.00199222 59 -6 59 C-8.94755732 57.65437601 -10.54277272 56.91445456 -12 54 C-12.1152606 52.41841793 -12.16947931 50.83218591 -12.19287109 49.24658203 C-12.20893402 48.25860626 -12.22499695 47.27063049 -12.24154663 46.25271606 C-12.28592377 41.73733151 -12.32704959 37.22209441 -12.35009766 32.70654297 C-12.36667501 30.32232922 -12.39398805 27.93816552 -12.43212891 25.55419922 C-12.48677726 22.12180731 -12.50875264 18.69058031 -12.5234375 15.2578125 C-12.54610687 14.19104279 -12.56877625 13.12427307 -12.59213257 12.025177 C-12.57102245 4.6605804 -12.57102245 4.6605804 -9.68994141 1.32763672 C-6.15877562 -0.41519134 -3.88916716 -0.56569704 0 0 Z " fill="#00BCEB" transform="translate(215,185)"/>
<path d="M0 0 C3.33761045 2.15090451 4.73470933 3.20412799 6 7 C6.2557918 10.62061659 6.23131941 14.24629503 6.25 17.875 C6.270625 18.86886719 6.29125 19.86273438 6.3125 20.88671875 C6.36193995 30.11963005 6.36193995 30.11963005 3 34 C-0.38479933 36.25653289 -2.0104722 36.08973148 -5.96484375 35.77734375 C-9.31253821 34.49866583 -10.24270698 33.15540308 -12 30 C-12.58879907 25.99077564 -12.55792962 22.04541881 -12.5 18 C-12.51546875 16.91976562 -12.5309375 15.83953125 -12.546875 14.7265625 C-12.50797544 6.84940156 -12.50797544 6.84940156 -10.09375 2.8125 C-6.67931746 -0.14327742 -4.49436042 -0.44062357 0 0 Z " fill="#00BCEB" transform="translate(79,208)"/>
<path d="M0 0 C2.36497439 1.86708505 3.66030715 3.32061431 5 6 C5.29599687 9.93124675 5.27802989 13.8714177 5.3125 17.8125 C5.34150391 18.90626953 5.37050781 20.00003906 5.40039062 21.12695312 C5.46416438 29.17716315 5.46416438 29.17716315 3.1953125 33.19921875 C0.1208344 35.72116609 -2.05512366 36 -6 36 C-8.94755732 34.65437601 -10.54277272 33.91445456 -12 31 C-12.32451599 26.73569552 -12.32451551 22.46261803 -12.375 18.1875 C-12.41238281 16.99833984 -12.44976562 15.80917969 -12.48828125 14.58398438 C-12.58730151 4.7864798 -12.58730151 4.7864798 -9.69921875 1.7109375 C-6.1545792 -0.53588178 -4.12205065 -0.67451738 0 0 Z " fill="#00BCEB" transform="translate(440,208)"/>
<path d="M0 0 C2.36497439 1.86708505 3.66030715 3.32061431 5 6 C5.29599687 9.93124675 5.27802989 13.8714177 5.3125 17.8125 C5.34150391 18.90626953 5.37050781 20.00003906 5.40039062 21.12695312 C5.46416438 29.17716315 5.46416438 29.17716315 3.1953125 33.19921875 C0.1208344 35.72116609 -2.05512366 36 -6 36 C-8.94755732 34.65437601 -10.54277272 33.91445456 -12 31 C-12.32451599 26.73569552 -12.32451551 22.46261803 -12.375 18.1875 C-12.41238281 16.99833984 -12.44976562 15.80917969 -12.48828125 14.58398438 C-12.58730151 4.7864798 -12.58730151 4.7864798 -9.69921875 1.7109375 C-6.1545792 -0.53588178 -4.12205065 -0.67451738 0 0 Z " fill="#00BCEB" transform="translate(260,208)"/>
</svg>
