<?xml version="1.0" encoding="UTF-8"?>
<svg version="1.1" xmlns="http://www.w3.org/2000/svg" width="512" height="512">
<path d="M0 0 C5.52680653 -0.36845377 5.52680653 -0.36845377 7.48681641 1.15771484 C9.42705267 3.51993214 10.88105021 6.00937134 12.3984375 8.6640625 C13.04296875 9.78683594 13.6875 10.90960938 14.3515625 12.06640625 C15.0261045 13.25256844 15.70058329 14.43876657 16.375 15.625 C17.04124059 16.7880046 17.70790345 17.95076741 18.375 19.11328125 C21.96377145 25.38290786 25.51374252 31.67278285 29 38 C29.62318115 37.81083008 30.2463623 37.62166016 30.88842773 37.42675781 C32.56099162 36.92066163 34.23517326 36.41990641 35.91015625 35.921875 C38.00448205 35.29701926 40.09557564 34.66124532 42.18359375 34.015625 C71.52171182 25.19723113 103.06338112 24.73868547 131.81323242 36.15673828 C135.81719364 37.82733168 135.81719364 37.82733168 140 37 C141.61381037 34.69960452 141.61381037 34.69960452 143.109375 31.8203125 C143.69976562 30.74523437 144.29015625 29.67015625 144.8984375 28.5625 C145.81496094 26.8609375 145.81496094 26.8609375 146.75 25.125 C158.50837629 3.49162371 158.50837629 3.49162371 162 0 C163.66617115 -0.04063832 165.33388095 -0.042721 167 0 C169.08715551 3.43766789 169.08715551 3.43766789 168.71484375 5.83984375 C166.0378337 13.92938778 160.63669765 21.38832273 156.16015625 28.60864258 C153.70435741 32.62255498 151.76275656 36.635079 150 41 C149.34 41 148.68 41 148 41 C148 41.99 148 42.98 148 44 C148.70382812 44.25265625 149.40765625 44.5053125 150.1328125 44.765625 C175.1405693 55.53190722 194.34380785 82.09709427 204.3125 106.5625 C208.14549694 116.69180492 210.8704993 126.73387888 212.109375 137.47265625 C212.19687012 138.20166138 212.28436523 138.9306665 212.37451172 139.6817627 C212.58669459 141.45407097 212.79388114 143.22697626 213 145 C213.97646484 144.97905273 214.95292969 144.95810547 215.95898438 144.93652344 C219.66406946 144.86282644 223.36909359 144.81774172 227.07470703 144.78027344 C228.66303481 144.76044732 230.25129259 144.73337779 231.83935547 144.69824219 C248.44989487 144.34057383 264.49857424 146.36549437 277.8125 157.3125 C288.93669589 170.97936924 290.18232548 185.30665134 290.10247803 202.45469666 C290.1013656 203.56620592 290.10025317 204.67771519 290.09910703 205.82290655 C290.09409222 209.52511235 290.08174518 213.22725552 290.06933594 216.92944336 C290.06409945 219.5928397 290.059251 222.25623439 290.05482483 224.91963196 C290.04166039 232.13857603 290.02079149 239.3574852 289.99825954 246.57640529 C289.98419898 251.08891875 289.97170944 255.60143571 289.9595108 260.11395454 C289.92542161 272.62417119 289.88947852 285.13437911 289.84641647 297.64456844 C289.84366843 298.44364031 289.84092038 299.24271218 289.83808906 300.06599835 C289.83533239 300.86689315 289.83257572 301.66778795 289.82973552 302.49295229 C289.82415028 304.11566284 289.81856788 305.73837341 289.81298828 307.36108398 C289.8088345 308.56844417 289.8088345 308.56844417 289.80459681 309.80019546 C289.7600651 322.84803054 289.72901199 335.89586 289.70378849 348.94374531 C289.67766191 362.36079561 289.64039382 375.77777736 289.59196877 389.1947661 C289.56506461 396.71962432 289.54286813 404.24442944 289.53295135 411.76933098 C289.52445399 418.17455492 289.50571721 424.57964802 289.47384754 430.98480003 C289.45790627 434.24898914 289.44827318 437.5129768 289.44845009 440.77721024 C289.4478564 444.32445711 289.42888735 447.87116045 289.40545654 451.4183197 C289.409622 452.43779519 289.41378746 453.45727067 289.41807914 454.50763935 C289.29620068 466.16183849 286.24533336 475.795628 279 485 C276.0625 487.4375 276.0625 487.4375 273 489 C272.35933594 489.34417969 271.71867187 489.68835938 271.05859375 490.04296875 C264.93863972 493.25971878 259.5198564 495.26209387 252.5078125 495.1953125 C251.30898438 495.18886719 250.11015625 495.18242187 248.875 495.17578125 C247.6375 495.15902344 246.4 495.14226562 245.125 495.125 C243.86429687 495.11597656 242.60359375 495.10695313 241.3046875 495.09765625 C238.2029296 495.07415808 235.10156348 495.04130334 232 495 C230.62004505 492.2400901 230.92291772 490.07725626 230.97827148 486.98974609 C230.99836777 485.72858978 231.01846405 484.46743347 231.03916931 483.1680603 C231.06636772 481.7865172 231.09367853 480.40497631 231.12109375 479.0234375 C231.14539251 477.61382807 231.16923619 476.20421072 231.19264221 474.79458618 C231.25550756 471.08238724 231.32456718 467.37032818 231.39489746 463.65826416 C231.46555883 459.8711993 231.53038893 456.08403518 231.59570312 452.296875 C231.72474703 444.86447355 231.86033194 437.43221019 232 430 C231.44591461 430.01474869 230.89182922 430.02949738 230.32095337 430.04469299 C224.51280785 430.19805527 218.70448858 430.34258838 212.89599609 430.48217773 C210.7331798 430.53528764 208.5704161 430.59058916 206.40771484 430.64819336 C203.28494607 430.73097769 200.16206814 430.805672 197.0390625 430.87890625 C195.60719101 430.91945885 195.60719101 430.91945885 194.14639282 430.96083069 C188.02078585 431.09460816 182.08046773 430.75357458 176 430 C176.50974365 431.04454346 177.0194873 432.08908691 177.54467773 433.1652832 C179.43441119 437.03888255 181.32170069 440.91366833 183.20825195 444.78881836 C184.02529289 446.46622694 184.84299733 448.1433125 185.66137695 449.82006836 C186.83719439 452.22946019 188.01062525 454.64000143 189.18359375 457.05078125 C189.55028671 457.80087967 189.91697968 458.55097809 190.29478455 459.32380676 C193.97830499 466.90675579 195.56774485 473.97866149 193.38671875 482.35546875 C191.031644 487.71922931 187.0540446 491.14722873 182 494 C175.71938939 496.00833479 169.99019066 495.33312488 163.95703125 493.046875 C157.32788886 489.50074693 155.16269051 484.93005878 152.1875 478.3125 C151.23873187 476.26220886 150.28808951 474.21278436 149.3359375 472.1640625 C148.55428223 470.47265137 148.55428223 470.47265137 147.75683594 468.74707031 C145.79828787 464.54317168 143.76462861 460.37673041 141.7265625 456.2109375 C141.36160172 455.46412216 140.99664093 454.71730682 140.62062073 453.94786072 C139.15272441 450.94552506 137.68390756 447.94365571 136.21054077 444.94400024 C135.17454211 442.83288376 134.14344847 440.7194355 133.11328125 438.60546875 C132.79819611 437.96688934 132.48311096 437.32830994 132.15847778 436.67037964 C130 432.2274411 130 432.2274411 130 430 C99.64 430.33 69.28 430.66 38 431 C24.37005524 459.94127494 24.37005524 459.94127494 11 489 C10.34 489 9.68 489 9 489 C8.67 489.99 8.34 490.98 8 492 C2.7741468 495.95691234 -3.55862767 497.23628639 -10 497 C-16.45692608 495.8947604 -21.10260971 492.16140877 -25 487 C-27.44972088 481.71778935 -28.6037105 476.82650828 -28 471 C-26.4884551 467.11948415 -24.63225751 463.59107916 -22.61767578 459.95581055 C-19.53399457 454.24857447 -16.87769164 448.35633117 -14.203125 442.44921875 C-13.69990723 441.34429077 -13.19668945 440.23936279 -12.67822266 439.10095215 C-11.44943598 436.40185361 -10.22342934 433.70153001 -9 431 C-9.90709213 430.99191315 -10.81418427 430.98382629 -11.74876404 430.97549438 C-20.3255913 430.89733446 -28.90226616 430.80998017 -37.47889614 430.71247292 C-41.8875105 430.66267122 -46.29610276 430.61634063 -50.70483398 430.578125 C-54.96488761 430.54106738 -59.22474871 430.49465376 -63.48463631 430.44193649 C-65.10436668 430.42350075 -66.72413815 430.40835351 -68.3439312 430.39665604 C-82.09340531 430.29386952 -92.57032151 428.36642069 -105 422 C-105 421.34 -105 420.68 -105 420 C-105.88945313 419.62875 -105.88945313 419.62875 -106.796875 419.25 C-109.3343262 417.81031137 -110.54044102 416.34848507 -112.25 414 C-112.77078125 413.29875 -113.2915625 412.5975 -113.828125 411.875 C-115 410 -115 410 -115 408 C-115.66 407.67 -116.32 407.34 -117 407 C-122.50205028 393.22073204 -121.54556709 378.28290301 -121.4699707 363.734375 C-121.46825237 360.99938293 -121.47257357 358.26440777 -121.47660828 355.52941895 C-121.4827948 348.90603162 -121.46793972 342.28285555 -121.44588266 335.65950871 C-121.42103513 327.92747252 -121.41827141 320.19547342 -121.41647889 312.46340322 C-121.41261271 298.65654608 -121.39021879 284.84978317 -121.35668945 271.04296875 C-121.32426739 257.68098557 -121.30300916 244.31905206 -121.29516602 230.95703125 C-121.29468052 230.13392251 -121.29419503 229.31081378 -121.29369483 228.46276236 C-121.29176557 225.1529979 -121.28985345 221.84323344 -121.28797873 218.53346896 C-121.27996693 204.9774501 -121.26271611 191.42144093 -121.24434257 177.86543274 C-121.24021107 174.78880344 -121.23648698 171.71217405 -121.2331202 168.63554382 C-121.22415974 160.54910432 -121.2122518 152.46268831 -121.19155417 144.37626934 C-121.18303375 141.0365305 -121.17642516 137.69682116 -121.17303848 134.35707092 C-121.12119378 87.58946236 -121.12119378 87.58946236 -108 73 C-98.69599767 64.91976735 -87.46666103 61.77827247 -75.34912109 61.95336914 C-73.81131236 61.96613623 -72.2735009 61.97857748 -70.73568726 61.99073792 C-69.52364687 62.00261233 -69.52364687 62.00261233 -68.28712082 62.01472664 C-63.06458962 62.05717203 -57.84181688 62.04499863 -52.61914635 62.04483891 C-48.04581985 62.04783226 -43.47385899 62.06845837 -38.90087891 62.12670898 C-34.45827149 62.18222454 -30.01794031 62.18822248 -25.57509232 62.16201591 C-23.89353004 62.16079038 -22.21185123 62.17701283 -20.53065109 62.21193123 C-11.72223721 62.38519001 -5.07562543 62.23499516 1.74365234 56.18530273 C2.62370941 55.31550278 3.50376648 54.44570282 4.41049194 53.54954529 C8.09874468 49.91821177 14.53681416 44 20 44 C19.01 41.03 19.01 41.03 18 38 C17.34 38 16.68 38 16 38 C15.64808594 37.26136719 15.29617187 36.52273437 14.93359375 35.76171875 C11.04300984 27.7672291 6.53718931 20.39395438 1.66796875 12.96875 C-0.69311212 9.16432287 -1.51984172 6.47063878 -1 2 C-0.67 1.34 -0.34 0.68 0 0 Z " fill="#4184F4" transform="translate(172,8)"/>
<path d="M0 0 C5.52680653 -0.36845377 5.52680653 -0.36845377 7.48681641 1.15771484 C9.42705267 3.51993214 10.88105021 6.00937134 12.3984375 8.6640625 C13.04296875 9.78683594 13.6875 10.90960938 14.3515625 12.06640625 C15.0261045 13.25256844 15.70058329 14.43876657 16.375 15.625 C17.04124059 16.7880046 17.70790345 17.95076741 18.375 19.11328125 C21.96377145 25.38290786 25.51374252 31.67278285 29 38 C29.62318115 37.81083008 30.2463623 37.62166016 30.88842773 37.42675781 C32.56099162 36.92066163 34.23517326 36.41990641 35.91015625 35.921875 C38.00448205 35.29701926 40.09557564 34.66124532 42.18359375 34.015625 C71.52171182 25.19723113 103.06338112 24.73868547 131.81323242 36.15673828 C135.81719364 37.82733168 135.81719364 37.82733168 140 37 C141.61381037 34.69960452 141.61381037 34.69960452 143.109375 31.8203125 C143.69976562 30.74523437 144.29015625 29.67015625 144.8984375 28.5625 C145.81496094 26.8609375 145.81496094 26.8609375 146.75 25.125 C158.50837629 3.49162371 158.50837629 3.49162371 162 0 C163.66617115 -0.04063832 165.33388095 -0.042721 167 0 C169.08715551 3.43766789 169.08715551 3.43766789 168.71484375 5.83984375 C166.0378337 13.92938778 160.63669765 21.38832273 156.16015625 28.60864258 C153.70435741 32.62255498 151.76275656 36.635079 150 41 C149.34 41 148.68 41 148 41 C148 41.99 148 42.98 148 44 C148.70382812 44.25265625 149.40765625 44.5053125 150.1328125 44.765625 C175.1405693 55.53190722 194.34380785 82.09709427 204.3125 106.5625 C208.14549694 116.69180492 210.8704993 126.73387888 212.109375 137.47265625 C212.19687012 138.20166138 212.28436523 138.9306665 212.37451172 139.6817627 C212.58669459 141.45407097 212.79388114 143.22697626 213 145 C175.07939825 145.06869009 137.15880588 145.12154096 99.23815448 145.15319599 C94.75968101 145.15694804 90.28120766 145.16083101 85.80273438 145.16479492 C84.46537831 145.16597532 84.46537831 145.16597532 83.10100494 145.16717956 C68.67122122 145.1802279 54.2414734 145.20387859 39.81171097 145.23145839 C25.0017224 145.2595285 10.19175262 145.27617966 -4.61826146 145.28226548 C-13.75434261 145.28637859 -22.89032225 145.29936223 -32.02637215 145.3237494 C-38.29417727 145.33962641 -44.56193003 145.34439591 -50.8297538 145.34050413 C-54.44413784 145.33858564 -58.05834466 145.34149411 -61.67269707 145.35761642 C-65.59728248 145.37499409 -69.52163893 145.36894546 -73.44625854 145.36076355 C-74.58052367 145.36950207 -75.7147888 145.3782406 -76.88342559 145.38724393 C-89.74432088 145.31487094 -98.7424837 141.62200699 -108.23046875 132.96484375 C-116.70410348 124.205045 -120.3125 113.30809353 -120.3125 101.32543945 C-120.0908393 90.07489928 -115.48410078 81.32157564 -108 73 C-98.69599767 64.91976735 -87.46666103 61.77827247 -75.34912109 61.95336914 C-73.81131236 61.96613623 -72.2735009 61.97857748 -70.73568726 61.99073792 C-69.52364687 62.00261233 -69.52364687 62.00261233 -68.28712082 62.01472664 C-63.06458962 62.05717203 -57.84181688 62.04499863 -52.61914635 62.04483891 C-48.04581985 62.04783226 -43.47385899 62.06845837 -38.90087891 62.12670898 C-34.45827149 62.18222454 -30.01794031 62.18822248 -25.57509232 62.16201591 C-23.89353004 62.16079038 -22.21185123 62.17701283 -20.53065109 62.21193123 C-11.72223721 62.38519001 -5.07562543 62.23499516 1.74365234 56.18530273 C2.62370941 55.31550278 3.50376648 54.44570282 4.41049194 53.54954529 C8.09874468 49.91821177 14.53681416 44 20 44 C19.01 41.03 19.01 41.03 18 38 C17.34 38 16.68 38 16 38 C15.64808594 37.26136719 15.29617187 36.52273437 14.93359375 35.76171875 C11.04300984 27.7672291 6.53718931 20.39395438 1.66796875 12.96875 C-0.69311212 9.16432287 -1.51984172 6.47063878 -1 2 C-0.67 1.34 -0.34 0.68 0 0 Z " fill="#3CDC84" transform="translate(172,8)"/>
<path d="M0 0 C4.08642688 0.65674718 5.01368402 1.33949781 7.5 4.5625 C8.04589844 7.49511719 8.04589844 7.49511719 8.109375 10.859375 C8.14160156 12.06464844 8.17382812 13.26992187 8.20703125 14.51171875 C8.22121094 15.76597656 8.23539062 17.02023438 8.25 18.3125 C8.27964844 19.58222656 8.30929687 20.85195312 8.33984375 22.16015625 C8.41053951 25.29433485 8.46324012 28.42776956 8.5 31.5625 C9.32129395 31.95864502 10.14258789 32.35479004 10.98876953 32.76293945 C12.06755371 33.29105225 13.14633789 33.81916504 14.2578125 34.36328125 C15.32660645 34.88317627 16.39540039 35.40307129 17.49658203 35.9387207 C25.86784715 40.46459327 31.06002527 48.5235426 34.14453125 57.421875 C35.96312464 68.37340444 35.24826081 79.84443667 28.7109375 89.09375 C27.50575522 90.62130614 26.26781128 92.124001 24.98828125 93.58984375 C23.37130408 95.7330812 22.86067 96.92068212 22.5 99.5625 C23.14221039 101.76279415 23.14221039 101.76279415 24.30859375 103.984375 C24.93604492 105.27794922 24.93604492 105.27794922 25.57617188 106.59765625 C26.02541016 107.49355469 26.47464844 108.38945312 26.9375 109.3125 C27.55915039 110.58673828 27.55915039 110.58673828 28.19335938 111.88671875 C30.21557322 116.01603698 32.28003053 120.12409873 34.34106445 124.23413086 C39.23523716 133.99754102 44.04830893 143.79754375 48.8125 153.625 C49.18194733 154.38629211 49.55139465 155.14758423 49.93203735 155.9319458 C54.80723177 165.97790418 59.65861708 176.03474483 64.46362305 186.11450195 C68.45717018 194.48923855 72.49551412 202.84212611 76.53530884 211.1946106 C80.18323745 218.73856995 83.80557962 226.29353848 87.375 233.875 C89.97292513 239.39059489 92.63214431 244.86759257 95.375 250.3125 C96.01839205 251.60408554 96.6616158 252.89575493 97.3046875 254.1875 C98.49176749 256.56838565 99.69489691 258.93861214 100.91894531 261.30078125 C102.46804676 264.29392673 103.98501791 267.3019649 105.5 270.3125 C106.24032471 271.71387207 106.24032471 271.71387207 106.99560547 273.14355469 C110.66337041 280.53101752 112.16049936 287.88205553 109.79296875 295.98120117 C107.61623583 301.3513246 103.46796299 304.75831777 98.5 307.5625 C92.21938939 309.57083479 86.49019066 308.89562488 80.45703125 306.609375 C73.82788886 303.06324693 71.66269051 298.49255878 68.6875 291.875 C67.73873187 289.82470886 66.78808951 287.77528436 65.8359375 285.7265625 C65.31483398 284.59895508 64.79373047 283.47134766 64.25683594 282.30957031 C62.29828787 278.10567168 60.26462861 273.93923041 58.2265625 269.7734375 C57.86160172 269.02662216 57.49664093 268.27980682 57.12062073 267.51036072 C55.65272441 264.50802506 54.18390756 261.50615571 52.71054077 258.50650024 C51.67454211 256.39538376 50.64344847 254.2819355 49.61328125 252.16796875 C49.29819611 251.52938934 48.98311096 250.89080994 48.65847778 250.23287964 C46.5 245.7899411 46.5 245.7899411 46.5 243.5625 C16.14 243.8925 -14.22 244.2225 -45.5 244.5625 C-59.12994476 273.50377494 -59.12994476 273.50377494 -72.5 302.5625 C-73.16 302.5625 -73.82 302.5625 -74.5 302.5625 C-74.83 303.5525 -75.16 304.5425 -75.5 305.5625 C-80.7258532 309.51941234 -87.05862767 310.79878639 -93.5 310.5625 C-99.95692608 309.4572604 -104.60260971 305.72390877 -108.5 300.5625 C-110.94972088 295.28028935 -112.1037105 290.38900828 -111.5 284.5625 C-109.9586737 280.60552781 -108.04965604 276.98970091 -106.015625 273.26953125 C-102.54391648 266.91807088 -99.67412941 260.28937061 -96.70996094 253.69067383 C-93.82644561 247.32480075 -90.77307444 241.06573032 -87.62989807 234.82579041 C-83.77305833 227.1516077 -80.09746582 219.39455367 -76.4375 211.625 C-76.0728363 210.85248901 -75.70817261 210.07997803 -75.3324585 209.28405762 C-69.85538986 197.67661325 -64.50117248 186.01828532 -59.22573853 174.3180542 C-53.09991277 160.74357258 -46.72106952 147.29343914 -40.28369141 133.86425781 C-38.39880244 129.92944351 -36.53009982 125.98727813 -34.67150879 122.03997803 C-33.85171399 120.30629612 -33.02593476 118.57543716 -32.19567871 116.84674072 C-30.88336691 114.10921398 -29.59221655 111.3625352 -28.3046875 108.61328125 C-27.89388947 107.76702682 -27.48309143 106.9207724 -27.05984497 106.0488739 C-26.69446625 105.25842178 -26.32908752 104.46796967 -25.95263672 103.65356445 C-25.45846756 102.61133476 -25.45846756 102.61133476 -24.95431519 101.54804993 C-24.29477672 99.50800821 -24.29477672 99.50800821 -25.31008911 97.42082214 C-26.6477279 95.33178859 -28.15743846 93.66381409 -29.875 91.875 C-37.27032799 83.60147681 -38.89801199 74.49907805 -38.77734375 63.65234375 C-38.33905271 58.76941115 -36.76548135 54.8733062 -34.5 50.5625 C-34.09910156 49.79035156 -33.69820313 49.01820313 -33.28515625 48.22265625 C-28.46763397 40.05381413 -20.68233218 34.01852702 -11.5 31.5625 C-10.18 31.5625 -8.86 31.5625 -7.5 31.5625 C-7.5314209 30.42035034 -7.5314209 30.42035034 -7.56347656 29.25512695 C-7.64677795 25.79521968 -7.69870584 22.33552362 -7.75 18.875 C-7.78351563 17.67681641 -7.81703125 16.47863281 -7.8515625 15.24414062 C-7.87089844 13.50874023 -7.87089844 13.50874023 -7.890625 11.73828125 C-7.9220459 10.14367065 -7.9220459 10.14367065 -7.95410156 8.5168457 C-7.17044239 3.41842651 -5.0945091 0.81876039 0 0 Z " fill="#063042" transform="translate(255.5,194.4375)"/>
<path d="M0 0 C2.12355575 3.18533362 2.24851659 3.94198623 2.23885822 7.58634186 C2.24120702 8.53301491 2.24355582 9.47968797 2.24597579 10.45504808 C2.23830552 11.49714418 2.23063525 12.53924027 2.22273254 13.61291504 C2.22234554 15.27120748 2.22234554 15.27120748 2.22195071 16.96300077 C2.21854466 20.68700627 2.20066856 24.41080313 2.18286133 28.13476562 C2.17734881 30.79713157 2.1726137 33.45948882 2.16879272 36.12185669 C2.15753545 42.61630005 2.13522613 49.11066073 2.10880206 55.60505837 C2.08743703 60.88663636 2.06964027 66.16821475 2.05438805 71.44981384 C2.05220787 72.20112968 2.0500277 72.95244551 2.04778146 73.7265285 C2.04335583 75.25284484 2.03893297 76.7791612 2.03451284 78.30547756 C1.99249312 92.63173452 1.93738483 106.95791945 1.87832262 121.28411478 C1.82474602 134.37765511 1.78744899 147.47118199 1.757924 160.56479675 C1.72745223 174.01327097 1.6859718 187.46167016 1.63263911 200.91007376 C1.60289579 208.45850662 1.57745421 216.00689399 1.56351662 223.55537415 C1.55151912 229.98639348 1.52906733 236.41727457 1.49336074 242.84820765 C1.47543972 246.12651974 1.46378281 249.40463656 1.46190834 252.68300247 C1.45906414 256.24595825 1.43786467 259.80836167 1.41218567 263.37121582 C1.41566901 264.39546614 1.41915234 265.41971646 1.42274123 266.47500467 C1.2938234 278.14322184 -1.74451306 287.78272904 -9 297 C-11.9375 299.4375 -11.9375 299.4375 -15 301 C-15.64066406 301.34417969 -16.28132813 301.68835938 -16.94140625 302.04296875 C-23.06136028 305.25971878 -28.4801436 307.26209387 -35.4921875 307.1953125 C-36.69101562 307.18886719 -37.88984375 307.18242187 -39.125 307.17578125 C-40.3625 307.15902344 -41.6 307.14226562 -42.875 307.125 C-44.76605469 307.11146484 -44.76605469 307.11146484 -46.6953125 307.09765625 C-49.7970704 307.07415808 -52.89843652 307.04130334 -56 307 C-57.1863676 304.62726479 -57.1195867 303.2179482 -57.11022377 300.57124233 C-57.10934812 299.63432692 -57.10847247 298.69741151 -57.10757029 297.73210472 C-57.09838779 296.17770521 -57.09838779 296.17770521 -57.08901978 294.59190369 C-57.08649621 293.49650837 -57.08397265 292.40111305 -57.08137262 291.27252394 C-57.07159844 287.57740296 -57.05457132 283.88235029 -57.03759766 280.18725586 C-57.02909634 277.54822317 -57.02098754 274.90919192 -57.01335144 272.27015686 C-56.99377317 265.83176108 -56.96872726 259.39339753 -56.9417484 252.95502894 C-56.91993067 247.72482702 -56.90007459 242.4946211 -56.88163376 237.2644062 C-56.87901163 236.52116909 -56.8763895 235.77793199 -56.87368792 235.01217254 C-56.86837052 233.50250535 -56.86305773 231.99283815 -56.85774951 230.48317093 C-56.80769925 216.31462011 -56.75147254 202.1460989 -56.69314377 187.97758008 C-56.64318532 175.80757778 -56.59847958 163.63756542 -56.55761719 151.4675293 C-56.51021159 137.34953009 -56.45959212 123.23154853 -56.40379179 109.11357981 C-56.39785633 107.6096459 -56.39192498 106.10571197 -56.38599777 104.60177803 C-56.38307939 103.86172717 -56.380161 103.1216763 -56.37715418 102.35919965 C-56.356763 97.13184089 -56.33868718 91.90447701 -56.32149124 86.67710686 C-56.30048814 80.31170916 -56.27596045 73.94633689 -56.24684478 67.58097094 C-56.23206567 64.33028172 -56.21944457 61.07960923 -56.21003914 57.82889938 C-56.19959327 54.31293254 -56.18308765 50.79704696 -56.16494751 47.28111267 C-56.16328728 46.24261561 -56.16162706 45.20411855 -56.15991652 44.13415188 C-56.15382538 43.19984421 -56.14773423 42.26553655 -56.14145851 41.30291653 C-56.1382584 40.49026 -56.13505828 39.67760348 -56.13176119 38.840321 C-56 37 -56 37 -55 36 C-53.39929091 35.86654501 -51.79319661 35.7965468 -50.1875 35.75390625 C-49.19363281 35.72103516 -48.19976562 35.68816406 -47.17578125 35.65429688 C-45.08992832 35.59400469 -43.00398888 35.53662138 -40.91796875 35.48242188 C-29.22364868 35.08460483 -19.87331473 33.2305811 -10.953125 25.14453125 C-4.11775414 17.82717911 -1.54433796 9.7333932 0 0 Z " fill="#063043" transform="translate(460,196)"/>
<path d="M0 0 C1.14248199 -0.00021904 1.14248199 -0.00021904 2.30804443 -0.0004425 C4.80776895 0.00025021 7.30741752 0.00801241 9.80712891 0.01586914 C11.54733235 0.0177356 13.28753632 0.01915843 15.02774048 0.02015686 C19.59468044 0.02396409 24.1615883 0.03377897 28.72851562 0.04486084 C33.39403855 0.05511362 38.0595667 0.05966275 42.72509766 0.06469727 C51.86964296 0.07540292 61.01416451 0.09245769 70.15869141 0.11352539 C69.20611585 1.2253942 68.25346436 2.33719795 67.30078125 3.44897461 C66.77028168 4.06811737 66.2397821 4.68726013 65.69320679 5.32516479 C64.42663889 6.80125304 63.15643178 8.27421781 61.88525391 9.74633789 C45.58761805 29.07327409 34.06838105 53.0257034 31.62036133 78.33959961 C31.53308273 79.23508514 31.44580414 80.13057068 31.35588074 81.05319214 C31.29080826 81.73310211 31.22573578 82.41301208 31.15869141 83.11352539 C25.36037956 83.18819656 19.56235334 83.24237213 13.76367188 83.27832031 C11.79487221 83.293321 9.82610547 83.31372822 7.85742188 83.33984375 C5.01244943 83.37661354 2.16792228 83.39333926 -0.67724609 83.40649414 C-1.54433197 83.421978 -2.41141785 83.43746185 -3.30477905 83.45341492 C-15.38480185 83.4566731 -24.2404831 79.13634515 -33.07177734 71.07836914 C-41.54541207 62.31857039 -45.15380859 51.42161892 -45.15380859 39.43896484 C-44.93214789 28.18842467 -40.32540937 19.43510103 -32.84130859 11.11352539 C-23.46027342 2.96639214 -12.19777808 -0.06195994 0 0 Z " fill="#063042" transform="translate(96.84130859375,69.886474609375)"/>
<path d="M0 0 C7.8134843 3.90674215 11.12230025 13.43931228 14.7265625 20.90625 C15.38310822 22.25332283 15.38310822 22.25332283 16.05291748 23.62760925 C17.44308731 26.48280968 18.82699628 29.34099503 20.2109375 32.19921875 C21.12331252 34.07375534 22.03607016 35.94810575 22.94921875 37.82226562 C25.6331691 43.33733013 28.29996058 48.86053949 30.9609375 54.38671875 C31.4055835 55.30805603 31.85022949 56.22939331 32.30834961 57.1786499 C33.58766017 59.83311953 34.86122956 62.49025894 36.1328125 65.1484375 C36.52059875 65.95223343 36.90838501 66.75602936 37.30792236 67.58418274 C39.9609375 73.1564978 39.9609375 73.1564978 39.9609375 75.38671875 C29.58991705 75.54116853 19.21882722 75.68934113 8.84760571 75.82968235 C4.0309225 75.89505408 -0.78571169 75.96252083 -5.60229492 76.03491211 C-10.25769325 76.10480148 -14.91313957 76.16900912 -19.56867027 76.22941399 C-21.33752941 76.25333705 -23.10636293 76.27924625 -24.87516212 76.30725288 C-33.99100414 76.45030206 -42.97278719 76.5449975 -52.0390625 75.38671875 C-50.16082144 69.34317178 -47.91872572 63.66069962 -45.16015625 57.96875 C-44.791716 57.19673752 -44.42327576 56.42472504 -44.04367065 55.62931824 C-42.85960269 53.15020412 -41.66848377 50.67456546 -40.4765625 48.19921875 C-38.84081911 44.79046052 -37.20832953 41.38016042 -35.578125 37.96875 C-35.18001114 37.13634796 -34.78189728 36.30394592 -34.37171936 35.44631958 C-32.12651272 30.73272204 -29.95461715 25.99991502 -27.875 21.2109375 C-27.43615479 20.20377686 -26.99730957 19.19661621 -26.54516602 18.15893555 C-25.7800408 16.38188567 -25.02916414 14.59859242 -24.29663086 12.80786133 C-19.80778261 2.42061273 -11.48049135 -3.45294472 0 0 Z " fill="#4184F3" transform="translate(262.0390625,362.61328125)"/>
<path d="M0 0 C1.6965332 1.17700195 1.6965332 1.17700195 3 3 C3.34057617 5.72729492 3.34057617 5.72729492 3.29296875 8.98046875 C3.28330078 10.14384766 3.27363281 11.30722656 3.26367188 12.50585938 C3.23853516 13.72080078 3.21339844 14.93574219 3.1875 16.1875 C3.17396484 17.41404297 3.16042969 18.64058594 3.14648438 19.90429688 C3.11108741 22.93663664 3.0617076 25.96809996 3 29 C3.99 29.47308594 4.98 29.94617188 6 30.43359375 C17.04267599 35.88782002 25.25307934 41.93218899 30.15234375 53.70703125 C32.44176253 62.60094843 32.8219197 73.89355798 28.27734375 82.109375 C25.14267588 86.7490669 21.98815272 91.05816488 18 95 C20.33169551 102.8444899 23.77482095 109.8536505 27.5 117.125 C28.77684944 119.64411358 30.0486012 122.16578945 31.3203125 124.6875 C31.6373111 125.31488068 31.95430969 125.94226135 32.28091431 126.58865356 C35.0462176 132.06921954 37.73401604 137.5836272 40.375 143.125 C40.81013916 144.03797852 41.24527832 144.95095703 41.69360352 145.89160156 C44.32620127 151.43460653 46.93375297 156.98918953 49.53515625 162.546875 C50.83540191 165.32316787 52.13627446 168.09916626 53.4375 170.875 C53.76608002 171.57628021 54.09466003 172.27756042 54.43319702 173.00009155 C61.21959974 187.47022327 68.21747896 201.83493247 75.26147461 216.18115234 C77.51939956 220.781768 79.76615662 225.38764396 82 230 C82.56928223 231.17449707 83.13856445 232.34899414 83.72509766 233.55908203 C84.19351074 234.55149902 84.66192383 235.54391602 85.14453125 236.56640625 C85.53616455 237.39213135 85.92779785 238.21785645 86.33129883 239.06860352 C86.66230591 240.02464478 86.66230591 240.02464478 87 241 C86.67 241.66 86.34 242.32 86 243 C81.90382804 243.74267043 78.86870708 243.60397504 75 242 C71.57453953 237.68732764 69.48191329 232.89445323 67.26904297 227.87304688 C65.87783366 224.7234218 64.43019491 221.60384383 62.97265625 218.484375 C61.30927174 214.92144644 59.64830774 211.3576794 58.00830078 207.78393555 C54.48469799 200.11320836 50.81806257 192.52922445 47 185 C42.62800014 176.37230761 38.47873852 167.66239965 34.4375 158.875 C30.54430303 150.41090139 26.57446009 142.00419615 22.375 133.6875 C18.47875542 125.96725625 14.63568371 118.22485501 10.875 110.4375 C10.4011084 109.46707764 9.9272168 108.49665527 9.43896484 107.49682617 C8.78468506 106.13521362 8.78468506 106.13521362 8.1171875 104.74609375 C7.73159668 103.94872803 7.34600586 103.1513623 6.94873047 102.32983398 C5.94824769 99.87290987 5.34496421 97.62951752 5 95 C6.0390625 93.33203125 6.0390625 93.33203125 7.625 91.8125 C15.79803883 83.12507412 17.48772306 73.53464475 17.27734375 62.0546875 C16.8775283 53.45766084 12.80895856 46.21049947 7 40 C2.14637268 35.64986099 -3.17320876 32.82564808 -9 30 C-9.02505615 29.19256348 -9.0501123 28.38512695 -9.07592773 27.55322266 C-9.19165487 23.91031083 -9.31448635 20.26767274 -9.4375 16.625 C-9.47681641 15.35398438 -9.51613281 14.08296875 -9.55664062 12.7734375 C-9.59853516 11.56171875 -9.64042969 10.35 -9.68359375 9.1015625 C-9.72025146 7.98088379 -9.75690918 6.86020508 -9.79467773 5.70556641 C-9.82596013 3.03287229 -9.82596013 3.03287229 -11 1 C-7.2263442 -1.56608594 -4.31804867 -1.02062969 0 0 Z " fill="#366EB2" transform="translate(272,196)"/>
<path d="M0 0 C4.84592691 3.55367974 9.25099422 7.09710549 11 13 C11.78991572 20.63918491 11.92153284 27.7660584 7 34 C2.87080991 38.26457337 -1.44880276 42.58125239 -7.55078125 43.30078125 C-16.62393626 43.3392812 -22.57597323 41.15137369 -29.265625 34.94140625 C-33.97479607 29.6701044 -34.57211147 23.55517059 -34.34375 16.67578125 C-33.48265252 9.97292018 -30.17137045 5.36477709 -24.91796875 1.25390625 C-17.14069514 -3.83062497 -8.20573653 -5.06615038 0 0 Z " fill="#4184F2" transform="translate(265,242)"/>
<path d="M0 0 C0.87527344 -0.01417969 1.75054687 -0.02835937 2.65234375 -0.04296875 C5.0625 0.1875 5.0625 0.1875 8.0625 2.1875 C7.155 2.414375 6.2475 2.64125 5.3125 2.875 C-0.20194468 5.10198727 -2.32060259 9.55526309 -4.671875 14.80078125 C-5.15922119 15.87537598 -5.64656738 16.9499707 -6.14868164 18.05712891 C-6.6564917 19.19327637 -7.16430176 20.32942383 -7.6875 21.5 C-8.7623513 23.86938498 -9.83916832 26.23787923 -10.91796875 28.60546875 C-11.69793213 30.31742432 -11.69793213 30.31742432 -12.49365234 32.06396484 C-14.24730311 35.85770984 -16.09330541 39.59391606 -18 43.3125 C-22.04379126 51.21416109 -25.69242637 59.29327104 -29.34594727 67.38134766 C-29.79768311 68.37827637 -30.24941895 69.37520508 -30.71484375 70.40234375 C-31.11952881 71.30073975 -31.52421387 72.19913574 -31.94116211 73.12475586 C-32.9375 75.1875 -32.9375 75.1875 -33.9375 76.1875 C-35.79037502 76.25976502 -37.64583878 76.2713122 -39.5 76.25 C-41.01787109 76.23646484 -41.01787109 76.23646484 -42.56640625 76.22265625 C-43.34886719 76.21105469 -44.13132813 76.19945312 -44.9375 76.1875 C-43.05925894 70.14395303 -40.81716322 64.46148087 -38.05859375 58.76953125 C-37.6901535 57.99751877 -37.32171326 57.22550629 -36.94210815 56.43009949 C-35.75804019 53.95098537 -34.56692127 51.47534671 -33.375 49 C-31.73925661 45.59124177 -30.10676703 42.18094167 -28.4765625 38.76953125 C-28.07844864 37.93712921 -27.68033478 37.10472717 -27.27015686 36.24710083 C-25.02495022 31.53350329 -22.85305465 26.80069627 -20.7734375 22.01171875 C-20.33459229 21.00455811 -19.89574707 19.99739746 -19.44360352 18.9597168 C-18.6784783 17.18266692 -17.92760164 15.39937367 -17.19506836 13.60864258 C-13.88228035 5.94281145 -8.72697178 0.06407468 0 0 Z " fill="#366EB2" transform="translate(254.9375,361.8125)"/>
<path d="M0 0 C0.495 0.33 0.99 0.66 1.5 1 C0.30375 1.226875 -0.8925 1.45375 -2.125 1.6875 C-7.3877441 3.04502763 -10.85213035 5.41049056 -13.7578125 9.9765625 C-16.57439919 15.55064665 -17.58660506 20.82052424 -16.5 27 C-14.25974062 33.53965079 -11.24926615 38.1671559 -5.5 42 C-2.7875382 43.3049484 -2.7875382 43.3049484 -0.5 44 C-0.5 44.33 -0.5 44.66 -0.5 45 C-9.51442896 45.44012583 -15.51753118 44.56172204 -22.75 38.8125 C-28.22639694 33.72879044 -29.60247023 28.85035 -29.9375 21.5 C-29.73119477 15.28505489 -28.11368257 10.91144387 -23.95703125 6.28125 C-17.53101539 0.28167456 -8.63263941 -3.45305576 0 0 Z " fill="#356DB0" transform="translate(260.5,240)"/>
<path d="M0 0 C3.6578218 2.03993908 5.66946174 3.50419262 8 7 C8.3550919 11.86202761 7.6464397 15.20438191 4.5625 19 C0.51968236 22.15536987 -1.83882964 22.51611704 -7 22 C-10.56891311 19.95117951 -12.33294753 18.73239354 -13.8046875 14.91015625 C-14.49009449 11.39293615 -14.61117617 9.05052007 -12.77734375 5.8984375 C-8.8567415 1.21683383 -6.29633537 -0.60541686 0 0 Z " fill="#F9FEFB" transform="translate(200,94)"/>
<path d="M0 0 C4.83562945 0.3223753 7.13326813 1.6890175 10.5625 5 C12.32098729 8.33187066 12.26262487 10.53346973 11.75 14.25 C9.72632105 17.72359452 7.63983176 19.95338941 3.75 21.25 C-0.62992469 21.74584053 -2.78285941 21.50480396 -6.6875 19.375 C-9.32299489 16.89536771 -9.745667 14.82022522 -9.9375 11.25 C-9.71546848 7.32939076 -9.36438314 6.39371215 -6.8125 3.1875 C-5.966875 2.548125 -5.12125 1.90875 -4.25 1.25 C-3.25 0.25 -3.25 0.25 0 0 Z " fill="#FAFEFC" transform="translate(314.25,94.75)"/>
</svg>
