<?xml version="1.0" encoding="UTF-8"?>
<svg version="1.1" xmlns="http://www.w3.org/2000/svg" width="512" height="512">
<path d="M0 0 C0.72408879 -0.0002987 1.44817757 -0.0005974 2.19420844 -0.00090516 C4.61524684 -0.00054995 7.03620441 0.00711414 9.45722961 0.01486206 C11.19541385 0.01682166 12.93359855 0.0184042 14.67178345 0.01963806 C20.37543994 0.02579354 26.07904032 0.04302617 31.78266907 0.06124878 C33.74906214 0.06704176 35.7154553 0.0728082 37.68184853 0.07854843 C45.86323098 0.10321897 54.04459502 0.13075722 62.22593975 0.16589546 C73.93612553 0.21610758 85.6460779 0.24951815 97.35636967 0.259184 C105.59869486 0.26734006 113.84082577 0.29452906 122.08305103 0.33579051 C127.001813 0.35992988 131.92027553 0.37586786 136.83910179 0.37152481 C141.46947828 0.36787526 146.09916562 0.38790561 150.72938347 0.42570305 C152.42318219 0.43549891 154.11705461 0.43691864 155.81086349 0.42907524 C164.94495196 0.39193987 173.00237908 0.51196495 180.70845032 6.11593628 C184.70845032 10.21117437 184.70845032 10.21117437 184.70845032 13.11593628 C185.36845032 13.44593628 186.02845032 13.77593628 186.70845032 14.11593628 C187.7036731 16.66061112 188.58716429 19.1749097 189.42329407 21.77218628 C189.8079055 22.93663269 189.8079055 22.93663269 190.20028687 24.12460327 C191.02255815 26.61946099 191.83439168 29.11757571 192.64595032 31.61593628 C193.18888009 33.26980879 193.73249197 34.92345755 194.27680969 36.57687378 C195.28814893 39.65167362 196.29527774 42.72778569 197.29804993 45.8053894 C199.33459784 52.04530055 201.41331088 58.2708512 203.53266907 64.48312378 C204.15379777 66.31904946 204.77489122 68.15498706 205.39595032 69.99093628 C205.71628235 70.92679565 206.03661438 71.86265503 206.36665344 72.82687378 C206.6689386 73.72406128 206.97122375 74.62124878 207.28266907 75.54562378 C207.69392029 76.75581177 207.69392029 76.75581177 208.11347961 77.990448 C208.70845032 80.11593628 208.70845032 80.11593628 208.70845032 83.11593628 C209.36845032 83.44593628 210.02845032 83.77593628 210.70845032 84.11593628 C211.45454407 86.08468628 211.45454407 86.08468628 212.14595032 88.61593628 C213.50162315 93.51185188 215.0879797 98.30290287 216.70845032 103.11593628 C217.57370722 105.70946406 218.43827957 108.30321366 219.30220032 110.89718628 C219.78002487 112.33079337 220.25789016 113.76438689 220.73579407 115.19796753 C223.68110657 124.03390503 223.68110657 124.03390503 224.40400696 126.20272827 C224.8744495 127.61397508 225.34498846 129.02518975 225.81562805 130.43637085 C226.75087839 133.24093628 227.68521582 136.04578212 228.61470032 138.8522644 C230.25253576 143.79562712 231.9617512 148.71004897 233.70845032 153.61593628 C235.50962667 158.69338081 237.28118471 163.7751994 238.95674133 168.89572144 C239.74252654 171.21658233 240.59094769 173.50748587 241.44673157 175.80343628 C244.27057115 183.54518427 246.75475278 191.39527494 249.27095032 199.24093628 C250.22984238 202.22294651 251.18971893 205.20463938 252.14985657 208.18624878 C252.4912265 209.2464473 252.4912265 209.2464473 252.8394928 210.32806396 C255.04887186 217.18352654 257.25287797 224.0151926 259.83345032 230.74093628 C261.01627123 233.93096843 261.94541992 236.85952856 262.33345032 240.24093628 C262.45720032 241.18968628 262.58095032 242.13843628 262.70845032 243.11593628 C263.36845032 243.44593628 264.02845032 243.77593628 264.70845032 244.11593628 C264.70845032 245.76593628 264.70845032 247.41593628 264.70845032 249.11593628 C265.36845032 249.44593628 266.02845032 249.77593628 266.70845032 250.11593628 C267.45454407 252.08468628 267.45454407 252.08468628 268.14595032 254.61593628 C269.95515841 260.99816784 271.9652656 267.25472534 274.39595032 273.42843628 C275.70845032 277.11593628 275.70845032 277.11593628 275.70845032 281.11593628 C276.36845032 281.44593628 277.02845032 281.77593628 277.70845032 282.11593628 C278.22105492 283.73670271 278.72051982 285.36288051 279.15034485 287.00753784 C279.74160377 289.24118264 280.41469462 291.43622134 281.11079407 293.63937378 C281.48687805 294.83046753 281.48687805 294.83046753 281.87055969 296.04562378 C282.1264386 296.8525769 282.3823175 297.65953003 282.64595032 298.49093628 C282.89796204 299.29015503 283.14997375 300.08937378 283.40962219 300.91281128 C284.8880381 305.58626923 286.40411712 310.24526732 287.96284485 314.89254761 C288.45762333 316.36797251 288.94951439 317.84436903 289.43843079 319.32174683 C291.31967418 325.00485186 293.28328833 330.65676643 295.27095032 336.30343628 C296.16165545 338.83561075 297.05131643 341.36809826 297.9355011 343.90255737 C298.59260424 345.78420521 299.25715543 347.66324942 299.92329407 349.54171753 C300.70845032 352.11593628 300.70845032 352.11593628 300.70845032 355.11593628 C301.36845032 355.44593628 302.02845032 355.77593628 302.70845032 356.11593628 C303.45454407 358.08468628 303.45454407 358.08468628 304.14595032 360.61593628 C305.07932799 363.91542635 306.0381247 367.18322972 307.14595032 370.42843628 C308.79084047 375.28519088 310.26700063 380.19015179 311.74360657 385.10031128 C312.61881574 387.83578287 313.63589962 390.45378853 314.70845032 393.11593628 C315.27138106 394.83829777 315.81349272 396.56761825 316.33345032 398.30343628 C316.59384094 399.16324097 316.85423157 400.02304565 317.12251282 400.90890503 C317.70845032 403.11593628 317.70845032 403.11593628 317.70845032 405.11593628 C318.36845032 405.44593628 319.02845032 405.77593628 319.70845032 406.11593628 C320.23579407 407.93624878 320.23579407 407.93624878 320.64595032 410.24093628 C321.50477324 414.50150314 322.95890101 418.12696387 324.70845032 422.11593628 C325.50580143 424.59061666 326.23424579 427.07987692 326.95845032 429.57687378 C327.65766542 431.94400824 328.41562515 434.27875375 329.20845032 436.61593628 C329.449505 437.3507019 329.69055969 438.08546753 329.93891907 438.84249878 C330.47007298 440.41169462 331.03767272 441.96885846 331.63423157 443.51437378 C333.75845094 449.44721555 333.70655144 453.63908609 332.25141907 459.76828003 C331.59578379 462.20147258 331.59578379 462.20147258 331.70845032 465.11593628 C330.72906241 466.13613201 329.72949583 467.13743433 328.70845032 468.11593628 C328.70845032 468.77593628 328.70845032 469.43593628 328.70845032 470.11593628 C327.38845032 470.77593628 326.06845032 471.43593628 324.70845032 472.11593628 C324.70845032 472.77593628 324.70845032 473.43593628 324.70845032 474.11593628 C323.25438782 474.54906128 323.25438782 474.54906128 321.77095032 474.99093628 C318.60180828 475.7580831 318.60180828 475.7580831 317.70845032 478.11593628 C309.47819032 480.06163213 300.39875073 479.25763738 291.98091125 479.24533081 C290.4128363 479.24668818 288.84476166 479.24846999 287.27668762 479.25064087 C283.04559887 479.25517377 278.81453469 479.25344318 274.58344555 479.25026178 C270.14466476 479.24771848 265.70588598 479.25008103 261.2671051 479.25164795 C253.81948979 479.25346314 246.37188443 479.25107961 238.92427063 479.24630737 C230.32068136 479.240858 221.71711576 479.24263492 213.11352706 479.24813378 C205.71286623 479.25267389 198.31221253 479.25331129 190.91155076 479.25069511 C186.49720512 479.24913832 182.08287061 479.24892236 177.6685257 479.2522316 C173.52180371 479.25512363 169.37511225 479.25311012 165.22839355 479.24733734 C163.70865174 479.24601724 162.18890735 479.24639112 160.66916656 479.24860001 C158.59171154 479.25134081 156.51435377 479.24789475 154.43690491 479.24291992 C153.27552883 479.2425429 152.11415276 479.24216587 150.91758347 479.24177742 C147.7657202 479.11818203 144.81180585 478.6544283 141.70845032 478.11593628 C139.64455407 478.2404589 137.58189205 478.38702483 135.52095032 478.55343628 C127.80501613 478.66859948 123.17306804 475.30940885 117.70845032 470.11593628 C117.37845032 469.45593628 117.04845032 468.79593628 116.70845032 468.11593628 C115.71845032 467.78593628 114.72845032 467.45593628 113.70845032 467.11593628 C112.02485657 465.37374878 112.02485657 465.37374878 110.27095032 463.24093628 C108.43066417 461.00953786 106.82242402 459.19966388 104.48579407 457.48312378 C103.89927063 457.0319519 103.31274719 456.58078003 102.70845032 456.11593628 C102.70845032 455.45593628 102.70845032 454.79593628 102.70845032 454.11593628 C101.92470032 454.03343628 101.14095032 453.95093628 100.33345032 453.86593628 C99.46720032 453.61843628 98.60095032 453.37093628 97.70845032 453.11593628 C97.25985657 452.21488159 97.25985657 452.21488159 96.80220032 451.29562378 C95.4729473 448.64661242 93.87261493 447.35344656 91.58345032 445.49093628 C90.25563571 444.40883825 88.95391207 443.29188389 87.70845032 442.11593628 C87.70845032 441.45593628 87.70845032 440.79593628 87.70845032 440.11593628 C86.92470032 440.03343628 86.14095032 439.95093628 85.33345032 439.86593628 C84.46720032 439.61843628 83.60095032 439.37093628 82.70845032 439.11593628 C82.03586437 437.78557905 81.3704672 436.45158439 80.70845032 435.11593628 C79.2818702 433.50528131 77.7973589 431.94481919 76.27095032 430.42843628 C75.48848938 429.64081909 74.70602844 428.8532019 73.89985657 428.04171753 C71.77382421 425.92178285 71.77382421 425.92178285 68.70845032 425.11593628 C67.06001282 423.44406128 67.06001282 423.44406128 65.33345032 421.36593628 C60.3797522 415.07651328 60.3797522 415.07651328 53.70845032 411.11593628 C52.09516907 409.44406128 52.09516907 409.44406128 50.39595032 407.36593628 C46.71837843 403.03027258 42.83727253 399.69890664 38.27095032 396.30343628 C35.96109237 394.33160632 34.16115595 392.36462999 32.20845032 390.05343628 C29.60863273 387.00147651 27.28327821 385.002651 23.70845032 383.11593628 C21.89595032 381.55343628 21.89595032 381.55343628 20.70845032 380.11593628 C20.70845032 379.45593628 20.70845032 378.79593628 20.70845032 378.11593628 C20.04845032 378.11593628 19.38845032 378.11593628 18.70845032 378.11593628 C17.17450271 382.37047021 15.80838101 386.36645611 15.20845032 390.86593628 C14.67436972 394.33746017 13.59719811 396.20411676 11.70845032 399.11593628 C11.10783799 401.01772413 11.10783799 401.01772413 10.70845032 403.11593628 C10.04178365 405.44926961 9.37511698 407.78260295 8.70845032 410.11593628 C8.36709105 411.44723742 8.02919076 412.77951776 7.70845032 414.11593628 C7.04845032 414.11593628 6.38845032 414.11593628 5.70845032 414.11593628 C5.59888 414.80558472 5.48930969 415.49523315 5.37641907 416.20578003 C3.69805775 426.15314102 0.44254992 434.94765232 -3.30326843 444.29562378 C-4.45689955 447.08972848 -4.45689955 447.08972848 -4.29154968 450.11593628 C-4.95154968 450.11593628 -5.61154968 450.11593628 -6.29154968 450.11593628 C-6.22967468 450.94093628 -6.16779968 451.76593628 -6.10404968 452.61593628 C-6.33879631 456.99787324 -7.61773623 460.07088709 -9.29154968 464.11593628 C-9.95154968 464.11593628 -10.61154968 464.11593628 -11.29154968 464.11593628 C-11.44623718 465.26062378 -11.44623718 465.26062378 -11.60404968 466.42843628 C-12.69156929 470.6796493 -15.563796 472.52451442 -19.20220947 474.76123047 C-24.9559825 477.84906694 -30.3030393 477.83129213 -36.72099304 477.79122925 C-37.93519424 477.80331924 -39.14939545 477.81540924 -40.40039062 477.8278656 C-43.70665903 477.85581182 -47.01155655 477.86193829 -50.31784511 477.85776663 C-53.79393179 477.85836826 -57.26980504 477.88640862 -60.74578857 477.91113281 C-66.58194526 477.94882977 -72.41792512 477.96845467 -78.25419617 477.97531128 C-86.45755423 477.98500388 -94.6604662 478.02925159 -102.86366069 478.07953811 C-108.57591838 478.11319983 -114.28821901 478.13828349 -120.00052571 478.16195154 C-121.37732786 478.16772419 -122.75412892 478.17375919 -124.13092875 478.18005896 C-128.66486087 478.20055265 -133.19873197 478.2111337 -137.73271179 478.2170105 C-138.86081268 478.22210129 -139.98891357 478.22719208 -141.15119934 478.23243713 C-158.43577386 478.22940177 -158.43577386 478.22940177 -163.10404968 475.42843628 C-172.29154968 465.71593628 -172.29154968 465.71593628 -172.29154968 459.11593628 C-172.95154968 458.78593628 -173.61154968 458.45593628 -174.29154968 458.11593628 C-174.79218611 451.57984953 -174.09658715 446.79814946 -171.43608093 440.81906128 C-169.70026614 436.71945775 -168.5068212 432.47645913 -167.22514343 428.21749878 C-165.45481138 422.3361446 -163.51488014 416.60497609 -161.16654968 410.92843628 C-159.69555451 407.32955115 -158.70147886 404.01026347 -158.29154968 400.11593628 C-157.63154968 400.11593628 -156.97154968 400.11593628 -156.29154968 400.11593628 C-156.18197937 399.33089722 -156.07240906 398.54585815 -155.95951843 397.73703003 C-155.0462242 391.68552759 -153.88454803 386.64015016 -151.29154968 381.11593628 C-150.60014447 378.33705015 -150.60014447 378.33705015 -150.29154968 376.11593628 C-149.63154968 376.11593628 -148.97154968 376.11593628 -148.29154968 376.11593628 C-148.29154968 374.13593628 -148.29154968 372.15593628 -148.29154968 370.11593628 C-147.63154968 370.11593628 -146.97154968 370.11593628 -146.29154968 370.11593628 C-146.29154968 368.13593628 -146.29154968 366.15593628 -146.29154968 364.11593628 C-145.63154968 364.11593628 -144.97154968 364.11593628 -144.29154968 364.11593628 C-144.174245 363.28578003 -144.05694031 362.45562378 -143.93608093 361.60031128 C-143.22462785 357.75415282 -142.16298686 354.08599153 -140.97904968 350.36593628 C-140.75829773 349.66291382 -140.53754578 348.95989136 -140.31010437 348.23556519 C-138.78297722 343.44873568 -137.01449238 338.81344465 -135.07279968 334.17843628 C-134.0706139 331.53266582 -133.58713531 328.92399978 -133.29154968 326.11593628 C-132.63154968 326.11593628 -131.97154968 326.11593628 -131.29154968 326.11593628 C-131.29154968 324.13593628 -131.29154968 322.15593628 -131.29154968 320.11593628 C-130.63154968 320.11593628 -129.97154968 320.11593628 -129.29154968 320.11593628 C-129.07498718 318.81656128 -129.07498718 318.81656128 -128.85404968 317.49093628 C-128.33321635 314.36593628 -127.81238302 311.24093628 -127.29154968 308.11593628 C-126.63154968 308.11593628 -125.97154968 308.11593628 -125.29154968 308.11593628 C-125.13686218 306.41437378 -125.13686218 306.41437378 -124.97904968 304.67843628 C-124.39308408 299.99071144 -123.26165818 295.42378118 -121.29154968 291.11593628 C-120.63154968 290.78593628 -119.97154968 290.45593628 -119.29154968 290.11593628 C-119.29154968 288.13593628 -119.29154968 286.15593628 -119.29154968 284.11593628 C-118.63154968 284.11593628 -117.97154968 284.11593628 -117.29154968 284.11593628 C-117.13686218 282.41437378 -117.13686218 282.41437378 -116.97904968 280.67843628 C-116.39308408 275.99071144 -115.26165818 271.42378118 -113.29154968 267.11593628 C-112.63154968 266.78593628 -111.97154968 266.45593628 -111.29154968 266.11593628 C-111.18842468 265.02281128 -111.08529968 263.92968628 -110.97904968 262.80343628 C-110.48547719 257.79591894 -108.55248551 253.63434667 -106.55326843 249.05734253 C-105.20181943 245.90675088 -104.08934588 242.74652091 -103.04936218 239.48312378 C-102.46183564 237.64786046 -101.84703177 235.82131841 -101.22123718 233.99874878 C-100.85256531 232.92367065 -100.48389343 231.84859253 -100.10404968 230.74093628 C-99.58778015 229.24433472 -99.58778015 229.24433472 -99.06108093 227.71749878 C-98.14972614 225.08863663 -98.14972614 225.08863663 -98.29154968 222.11593628 C-97.63154968 222.11593628 -96.97154968 222.11593628 -96.29154968 222.11593628 C-96.14717468 220.87843628 -96.00279968 219.64093628 -95.85404968 218.36593628 C-95.50466467 215.55089129 -95.08775602 212.84578658 -94.29154968 210.11593628 C-93.63154968 210.11593628 -92.97154968 210.11593628 -92.29154968 210.11593628 C-92.29154968 208.13593628 -92.29154968 206.15593628 -92.29154968 204.11593628 C-91.63154968 204.11593628 -90.97154968 204.11593628 -90.29154968 204.11593628 C-90.1639325 203.23816528 -90.03631531 202.36039429 -89.90483093 201.45602417 C-89.33645109 198.36048091 -88.54128332 195.6303221 -87.47904968 192.67453003 C-87.12584656 191.67872925 -86.77264343 190.68292847 -86.40873718 189.6569519 C-86.04006531 188.63279175 -85.67139343 187.60863159 -85.29154968 186.55343628 C-84.55929502 184.51157231 -83.83001902 182.46863713 -83.10404968 180.42453003 C-82.780495 179.52532837 -82.45694031 178.62612671 -82.12358093 177.69967651 C-81.3127763 175.18185215 -80.78091657 172.71248193 -80.29154968 170.11593628 C-79.74071534 168.47963426 -79.15493135 166.85483395 -78.54154968 165.24093628 C-76.79578012 160.53634403 -75.13887078 155.80997972 -73.54154968 151.05343628 C-73.20752136 150.07044556 -73.20752136 150.07044556 -72.866745 149.06759644 C-71.68466447 145.66600473 -71.68466447 145.66600473 -71.29154968 142.11593628 C-70.63154968 142.11593628 -69.97154968 142.11593628 -69.29154968 142.11593628 C-69.18842468 140.98156128 -69.08529968 139.84718628 -68.97904968 138.67843628 C-68.48376802 134.6737303 -67.40087721 131.09741988 -66.05717468 127.30343628 C-64.99730105 124.27522591 -64.14665398 121.20746719 -63.29154968 118.11593628 C-62.63154968 118.11593628 -61.97154968 118.11593628 -61.29154968 118.11593628 C-61.18584656 116.95835815 -61.08014343 115.80078003 -60.97123718 114.60812378 C-60.4157126 110.17757158 -59.08499403 106.36101356 -57.41654968 102.24093628 C-55.36962341 97.00559854 -53.5359607 91.80944576 -52.00248718 86.39718628 C-51.23646972 83.93919619 -50.29011678 81.61347165 -49.29154968 79.24093628 C-46.99167382 73.68585151 -45.61888163 67.9682635 -44.29154968 62.11593628 C-43.63154968 62.11593628 -42.97154968 62.11593628 -42.29154968 62.11593628 C-42.17037781 61.47527222 -42.04920593 60.83460815 -41.92436218 60.17453003 C-40.93558764 55.07093222 -39.82220016 50.09055035 -38.29154968 45.11593628 C-37.96154968 44.00218628 -37.63154968 42.88843628 -37.29154968 41.74093628 C-36.29154968 39.11593628 -36.29154968 39.11593628 -34.29154968 38.11593628 C-33.99772906 36.12448542 -33.71166967 34.13056722 -33.51029968 32.12765503 C-33.28521406 30.05767115 -32.8744667 28.11450891 -32.29154968 26.11593628 C-31.63154968 26.11593628 -30.97154968 26.11593628 -30.29154968 26.11593628 C-30.29154968 24.13593628 -30.29154968 22.15593628 -30.29154968 20.11593628 C-29.63154968 20.11593628 -28.97154968 20.11593628 -28.29154968 20.11593628 C-28.22967468 19.27031128 -28.16779968 18.42468628 -28.10404968 17.55343628 C-26.81198761 12.08701981 -23.44049712 7.85627526 -19.29154968 4.11593628 C-12.64439109 0.91545251 -7.33073068 -0.01020072 0 0 Z M78.70845032 198.11593628 C78.59501282 198.81589722 78.48157532 199.51585815 78.36470032 200.23703003 C77.63864685 203.42215745 76.51064529 206.18414493 75.20845032 209.17843628 C73.77484904 212.48322062 72.49114791 215.60091255 71.70845032 219.11593628 C70.4177807 223.75768184 69.08353089 228.26075258 67.14595032 232.67843628 C65.97691579 235.47395362 65.29910584 237.7495659 64.70845032 240.67843628 C63.91706754 244.55686595 62.5435897 247.59246866 60.70845032 251.11593628 C59.00625371 255.53996212 57.6955955 259.96837761 56.77095032 264.61593628 C56.13296601 267.65025191 55.28490451 270.2531441 53.95845032 273.05343628 C51.41240105 278.44225484 49.65240376 284.0738449 47.81489563 289.73287964 C45.85309712 295.76664103 45.85309712 295.76664103 44.65376282 298.66281128 C43.35207917 302.04073413 42.58644077 305.60397445 41.70845032 309.11593628 C66.45845032 309.11593628 91.20845032 309.11593628 116.70845032 309.11593628 C116.70845032 306.12515041 116.21320875 304.13869738 115.33345032 301.30343628 C115.05630188 300.41011597 114.77915344 299.51679565 114.49360657 298.59640503 C114.234505 297.77785034 113.97540344 296.95929565 113.70845032 296.11593628 C113.39907532 295.12593628 113.08970032 294.13593628 112.77095032 293.11593628 C111.84754009 290.50866035 110.8294439 287.98245299 109.77095032 285.42843628 C108.3826685 282.00095663 107.25312091 278.63416558 106.33345032 275.05343628 C104.85855227 269.34833613 102.89920472 263.86419051 100.90693665 258.32492065 C99.23572721 253.66205292 97.72279829 248.9854211 96.34907532 244.22531128 C95.73688253 242.20955453 95.03349687 240.26658805 94.27095032 238.30343628 C92.90913783 234.78839147 91.80034646 231.2237604 90.70845032 227.61593628 C89.4575201 223.4902268 88.13207207 219.45114879 86.56782532 215.43624878 C84.45146974 209.72208873 82.61480982 203.90282994 80.70845032 198.11593628 C80.04845032 198.11593628 79.38845032 198.11593628 78.70845032 198.11593628 Z " fill="#0A58A2" transform="translate(176.2915496826172,16.884063720703125)"/>
<path d="M0 0 C21.86209063 -0.11692499 43.72412952 -0.20503311 65.58646965 -0.25906086 C75.73809146 -0.28481634 85.88951871 -0.31991607 96.04101562 -0.37719727 C104.89152699 -0.42711356 113.74189741 -0.45931031 122.59254563 -0.47044247 C127.27673745 -0.47694731 131.96052615 -0.49217996 136.64458847 -0.52865028 C141.0589013 -0.56273991 145.47264727 -0.57302696 149.88707924 -0.56553841 C151.50191777 -0.56690719 153.11677644 -0.5767624 154.73150063 -0.59602737 C163.70362428 -0.69776724 171.41062506 -0.45659598 179 5 C183 9.0952381 183 9.0952381 183 12 C183.99 12.495 183.99 12.495 185 13 C185.99522278 15.54467484 186.87871397 18.05897342 187.71484375 20.65625 C188.09945518 21.82069641 188.09945518 21.82069641 188.49183655 23.00866699 C189.31410783 25.50352471 190.12594136 28.00163943 190.9375 30.5 C191.48042977 32.15387251 192.02404165 33.80752127 192.56835938 35.4609375 C193.57969861 38.53573734 194.58682742 41.61184941 195.58959961 44.68945312 C197.62614752 50.92936427 199.70486056 57.15491492 201.82421875 63.3671875 C202.44534745 65.20311318 203.06644091 67.03905078 203.6875 68.875 C204.00783203 69.81085938 204.32816406 70.74671875 204.65820312 71.7109375 C204.96048828 72.608125 205.26277344 73.5053125 205.57421875 74.4296875 C205.98546997 75.63987549 205.98546997 75.63987549 206.4050293 76.87451172 C207 79 207 79 207 82 C207.66 82.33 208.32 82.66 209 83 C209.74609375 84.96875 209.74609375 84.96875 210.4375 87.5 C211.79317283 92.3959156 213.37952939 97.18696659 215 102 C215.86525691 104.59352778 216.72982926 107.18727738 217.59375 109.78125 C218.07157455 111.21485709 218.54943984 112.64845061 219.02734375 114.08203125 C221.97265625 122.91796875 221.97265625 122.91796875 222.69555664 125.08679199 C223.16599918 126.4980388 223.63653814 127.90925347 224.10717773 129.32043457 C225.04242807 132.125 225.9767655 134.92984585 226.90625 137.73632812 C228.54408545 142.67969084 230.25330088 147.59411269 232 152.5 C233.80117635 157.57744453 235.57273439 162.65926312 237.24829102 167.77978516 C238.03407623 170.10064606 238.88249737 172.39154959 239.73828125 174.6875 C242.56212083 182.429248 245.04630246 190.27933866 247.5625 198.125 C248.52139206 201.10701023 249.48126861 204.0887031 250.44140625 207.0703125 C250.78277618 208.13051102 250.78277618 208.13051102 251.13104248 209.21212769 C253.34042154 216.06759026 255.54442765 222.89925632 258.125 229.625 C259.30782091 232.81503215 260.23696961 235.74359228 260.625 239.125 C260.74875 240.07375 260.8725 241.0225 261 242 C261.66 242.33 262.32 242.66 263 243 C263 244.65 263 246.3 263 248 C263.66 248.33 264.32 248.66 265 249 C265.74609375 250.96875 265.74609375 250.96875 266.4375 253.5 C268.24670809 259.88223156 270.25681528 266.13878906 272.6875 272.3125 C274 276 274 276 274 280 C274.66 280.33 275.32 280.66 276 281 C276.51260461 282.62076643 277.0120695 284.24694423 277.44189453 285.89160156 C278.03315345 288.12524636 278.7062443 290.32028506 279.40234375 292.5234375 C279.77842773 293.71453125 279.77842773 293.71453125 280.16210938 294.9296875 C280.41798828 295.73664063 280.67386719 296.54359375 280.9375 297.375 C281.18951172 298.17421875 281.44152344 298.9734375 281.70117188 299.796875 C283.17958778 304.47033295 284.69566681 309.12933104 286.25439453 313.77661133 C286.74917302 315.25203623 287.24106408 316.72843275 287.72998047 318.20581055 C289.61122386 323.88891558 291.57483802 329.54083015 293.5625 335.1875 C294.45320513 337.71967447 295.34286611 340.25216198 296.22705078 342.78662109 C296.88415392 344.66826893 297.54870512 346.54731314 298.21484375 348.42578125 C299 351 299 351 299 354 C299.66 354.33 300.32 354.66 301 355 C301.74609375 356.96875 301.74609375 356.96875 302.4375 359.5 C303.37087767 362.79949007 304.32967438 366.06729344 305.4375 369.3125 C307.08239015 374.1692546 308.55855032 379.07421551 310.03515625 383.984375 C310.91036542 386.71984659 311.9274493 389.33785226 313 392 C313.56293074 393.72236149 314.10504241 395.45168197 314.625 397.1875 C314.88539063 398.04730469 315.14578125 398.90710938 315.4140625 399.79296875 C316 402 316 402 316 404 C316.66 404.33 317.32 404.66 318 405 C318.52734375 406.8203125 318.52734375 406.8203125 318.9375 409.125 C319.79632293 413.38556686 321.2504507 417.01102759 323 421 C323.79735111 423.47468038 324.52579547 425.96394064 325.25 428.4609375 C325.9492151 430.82807196 326.70717483 433.16281747 327.5 435.5 C327.74105469 436.23476563 327.98210937 436.96953125 328.23046875 437.7265625 C328.76162267 439.29575834 329.32922241 440.85292218 329.92578125 442.3984375 C332.05000062 448.33127927 331.99810112 452.52314981 330.54296875 458.65234375 C329.88733347 461.0855363 329.88733347 461.0855363 330 464 C329.0206121 465.02019573 328.02104551 466.02149805 327 467 C327 467.66 327 468.32 327 469 C325.68 469.66 324.36 470.32 323 471 C323 471.66 323 472.32 323 473 C321.5459375 473.433125 321.5459375 473.433125 320.0625 473.875 C316.89335797 474.64214682 316.89335797 474.64214682 316 477 C307.369446 479.11303479 297.57164811 478.13013639 288.72265625 478.09375 C286.94198142 478.08992643 285.16130613 478.08631227 283.38063049 478.08288574 C258.75055285 478.02070429 234.12082875 477.77792839 209.49180949 477.55461884 C202.65433006 477.49269156 195.81683226 477.43291051 188.9793328 477.37324238 C174.9862015 477.25108523 160.9930932 477.1264435 147 477 C148 474 148 474 149.77734375 472.83203125 C150.49019531 472.49558594 151.20304688 472.15914063 151.9375 471.8125 C153.00291016 471.29623047 153.00291016 471.29623047 154.08984375 470.76953125 C156 470 156 470 158 470 C158.268125 469.319375 158.53625 468.63875 158.8125 467.9375 C160 465 160 465 161.625 461.9375 C165.32931289 453.22888889 162.78468313 443.62704767 159.703125 435.15625 C159.35860291 434.16185913 159.01408081 433.16746826 158.65911865 432.14294434 C157.53946322 428.92250435 156.39475044 425.71159473 155.25 422.5 C154.46021438 420.24029014 153.6724753 417.97986402 152.88671875 415.71875 C151.31870544 411.20980404 149.74323131 406.70358355 148.16210938 402.19921875 C145.58968957 394.84992793 143.12090566 387.46848215 140.68362427 380.07348633 C137.02161569 368.96632546 133.28924167 357.8835453 129.51953125 346.8125 C129.13086884 345.67103516 128.74220642 344.52957031 128.34176636 343.35351562 C126.40460425 337.66696385 124.46454074 331.98141531 122.52148438 326.296875 C121.81248854 324.21875391 121.10350364 322.14062909 120.39453125 320.0625 C120.06596634 319.10384033 119.73740143 318.14518066 119.39888 317.1574707 C119.09685165 316.27148193 118.7948233 315.38549316 118.48364258 314.47265625 C118.22005447 313.70187744 117.95646637 312.93109863 117.68489075 312.13696289 C117 310 117 310 116.53227234 307.78295898 C116.35662247 307.19458252 116.1809726 306.60620605 116 306 C115.34 305.67 114.68 305.34 114 305 C113.21875 302.92578125 113.21875 302.92578125 112.5 300.3125 C111.70346561 297.48660414 110.90026813 294.71253754 109.9375 291.9375 C108.87617842 288.61202572 108.20562316 285.28354486 107.5625 281.85546875 C107.376875 281.24316406 107.19125 280.63085938 107 280 C106.34 279.67 105.68 279.34 105 279 C104.359375 277.09375 104.359375 277.09375 103.75 274.5 C102.43698868 269.36183836 100.79645069 264.42068847 99 259.4375 C97.05624183 254.03514378 95.23592173 248.63977535 93.64453125 243.12109375 C93.0120811 241.03975779 92.28340834 239.02882673 91.5 237 C87 225.30952381 87 225.30952381 87 220 C86.34 219.67 85.68 219.34 85 219 C84.32421875 217.05859375 84.32421875 217.05859375 83.6875 214.4375 C82.50571024 209.78347345 81.17274451 205.1921948 79.73046875 200.61328125 C79.51228485 199.91837585 79.29410095 199.22347046 79.06930542 198.50750732 C76.6680361 190.89493851 74.15706875 183.31987476 71.625 175.75 C71.37355225 174.99654297 71.12210449 174.24308594 70.86303711 173.46679688 C66.15044406 159.34802603 61.34923893 145.25985726 56.53448486 131.17565918 C52.0603404 118.08607885 47.64241664 104.97961843 43.2868042 91.85015869 C38.35898159 77.00275326 33.3146339 62.19576355 28.25 47.39453125 C27.94962326 46.51604523 27.64924652 45.6375592 27.33976746 44.73245239 C26.7485883 43.00392479 26.15673217 41.27562855 25.56416321 39.5475769 C24.12147241 35.33015285 22.70202632 31.10701723 21.32495117 26.86767578 C21.05725922 26.04776154 20.78956726 25.22784729 20.51376343 24.38308716 C20.01345957 22.84563379 19.51807283 21.30656746 19.02871704 19.76559448 C16.71503128 12.66667025 13.84555555 7.48801824 7.375 3.625 C6.26125 3.08875 5.1475 2.5525 4 2 C2.66572505 1.3352199 1.33216784 0.66899258 0 0 Z " fill="#31AEE9" transform="translate(178,18)"/>
<path d="M0 0 C1.95925949 2.69693535 2.85565414 5.76690369 3.88026619 8.90327549 C4.12798775 9.63741673 4.3757093 10.37155796 4.63093758 11.1279459 C5.45156217 13.56675694 6.2594658 16.00959068 7.06752205 18.4525919 C7.64380959 20.172724 8.22092719 21.89257822 8.79883003 23.61216831 C10.32675046 28.16544219 11.84414408 32.72215504 13.35914803 37.27974033 C14.86380085 41.80145783 16.37678528 46.32038145 17.88978767 50.83931065 C18.48437696 52.61540654 19.07896113 54.39150415 19.67354012 56.16760349 C20.11206181 57.47741216 20.11206181 57.47741216 20.55944252 58.8136816 C21.44166567 61.45003279 22.32277629 64.08675373 23.20369148 66.72354221 C29.04491197 84.19797371 35.00008505 101.63241414 41.1651783 118.99556065 C41.89214747 121.07744994 42.61874287 123.1594698 43.3448658 125.2416544 C43.72900642 126.29804111 44.11314705 127.35442783 44.5089283 128.44282627 C47.39664903 136.83268633 48.67817024 144.67925345 46.15345955 153.3354044 C42.96187387 159.40191713 40.75989589 163.21121851 34.2198658 165.6791544 C33.2298658 165.6791544 32.2398658 165.6791544 31.2198658 165.6791544 C30.5598658 166.9991544 29.8998658 168.3191544 29.2198658 169.6791544 C28.35748299 169.50513096 27.49510017 169.33110752 26.60658455 169.15181065 C23.24343575 168.68244386 20.40501303 168.84432884 17.0323658 169.1166544 C9.31643161 169.23181759 4.68448352 165.87262696 -0.7801342 160.6791544 C-1.1101342 160.0191544 -1.4401342 159.3591544 -1.7801342 158.6791544 C-2.7701342 158.3491544 -3.7601342 158.0191544 -4.7801342 157.6791544 C-6.46372795 155.9369669 -6.46372795 155.9369669 -8.2176342 153.8041544 C-10.05792035 151.57275598 -11.6661605 149.762882 -14.00279045 148.0463419 C-14.58931389 147.59517002 -15.17583733 147.14399815 -15.7801342 146.6791544 C-15.7801342 146.0191544 -15.7801342 145.3591544 -15.7801342 144.6791544 C-16.5638842 144.5966544 -17.3476342 144.5141544 -18.1551342 144.4291544 C-19.0213842 144.1816544 -19.8876342 143.9341544 -20.7801342 143.6791544 C-21.0791967 143.07845127 -21.3782592 142.47774815 -21.6863842 141.8588419 C-23.01563721 139.20983053 -24.61596959 137.91666467 -26.9051342 136.0541544 C-28.23294881 134.97205637 -29.53467244 133.85510201 -30.7801342 132.6791544 C-30.7801342 132.0191544 -30.7801342 131.3591544 -30.7801342 130.6791544 C-31.5638842 130.5966544 -32.3476342 130.5141544 -33.1551342 130.4291544 C-34.0213842 130.1816544 -34.8876342 129.9341544 -35.7801342 129.6791544 C-36.45272015 128.34879716 -37.11811731 127.0148025 -37.7801342 125.6791544 C-39.20671432 124.06849942 -40.69122562 122.5080373 -42.2176342 120.9916544 C-43.00009514 120.20403721 -43.78255608 119.41642002 -44.58872795 118.60493565 C-46.71476031 116.48500097 -46.71476031 116.48500097 -49.7801342 115.6791544 C-51.4285717 114.0072794 -51.4285717 114.0072794 -53.1551342 111.9291544 C-58.10883232 105.6397314 -58.10883232 105.6397314 -64.7801342 101.6791544 C-66.39341545 100.0072794 -66.39341545 100.0072794 -68.0926342 97.9291544 C-71.77020609 93.5934907 -75.65131199 90.26212476 -80.2176342 86.8666544 C-82.52749215 84.89482444 -84.32742857 82.9278481 -86.2801342 80.6166544 C-88.87995179 77.56469462 -91.2053063 75.56586912 -94.7801342 73.6791544 C-96.73232413 72.02730138 -97.76722709 70.70360997 -98.9676342 68.4291544 C-101.13151073 65.14603138 -103.68054419 63.02041459 -106.6707592 60.4994669 C-108.63950904 58.8005087 -110.46314796 57.03781463 -112.2801342 55.1791544 C-114.67066587 52.74525708 -117.13059683 50.46559881 -119.7176342 48.2416544 C-123.24648183 45.20235788 -126.51018447 41.96898592 -129.77622795 38.65181065 C-132.35870826 36.10960293 -135.08677705 33.7658023 -137.8348217 31.4057169 C-140.40038116 29.12865408 -142.7814644 26.69349017 -145.1785717 24.2416544 C-146.91083246 22.49340955 -146.91083246 22.49340955 -149.5926342 20.4916544 C-153.29312422 17.42553409 -153.69735903 15.54829367 -154.1551342 10.7416544 C-154.07281144 7.58398842 -153.75158764 6.63225647 -152.0301342 3.8041544 C-148.10469779 0.09679779 -145.21803765 -0.57153001 -139.85250664 -0.61950588 C-138.63970528 -0.63500484 -137.42690392 -0.65050381 -136.177351 -0.66647243 C-134.83653177 -0.6736215 -133.49571139 -0.68055709 -132.15489006 -0.68730068 C-130.74045815 -0.70151304 -129.3260343 -0.71654825 -127.91161919 -0.73234463 C-124.07297448 -0.77247259 -120.23433714 -0.79995812 -116.39556384 -0.82435727 C-113.19202303 -0.84573513 -109.98854223 -0.87295035 -106.78504568 -0.90006655 C-99.22999087 -0.96379652 -91.67491101 -1.01697267 -84.11973381 -1.06376553 C-76.32038234 -1.11226841 -68.52133891 -1.17914011 -60.72220892 -1.25493032 C-54.0283579 -1.31930031 -47.33448368 -1.37202201 -40.64046389 -1.4154188 C-36.6413032 -1.44148199 -32.64230514 -1.47207382 -28.64327621 -1.51397038 C-24.88487854 -1.55286211 -21.12666491 -1.57724459 -17.36809158 -1.59035397 C-15.98734879 -1.59761979 -14.60662229 -1.61006157 -13.22597694 -1.62800312 C-11.3443675 -1.65164318 -9.4625348 -1.65492651 -7.58077812 -1.65710354 C-6.52683326 -1.66464562 -5.47288839 -1.67218771 -4.38700581 -1.67995834 C-1.7801342 -1.3208456 -1.7801342 -1.3208456 0 0 Z " fill="#0074CD" transform="translate(294.7801342010498,326.32084560394287)"/>
<path d="M0 0 C2.23437395 3.50051919 2.00432202 5.57298343 1.125 9.5625 C0.49439737 12.50398189 0 14.98438411 0 18 C-0.9793879 19.02019573 -1.97895449 20.02149805 -3 21 C-3 21.66 -3 22.32 -3 23 C-4.98 23.99 -4.98 23.99 -7 25 C-7 25.66 -7 26.32 -7 27 C-7.969375 27.28875 -8.93875 27.5775 -9.9375 27.875 C-13.10664203 28.64214682 -13.10664203 28.64214682 -14 31 C-23.60564703 32.54272513 -33.42327597 32.11148927 -43.125 32.0625 C-44.86197788 32.05747515 -46.59895716 32.05291398 -48.3359375 32.04882812 C-52.55732688 32.03790014 -56.77864764 32.02068978 -61 32 C-61.33 31.01 -61.66 30.02 -62 29 C-59.625 27.9375 -59.625 27.9375 -57 27 C-56.34 27.33 -55.68 27.66 -55 28 C-55 27.34 -55 26.68 -55 26 C-53.741875 25.731875 -52.48375 25.46375 -51.1875 25.1875 C-47.92849028 24.38855405 -46.16819928 23.65002135 -44 21 C-43.34 21 -42.68 21 -42 21 C-40.57383111 20.57214933 -39.15818534 20.10876435 -37.75 19.625 C-36.94433594 19.35042969 -36.13867188 19.07585937 -35.30859375 18.79296875 C-34.54675781 18.53128906 -33.78492188 18.26960938 -33 18 C-31 17.33333333 -29 16.66666667 -27 16 C-25.96875 15.649375 -24.9375 15.29875 -23.875 14.9375 C-21 14 -21 14 -19 13.625 C-16.72334818 13.0198795 -16.72334818 13.0198795 -14.0625 11 C-11.10468239 9.06836401 -9.4015366 8.53708473 -6 8 C-3.28406082 6.81625102 -3.28406082 6.81625102 -1 5 C-0.63557767 3.33985384 -0.30027117 1.67293936 0 0 Z " fill="#2292DD" transform="translate(508,464)"/>
<path d="M0 0 C3.4069572 2.67833992 4.36415947 6.25628424 5.66040039 10.22412109 C5.90812195 10.95826233 6.15584351 11.69240356 6.41107178 12.4487915 C7.23169637 14.88760254 8.03960001 17.33043628 8.84765625 19.7734375 C9.42394379 21.49356961 10.00106139 23.21342382 10.57896423 24.93301392 C12.10688466 29.48628779 13.62427829 34.04300064 15.13928223 38.60058594 C16.64393505 43.12230343 18.15691706 47.64122787 19.66992188 52.16015625 C20.2645121 53.9362264 20.85909627 55.71229858 21.45367432 57.4883728 C21.74602211 58.36157543 22.0383699 59.23477806 22.33957672 60.13444138 C23.2218516 62.77103289 24.10294522 65.40801679 24.98382568 68.04507446 C29.89228973 82.73079448 34.91600331 97.37409457 40 112 C41.72109013 116.95408425 43.43246238 121.91106504 45.125 126.875 C45.50914062 127.97328125 45.89328125 129.0715625 46.2890625 130.203125 C48.14279525 135.6716366 49.51098323 140.21435112 49 146 C47.20933817 143.31400725 46.33636455 141.36901127 45.34277344 138.35302734 C45.0272049 137.40291275 44.71163635 136.45279816 44.38650513 135.47389221 C44.04755219 134.43836716 43.70859924 133.4028421 43.359375 132.3359375 C43.00068329 131.25283798 42.64199158 130.16973846 42.27243042 129.05381775 C41.4986814 126.71632244 40.72689495 124.37817678 39.95684814 122.03945923 C37.92097184 115.85774885 35.86993013 109.68107129 33.8203125 103.50390625 C33.40909149 102.26342026 32.99787048 101.02293427 32.57418823 99.74485779 C28.98062448 88.91470564 25.32337356 78.10725796 21.625 67.3125 C21.34486053 66.494328 21.06472107 65.67615601 20.77609253 64.83319092 C19.12821099 60.02172294 17.47719501 55.21133679 15.82476807 50.40142822 C14.12627046 45.45601357 12.43066099 40.50960784 10.73474121 35.56330872 C9.19374653 31.0689974 7.65151994 26.57511319 6.10778809 22.08174133 C5.45229223 20.17102723 4.79957365 18.25936103 4.14697266 16.34765625 C3.44195081 14.28991689 2.72970068 12.23461636 2.00537109 10.18359375 C0.74441464 6.566156 0 3.87351624 0 0 Z " fill="#0660A5" transform="translate(293,325)"/>
<path d="M0 0 C4.96249922 1.26947654 7.76325276 3.00166518 11 7 C11 8.32 11 9.64 11 11 C11.58712015 12.83236101 12.23878836 14.64472032 12.9375 16.4375 C14.02968834 19.25213589 14.9658087 21.81102017 15.50390625 24.78515625 C15.66761719 25.51605469 15.83132812 26.24695313 16 27 C16.66 27.33 17.32 27.66 18 28 C18.39611881 29.65286986 18.71979876 31.32358234 19 33 C20.55134657 38.96823777 22.54092141 44.53950448 25.23046875 50.08984375 C26 52 26 52 26 55 C25.34 55 24.68 55 24 55 C23.67 55.99 23.34 56.98 23 58 C20.98496425 54.97744638 20.10041857 52.43880802 19 49 C18.0204722 46.25732217 17.18113419 44.22990109 15.375 41.9375 C13.50915485 39.30835457 14 37.11851573 14 34 C13.34 34 12.68 34 12 34 C11.72736328 33.00419922 11.72736328 33.00419922 11.44921875 31.98828125 C10.08400357 27.19252535 8.64125363 23.24897323 6 19 C4.97053488 15.79721962 4.11552732 12.69316394 3.5625 9.375 C2.88627325 6.5198204 1.54053161 4.4782465 0 2 C0 1.34 0 0.68 0 0 Z " fill="#0C3E77" transform="translate(180,19)"/>
<path d="M0 0 C0.66 0.33 1.32 0.66 2 1 C1.67 2.65 1.34 4.3 1 6 C1.99 6.33 2.98 6.66 4 7 C4 8.32 4 9.64 4 11 C4.66 11.33 5.32 11.66 6 12 C7.0194119 12.98020375 8.02246356 13.97803008 9 15 C8.67 15.66 8.34 16.32 8 17 C8.66 17.33 9.32 17.66 10 18 C10 19.65 10 21.3 10 23 C10.66 23.33 11.32 23.66 12 24 C13.625 25.375 13.625 25.375 15 27 C15 27.99 15 28.98 15 30 C15.74172877 32.15017528 15.74172877 32.15017528 17 34 C18.485 34.495 18.485 34.495 20 35 C19.01 35.495 19.01 35.495 18 36 C18.28875 36.62648437 18.5775 37.25296875 18.875 37.8984375 C19.24625 38.71570312 19.6175 39.53296875 20 40.375 C20.37125 41.18710938 20.7425 41.99921875 21.125 42.8359375 C22 45 22 45 22 47 C23.485 47.495 23.485 47.495 25 48 C24.01 49.32 23.02 50.64 22 52 C21.34 51.01 20.68 50.02 20 49 C19.34 48.34 18.68 47.68 18 47 C17.71125 45.9275 17.4225 44.855 17.125 43.75 C15.94895999 39.82986664 14.30392664 37.35116603 12 34 C10.52367167 30.76343404 9.19429645 27.51431413 7.9375 24.1875 C7.094782 21.84718821 7.094782 21.84718821 5 20 C1.37080773 14.26353479 -2 7.92529329 -2 1 C-1.34 0.67 -0.68 0.34 0 0 Z M19 44 C20 46 20 46 20 46 Z " fill="#0E4888" transform="translate(160,25)"/>
<path d="M0 0 C0.66 0 1.32 0 2 0 C2.33 1.65 2.66 3.3 3 5 C2.34 5 1.68 5 1 5 C0.67 5.66 0.34 6.32 0 7 C-0.66 7.66 -1.32 8.32 -2 9 C-1.67 9.66 -1.34 10.32 -1 11 C0.32 11.33 1.64 11.66 3 12 C-4.59 12 -12.18 12 -20 12 C-20.33 11.01 -20.66 10.02 -21 9 C-18.625 7.9375 -18.625 7.9375 -16 7 C-15.34 7.33 -14.68 7.66 -14 8 C-14 7.34 -14 6.68 -14 6 C-12.1128125 5.5978125 -12.1128125 5.5978125 -10.1875 5.1875 C-6.92849028 4.38855405 -5.16819928 3.65002135 -3 1 C-2.34 1 -1.68 1 -1 1 C-0.67 0.67 -0.34 0.34 0 0 Z " fill="#1F87D7" transform="translate(467,484)"/>
<path d="M0 0 C1.99097846 2.98646769 2.94124926 5.59687262 4 9 C2.41693353 9.16918268 0.83353281 9.33523936 -0.75 9.5 C-1.63171875 9.5928125 -2.5134375 9.685625 -3.421875 9.78125 C-6 10 -6 10 -10 10 C-9.67 9.01 -9.34 8.02 -9 7 C-8.01 6.67 -7.02 6.34 -6 6 C-5.34 5.34 -4.68 4.68 -4 4 C-2 2 -2 2 0 0 Z M2 1 C3.32 1.33 4.64 1.66 6 2 C5.01 2.495 5.01 2.495 4 3 C3.67 3.66 3.34 4.32 3 5 C2.67 3.68 2.34 2.36 2 1 Z " fill="#1A73C9" transform="translate(490,486)"/>
<path d="M0 0 C1.75763672 0.45246094 1.75763672 0.45246094 3.55078125 0.9140625 C4.73027344 1.21054687 5.90976562 1.50703125 7.125 1.8125 C8.02863281 2.05226563 8.93226563 2.29203125 9.86328125 2.5390625 C9.86328125 3.1990625 9.86328125 3.8590625 9.86328125 4.5390625 C4.91328125 4.5390625 -0.03671875 4.5390625 -5.13671875 4.5390625 C-5.46671875 3.5490625 -5.79671875 2.5590625 -6.13671875 1.5390625 C-3.13671875 -0.4609375 -3.13671875 -0.4609375 0 0 Z " fill="#1E75CB" transform="translate(452.13671875,491.4609375)"/>
<path d="M0 0 C2.23437395 3.50051919 2.00432202 5.57298343 1.125 9.5625 C0.49439737 12.50398189 0 14.98438411 0 18 C-0.66 18 -1.32 18 -2 18 C-2.18421053 8.60526316 -2.18421053 8.60526316 -1 4 C-0.814375 3.236875 -0.62875 2.47375 -0.4375 1.6875 C-0.293125 1.130625 -0.14875 0.57375 0 0 Z " fill="#1D7ACD" transform="translate(508,464)"/>
<path d="M0 0 C0 3 0 3 0 3 Z M-2 3 C-1.34 3 -0.68 3 0 3 C-0.33 3.66 -0.66 4.32 -1 5 C-1.33 4.34 -1.66 3.68 -2 3 Z M-5 4 C-4.01 4.99 -3.02 5.98 -2 7 C-2.33 7.66 -2.66 8.32 -3 9 C-5.32156597 9.40729228 -7.6568787 9.74438677 -10 10 C-9.67 9.01 -9.34 8.02 -9 7 C-8.01 6.67 -7.02 6.34 -6 6 C-5.67 5.34 -5.34 4.68 -5 4 Z " fill="#1E80D1" transform="translate(490,486)"/>
<path d="M0 0 C0.66 0.99 1.32 1.98 2 3 C0.3125 4.625 0.3125 4.625 -2 6 C-4.75 5.1875 -4.75 5.1875 -7 4 C-7 3.34 -7 2.68 -7 2 C-4.69 1.34 -2.38 0.68 0 0 Z " fill="#2594DE" transform="translate(460,488)"/>
<path d="M0 0 C-0.99 0.66 -1.98 1.32 -3 2 C-3.33 2.99 -3.66 3.98 -4 5 C-6.0625 6.1875 -6.0625 6.1875 -8 7 C-8.33 6.34 -8.66 5.68 -9 5 C-8.10907881 2.40822927 -7.34523285 1.23386742 -5.0625 -0.3125 C-3 -1 -3 -1 0 0 Z " fill="#0C458C" transform="translate(164,20)"/>
<path d="M0 0 C3.3566285 2.23775234 3.57996014 2.93320048 4.6875 6.625 C4.93886719 7.44226563 5.19023437 8.25953125 5.44921875 9.1015625 C5.72185547 10.04128906 5.72185547 10.04128906 6 11 C2.15625 9.3671875 2.15625 9.3671875 0.75 6.0625 C0 3 0 3 0 0 Z " fill="#0C4079" transform="translate(203,77)"/>
<path d="" fill="#000081" transform="translate(0,0)"/>
<path d="" fill="#000081" transform="translate(0,0)"/>
</svg>
