<?xml version="1.0" encoding="UTF-8"?>
<svg version="1.1" xmlns="http://www.w3.org/2000/svg" width="512" height="512">
<path d="M0 0 C28.18529213 -0.87211874 57.87392908 9.69322689 78.65234375 28.7890625 C93.95851154 43.18758692 108.11787741 59.94484149 113.5390625 80.75 C113.73983398 81.51658936 113.94060547 82.28317871 114.14746094 83.07299805 C114.5155122 84.55106277 114.85282685 86.03725245 115.15332031 87.53051758 C115.83800578 90.36750574 116.61562379 92.60617331 118.88305664 94.51782227 C124.05444441 97.42321954 129.01935035 97.70618143 134.83984375 97.7265625 C160.12322953 98.44435057 181.16856085 107.88882811 200.27734375 124.1640625 C200.96570313 124.74800781 201.6540625 125.33195312 202.36328125 125.93359375 C220.65442794 142.89369456 230.08172052 169.2581407 231.25195312 193.70410156 C231.31918327 200.2176681 230.51120909 206.68712827 229.57177734 213.12304688 C229.2887358 215.08509274 229.0573175 217.05437496 228.828125 219.0234375 C228.27734375 222.1640625 228.27734375 222.1640625 226.27734375 225.1640625 C215.93781675 227.39426289 204.2010613 226.31007137 193.66342163 226.30450439 C191.69093443 226.30709232 189.71844775 226.31010666 187.74596179 226.3135078 C182.3539734 226.3215294 176.96199835 226.32336463 171.5700047 226.32410526 C165.74462357 226.32596404 159.91924924 226.33351496 154.09387207 226.34024048 C141.37583875 226.3537848 128.6578086 226.359841 115.93976927 226.36425114 C108.00055214 226.36701735 100.06133622 226.37125511 92.1221199 226.37575531 C70.14041154 226.38793752 48.1587041 226.39827774 26.17699242 226.4016304 C24.75793009 226.40185203 23.33886777 226.40207382 21.91980544 226.40229575 C20.49739781 226.40251639 19.07499017 226.40273687 17.65258253 226.4029572 C14.79915007 226.40339975 11.94571761 226.40384686 9.09228516 226.40429688 C8.38480983 226.40440627 7.67733451 226.40451566 6.94842054 226.40462836 C-16.03060627 226.40826514 -39.00960166 226.42421468 -61.98861642 226.44748724 C-86.29555217 226.47205972 -110.60246993 226.48580181 -134.90941846 226.48699832 C-148.15614763 226.48785043 -161.40283728 226.49370444 -174.64955521 226.51181793 C-185.91726676 226.52717162 -197.18492428 226.53236709 -208.4526443 226.52407983 C-214.20490394 226.52015793 -219.95705459 226.52117791 -225.70930099 226.53513718 C-230.96790531 226.54778264 -236.22631768 226.54676183 -241.48492138 226.53454646 C-243.39372745 226.53257325 -245.30254669 226.53574184 -247.21133418 226.54439083 C-249.79311315 226.55535486 -252.37419905 226.54808836 -254.95595741 226.5359993 C-256.08406447 226.54739209 -256.08406447 226.54739209 -257.23496157 226.55901504 C-262.23382151 226.50799906 -262.23382151 226.50799906 -264.68282163 224.78492045 C-266.13695783 222.51826364 -266.1270035 220.83138109 -266.15625 218.1484375 C-266.167771 217.15183105 -266.17929199 216.15522461 -266.19116211 215.12841797 C-266.18093018 214.06768066 -266.17069824 213.00694336 -266.16015625 211.9140625 C-266.15185791 210.82883301 -266.14355957 209.74360352 -266.13500977 208.62548828 C-265.76397517 190.8765665 -259.67364975 174.4725725 -247.72265625 161.1640625 C-246.63017578 159.93236328 -246.63017578 159.93236328 -245.515625 158.67578125 C-234.09747419 146.51978548 -217.2015408 136.80707575 -200.171875 136.05078125 C-198.02182721 136.04074992 -195.87164483 136.09584064 -193.72265625 136.1640625 C-193.8825 135.49503906 -194.04234375 134.82601562 -194.20703125 134.13671875 C-196.78549544 119.27148204 -194.12935237 104.70972279 -185.72265625 92.1640625 C-177.24313387 80.89109123 -165.56009104 73.21070632 -151.72265625 70.1640625 C-136.72920604 68.89045367 -123.27477294 70.30374484 -110.72265625 79.1640625 C-110.29855469 78.22046875 -109.87445313 77.276875 -109.4375 76.3046875 C-94.76802559 44.03353384 -72.22988353 19.75755805 -38.72265625 7.1640625 C-25.95884182 2.62992352 -13.46061051 0.81111283 0 0 Z " fill="#F38120" transform="translate(273.72265625,142.8359375)"/>
<path d="M0 0 C2.51895546 0.41982591 4.64342178 0.80931671 6.90698242 2.01977539 C9.19906257 3.09322713 10.72299839 3.26561907 13.23828125 3.30859375 C14.45729126 3.34291504 14.45729126 3.34291504 15.70092773 3.37792969 C16.99365601 3.40741699 16.99365601 3.40741699 18.3125 3.4375 C43.70534652 4.40065321 64.76662322 13.61864715 84 30 C84.68835938 30.58394531 85.37671875 31.16789062 86.0859375 31.76953125 C104.37708419 48.72963206 113.80437677 75.0940782 114.97460938 99.54003906 C115.04183952 106.0536056 114.23386534 112.52306577 113.29443359 118.95898438 C113.01139205 120.92103024 112.77997375 122.89031246 112.55078125 124.859375 C112 128 112 128 110 131 C101.13213284 132.7917121 91.49887591 132.11277908 82.48901367 132.02172852 C81.08810249 132.01155414 79.68718773 132.00186405 78.28627014 131.99261475 C74.52677896 131.96644938 70.76737371 131.93361023 67.00794768 131.89946485 C63.06288964 131.86480434 59.11778618 131.83643122 55.17268372 131.80735779 C47.72155771 131.75150843 40.27048859 131.69010036 32.81942397 131.62663645 C24.32838613 131.55458969 15.83730311 131.48882919 7.34621084 131.42356598 C-10.10258517 131.28931392 -27.55130909 131.14726742 -45 131 C-44.5257516 129.40334489 -44.05024847 127.80706243 -43.57421875 126.2109375 C-43.30955811 125.32196777 -43.04489746 124.43299805 -42.7722168 123.51708984 C-42.16514557 121.53830252 -41.4994845 119.57748227 -40.8125 117.625 C-38.81367897 108.70718311 -39.29822105 100.90679782 -44 93 C-47.74830746 87.18366084 -53.12919254 84.25656438 -59.67240906 82.43608093 C-64.96260523 81.44494729 -70.40185753 81.67752996 -75.765625 81.65625 C-77.18990464 81.64320718 -78.61417558 81.62918385 -80.03843689 81.61427307 C-83.13688195 81.58330159 -86.23530604 81.55781403 -89.33383179 81.53640747 C-96.97446441 81.48242274 -104.61473853 81.39338401 -112.25507164 81.30790901 C-115.04966437 81.27683495 -117.84426657 81.24673243 -120.63887024 81.21665955 C-143.72552982 80.96393314 -166.8102126 80.59285387 -189.89465332 80.18798828 C-194.76478341 80.10301394 -199.63495691 80.02334731 -204.50524902 79.94824219 C-210.28950864 79.85898073 -216.07353469 79.76044544 -221.85751534 79.65467644 C-224.01070134 79.61687569 -226.16394886 79.58241985 -228.31724358 79.55142403 C-231.26927694 79.50829715 -234.22084123 79.45311109 -237.17260742 79.39477539 C-238.48140303 79.37986179 -238.48140303 79.37986179 -239.81663895 79.36464691 C-245.77173815 79.22826185 -245.77173815 79.22826185 -248 77 C-247.44444444 72.44444444 -247.44444444 72.44444444 -246 71 C-244.08510899 70.84670223 -242.16438033 70.76681416 -240.24414062 70.7121582 C-238.92498657 70.67446823 -237.60583252 70.63677826 -236.2467041 70.59794617 C-234.71656549 70.56086126 -233.1864133 70.52433347 -231.65625 70.48828125 C-230.85660324 70.46801691 -230.05695648 70.44775257 -229.233078 70.42687416 C-211.90208745 69.99370866 -194.56735478 69.82879843 -177.2322998 69.65438461 C-172.37457295 69.60543766 -167.51687541 69.55391657 -162.65917969 69.50198364 C-160.18283361 69.4756387 -157.70648719 69.44932671 -155.23014069 69.42302155 C-153.56342778 69.40529959 -151.89671533 69.3875336 -150.23000336 69.36972404 C-140.8871282 69.27012514 -131.5442699 69.17744226 -122.20117188 69.10131836 C-114.66347312 69.0398396 -107.12604713 68.96461285 -99.58864355 68.87374955 C-95.63501221 68.82661672 -91.68158644 68.78613035 -87.72773743 68.76274681 C-84.03009709 68.74078834 -80.33308566 68.7005274 -76.63577271 68.64694023 C-74.6613086 68.62290988 -72.68664186 68.61775654 -70.71203613 68.61349487 C-51.11614074 68.27520986 -35.58719037 60.48373331 -21.8125 46.83203125 C-10.6271109 34.13923619 -5.76715405 15.59078703 0 0 Z " fill="#FBAF40" transform="translate(390,237)"/>
<path d="M0 0 C3.95820859 0.56545837 6.6659053 1.80902348 10 4 C9.79842285 4.66008057 9.5968457 5.32016113 9.38916016 6.00024414 C8.46713177 9.02080065 7.54605845 12.04164759 6.625 15.0625 C6.14933594 16.62000977 6.14933594 16.62000977 5.6640625 18.20898438 C5.04668036 20.23476953 4.4319466 22.261364 3.82006836 24.28881836 C3.33388072 25.89617582 2.84210083 27.50188754 2.33813477 29.10375977 C-0.40103106 38.04254229 0.23799302 47.45137437 4 56 C7.85283893 62.18789283 13.97106162 65.56130076 20.90396118 67.54469299 C24.45850428 68.3168201 28.0867475 68.32091062 31.7109375 68.46484375 C33.4479281 68.54336728 35.18490693 68.62215145 36.921875 68.70117188 C39.64928909 68.82070487 42.37675746 68.93757215 45.10449219 69.04956055 C47.74453424 69.15960208 50.38392629 69.28031053 53.0234375 69.40234375 C54.23777969 69.44777565 54.23777969 69.44777565 55.47665405 69.49412537 C59.98505543 69.70950277 63.74976316 70.32245407 68 72 C68.1875 74.375 68.1875 74.375 68 77 C64.94496298 79.03669135 64.12061452 79.27309921 60.64306641 79.43896484 C59.7642984 79.48596527 58.8855304 79.5329657 57.98013306 79.58139038 C57.03020477 79.62414093 56.08027649 79.66689148 55.1015625 79.7109375 C53.07419768 79.82253461 51.04685459 79.93452696 49.01953125 80.046875 C45.83635472 80.21279253 42.6530763 80.37365331 39.46923828 80.52636719 C17.72157845 81.59453005 0.28374801 85.33493543 -16 101 C-23.56216563 109.59574882 -29.11353954 119.68123726 -31 131 C-35.62 131 -40.24 131 -45 131 C-44.54625 129.494375 -44.0925 127.98875 -43.625 126.4375 C-43.35300781 125.51582031 -43.08101562 124.59414063 -42.80078125 123.64453125 C-42.18837133 121.62208483 -41.51386231 119.61834551 -40.8125 117.625 C-38.81367897 108.70718311 -39.29822105 100.90679782 -44 93 C-47.74830746 87.18366084 -53.12919254 84.25656438 -59.67240906 82.43608093 C-64.96260523 81.44494729 -70.40185753 81.67752996 -75.765625 81.65625 C-77.18990464 81.64320718 -78.61417558 81.62918385 -80.03843689 81.61427307 C-83.13688195 81.58330159 -86.23530604 81.55781403 -89.33383179 81.53640747 C-96.97446441 81.48242274 -104.61473853 81.39338401 -112.25507164 81.30790901 C-115.04966437 81.27683495 -117.84426657 81.24673243 -120.63887024 81.21665955 C-143.72552982 80.96393314 -166.8102126 80.59285387 -189.89465332 80.18798828 C-194.76478341 80.10301394 -199.63495691 80.02334731 -204.50524902 79.94824219 C-210.28950864 79.85898073 -216.07353469 79.76044544 -221.85751534 79.65467644 C-224.01070134 79.61687569 -226.16394886 79.58241985 -228.31724358 79.55142403 C-231.26927694 79.50829715 -234.22084123 79.45311109 -237.17260742 79.39477539 C-238.48140303 79.37986179 -238.48140303 79.37986179 -239.81663895 79.36464691 C-245.77173815 79.22826185 -245.77173815 79.22826185 -248 77 C-247.44444444 72.44444444 -247.44444444 72.44444444 -246 71 C-244.08510899 70.84670223 -242.16438033 70.76681416 -240.24414062 70.7121582 C-238.92498657 70.67446823 -237.60583252 70.63677826 -236.2467041 70.59794617 C-234.71656549 70.56086126 -233.1864133 70.52433347 -231.65625 70.48828125 C-230.85660324 70.46801691 -230.05695648 70.44775257 -229.233078 70.42687416 C-211.90208745 69.99370866 -194.56735478 69.82879843 -177.2322998 69.65438461 C-172.37457295 69.60543766 -167.51687541 69.55391657 -162.65917969 69.50198364 C-160.18283361 69.4756387 -157.70648719 69.44932671 -155.23014069 69.42302155 C-153.56342778 69.40529959 -151.89671533 69.3875336 -150.23000336 69.36972404 C-140.8871282 69.27012514 -131.5442699 69.17744226 -122.20117188 69.10131836 C-114.66347312 69.0398396 -107.12604713 68.96461285 -99.58864355 68.87374955 C-95.63501221 68.82661672 -91.68158644 68.78613035 -87.72773743 68.76274681 C-84.03009709 68.74078834 -80.33308566 68.7005274 -76.63577271 68.64694023 C-74.6613086 68.62290988 -72.68664186 68.61775654 -70.71203613 68.61349487 C-51.11614074 68.27520986 -35.58719037 60.48373331 -21.8125 46.83203125 C-10.6271109 34.13923619 -5.76715405 15.59078703 0 0 Z " fill="#FEFDFB" transform="translate(390,237)"/>
</svg>
