<?xml version="1.0" encoding="UTF-8"?>
<svg version="1.1" xmlns="http://www.w3.org/2000/svg" width="512" height="512">
<path d="M0 0 C145.86 0 291.72 0 442 0 C442 6.51352756 441.99089729 12.73297065 441.39371586 19.16714382 C441.29539539 20.29111362 441.29539539 20.29111362 441.19508865 21.43778989 C440.97669073 23.92098782 440.75143162 26.40351207 440.52613831 28.88609314 C440.36557109 30.69523716 440.20542956 32.504419 440.04567474 34.31363493 C439.60731581 39.26394423 439.16291283 44.21369483 438.71748245 49.16337216 C438.23746441 54.50927763 437.76307343 59.85568284 437.28796387 65.20202637 C436.35724046 75.66515691 435.42130685 86.12781511 434.48356313 96.59031855 C433.39197231 108.77125084 432.30535223 120.95262501 431.21888613 133.13401527 C429.28076952 154.86192482 427.33784205 176.58940154 425.39233398 198.31665039 C423.50364221 219.40940001 421.61880007 240.50248917 419.73803711 261.59594727 C417.68999857 284.56539611 415.63998174 307.53466666 413.58637375 330.5036183 C413.36757403 332.9508381 413.14877462 335.39805793 412.92997551 337.84527779 C412.76848613 339.6514405 412.76848613 339.6514405 412.60373433 341.49409134 C411.84421546 349.99019255 411.08605662 358.4864145 410.32837105 366.98267937 C409.40575902 377.32762828 408.48081048 387.6723652 407.55287952 398.01683842 C407.07927172 403.29713925 406.60668803 408.57752643 406.13684654 413.85816383 C405.70715598 418.68717009 405.27454242 423.51590503 404.8395431 428.34443588 C404.68229006 430.09574951 404.52612251 431.84716099 404.37112135 433.59867536 C404.16105098 435.97063893 403.94709575 438.34222043 403.73212528 440.71374416 C403.64221159 441.74491403 403.64221159 441.74491403 403.55048147 442.79691562 C402.92021471 449.65308936 402.92021471 449.65308936 402 452 C399.65519521 453.03942224 397.57543315 453.7568475 395.12109375 454.42163086 C394.40618271 454.62946418 393.69127167 454.8372975 392.95469666 455.05142879 C390.64107942 455.71859254 388.32138401 456.36043832 386 457 C384.51165132 457.42066468 383.02353075 457.84213731 381.53564453 458.26443481 C376.71879434 459.62206865 371.89097848 460.93835361 367.0625 462.25390625 C365.24009882 462.75292898 363.41777945 463.25225054 361.59553528 463.75184631 C356.73560032 465.08358044 351.87478399 466.41206551 347.01367569 467.73950958 C337.82464187 470.2488993 328.6366167 472.7619719 319.44921875 475.27734375 C317.90934075 475.69876144 317.90934075 475.69876144 316.33835411 476.12869263 C302.82693612 479.82809155 289.33105678 483.57800133 275.85303116 487.3972683 C273.30388655 488.11917695 270.75420926 488.83916934 268.20431519 489.5584259 C267.38528151 489.78949508 266.56624783 490.02056425 265.72239494 490.25863552 C264.10384643 490.71525397 262.48528208 491.17181628 260.86670113 491.62831974 C256.2125197 492.94244373 251.56237493 494.26983768 246.91470814 495.60680676 C244.05586439 496.42592003 241.19366537 497.23276981 238.33041954 498.03634453 C236.40395584 498.58121957 234.48187587 499.1415214 232.56001282 499.70240784 C231.40945908 500.02313766 230.25890533 500.34386749 229.07348633 500.67431641 C228.08665359 500.95642975 227.09982086 501.23854309 226.08308411 501.52920532 C219.4344079 502.54447486 213.07810409 500.6446024 206.71655273 498.84887695 C205.92391651 498.63004884 205.13128029 498.41122072 204.31462479 498.18576145 C201.68609589 497.45862469 199.05987932 496.72347553 196.43359375 495.98828125 C194.55163339 495.4659136 192.6695346 494.9440445 190.78730774 494.42263794 C185.72005077 493.01739979 180.65475745 491.60520342 175.58982849 490.1916008 C170.3210455 488.72227698 165.05056944 487.2590516 159.78027344 485.79516602 C151.12907052 483.39135134 142.47896778 480.98361471 133.82958984 478.57324219 C122.59342617 475.44216912 111.35448878 472.32116533 100.11462593 469.20340157 C92.85749917 467.18999453 85.60110087 465.17396378 78.34465408 463.15810776 C75.74744061 462.43678919 73.15008495 461.71598451 70.55270386 460.99526978 C66.50426835 459.87172162 62.4564265 458.74605954 58.40904808 457.61870956 C56.93306381 457.20793619 55.45688285 456.79786883 53.98049355 456.38855362 C51.98222714 455.83442914 49.98467926 455.27778809 47.98730469 454.72045898 C46.87184265 454.41027328 45.75638062 454.10008759 44.6071167 453.78050232 C42 453 42 453 40 452 C38.86855411 448.60566233 38.57446943 445.35898083 38.26787472 441.82117462 C38.2008743 441.08150098 38.13387388 440.34182733 38.06484315 439.57973933 C37.83948571 437.08181827 37.61934784 434.58346421 37.39915466 432.08508301 C37.23773225 430.28364329 37.07599336 428.48223191 36.91396385 426.68084669 C36.46827064 421.71526216 36.02714845 416.74928038 35.58675778 411.78322315 C35.11152269 406.43309001 34.6321221 401.08332994 34.15325928 395.73352051 C33.2151191 385.24486325 32.28096586 374.75585453 31.34827118 364.26671177 C30.59005508 355.74035835 29.83051478 347.21412389 29.07002449 338.68797302 C28.96192089 337.47594722 28.85381729 336.26392142 28.74243783 335.01516756 C28.52283802 332.55310906 28.30323654 330.09105071 28.08363343 327.6289925 C26.0222466 304.5158685 23.96551725 281.40233179 21.91024024 258.2886638 C20.0298991 237.14386721 18.14401382 215.99956948 16.25545358 194.85550553 C14.31713081 173.15379908 12.38239812 151.45177538 10.45161492 129.7493968 C9.36726747 117.56178651 8.28152511 105.37430444 7.19207573 93.18714905 C6.26426234 82.80763268 5.33986807 72.42781868 4.41986495 62.047607 C3.95041638 56.75195462 3.47941588 51.45645261 3.00418282 46.16131592 C2.56888307 41.31064995 2.13809785 36.45960465 1.71085692 31.60822242 C1.55578378 29.85629496 1.39908284 28.10451062 1.24055939 26.35289198 C1.02462481 23.96415409 0.81474641 21.57495449 0.60628414 19.1855545 C0.54400052 18.51260589 0.48171689 17.83965728 0.41754588 17.14631629 C-0.07545052 11.37189864 0 5.86779242 0 0 Z " fill="#1472B7" transform="translate(35,5)"/>
<path d="M0 0 C91.08 0 182.16 0 276 0 C276 12.37453056 276 12.37453056 275.54443359 17.3359375 C275.44344864 18.46277451 275.34246368 19.58961151 275.23841858 20.75059509 C275.07012794 22.54467552 275.07012794 22.54467552 274.8984375 24.375 C274.71897787 26.35503864 274.53951825 28.33507728 274.36005878 30.31511593 C274.16808272 32.42250512 273.97365809 34.52965501 273.7784729 36.63674927 C273.36785637 41.06981034 272.96404507 45.50347553 272.5612793 49.93725586 C272.06801364 55.36267893 271.57319539 60.78795585 271.07636547 66.2130537 C269.76291354 80.55824873 268.47946591 94.90610694 267.1975708 109.25415039 C266.81252679 113.56337093 266.42660055 117.87251219 266.04052734 122.18164062 C264.74367239 136.65871521 263.45286904 151.13626599 262.18286133 165.61572266 C261.33086716 175.30600623 260.4636404 184.99490247 259.59375 194.68359375 C259.46383551 196.13076263 259.33392219 197.57793162 259.20401001 199.02510071 C259.07171643 200.49874879 258.93942273 201.97239686 258.80712891 203.44604492 C258.53806613 206.44319484 258.26902102 209.44034634 258 212.4375 C257.9338726 213.17421055 257.86774521 213.9109211 257.79961395 214.66995621 C255.81569978 236.77567452 253.85376557 258.88291895 252 281 C245.59206982 283.50977265 239.10992182 285.52909747 232.5 287.4375 C231.43555664 287.74679443 230.37111328 288.05608887 229.27441406 288.37475586 C222.21081375 290.40994902 215.12925345 292.24573023 207.984375 293.97265625 C202.40279078 295.36805231 196.92078882 297.1061236 191.42089844 298.78930664 C186.30688386 300.34244091 181.19487567 301.74317524 176 303 C168.07341951 304.91915174 160.29414778 307.24989866 152.49609375 309.6328125 C151.33956299 309.97940918 151.33956299 309.97940918 150.15966797 310.33300781 C148.24907076 310.92307695 146.35876045 311.57797805 144.47265625 312.2421875 C136.81686886 313.91285426 129.72590752 311.52876429 122.4375 309.1875 C116.32147047 307.2844339 110.22808405 305.49853393 104 304 C97.05604262 302.32001031 90.25213416 300.30141076 83.421875 298.2109375 C78.30751155 296.65780259 73.19520222 295.25690376 68 294 C61.04982852 292.31681014 54.23079698 290.31299659 47.39331055 288.22192383 C40.86023398 286.23144159 34.29376221 284.44642497 27.67578125 282.76171875 C25 282 25 282 24 281 C23.76898842 279.23376382 23.60143282 277.45918788 23.45922852 275.68359375 C23.36565567 274.5430957 23.27208282 273.40259766 23.17567444 272.22753906 C23.07774094 270.97682617 22.97980743 269.72611328 22.87890625 268.4375 C22.77408432 267.14424805 22.66926239 265.85099609 22.56126404 264.51855469 C22.28017766 261.04977346 22.0045855 257.58057625 21.73010254 254.11126709 C21.45807671 250.68459356 21.18099471 247.25833012 20.90429688 243.83203125 C20.49017015 238.69552924 20.07872697 233.55882344 19.67016602 228.421875 C18.78363462 217.28096902 17.89124241 206.1405301 17 195 C35.48 195 53.96 195 73 195 C73.495 200.218125 73.99 205.43625 74.5 210.8125 C74.65662109 212.43518799 74.81324219 214.05787598 74.97460938 215.72973633 C75.69699487 223.51305781 76.22905223 231.17298853 76 239 C77.13501953 239.16242188 77.13501953 239.16242188 78.29296875 239.328125 C83.35788316 240.24610738 88.32156876 241.49590869 93.3125 242.75 C94.37686279 243.01659424 95.44122559 243.28318848 96.5378418 243.55786133 C105.43254834 245.80949084 114.21887949 248.34589927 123 251 C125.03850549 251.61474834 127.07984129 252.22026189 129.125 252.8125 C129.91132813 253.04582031 130.69765625 253.27914062 131.5078125 253.51953125 C138.16363342 254.80270676 143.96373755 253.50622901 150.375 251.8125 C151.25349609 251.58691406 152.13199219 251.36132812 153.03710938 251.12890625 C159.24336695 249.51572738 165.39255409 247.73929429 171.53100586 245.88720703 C177.29492771 244.16449914 183.10210576 242.64843561 188.9375 241.1875 C190.24460937 240.85878906 190.24460937 240.85878906 191.578125 240.5234375 C197.7406754 239 197.7406754 239 200 239 C200.04898438 237.91050049 200.09796875 236.82100098 200.1484375 235.69848633 C200.73320951 223.37850356 201.66516834 211.10280886 202.72949219 198.81567383 C203.00355918 195.64634132 203.27160175 192.4765368 203.5390625 189.30664062 C203.71319023 187.27080324 203.88765659 185.23499479 204.0625 183.19921875 C204.18129517 181.79297493 204.18129517 181.79297493 204.30249023 180.35832214 C204.37927002 179.47912613 204.4560498 178.59993011 204.53515625 177.6940918 C204.63389038 176.54761421 204.63389038 176.54761421 204.73461914 175.37797546 C205.04786853 172.57106861 205.53568268 169.78590393 206 167 C163.43 167 120.86 167 77 167 C73 127 73 127 73 112 C118.54 111.67 164.08 111.34 211 111 C211.99 98.13 212.98 85.26 214 72 C214.66 66.39 215.32 60.78 216 55 C146.04 55 76.08 55 4 55 C0 7 0 7 0 0 Z " fill="#FEFEFE" transform="translate(118,94)"/>
<path d="M0 0 C59.4 0 118.8 0 180 0 C180 9.40901609 179.89167699 18.39344837 179.01171875 27.6953125 C178.90880524 28.83908859 178.80589172 29.98286469 178.69985962 31.16130066 C178.36906594 34.8165104 178.02853373 38.4707328 177.6875 42.125 C177.4562036 44.65775784 177.22532998 47.19055431 176.99487305 49.72338867 C175.74591498 63.37100387 174.42538735 77.00787526 172.95385742 90.63330078 C172.02492557 99.3579353 171.37410554 108.09067888 170.76879883 116.84301758 C170.09646554 126.30888978 169.12131631 135.72975543 168.10546875 145.1640625 C167.2464211 153.26861302 166.56169333 161.36972707 166 169.5 C165.26874425 180.08461711 164.24126016 190.6158215 163.10546875 201.1640625 C162.24641997 209.26862369 161.56197742 217.36974315 161 225.5 C160.38241342 234.39915293 159.59066067 243.25703734 158.625 252.125 C157.22878084 265.04580777 156.15549224 277.98297719 155.125 290.9375 C153.470928 311.71878548 151.61345443 332.47674516 149.66259766 353.23217773 C149.55941727 354.33042877 149.45623688 355.42867981 149.34992981 356.56021118 C149.15857956 358.59306239 148.96650111 360.62584527 148.77348328 362.65853882 C148.21278857 368.5945717 147.71590538 374.53135902 147.27946472 380.47795105 C147 383 147 383 146 386 C144.24438477 386.81201172 144.24438477 386.81201172 141.94140625 387.4296875 C141.09022217 387.66486084 140.23903809 387.90003418 139.36206055 388.14233398 C138.43820557 388.38411377 137.51435059 388.62589355 136.5625 388.875 C135.60964111 389.13547119 134.65678223 389.39594238 133.67504883 389.66430664 C131.71543671 390.19919119 129.75439795 390.72887555 127.79199219 391.25341797 C123.91676963 392.28965709 120.05218217 393.36276471 116.1875 394.4375 C115.11858521 394.7320105 115.11858521 394.7320105 114.02807617 395.0324707 C107.62237474 396.80399155 101.24992707 398.68375191 94.875 400.5625 C86.93241946 402.90063479 78.98849122 405.03656777 70.94140625 406.984375 C66.47472393 408.10132821 62.08722673 409.45927588 57.6875 410.8125 C48.49457489 413.63332301 39.22112896 416.06929369 29.90527344 418.44873047 C22.30757405 420.39113858 14.74095152 422.41668284 7.20263672 424.57836914 C2.20183399 426 2.20183399 426 0 426 C0 405.87 0 385.74 0 365 C20.60864136 358.49200799 20.60864136 358.49200799 29.7578125 356.12109375 C35.19411773 354.70275346 40.59366722 353.15275153 46 351.625 C54.39321723 349.25738951 62.80433624 346.98543718 71.25 344.8125 C78.06226086 343.05797362 84.81345289 341.21908837 91.51464844 339.0715332 C95.78397172 337.75897647 100.0809057 336.56518193 104.38671875 335.37890625 C105.21731812 335.14917114 106.04791748 334.91943604 106.90368652 334.68273926 C108.93553361 334.12089445 110.96773126 333.56031771 113 333 C114.02469345 321.85451901 115.045084 310.7086475 116.0625 299.5625 C116.14067963 298.70609547 116.21885925 297.84969093 116.29940796 296.96733475 C118.85530976 268.95667315 121.31684275 240.93893741 123.71599579 212.91445541 C126.12732878 184.75631292 128.6474781 156.60969746 131.28723145 128.47201347 C133.67321957 102.99163134 135.8295958 77.50224932 138 52 C92.46 52 46.92 52 0 52 C0 34.84 0 17.68 0 0 Z " fill="#32A9DC" transform="translate(256,42)"/>
<path d="M0 0 C18.48 0 36.96 0 56 0 C56.495 5.218125 56.99 10.43625 57.5 15.8125 C57.65662109 17.43518799 57.81324219 19.05787598 57.97460938 20.72973633 C58.69699487 28.51305781 59.22905223 36.17298853 59 44 C59.75667969 44.10828125 60.51335937 44.2165625 61.29296875 44.328125 C66.35789154 45.2461089 71.32153984 46.4960017 76.3125 47.75 C77.38048828 48.01731934 78.44847656 48.28463867 79.54882812 48.56005859 C86.94836792 50.43216438 94.27107143 52.47197604 101.5625 54.7265625 C108.32517378 56.66725938 115.17443828 58.29360957 122 60 C122 78.81 122 97.62 122 117 C122.66 117.33 123.32 117.66 124 118 C117.45718487 117.45640275 111.67499285 116.19117766 105.4375 114.1875 C99.32147047 112.2844339 93.22808405 110.49853393 87 109 C80.05604262 107.32001031 73.25213416 105.30141076 66.421875 103.2109375 C61.30751155 101.65780259 56.19520222 100.25690376 51 99 C44.04982852 97.31681014 37.23079698 95.31299659 30.39331055 93.22192383 C23.86023398 91.23144159 17.29376221 89.44642497 10.67578125 87.76171875 C8 87 8 87 7 86 C6.76898842 84.23376382 6.60143282 82.45918788 6.45922852 80.68359375 C6.36565567 79.5430957 6.27208282 78.40259766 6.17567444 77.22753906 C6.07774094 75.97682617 5.97980743 74.72611328 5.87890625 73.4375 C5.77408432 72.14424805 5.66926239 70.85099609 5.56126404 69.51855469 C5.28017766 66.04977346 5.0045855 62.58057625 4.73010254 59.11126709 C4.45807671 55.68459356 4.18099471 52.25833012 3.90429688 48.83203125 C3.49017015 43.69552924 3.07872697 38.55882344 2.67016602 33.421875 C1.78363462 22.28096902 0.89124241 11.1405301 0 0 Z " fill="#E9EAEA" transform="translate(135,289)"/>
<path d="M0 0 C45.54 0 91.08 0 138 0 C138 18.15 138 36.3 138 55 C93.78 55 49.56 55 4 55 C0 7 0 7 0 0 Z " fill="#EAEAEA" transform="translate(118,94)"/>
<path d="M0 0 C22.44 0 44.88 0 68 0 C66.85072802 22.98543969 66.85072802 22.98543969 65.80859375 33.328125 C65.69902847 34.45402039 65.5894632 35.57991577 65.47657776 36.7399292 C65.13461466 40.24373432 64.78621231 43.74686089 64.4375 47.25 C64.20073909 49.66402009 63.96440837 52.07808242 63.72851562 54.4921875 C63.15728676 60.32861965 62.58080891 66.16451381 62 72 C44.13443241 77.33339167 44.13443241 77.33339167 35.0625 79.5 C27.65929724 81.30378182 20.31345455 83.25457264 12.99829102 85.38867188 C12.31178467 85.58525391 11.62527832 85.78183594 10.91796875 85.984375 C10.32781982 86.15678711 9.7376709 86.32919922 9.12963867 86.50683594 C6.12549045 87.20251167 3.05265357 87.56390663 0 88 C0 58.96 0 29.92 0 0 Z " fill="#32A9DD" transform="translate(256,261)"/>
<path d="M0 0 C25.74 0 51.48 0 78 0 C76.83816414 19.75120968 76.83816414 19.75120968 76.28125 27.15625 C76.21844849 27.99546997 76.15564697 28.83468994 76.09094238 29.69934082 C75.9606923 31.42966749 75.82963811 33.15993383 75.69775391 34.89013672 C75.49600269 37.55275459 75.3007787 40.21580904 75.10546875 42.87890625 C74.97696047 44.57555102 74.84806957 46.27216687 74.71875 47.96875 C74.661427 48.76333618 74.604104 49.55792236 74.54504395 50.37658691 C74.11425393 55.88574607 74.11425393 55.88574607 73 57 C71.21572813 57.09636838 69.42760347 57.12187453 67.64073181 57.12025452 C66.47820389 57.12162918 65.31567596 57.12300385 64.11791992 57.12442017 C62.83111328 57.12082489 61.54430664 57.11722961 60.21850586 57.11352539 C58.85876976 57.11324352 57.4990335 57.11340125 56.13929749 57.1139679 C52.43698222 57.11425587 48.73469908 57.10835912 45.03239131 57.10139394 C41.16731219 57.09516043 37.30223242 57.0945566 33.43714905 57.09336853 C26.11315318 57.09025521 18.78917216 57.0820418 11.46518284 57.07201904 C3.12916552 57.06085794 -5.20685249 57.05534746 -13.54287541 57.05032361 C-30.69525888 57.03985919 -47.84762787 57.02225973 -65 57 C-65 59.64 -65 62.28 -65 65 C-65.33 65 -65.66 65 -66 65 C-66 62.03 -66 59.06 -66 56 C-44.22 56 -22.44 56 0 56 C0 37.52 0 19.04 0 0 Z " fill="#33A9DC" transform="translate(256,149)"/>
<path d="M0 0 C21.45 0 42.9 0 65 0 C65 18.15 65 36.3 65 55 C44.87 55 24.74 55 4 55 C0 15 0 15 0 0 Z " fill="#EAEAEA" transform="translate(191,206)"/>
</svg>
