<?xml version="1.0" encoding="UTF-8"?>
<svg version="1.1" xmlns="http://www.w3.org/2000/svg" width="512" height="512">
<path d="M0 0 C1.58973208 0.89924239 3.14269623 1.86317885 4.68359375 2.84375 C4.68359375 3.50375 4.68359375 4.16375 4.68359375 4.84375 C5.24596741 5.08047928 5.80834106 5.31720856 6.38775635 5.56111145 C9.21574925 7.14105466 11.13551745 9.06373584 13.41699219 11.3659668 C13.87289734 11.82318619 14.32880249 12.28040558 14.79852295 12.7514801 C16.30132642 14.26076117 17.7970204 15.77689558 19.29296875 17.29296875 C20.34374536 18.35002321 21.39504375 19.40655921 22.44683838 20.46260071 C25.21647062 23.24552899 27.98049123 26.03395871 30.74291992 28.82403564 C35.148252 33.27246682 39.56016646 37.71434094 43.97559357 42.15275002 C45.5066861 43.69394666 47.03424666 45.23857811 48.5614624 46.78361511 C54.64506154 52.91927332 60.9567617 58.65866457 67.52197266 64.26953125 C70.36431432 67.65440255 71.19533657 70.80544148 72.26953125 75.03125 C72.72901106 76.63360645 73.19134124 78.23514778 73.65625 79.8359375 C74.36686272 82.33803971 75.05757338 84.83974468 75.69970703 87.36035156 C77.75783652 96.68886547 77.75783652 96.68886547 83.29083252 104.03942871 C87.54314811 106.13416687 92.06563423 106.91736191 96.68359375 107.84375 C99.98346319 109.07780045 103.13779948 110.5610419 106.30859375 112.09375 C107.1085376 112.47869629 107.90848145 112.86364258 108.73266602 113.26025391 C126.97643035 122.26947501 140.67929609 136.66626486 154.8762207 150.90600586 C157.00684009 153.04202357 159.14280598 155.17259118 161.27929688 157.30273438 C162.66047725 158.68457507 164.04134764 160.06672567 165.421875 161.44921875 C166.04806229 162.07338181 166.67424957 162.69754486 167.31941223 163.34062195 C170.33154607 166.36854342 173.16565074 169.42517925 175.8614502 172.73892212 C178.93784351 176.2747332 182.01824868 178.51157264 186.05827141 180.83148003 C199.57082316 188.75179951 213.08219827 200.53633366 217.31316471 216.17006016 C223.3293673 244.34770812 220.4007423 275.23587296 219.34858501 303.80363739 C218.92967172 315.38361177 218.73025233 326.96451631 218.54556715 338.55021727 C218.16187255 362.32309811 217.51390762 386.08255935 216.68359375 409.84375 C216.15515869 410.00979736 215.62672363 410.17584473 215.08227539 410.34692383 C212.63663113 411.11590544 210.19136167 411.88607254 207.74609375 412.65625 C206.49989258 413.04780273 206.49989258 413.04780273 205.22851562 413.44726562 C198.77206984 415.48217655 192.33867078 417.57853103 185.94140625 419.79296875 C185.23757813 420.03660156 184.53375 420.28023438 183.80859375 420.53125 C183.08929688 420.78261719 182.37 421.03398437 181.62890625 421.29296875 C179.68359375 421.84375 179.68359375 421.84375 176.68359375 421.84375 C176.35359375 422.50375 176.02359375 423.16375 175.68359375 423.84375 C173.8125 424.484375 173.8125 424.484375 171.24609375 425.09375 C170.26640625 425.35542969 169.28671875 425.61710937 168.27734375 425.88671875 C166.34229388 426.40203094 164.40623014 426.91388442 162.46484375 427.40478516 C160.04544968 428.03102223 157.64746807 428.71440649 155.24609375 429.40625 C154.46500244 429.59670898 153.68391113 429.78716797 152.87915039 429.98339844 C149.67892187 430.94419487 147.32583164 431.74182878 145.5912323 434.7179718 C145.30871109 435.48562363 145.02618988 436.25327545 144.73510742 437.04418945 C144.40365219 437.94316452 144.07219696 438.84213959 143.73069763 439.76835632 C141.69230716 445.75520565 139.78533948 451.77863988 137.91796875 457.8203125 C137.47563184 459.24102529 137.03293755 460.66162685 136.58990479 462.0821228 C135.43561603 465.7864396 134.28612641 469.49222793 133.13769531 473.19836426 C131.96062754 476.99383643 130.77893664 480.78786853 129.59765625 484.58203125 C127.28849067 492.0012175 124.9844029 499.42196748 122.68359375 506.84375 C98.57232478 508.09601411 74.4660699 509.0229776 50.32856464 509.58979511 C39.11216574 509.86033534 27.91640995 510.22821047 16.71313477 510.84204102 C-64.09327205 515.18417237 -64.09327205 515.18417237 -89.15498078 493.25255096 C-101.08211002 482.39355454 -111.27017771 469.7130802 -120.37133503 456.43481731 C-122.47623319 453.63084141 -124.79066118 451.27086642 -127.31640625 448.84375 C-128.9874582 447.16193416 -130.6580151 445.47962633 -132.328125 443.796875 C-133.73723515 442.38087193 -135.1463527 440.96487615 -136.5559082 439.54931641 C-137.52749286 438.5726535 -138.49818548 437.59510245 -139.46801758 436.61669922 C-140.87737166 435.19525887 -142.29019588 433.77726177 -143.703125 432.359375 C-144.95935669 431.09528809 -144.95935669 431.09528809 -146.2409668 429.80566406 C-148.16148965 427.80060932 -148.16148965 427.80060932 -150.31640625 426.84375 C-150.31640625 426.18375 -150.31640625 425.52375 -150.31640625 424.84375 C-150.97640625 424.84375 -151.63640625 424.84375 -152.31640625 424.84375 C-154.15631736 422.75731486 -155.87212098 420.66917903 -157.56640625 418.46875 C-158.06366211 417.82679688 -158.56091797 417.18484375 -159.07324219 416.5234375 C-162.90813121 411.50723211 -166.33647535 406.41856455 -169.31640625 400.84375 C-170.15945312 399.27753906 -170.15945312 399.27753906 -171.01953125 397.6796875 C-173.60821658 392.69365445 -176.0460118 387.88633607 -177.7421875 382.53125 C-177.97679687 381.81275879 -178.21140625 381.09426758 -178.453125 380.35400391 C-178.89078596 378.97113441 -179.29552574 377.57723434 -179.66015625 376.17333984 C-180.59759865 373.22144122 -181.65611623 371.23469761 -184.34594727 369.64208984 C-186.97183289 368.57424184 -189.61304576 367.6958683 -192.31640625 366.84375 C-194.19003413 366.16055591 -196.06112463 365.47036532 -197.9296875 364.7734375 C-199.82882581 364.08687616 -201.72856975 363.40198787 -203.62890625 362.71875 C-205.54193606 362.02939297 -207.45470565 361.33931329 -209.3671875 360.6484375 C-210.19903564 360.34921387 -211.03088379 360.04999023 -211.88793945 359.74169922 C-212.6893335 359.44537598 -213.49072754 359.14905273 -214.31640625 358.84375 C-215.19578857 358.52164551 -216.0751709 358.19954102 -216.98120117 357.86767578 C-220.16831328 356.47021125 -221.91298802 354.35895513 -224.31640625 351.84375 C-226.21254934 350.20015874 -228.1282412 348.58371135 -230.05859375 346.98046875 C-231.96995344 345.17162143 -233.62939968 343.35441431 -235.3359375 341.359375 C-239.83168121 336.15380866 -244.69091417 331.31894502 -249.5612793 326.46850586 C-251.14686421 324.88835356 -252.72694067 323.30283024 -254.30664062 321.71679688 C-255.31608517 320.70801194 -256.32583924 319.69953662 -257.3359375 318.69140625 C-258.69875854 317.3302771 -258.69875854 317.3302771 -260.08911133 315.94165039 C-262.1315721 313.81628466 -262.1315721 313.81628466 -264.31640625 312.84375 C-264.31640625 312.18375 -264.31640625 311.52375 -264.31640625 310.84375 C-264.97640625 310.51375 -265.63640625 310.18375 -266.31640625 309.84375 C-267.24244144 308.82883836 -268.13377436 307.78197965 -269.00390625 306.71875 C-272.66964274 302.35221094 -276.6490309 298.31813696 -280.828125 294.44140625 C-285.41954681 289.51255712 -288.6291766 283.54423911 -289.31640625 276.84375 C-289.97640625 276.51375 -290.63640625 276.18375 -291.31640625 275.84375 C-291.87109375 273.65625 -291.87109375 273.65625 -292.19140625 270.84375 C-292.31257813 269.93625 -292.43375 269.02875 -292.55859375 268.09375 C-291.90409943 259.31085843 -285.97745249 251.9959163 -281.12890625 244.96875 C-279.86153179 243.11927491 -278.59706633 241.26780202 -277.3359375 239.4140625 C-276.78010986 238.60727051 -276.22428223 237.80047852 -275.65161133 236.96923828 C-274.16834259 234.79433376 -274.16834259 234.79433376 -273.31640625 231.84375 C-272.65640625 231.84375 -271.99640625 231.84375 -271.31640625 231.84375 C-271.08179688 231.15667969 -270.8471875 230.46960938 -270.60546875 229.76171875 C-269.04902579 226.23849787 -266.93986285 223.25841746 -264.69140625 220.15625 C-261.55549217 216.35761124 -261.55549217 216.35761124 -260.31640625 211.84375 C-259.65640625 211.51375 -258.99640625 211.18375 -258.31640625 210.84375 C-257.98640625 209.85375 -257.65640625 208.86375 -257.31640625 207.84375 C-256.65640625 207.84375 -255.99640625 207.84375 -255.31640625 207.84375 C-255.08953125 207.204375 -254.86265625 206.565 -254.62890625 205.90625 C-252.83074799 201.71054739 -250.57736604 197.80474444 -248.31640625 193.84375 C-247.65640625 193.84375 -246.99640625 193.84375 -246.31640625 193.84375 C-245.32640625 190.87375 -245.32640625 190.87375 -244.31640625 187.84375 C-243.65640625 187.84375 -242.99640625 187.84375 -242.31640625 187.84375 C-241.24115431 185.19146188 -240.22184474 182.56006546 -239.31640625 179.84375 C-238.7440625 179.29847656 -238.17171875 178.75320312 -237.58203125 178.19140625 C-234.42761654 174.92277998 -232.36067141 171.18250615 -230.06640625 167.28125 C-226.33448576 161.04095876 -222.50120868 155.07147325 -218.0703125 149.30078125 C-216.32828526 146.86039119 -214.88789129 144.32393331 -213.41133118 141.71818542 C-211.73563502 138.84951 -209.88329059 136.11132257 -208.0234375 133.359375 C-207.22065474 132.16539711 -206.41792178 130.97138574 -205.61523438 129.77734375 C-204.36546204 127.92453097 -203.1145395 126.07250593 -201.86254883 124.22119141 C-200.64239638 122.41505249 -199.4264736 120.60612266 -198.2109375 118.796875 C-197.12582886 117.19054199 -197.12582886 117.19054199 -196.01879883 115.55175781 C-194.20448604 112.90330249 -194.20448604 112.90330249 -193.31640625 109.84375 C-192.65640625 109.84375 -191.99640625 109.84375 -191.31640625 109.84375 C-190.65640625 107.86375 -189.99640625 105.88375 -189.31640625 103.84375 C-188.65640625 103.84375 -187.99640625 103.84375 -187.31640625 103.84375 C-187.062612 103.24016663 -186.80881775 102.63658325 -186.54733276 102.01470947 C-185.15452138 99.55823703 -183.97460645 98.63540295 -181.62158203 97.10839844 C-180.85556671 96.60459656 -180.08955139 96.10079468 -179.30032349 95.58172607 C-178.46258392 95.04428772 -177.62484436 94.50684937 -176.76171875 93.953125 C-175.88635468 93.38072083 -175.0109906 92.80831665 -174.10910034 92.21856689 C-171.22528104 90.33517754 -168.3333071 88.46470141 -165.44140625 86.59375 C-163.4237654 85.27843799 -161.40684534 83.9620197 -159.390625 82.64453125 C-156.31717205 80.63628929 -153.2433461 78.62865391 -150.16729736 76.62438965 C-141.88818546 71.22900591 -133.65576222 65.76689934 -125.44464111 60.26876831 C-114.94343228 53.23739451 -104.41931486 46.24179586 -93.86328125 39.29296875 C-92.88315063 38.64772247 -91.90302002 38.0024762 -90.89318848 37.337677 C-86.10901255 34.18911299 -81.32314628 31.04315125 -76.53515625 27.90039062 C-67.84448198 22.18963807 -59.20501489 16.42207878 -50.65553284 10.50190735 C-45.69954335 7.08026107 -40.66427816 3.82526582 -35.50390625 0.71875 C-34.74271484 0.25210937 -33.98152344 -0.21453125 -33.19726562 -0.6953125 C-21.92470603 -7.54043254 -11.63500632 -5.80769287 0 0 Z " fill="#00C4B3" transform="translate(293.31640625,5.15625)"/>
<path d="M0 0 C32.29824825 -0.04566086 64.59648729 -0.08103776 96.8947603 -0.10213066 C100.71100887 -0.10463196 104.52725738 -0.10722062 108.34350586 -0.10986328 C109.10322721 -0.1103879 109.86294856 -0.11091252 110.64569177 -0.11145304 C122.93437058 -0.12014704 135.22303061 -0.13591147 147.51169828 -0.15430559 C160.12833868 -0.17303262 172.74496926 -0.18412265 185.36162299 -0.18817699 C193.14185724 -0.19091624 200.92203839 -0.19955663 208.70225628 -0.21583293 C214.6759974 -0.22769072 220.64969319 -0.22890427 226.62344742 -0.22621536 C229.06830484 -0.22676448 231.51316431 -0.23072799 233.95800972 -0.23841095 C237.30421751 -0.24840852 240.65020085 -0.24595126 243.99641418 -0.24050903 C244.95656474 -0.24633472 245.9167153 -0.2521604 246.90596133 -0.25816262 C260.38353175 -0.19919655 260.38353175 -0.19919655 266 2 C268.48534339 5.43681173 269.61275573 8.95425044 270.8125 13 C271.17666016 14.09070801 271.54082031 15.18141602 271.91601562 16.30517578 C272.98393269 19.52546552 273.99388854 22.75998004 275 26 C275.51850336 27.56197981 276.04250469 29.12215522 276.57421875 30.6796875 C277.54356183 33.52283171 278.49348512 36.37105103 279.42578125 39.2265625 C284.69448423 55.28909761 290.40810056 71.19293415 296.27301025 87.04547119 C299.34533931 95.36028122 302.29730889 103.70258303 305.0625 112.125 C308.07333303 121.29339427 311.24859306 130.38927322 314.51586914 139.46923828 C319.24161926 152.62349654 323.86742171 165.81269355 328.5 179 C333.48872686 193.19913681 338.47864978 207.39710692 343.5625 221.5625 C344.65854171 224.63136903 345.75311185 227.70075642 346.84667969 230.77050781 C347.6904001 233.13306784 348.53751173 235.49426149 349.38769531 237.85449219 C350.60061121 241.22467343 351.80028707 244.5993421 352.99215698 247.97702026 C353.66745566 249.88098612 354.35515008 251.78054125 355.04321289 253.67993164 C355.44531982 254.82582764 355.84742676 255.97172363 356.26171875 257.15234375 C356.62225342 258.16288818 356.98278809 259.17343262 357.35424805 260.21459961 C358.7509404 266.23912251 355.69510067 271.33930459 353.28125 276.75390625 C352.9044812 277.60943588 352.5277124 278.46496552 352.13952637 279.34642029 C350.93103446 282.08720943 349.71555753 284.82483834 348.5 287.5625 C347.71309791 289.34550735 346.92663561 291.12870885 346.140625 292.91210938 C340.81999865 304.96820255 335.4219832 316.98920598 330 329 C326.03670141 327.39985503 323.37064938 324.64817497 320.41654587 321.66543484 C319.86152067 321.11301692 319.30649547 320.56059901 318.73465133 319.99144116 C316.86590558 318.12901906 315.00440584 316.25951775 313.14276123 314.38999939 C311.79504944 313.04387507 310.4469001 311.69818869 309.09834981 310.35290438 C305.38595555 306.64693995 301.67985193 302.93473922 297.97472286 299.22151315 C293.98107754 295.2213033 289.98168642 291.22684543 285.98300171 287.23167419 C278.1480585 279.40177871 270.31847683 271.56654276 262.49068066 263.72950285 C253.38366363 254.61211691 244.2714371 245.49994506 235.15899101 236.38798577 C218.41588984 219.64540065 201.67807534 202.89754154 184.94272116 186.14721349 C169.65293003 170.84379238 154.35944336 155.54407463 139.0625 140.24780273 C138.07996496 139.26530811 137.09742995 138.28281345 136.11489496 137.30031877 C135.62915604 136.8146002 135.14341712 136.32888164 134.64295884 135.82844433 C132.19800618 133.38359245 129.75305862 130.93873547 127.30811691 128.49387264 C126.82580504 128.01157748 126.34349317 127.52928233 125.84656579 127.03237217 C110.33793626 111.52418569 94.83308718 96.01222033 79.32854985 80.49994273 C72.97032569 74.13869597 66.61111941 67.77843201 60.2516098 61.41847038 C52.50922157 53.6754017 44.76871682 45.93045576 37.03059527 38.18312304 C33.07849508 34.22638981 29.12559483 30.27046463 25.1705513 26.31667328 C21.55652938 22.70374015 17.94479747 19.08853473 14.3349537 15.47142715 C13.02236239 14.15701092 11.70891151 12.84345246 10.3945578 11.53079855 C8.6207691 9.75905146 6.85003011 7.98431406 5.08008957 6.20872402 C4.55821635 5.68890612 4.03634312 5.16908821 3.49865556 4.63351825 C0 1.11415492 0 1.11415492 0 0 Z " fill="#0074C9" transform="translate(109,107)"/>
<path d="M0 0 C1.58973208 0.89924239 3.14269623 1.86317885 4.68359375 2.84375 C4.68359375 3.50375 4.68359375 4.16375 4.68359375 4.84375 C5.24596741 5.08047928 5.80834106 5.31720856 6.38775635 5.56111145 C9.21574925 7.14105466 11.13551745 9.06373584 13.41699219 11.3659668 C13.87289734 11.82318619 14.32880249 12.28040558 14.79852295 12.7514801 C16.30132642 14.26076117 17.7970204 15.77689558 19.29296875 17.29296875 C20.34374536 18.35002321 21.39504375 19.40655921 22.44683838 20.46260071 C25.21647062 23.24552899 27.98049123 26.03395871 30.74291992 28.82403564 C35.148252 33.27246682 39.56016646 37.71434094 43.97559357 42.15275002 C45.5066861 43.69394666 47.03424666 45.23857811 48.5614624 46.78361511 C53.76097779 52.02762422 59.08066085 57.03421293 64.68359375 61.84375 C69.37037029 65.88161335 71.00323822 69.42359788 72.796875 75.171875 C73.0561528 75.96148621 73.3154306 76.75109741 73.58256531 77.56463623 C74.40132647 80.06997193 75.19874288 82.58152882 75.99609375 85.09375 C76.55007671 86.79731642 77.10540173 88.50044703 77.66210938 90.203125 C81.68359375 102.56563324 81.68359375 102.56563324 81.68359375 103.84375 C81.01763048 103.77339808 80.35166721 103.70304616 79.66552323 103.63056237 C72.97195667 102.96662309 66.36571554 102.69235339 59.64204407 102.68553162 C58.58725599 102.68059364 57.53246791 102.67565566 56.44571656 102.67056805 C52.94208398 102.65531659 49.43846954 102.64686623 45.93481445 102.63842773 C43.41105492 102.62883948 40.88729697 102.61882885 38.36354065 102.60842896 C32.94583481 102.58704872 27.52813175 102.56858497 22.11040688 102.55282402 C14.27745967 102.53003172 6.44453864 102.50190235 -1.38838623 102.47250474 C-14.09932596 102.42494294 -26.81027645 102.38164816 -39.52124023 102.34106445 C-51.86272009 102.30165123 -64.20419042 102.26021122 -76.5456543 102.21606445 C-77.30743521 102.21334018 -78.06921612 102.21061591 -78.8540813 102.20780908 C-82.67602668 102.19412865 -86.49797191 102.18040856 -90.31991708 102.16666877 C-121.9853938 102.05288346 -153.65089047 101.94610635 -185.31640625 101.84375 C-185.25718578 133.53035321 -185.18277502 165.21687558 -185.08741997 196.90338924 C-185.076153 200.65181971 -185.06501436 204.40025055 -185.05395508 208.14868164 C-185.05175139 208.89486667 -185.04954771 209.6410517 -185.04727725 210.4098484 C-185.01199041 222.46165812 -184.9870778 234.51346779 -184.96605923 246.56530987 C-184.9442283 258.94923892 -184.91110933 271.33310145 -184.86770469 283.71697384 C-184.84131296 291.34670427 -184.82352597 298.97635196 -184.81706021 306.60612572 C-184.8111385 312.47552957 -184.78944417 318.34481187 -184.76213074 324.2141571 C-184.75339455 326.60810098 -184.74961867 329.00206937 -184.75139809 331.39602852 C-184.7580791 344.54124748 -184.21606406 356.99366862 -181.31640625 369.84375 C-188.63997681 368.20132888 -195.35107131 366.12657856 -202.22265625 363.09765625 C-205.5226808 361.7601463 -208.82477556 360.79757351 -212.25390625 359.84375 C-217.24844284 358.35310947 -220.01567717 357.01820148 -223.31640625 352.84375 C-224.47081473 351.66495261 -225.63851642 350.49908449 -226.81640625 349.34375 C-227.98307292 348.17708333 -229.14973958 347.01041667 -230.31640625 345.84375 C-231.04899658 345.11188477 -231.78158691 344.38001953 -232.53637695 343.62597656 C-235.01066814 341.14972976 -237.48037385 338.66905623 -239.94816589 336.18634033 C-242.33674158 333.78434847 -244.72801117 331.38504579 -247.11938477 328.98583984 C-248.38198821 327.7181657 -249.64369884 326.44960172 -250.90454102 325.18017578 C-252.73090237 323.341735 -254.56043068 321.50649903 -256.390625 319.671875 C-257.2375013 318.81725677 -257.2375013 318.81725677 -258.10148621 317.94537354 C-260.93578204 315.03497489 -260.93578204 315.03497489 -264.31640625 312.84375 C-264.31640625 312.18375 -264.31640625 311.52375 -264.31640625 310.84375 C-264.97640625 310.51375 -265.63640625 310.18375 -266.31640625 309.84375 C-267.24244144 308.82883836 -268.13377436 307.78197965 -269.00390625 306.71875 C-272.66964274 302.35221094 -276.6490309 298.31813696 -280.828125 294.44140625 C-285.41954681 289.51255712 -288.6291766 283.54423911 -289.31640625 276.84375 C-289.97640625 276.51375 -290.63640625 276.18375 -291.31640625 275.84375 C-291.87109375 273.65625 -291.87109375 273.65625 -292.19140625 270.84375 C-292.31257813 269.93625 -292.43375 269.02875 -292.55859375 268.09375 C-291.90409943 259.31085843 -285.97745249 251.9959163 -281.12890625 244.96875 C-279.86153179 243.11927491 -278.59706633 241.26780202 -277.3359375 239.4140625 C-276.78010986 238.60727051 -276.22428223 237.80047852 -275.65161133 236.96923828 C-274.16834259 234.79433376 -274.16834259 234.79433376 -273.31640625 231.84375 C-272.65640625 231.84375 -271.99640625 231.84375 -271.31640625 231.84375 C-271.08179688 231.15667969 -270.8471875 230.46960938 -270.60546875 229.76171875 C-269.04902579 226.23849787 -266.93986285 223.25841746 -264.69140625 220.15625 C-261.55549217 216.35761124 -261.55549217 216.35761124 -260.31640625 211.84375 C-259.65640625 211.51375 -258.99640625 211.18375 -258.31640625 210.84375 C-257.98640625 209.85375 -257.65640625 208.86375 -257.31640625 207.84375 C-256.65640625 207.84375 -255.99640625 207.84375 -255.31640625 207.84375 C-255.08953125 207.204375 -254.86265625 206.565 -254.62890625 205.90625 C-252.83074799 201.71054739 -250.57736604 197.80474444 -248.31640625 193.84375 C-247.65640625 193.84375 -246.99640625 193.84375 -246.31640625 193.84375 C-245.32640625 190.87375 -245.32640625 190.87375 -244.31640625 187.84375 C-243.65640625 187.84375 -242.99640625 187.84375 -242.31640625 187.84375 C-241.24115431 185.19146188 -240.22184474 182.56006546 -239.31640625 179.84375 C-238.7440625 179.29847656 -238.17171875 178.75320312 -237.58203125 178.19140625 C-234.42761654 174.92277998 -232.36067141 171.18250615 -230.06640625 167.28125 C-226.33448576 161.04095876 -222.50120868 155.07147325 -218.0703125 149.30078125 C-216.32828526 146.86039119 -214.88789129 144.32393331 -213.41133118 141.71818542 C-211.73563502 138.84951 -209.88329059 136.11132257 -208.0234375 133.359375 C-207.22065474 132.16539711 -206.41792178 130.97138574 -205.61523438 129.77734375 C-204.36546204 127.92453097 -203.1145395 126.07250593 -201.86254883 124.22119141 C-200.64239638 122.41505249 -199.4264736 120.60612266 -198.2109375 118.796875 C-197.12582886 117.19054199 -197.12582886 117.19054199 -196.01879883 115.55175781 C-194.20448604 112.90330249 -194.20448604 112.90330249 -193.31640625 109.84375 C-192.65640625 109.84375 -191.99640625 109.84375 -191.31640625 109.84375 C-190.65640625 107.86375 -189.99640625 105.88375 -189.31640625 103.84375 C-188.65640625 103.84375 -187.99640625 103.84375 -187.31640625 103.84375 C-187.062612 103.24016663 -186.80881775 102.63658325 -186.54733276 102.01470947 C-185.15452138 99.55823703 -183.97460645 98.63540295 -181.62158203 97.10839844 C-180.85556671 96.60459656 -180.08955139 96.10079468 -179.30032349 95.58172607 C-178.46258392 95.04428772 -177.62484436 94.50684937 -176.76171875 93.953125 C-175.88635468 93.38072083 -175.0109906 92.80831665 -174.10910034 92.21856689 C-171.22528104 90.33517754 -168.3333071 88.46470141 -165.44140625 86.59375 C-163.4237654 85.27843799 -161.40684534 83.9620197 -159.390625 82.64453125 C-156.31717205 80.63628929 -153.2433461 78.62865391 -150.16729736 76.62438965 C-141.88818546 71.22900591 -133.65576222 65.76689934 -125.44464111 60.26876831 C-114.94343228 53.23739451 -104.41931486 46.24179586 -93.86328125 39.29296875 C-92.88315063 38.64772247 -91.90302002 38.0024762 -90.89318848 37.337677 C-86.10901255 34.18911299 -81.32314628 31.04315125 -76.53515625 27.90039062 C-67.84448198 22.18963807 -59.20501489 16.42207878 -50.65553284 10.50190735 C-45.69954335 7.08026107 -40.66427816 3.82526582 -35.50390625 0.71875 C-34.74271484 0.25210937 -33.98152344 -0.21453125 -33.19726562 -0.6953125 C-21.92470603 -7.54043254 -11.63500632 -5.80769287 0 0 Z " fill="#00C4B3" transform="translate(293.31640625,5.15625)"/>
<path d="M0 0 C4.83601192 0.59860391 9.39448294 2.4293217 13.96875 4.03515625 C14.85947205 4.34503983 15.75019409 4.6549234 16.66790771 4.97419739 C19.61317535 6.00012394 22.55664039 7.03111324 25.5 8.0625 C27.57906356 8.78868304 29.65816574 9.5147555 31.73730469 10.24072266 C60.79899764 20.39919724 89.79011423 30.75263851 118.74841309 41.20175171 C119.82143677 41.58892365 120.89446045 41.97609558 122 42.375 C123.06561157 42.75951324 124.13122314 43.14402649 125.22912598 43.54019165 C140.73956978 49.13439223 156.27788435 54.62372385 171.88623047 59.93945312 C186.91886213 65.05955285 201.9023615 70.30212514 216.83331299 75.71102905 C219.16960622 76.55602811 221.50718976 77.39735471 223.84521484 78.23754883 C230.61778383 80.67380928 237.37634826 83.12906972 244.09375 85.71484375 C245.13893799 86.10663818 246.18412598 86.49843262 247.26098633 86.90209961 C249.13658067 87.60574087 251.0046248 88.33005726 252.86206055 89.08032227 C253.68488525 89.38381592 254.50770996 89.68730957 255.35546875 90 C256.04278076 90.268125 256.73009277 90.53625 257.43823242 90.8125 C264.66943686 91.3417638 272.44470336 86.61277445 278.8984375 83.7265625 C279.81404449 83.32094086 280.72965149 82.91531921 281.67300415 82.49740601 C284.57539571 81.21045193 287.47519776 79.91777612 290.375 78.625 C292.31233718 77.765258 294.2498359 76.90587993 296.1875 76.046875 C298.07032776 75.21097187 299.95314055 74.37503503 301.8359375 73.5390625 C303.19582794 72.93653656 303.19582794 72.93653656 304.58319092 72.32183838 C308.2965689 70.67178222 312.00255348 69.01779231 315.66113281 67.24902344 C316.63147461 66.78270508 317.60181641 66.31638672 318.6015625 65.8359375 C319.38096191 65.44712402 320.16036133 65.05831055 320.96337891 64.65771484 C323 64 323 64 327 65 C319.41 89.09 311.82 113.18 304 138 C279.88081747 139.20864305 255.78701046 140.17912113 231.64497089 140.74604511 C220.42857199 141.01658534 209.2328162 141.38446047 198.02954102 141.99829102 C117.2231342 146.34042237 117.2231342 146.34042237 92.16142547 124.40880096 C80.23429623 113.54980454 70.04622854 100.8693302 60.94507122 87.59106731 C58.84017306 84.78709141 56.52574507 82.42711642 54 80 C52.32894805 78.31818416 50.65839115 76.63587633 48.98828125 74.953125 C47.5791711 73.53712193 46.17005355 72.12112615 44.76049805 70.70556641 C43.78891339 69.7289035 42.81822077 68.75135245 41.84838867 67.77294922 C40.43903459 66.35150887 39.02621037 64.93351177 37.61328125 63.515625 C36.77579346 62.67290039 35.93830566 61.83017578 35.07543945 60.96191406 C33.1549166 58.95685932 33.1549166 58.95685932 31 58 C31 57.34 31 56.68 31 56 C30.34 56 29.68 56 29 56 C27.16008889 53.91356486 25.44428527 51.82542903 23.75 49.625 C23.25274414 48.98304688 22.75548828 48.34109375 22.24316406 47.6796875 C18.40788797 42.6629758 14.98359619 37.57329064 12 32 C11.43796875 30.96746094 10.8759375 29.93492187 10.296875 28.87109375 C5.58343775 19.86432996 2.18420629 10.63426518 -1 1 C-0.67 0.67 -0.34 0.34 0 0 Z " fill="#21D2C5" transform="translate(112,374)"/>
<path d="M0 0 C30.15183175 5.62152795 51.56608652 25.37544309 72.46899414 46.33862305 C74.68979307 48.56479862 76.91590966 50.78555632 79.14257812 53.00585938 C80.57844584 54.44238771 82.01400343 55.87922611 83.44921875 57.31640625 C84.43072151 58.29487267 84.43072151 58.29487267 85.43205261 59.29310608 C88.51486454 62.39139473 91.42765607 65.51107474 94.18557739 68.90289307 C97.2588421 72.43594784 100.33814282 74.6698255 104.37467766 76.98773003 C117.88722941 84.90804951 131.39860452 96.69258366 135.62957096 112.32631016 C141.64577355 140.50395812 138.71714855 171.39212296 137.66499126 199.95988739 C137.24607797 211.53986177 137.04665858 223.12076631 136.8619734 234.70646727 C136.4782788 258.47934811 135.83031387 282.23880935 135 306 C134.47156494 306.16604736 133.94312988 306.33209473 133.39868164 306.50317383 C130.95303738 307.27215544 128.50776792 308.04232254 126.0625 308.8125 C125.23169922 309.07353516 124.40089844 309.33457031 123.54492188 309.60351562 C117.08847609 311.63842655 110.65507703 313.73478103 104.2578125 315.94921875 C103.55398438 316.19285156 102.85015625 316.43648438 102.125 316.6875 C101.40570313 316.93886719 100.68640625 317.19023437 99.9453125 317.44921875 C98 318 98 318 95 318 C94.67 318.66 94.34 319.32 94 320 C92.12890625 320.640625 92.12890625 320.640625 89.5625 321.25 C83.27813215 322.83972151 77.20629599 324.92316192 71.10766602 327.10644531 C70.36057373 327.36522461 69.61348145 327.62400391 68.84375 327.890625 C68.17537109 328.12813477 67.50699219 328.36564453 66.81835938 328.61035156 C65 329 65 329 62 328 C62.66 327.67 63.32 327.34 64 327 C64.70133164 325.01189076 65.35847788 323.00820662 66 321 C67.23378693 317.97554248 68.56343647 314.99402338 69.88671875 312.0078125 C70.26681595 311.14421112 70.64691315 310.28060974 71.03852844 309.39083862 C72.25234467 306.63444585 73.46982306 303.87968911 74.6875 301.125 C75.48657845 299.31261035 76.28540879 297.50011128 77.08398438 295.6875 C77.47603058 294.7988324 77.86807678 293.91016479 78.27200317 292.99456787 C79.05489487 291.21608961 79.83492004 289.43634665 80.61203003 287.65533447 C82.41067095 283.54285658 84.24229542 279.4617204 86.21337891 275.42871094 C90.24854363 267.78829931 90.24854363 267.78829931 90.765625 259.4453125 C90.22222489 257.94639876 89.62710271 256.46586776 89 255 C88.24091398 252.74869958 87.48622477 250.49591488 86.734375 248.2421875 C86.01455272 246.19559148 85.28361068 244.15318636 84.55148315 242.11096191 C83.1029915 238.06998843 81.67234816 234.02267235 80.23828125 229.9765625 C79.91561783 229.06781372 79.59295441 228.15906494 79.26051331 227.22277832 C76.36654223 219.06250612 73.51369981 210.88811635 70.66796875 202.7109375 C70.19740634 201.35910757 69.72683541 200.0072806 69.2562561 198.65545654 C68.54040587 196.59897377 67.82455909 194.5424898 67.10873985 192.48599625 C60.14320145 172.47627749 53.16692431 152.47442745 45.85791016 132.58691406 C42.30122936 122.89446945 38.9161867 113.15083456 35.57519531 103.38232422 C32.95381369 95.72835458 30.25962414 88.10515853 27.5 80.5 C23.91059712 70.60025865 20.44678218 60.66176428 17.03369141 50.69995117 C14.54790949 43.45593387 12.02881479 36.22479412 9.4765625 29.00390625 C9.17754028 28.15708282 8.87851807 27.3102594 8.57043457 26.43777466 C7.08893815 22.24325413 5.60401241 18.04999288 4.11425781 13.85839844 C3.57344074 12.32882093 3.03274462 10.79920065 2.4921875 9.26953125 C2.2395816 8.56260635 1.98697571 7.85568146 1.72671509 7.12733459 C0 2.22698007 0 2.22698007 0 0 Z " fill="#00A8E1" transform="translate(375,109)"/>
<path d="M0 0 C0.66 0 1.32 0 2 0 C2.00238835 1.27791633 2.00477671 2.55583265 2.00723743 3.87247372 C2.06470746 34.26825021 2.13751573 64.6639475 2.22898628 95.05963924 C2.24025325 98.80806971 2.25139189 102.55650055 2.26245117 106.30493164 C2.26465486 107.05111667 2.26685854 107.7973017 2.269129 108.5660984 C2.30441584 120.61790812 2.32932845 132.66971779 2.35034702 144.72155987 C2.37217795 157.10548892 2.40529692 169.48935145 2.44870156 181.87322384 C2.47509329 189.50295427 2.49288028 197.13260196 2.49934604 204.76237572 C2.50526775 210.63177957 2.52696208 216.50106187 2.55427551 222.3704071 C2.5630117 224.76435098 2.56678758 227.15831937 2.56500816 229.55227852 C2.55832715 242.69749748 3.10034219 255.14991862 6 268 C-1.32357056 266.35757888 -8.03466506 264.28282856 -14.90625 261.25390625 C-18.20627455 259.9163963 -21.50836931 258.95382351 -24.9375 258 C-29.93203659 256.50935947 -32.69927092 255.17445148 -36 251 C-37.15440848 249.82120261 -38.32211017 248.65533449 -39.5 247.5 C-40.66666667 246.33333333 -41.83333333 245.16666667 -43 244 C-43.73259033 243.26813477 -44.46518066 242.53626953 -45.2199707 241.78222656 C-47.69426189 239.30597976 -50.1639676 236.82530623 -52.63175964 234.34259033 C-55.02033533 231.94059847 -57.41160492 229.54129579 -59.80297852 227.14208984 C-61.06558196 225.8744157 -62.32729259 224.60585172 -63.58813477 223.33642578 C-65.41449612 221.497985 -67.24402443 219.66274903 -69.07421875 217.828125 C-69.92109505 216.97350677 -69.92109505 216.97350677 -70.78507996 216.10162354 C-73.61937579 213.19122489 -73.61937579 213.19122489 -77 211 C-77 210.34 -77 209.68 -77 209 C-77.66 208.67 -78.32 208.34 -79 208 C-79.92603519 206.98508836 -80.81736811 205.93822965 -81.6875 204.875 C-85.35323649 200.50846094 -89.33262465 196.47438696 -93.51171875 192.59765625 C-98.10314056 187.66880712 -101.31277035 181.70048911 -102 175 C-102.66 174.67 -103.32 174.34 -104 174 C-104.5546875 171.8125 -104.5546875 171.8125 -104.875 169 C-104.99617188 168.0925 -105.11734375 167.185 -105.2421875 166.25 C-104.58769318 157.46710843 -98.66104624 150.1521663 -93.8125 143.125 C-92.54512554 141.27552491 -91.28066008 139.42405202 -90.01953125 137.5703125 C-89.46370361 136.76352051 -88.90787598 135.95672852 -88.33520508 135.12548828 C-86.85193634 132.95058376 -86.85193634 132.95058376 -86 130 C-85.34 130 -84.68 130 -84 130 C-83.76539062 129.31292969 -83.53078125 128.62585938 -83.2890625 127.91796875 C-81.73261954 124.39474787 -79.6234566 121.41466746 -77.375 118.3125 C-74.23908592 114.51386124 -74.23908592 114.51386124 -73 110 C-72.34 109.67 -71.68 109.34 -71 109 C-70.505 107.515 -70.505 107.515 -70 106 C-69.34 106 -68.68 106 -68 106 C-67.773125 105.360625 -67.54625 104.72125 -67.3125 104.0625 C-65.51434174 99.86679739 -63.26095979 95.96099444 -61 92 C-60.34 92 -59.68 92 -59 92 C-58.34 90.02 -57.68 88.04 -57 86 C-56.34 86 -55.68 86 -55 86 C-53.92474806 83.34771188 -52.90543849 80.71631546 -52 78 C-51.14148437 77.18208984 -51.14148437 77.18208984 -50.265625 76.34765625 C-47.11121029 73.07902998 -45.04426516 69.33875615 -42.75 65.4375 C-39.01807951 59.19720876 -35.18480243 53.22772325 -30.75390625 47.45703125 C-29.01187901 45.01664119 -27.57148504 42.48018331 -26.09492493 39.87443542 C-24.41922877 37.00576 -22.56688434 34.26757257 -20.70703125 31.515625 C-19.90424849 30.32164711 -19.10151553 29.12763574 -18.29882812 27.93359375 C-17.04905579 26.08078097 -15.79813325 24.22875593 -14.54614258 22.37744141 C-13.32599013 20.57130249 -12.11006735 18.76237266 -10.89453125 16.953125 C-9.80942261 15.34679199 -9.80942261 15.34679199 -8.70239258 13.70800781 C-6.88807979 11.05955249 -6.88807979 11.05955249 -6 8 C-5.34 8 -4.68 8 -4 8 C-3.34 6.02 -2.68 4.04 -2 2 C-1.34 2 -0.68 2 0 2 C0 1.34 0 0.68 0 0 Z " fill="#0074C9" transform="translate(106,107)"/>
<path d="" fill="#0081F1" transform="translate(0,0)"/>
</svg>
