<?xml version="1.0" encoding="UTF-8"?>
<svg version="1.1" xmlns="http://www.w3.org/2000/svg" width="512" height="512">
<path d="M0 0 C18.15 0 36.3 0 55 0 C55 29.7 55 59.4 55 90 C69.85 90 84.7 90 100 90 C100 105.18 100 120.36 100 136 C121.48249196 135.45475909 140.79574516 134.47483421 161 127 C162.99770518 126.32648797 164.99699039 125.65756896 167 125 C166.51789063 124.02160156 166.03578125 123.04320312 165.5390625 122.03515625 C158.81324029 108.17974999 158.81324029 108.17974999 158 101 C157.86851562 99.89398438 157.73703125 98.78796875 157.6015625 97.6484375 C155.81626754 78.48627161 159.65677607 63.04784138 171.375 47.9375 C171.91125 47.298125 172.4475 46.65875 173 46 C179.27444389 48.11008878 183.27696271 52.52905575 188 57 C188.64582031 57.58136719 189.29164063 58.16273438 189.95703125 58.76171875 C199.87287447 68.00606017 207.33091996 81.39537246 208 95 C209.86011719 94.51466797 209.86011719 94.51466797 211.7578125 94.01953125 C217.4748066 92.75517452 223.03936305 92.66905614 228.875 92.6875 C230.39287109 92.66333008 230.39287109 92.66333008 231.94140625 92.63867188 C242.01554158 92.63222236 250.66910527 94.97240799 259.625 99.5 C260.53958984 99.94279297 260.53958984 99.94279297 261.47265625 100.39453125 C265.87308175 102.61924526 265.87308175 102.61924526 267 106 C261.93049291 119.24684243 250.59438564 130.37372555 238.0625 136.6875 C225.35529266 142.06499138 211.67229671 143.62745786 198 144 C197.48050781 145.19496094 196.96101563 146.38992188 196.42578125 147.62109375 C192.92727863 155.61359421 189.45490736 163.48234383 185 171 C200.65404041 171.65225168 216.06662127 171.02587498 229 161 C229.70640625 160.278125 230.4128125 159.55625 231.140625 158.8125 C233 157 233 157 235 157 C235.061875 158.8253125 235.061875 158.8253125 235.125 160.6875 C235.5876028 164.05619731 235.96421594 164.95725792 238.25 167.6875 C244.57986931 172.20229835 252.70731338 174.64275778 260.25 176.1875 C261.4875 176.455625 262.725 176.72375 264 177 C264.33 177.66 264.66 178.32 265 179 C263.95954025 178.97699829 262.91908051 178.95399658 261.84709167 178.93029785 C252.0054318 178.72329971 242.16585971 178.60173286 232.32206249 178.56215668 C227.26153488 178.53910901 222.20495909 178.48678526 217.14575195 178.36572266 C212.25562173 178.24981328 207.37053211 178.21320391 202.47912025 178.2297821 C200.62064907 178.22248871 198.76205771 178.18739985 196.90468407 178.12312317 C186.91279409 177.55729506 186.91279409 177.55729506 178.15869522 181.56930542 C174.82640391 185.39141151 172.38027638 189.61181372 170.04722023 194.09428406 C163.41245285 206.16813597 151.711702 216.4392571 142 226 C141.40574219 226.62777344 140.81148438 227.25554687 140.19921875 227.90234375 C120.65135086 246.54746819 94.39776646 261.2136141 69 270 C68.21399414 270.27650391 67.42798828 270.55300781 66.61816406 270.83789062 C45.33037601 278.23743225 23.40003655 282.67496864 1 285 C-0.14291504 285.12036621 -1.28583008 285.24073242 -2.46337891 285.36474609 C-43.65967062 289.45759959 -87.49097593 284.66856018 -122 260 C-122.804375 259.42636719 -123.60875 258.85273438 -124.4375 258.26171875 C-148.79699367 240.0355976 -167.27692561 214.23439957 -173 184 C-173 182.35 -173 180.7 -173 179 C-194.12 179 -215.24 179 -237 179 C-236.505 178.01 -236.505 178.01 -236 177 C-232.34177432 175.8912182 -228.67490956 174.94523704 -224.96484375 174.03125 C-219.71448949 172.66908912 -215.63852572 170.8021942 -211 168 C-210.34 168 -209.68 168 -209 168 C-207.19769832 164.17010894 -206.80377759 161.21878192 -207 157 C-204.11830945 158.33294056 -201.82347739 159.86412283 -199.375 161.875 C-191.98627359 167.48495894 -183.96074518 169.32163128 -175 171 C-175.00523682 170.12263184 -175.01047363 169.24526367 -175.01586914 168.34130859 C-175.03298097 165.06493463 -175.04548412 161.78860865 -175.05493164 158.51220703 C-175.0599392 157.09813687 -175.06674718 155.68407184 -175.07543945 154.27001953 C-175.08766256 152.22947927 -175.0932642 150.18900788 -175.09765625 148.1484375 C-175.10289307 146.92302246 -175.10812988 145.69760742 -175.11352539 144.43505859 C-175 141 -175 141 -174 135 C-161.13 135 -148.26 135 -135 135 C-135 120.15 -135 105.3 -135 90 C-120.15 90 -105.3 90 -90 90 C-90 75.15 -90 60.3 -90 45 C-60.3 45 -30.6 45 0 45 C0 30.15 0 15.3 0 0 Z " fill="#394D55" transform="translate(241,113)"/>
<path d="M0 0 C111.54 0 223.08 0 338 0 C329.82368088 12.84850148 329.82368088 12.84850148 325.75 17.9375 C325.05729004 18.81063843 325.05729004 18.81063843 324.35058594 19.70141602 C319.51061569 25.7284716 314.32287275 31.39963151 309 37 C308.42121094 37.63164062 307.84242188 38.26328125 307.24609375 38.9140625 C301.96886573 44.49549164 295.78297481 49.06286167 289.68994141 53.70703125 C288.24532443 54.81230306 286.81453756 55.93561162 285.38671875 57.0625 C238.06512695 93.28955593 170.16104724 106.86810735 111.80371094 99.39794922 C80.01185835 94.88552152 47.83690213 82.56811508 27 57 C28.0516333 56.98018066 29.1032666 56.96036133 30.18676758 56.93994141 C55.90121895 56.438021 80.00715011 55.56620437 105 49 C105 47.68 105 46.36 105 45 C100.00982112 45.50920193 95.21512508 46.37077498 90.3125 47.4375 C74.84944191 50.60732021 59.36207091 51.181678 43.625 51.1875 C42.53967987 51.18899551 42.53967987 51.18899551 41.43243408 51.19052124 C39.34287502 51.19019479 37.25357707 51.18111353 35.1640625 51.16796875 C33.95186035 51.16047607 32.7396582 51.1529834 31.49072266 51.14526367 C21.85271253 50.74418548 21.85271253 50.74418548 19.06640625 48.3125 C9.54312189 33.66890431 2.47774012 17.34418087 0 0 Z " fill="#009AC4" transform="translate(75,291)"/>
<path d="M0 0 C6.10502291 0.60645923 10.28465902 6.58401276 14 11 C22.95432477 22.58815144 27.47694286 34.24978855 28 49 C29.21236328 48.58427734 29.21236328 48.58427734 30.44921875 48.16015625 C31.51785156 47.79792969 32.58648437 47.43570313 33.6875 47.0625 C34.74324219 46.70285156 35.79898437 46.34320313 36.88671875 45.97265625 C48.5270677 42.33596003 63.7346943 42.08664466 75 47 C76.06154297 47.42925781 76.06154297 47.42925781 77.14453125 47.8671875 C78.7777266 48.54365895 80.39189888 49.26586688 82 50 C78.5192221 59.53867021 71.76734614 66.110284 63 71 C51.70893581 76.17221288 41.27160327 78.25147511 28.9375 78.625 C27.88111328 78.66367188 26.82472656 78.70234375 25.73632812 78.7421875 C23.15771592 78.83553093 20.57909392 78.92131253 18 79 C17.764021 79.56807373 17.52804199 80.13614746 17.28491211 80.72143555 C6.65974099 106.19146653 6.65974099 106.19146653 2 113 C-2.05488199 114.35162733 -3.89908278 113.21259957 -7.875 111.75 C-9.69644531 111.09257812 -9.69644531 111.09257812 -11.5546875 110.421875 C-14.59368165 109.16768694 -17.24544905 107.78050822 -20 106 C-20.78375 106.7425 -21.5675 107.485 -22.375 108.25 C-37.44428384 120.64966712 -62.81568452 118.11532098 -80.94848633 116.53515625 C-92.33494714 115.29935329 -105.96634658 113.22722871 -114.45703125 105.0390625 C-115.97853738 103.77359919 -115.97853738 103.77359919 -118.0625 104.22265625 C-120.17150469 104.95431096 -120.17150469 104.95431096 -122.1875 106.8125 C-135.45817787 117.13413835 -155.84530837 118.61422 -172.05517578 116.765625 C-182.56139989 115.1389929 -193.32309267 111.67690733 -201 104 C-204.04746146 104.36844309 -206.03109962 105.56369556 -208.5 107.3125 C-227.91862353 119.60859921 -259.34129596 119.95282591 -281.234375 115.765625 C-293.92682633 112.25189553 -293.92682633 112.25189553 -297.5859375 108.27734375 C-298.05257812 107.85582031 -298.51921875 107.43429687 -299 107 C-303.84206396 107.87083363 -308.41678011 110.03313058 -312.98046875 111.828125 C-319.84544984 114.46551886 -326.07088691 115.14767696 -333.375 115.0625 C-337.149375 115.0315625 -337.149375 115.0315625 -341 115 C-341 105.76 -341 96.52 -341 87 C-335.44777618 86.99453156 -335.44777618 86.99453156 -329.78338623 86.98895264 C-295.77181203 86.95361093 -261.76031528 86.89850337 -227.74880777 86.82207905 C-223.28322244 86.81206263 -218.81763673 86.80221833 -214.35205078 86.79248047 C-213.46310317 86.7905391 -212.57415556 86.78859772 -211.65827015 86.78659752 C-197.29993011 86.75564993 -182.94160601 86.73861715 -168.58323893 86.72680578 C-153.82965522 86.71435657 -139.07615466 86.68677063 -124.32262349 86.64538693 C-115.23264546 86.62035896 -106.14280549 86.60687485 -97.05279252 86.60857043 C-90.80355025 86.60860038 -84.5544477 86.5938126 -78.30525997 86.56783572 C-74.70987171 86.55331343 -71.11476989 86.54487856 -67.51935768 86.55419731 C-44.59865428 86.60674609 -14.31462495 86.18460764 3.8046875 69.3203125 C4.19914062 68.88460937 4.59359375 68.44890625 5 68 C4.55269531 67.56171875 4.10539062 67.1234375 3.64453125 66.671875 C-6.63248676 55.89086677 -9.50181626 42.08501733 -9.25 27.58984375 C-8.63062112 18.69595016 -6.63419985 6.63419985 0 0 Z " fill="#27B7E9" transform="translate(415,170)"/>
<path d="M0 0 C111.54 0 223.08 0 338 0 C329.82368088 12.84850148 329.82368088 12.84850148 325.75 17.9375 C325.05729004 18.81063843 325.05729004 18.81063843 324.35058594 19.70141602 C319.51061569 25.7284716 314.32287275 31.39963151 309 37 C308.42121094 37.63164062 307.84242188 38.26328125 307.24609375 38.9140625 C301.96886573 44.49549164 295.78297481 49.06286167 289.68994141 53.70703125 C288.24532443 54.81230306 286.81453756 55.93561162 285.38671875 57.0625 C244.57608141 88.30509318 189.30047517 101.60071992 138.625 101.0625 C137.78195313 101.05798828 136.93890625 101.05347656 136.0703125 101.04882812 C134.0468422 101.03733113 132.02340982 101.01941438 130 101 C130 100.67 130 100.34 130 100 C134.95 99.67 139.9 99.34 145 99 C144.06800781 98.48953125 143.13601562 97.9790625 142.17578125 97.453125 C129.73682612 90.43733101 118.65631107 81.4892856 110 70 C110 69.67 110 69.34 110 69 C110.84369141 68.9906543 111.68738281 68.98130859 112.55664062 68.97167969 C173.52030622 68.12817807 248.47586906 46.52413094 293 2 C203.24 2 113.48 2 21 2 C26.8750865 17.66689734 32.40819553 29.36863306 44 41 C44.75539062 41.77859375 45.51078125 42.5571875 46.2890625 43.359375 C51.12434186 48.04510964 54.20429279 50 61 50 C61 50.33 61 50.66 61 51 C56.42847075 51.02485982 51.85698153 51.04293526 47.28540039 51.05493164 C45.73265904 51.05993684 44.17992234 51.06674301 42.62719727 51.07543945 C40.38556768 51.08767307 38.14400082 51.09326657 35.90234375 51.09765625 C35.21663803 51.10281754 34.53093231 51.10797882 33.82444763 51.11329651 C22.27716609 51.11461768 22.27716609 51.11461768 19.06640625 48.3125 C9.54312189 33.66890431 2.47774012 17.34418087 0 0 Z " fill="#018AB7" transform="translate(75,291)"/>
<path d="M0 0 C0.74443359 1.35931641 0.74443359 1.35931641 1.50390625 2.74609375 C12.46770447 22.51901818 26.81455637 36.62040496 47 47 C47 47.33 47 47.66 47 48 C28.81898984 48.46225921 11.79068229 48.24671018 -6 44 C-7.34873254 43.70729097 -8.69767682 43.41555514 -10.046875 43.125 C-29.01303635 38.64354415 -45.21350209 29.14398148 -60.5 17.375 C-61.06364258 16.94405029 -61.62728516 16.51310059 -62.20800781 16.0690918 C-66.34090976 12.79546334 -69.69175055 9.09656655 -73 5 C-71.42255005 4.970271 -71.42255005 4.970271 -69.81323242 4.93994141 C-38.73486956 4.89679359 -38.73486956 4.89679359 -8.10546875 0.3671875 C-5.38606926 -0.1070677 -2.75421219 -0.05500566 0 0 Z " fill="#BBD9DF" transform="translate(175,343)"/>
<path d="M0 0 C0.70769531 0.28617188 1.41539062 0.57234375 2.14453125 0.8671875 C3.7777266 1.54365895 5.39189888 2.26586688 7 3 C3.5192221 12.53867021 -3.23265386 19.110284 -12 24 C-23.29106419 29.17221288 -33.72839673 31.25147511 -46.0625 31.625 C-47.64708008 31.68300781 -47.64708008 31.68300781 -49.26367188 31.7421875 C-51.84228408 31.83553093 -54.42090608 31.92131253 -57 32 C-57.235979 32.56807373 -57.47195801 33.13614746 -57.71508789 33.72143555 C-68.34025901 59.19146653 -68.34025901 59.19146653 -73 66 C-77.05488199 67.35162733 -78.89908278 66.21259957 -82.875 64.75 C-84.69644531 64.09257812 -84.69644531 64.09257812 -86.5546875 63.421875 C-89.59368165 62.16768694 -92.24544905 60.78050822 -95 59 C-95.9075 59.78375 -96.815 60.5675 -97.75 61.375 C-102.14587529 65.01581907 -102.14587529 65.01581907 -105 66 C-105.99 65.67 -106.98 65.34 -108 65 C-107.18660156 64.319375 -106.37320312 63.63875 -105.53515625 62.9375 C-75.71640375 37.93529672 -75.71640375 37.93529672 -51.546875 7.69140625 C-47.42867425 1.24192519 -42.27611645 -0.26665866 -35 -2 C-34.25234375 -2.19207031 -33.5046875 -2.38414062 -32.734375 -2.58203125 C-22.16476075 -4.19767228 -9.8869912 -4.31220441 0 0 Z " fill="#00A8D7" transform="translate(490,217)"/>
<path d="M0 0 C13.2 0 26.4 0 40 0 C40 13.2 40 26.4 40 40 C26.8 40 13.6 40 0 40 C0 26.8 0 13.6 0 0 Z " fill="#25B4DB" transform="translate(158,210)"/>
<path d="M0 0 C13.2 0 26.4 0 40 0 C40 12.87 40 25.74 40 39 C26.8 39 13.6 39 0 39 C0 26.13 0 13.26 0 0 Z " fill="#0F92AF" transform="translate(203,211)"/>
<path d="M0 0 C13.2 0 26.4 0 40 0 C40 12.87 40 25.74 40 39 C26.8 39 13.6 39 0 39 C0 26.13 0 13.26 0 0 Z " fill="#148AA5" transform="translate(113,211)"/>
<path d="M0 0 C13.2 0 26.4 0 40 0 C40 12.87 40 25.74 40 39 C26.8 39 13.6 39 0 39 C0 26.13 0 13.26 0 0 Z " fill="#03A7CB" transform="translate(158,166)"/>
<path d="M0 0 C12.87 0 25.74 0 39 0 C39 12.87 39 25.74 39 39 C26.13 39 13.26 39 0 39 C0 26.13 0 13.26 0 0 Z " fill="#02A7CC" transform="translate(294,211)"/>
<path d="M0 0 C12.87 0 25.74 0 39 0 C39 12.87 39 25.74 39 39 C26.13 39 13.26 39 0 39 C0 26.13 0 13.26 0 0 Z " fill="#24B8E0" transform="translate(249,211)"/>
<path d="M0 0 C12.87 0 25.74 0 39 0 C39 12.87 39 25.74 39 39 C26.13 39 13.26 39 0 39 C0 26.13 0 13.26 0 0 Z " fill="#01AACF" transform="translate(249,166)"/>
<path d="M0 0 C12.87 0 25.74 0 39 0 C39 12.87 39 25.74 39 39 C26.13 39 13.26 39 0 39 C0 26.13 0 13.26 0 0 Z " fill="#28A3C5" transform="translate(204,166)"/>
<path d="M0 0 C12.87 0 25.74 0 39 0 C39 12.87 39 25.74 39 39 C26.13 39 13.26 39 0 39 C0 26.13 0 13.26 0 0 Z " fill="#24B8E0" transform="translate(249,121)"/>
<path d="M0 0 C5.61 0 11.22 0 17 0 C17.144375 2.784375 17.28875 5.56875 17.4375 8.4375 C17.77149611 14.65552454 18.19909422 20.82158402 19 27 C15.23508833 28.25497056 11.72793525 28.10661648 7.8125 28.0625 C5.234375 28.041875 2.65625 28.02125 0 28 C0 18.76 0 9.52 0 0 Z " fill="#00A7D7" transform="translate(74,257)"/>
<path d="M0 0 C1.36680153 2.26404542 2.71844445 4.53501021 4.0625 6.8125 C4.45244141 7.45509766 4.84238281 8.09769531 5.24414062 8.75976562 C6.24130759 10.4628915 7.12812687 12.22945858 8 14 C7.67 14.99 7.34 15.98 7 17 C-8.04930675 14.6875886 -21.86553676 11.72734756 -36 6 C-35.67 5.34 -35.34 4.68 -35 4 C-32.00562557 3.56837846 -29.07301281 3.24816733 -26.0625 3 C-19.98051437 2.44015195 -14.05286759 1.81777258 -8.10546875 0.3671875 C-5.38606926 -0.1070677 -2.75421219 -0.05500566 0 0 Z " fill="#CFEAEE" transform="translate(175,343)"/>
<path d="M0 0 C3.6578218 2.03993908 5.66946174 3.50419262 8 7 C8.4606067 11.97455239 8.16781812 15.06753613 5 19 C2.24116669 21.16232881 0.48457897 21.93942763 -3 22.375 C-6.42422442 21.94697195 -8.25223913 21.06082066 -11 19 C-13.81725233 14.7741215 -13.79958384 10.96375312 -13 6 C-9.14049112 1.02326486 -6.24979557 -0.60094188 0 0 Z " fill="#C3E2E7" transform="translate(198,313)"/>
<path d="M0 0 C0.33 1.65 0.66 3.3 1 5 C2.65 5 4.3 5 6 5 C5.67815583 7.89659753 5.38591512 10.31897331 3.9375 12.875 C0.76463704 14.71730752 -2.43225049 14.52772961 -6 14 C-8 12.9375 -8 12.9375 -9 11 C-9.39650104 7.36540718 -9.41637627 4.90214858 -7.875 1.5625 C-5.24871143 -0.6260738 -3.31446363 -0.29461899 0 0 Z " fill="#3E5159" transform="translate(197,317)"/>
<path d="M0 0 C1.32 0 2.64 0 4 0 C4 10.89 4 21.78 4 33 C2.68 33 1.36 33 0 33 C0 22.11 0 11.22 0 0 Z " fill="#2E5F6D" transform="translate(297,214)"/>
<path d="M0 0 C1.32 0 2.64 0 4 0 C4 10.89 4 21.78 4 33 C2.68 33 1.36 33 0 33 C0 22.11 0 11.22 0 0 Z " fill="#356372" transform="translate(191,214)"/>
<path d="M0 0 C1.32 0 2.64 0 4 0 C4 10.89 4 21.78 4 33 C2.68 33 1.36 33 0 33 C0 22.11 0 11.22 0 0 Z " fill="#356372" transform="translate(185,214)"/>
<path d="M0 0 C1.32 0 2.64 0 4 0 C4 10.89 4 21.78 4 33 C2.68 33 1.36 33 0 33 C0 22.11 0 11.22 0 0 Z " fill="#2D5F6E" transform="translate(191,169)"/>
<path d="M0 0 C1.32 0 2.64 0 4 0 C4 10.89 4 21.78 4 33 C2.68 33 1.36 33 0 33 C0 22.11 0 11.22 0 0 Z " fill="#2D5F6E" transform="translate(185,169)"/>
<path d="M0 0 C1.32 0 2.64 0 4 0 C4 10.89 4 21.78 4 33 C2.68 32.67 1.36 32.34 0 32 C0 21.44 0 10.88 0 0 Z " fill="#356371" transform="translate(167,214)"/>
<path d="M0 0 C1.32 0 2.64 0 4 0 C4 10.89 4 21.78 4 33 C2.68 32.67 1.36 32.34 0 32 C0 21.44 0 10.88 0 0 Z " fill="#2E5F6D" transform="translate(281,169)"/>
<path d="M0 0 C1.32 0 2.64 0 4 0 C4 10.89 4 21.78 4 33 C2.68 32.67 1.36 32.34 0 32 C0 21.44 0 10.88 0 0 Z " fill="#2E5F6D" transform="translate(275,169)"/>
<path d="M0 0 C1.32 0 2.64 0 4 0 C4 10.89 4 21.78 4 33 C2.68 32.67 1.36 32.34 0 32 C0 21.44 0 10.88 0 0 Z " fill="#2E5F6D" transform="translate(269,169)"/>
<path d="M0 0 C1.32 0 2.64 0 4 0 C4 10.89 4 21.78 4 33 C2.68 32.67 1.36 32.34 0 32 C0 21.44 0 10.88 0 0 Z " fill="#2E5F6D" transform="translate(263,169)"/>
<path d="M0 0 C1.32 0 2.64 0 4 0 C4 10.89 4 21.78 4 33 C2.68 32.67 1.36 32.34 0 32 C0 21.44 0 10.88 0 0 Z " fill="#2E5F6D" transform="translate(179,169)"/>
<path d="M0 0 C1.32 0 2.64 0 4 0 C4 10.89 4 21.78 4 33 C2.68 32.67 1.36 32.34 0 32 C0 21.44 0 10.88 0 0 Z " fill="#2E5F6D" transform="translate(173,169)"/>
<path d="M0 0 C1.32 0 2.64 0 4 0 C4 10.89 4 21.78 4 33 C2.68 32.67 1.36 32.34 0 32 C0 21.44 0 10.88 0 0 Z " fill="#2E5F6D" transform="translate(167,169)"/>
<path d="M0 0 C0.99 0 1.98 0 3 0 C3 10.89 3 21.78 3 33 C2.01 33 1.02 33 0 33 C0 22.11 0 11.22 0 0 Z " fill="#375762" transform="translate(282,214)"/>
<path d="M0 0 C0.99 0 1.98 0 3 0 C3 10.89 3 21.78 3 33 C2.01 33 1.02 33 0 33 C0 22.11 0 11.22 0 0 Z " fill="#375762" transform="translate(276,214)"/>
<path d="M0 0 C0.99 0 1.98 0 3 0 C3 10.89 3 21.78 3 33 C2.01 33 1.02 33 0 33 C0 22.11 0 11.22 0 0 Z " fill="#375762" transform="translate(270,214)"/>
<path d="M0 0 C0.99 0 1.98 0 3 0 C3 10.89 3 21.78 3 33 C2.01 33 1.02 33 0 33 C0 22.11 0 11.22 0 0 Z " fill="#375762" transform="translate(264,214)"/>
<path d="M0 0 C0.99 0 1.98 0 3 0 C3 10.89 3 21.78 3 33 C2.01 33 1.02 33 0 33 C0 22.11 0 11.22 0 0 Z " fill="#375762" transform="translate(180,214)"/>
<path d="M0 0 C0.99 0 1.98 0 3 0 C3 10.89 3 21.78 3 33 C2.01 33 1.02 33 0 33 C0 22.11 0 11.22 0 0 Z " fill="#375762" transform="translate(174,214)"/>
<path d="M0 0 C0.99 0 1.98 0 3 0 C3 10.89 3 21.78 3 33 C2.01 33 1.02 33 0 33 C0 22.11 0 11.22 0 0 Z " fill="#375762" transform="translate(282,124)"/>
<path d="M0 0 C0.99 0 1.98 0 3 0 C3 10.89 3 21.78 3 33 C2.01 33 1.02 33 0 33 C0 22.11 0 11.22 0 0 Z " fill="#375762" transform="translate(276,124)"/>
<path d="M0 0 C0.99 0 1.98 0 3 0 C3 10.89 3 21.78 3 33 C2.01 33 1.02 33 0 33 C0 22.11 0 11.22 0 0 Z " fill="#375762" transform="translate(270,124)"/>
<path d="M0 0 C0.99 0 1.98 0 3 0 C3 10.89 3 21.78 3 33 C2.01 33 1.02 33 0 33 C0 22.11 0 11.22 0 0 Z " fill="#375762" transform="translate(264,124)"/>
<path d="M0 0 C0.99 0 1.98 0 3 0 C3 10.56 3 21.12 3 32 C2.01 32 1.02 32 0 32 C0 21.44 0 10.88 0 0 Z " fill="#3A4C54" transform="translate(327,214)"/>
<path d="M0 0 C0.99 0 1.98 0 3 0 C3 10.56 3 21.12 3 32 C2.01 32 1.02 32 0 32 C0 21.44 0 10.88 0 0 Z " fill="#3A4C54" transform="translate(321,214)"/>
<path d="M0 0 C0.99 0 1.98 0 3 0 C3 10.56 3 21.12 3 32 C2.01 32 1.02 32 0 32 C0 21.44 0 10.88 0 0 Z " fill="#3A4C54" transform="translate(315,214)"/>
<path d="M0 0 C0.99 0 1.98 0 3 0 C3 10.56 3 21.12 3 32 C2.01 32 1.02 32 0 32 C0 21.44 0 10.88 0 0 Z " fill="#3A4C54" transform="translate(309,214)"/>
<path d="M0 0 C0.99 0 1.98 0 3 0 C3 10.56 3 21.12 3 32 C2.01 32 1.02 32 0 32 C0 21.44 0 10.88 0 0 Z " fill="#3A4C54" transform="translate(303,214)"/>
<path d="M0 0 C0.99 0 1.98 0 3 0 C3 10.56 3 21.12 3 32 C2.01 32 1.02 32 0 32 C0 21.44 0 10.88 0 0 Z " fill="#3A4C54" transform="translate(258,214)"/>
<path d="M0 0 C0.99 0 1.98 0 3 0 C3 10.56 3 21.12 3 32 C2.01 32 1.02 32 0 32 C0 21.44 0 10.88 0 0 Z " fill="#3A4C54" transform="translate(252,214)"/>
<path d="M0 0 C0.99 0 1.98 0 3 0 C3 10.56 3 21.12 3 32 C2.01 32 1.02 32 0 32 C0 21.44 0 10.88 0 0 Z " fill="#3A4C54" transform="translate(219,214)"/>
<path d="M0 0 C0.99 0 1.98 0 3 0 C3 10.56 3 21.12 3 32 C2.01 32 1.02 32 0 32 C0 21.44 0 10.88 0 0 Z " fill="#3A4C54" transform="translate(213,214)"/>
<path d="M0 0 C0.99 0 1.98 0 3 0 C3 10.56 3 21.12 3 32 C2.01 32 1.02 32 0 32 C0 21.44 0 10.88 0 0 Z " fill="#3A4C54" transform="translate(207,214)"/>
<path d="M0 0 C0.99 0 1.98 0 3 0 C3 10.56 3 21.12 3 32 C2.01 32 1.02 32 0 32 C0 21.44 0 10.88 0 0 Z " fill="#3A4C54" transform="translate(162,214)"/>
<path d="M0 0 C0.99 0 1.98 0 3 0 C3 10.56 3 21.12 3 32 C2.01 32 1.02 32 0 32 C0 21.44 0 10.88 0 0 Z " fill="#3A4C54" transform="translate(117,214)"/>
<path d="M0 0 C0.99 0 1.98 0 3 0 C3 10.56 3 21.12 3 32 C2.01 32 1.02 32 0 32 C0 21.44 0 10.88 0 0 Z " fill="#394C55" transform="translate(258,169)"/>
<path d="M0 0 C0.99 0 1.98 0 3 0 C3 10.56 3 21.12 3 32 C2.01 32 1.02 32 0 32 C0 21.44 0 10.88 0 0 Z " fill="#394C55" transform="translate(252,169)"/>
<path d="M0 0 C0.99 0 1.98 0 3 0 C3 10.56 3 21.12 3 32 C2.01 32 1.02 32 0 32 C0 21.44 0 10.88 0 0 Z " fill="#394C55" transform="translate(219,169)"/>
<path d="M0 0 C0.99 0 1.98 0 3 0 C3 10.56 3 21.12 3 32 C2.01 32 1.02 32 0 32 C0 21.44 0 10.88 0 0 Z " fill="#394C55" transform="translate(213,169)"/>
<path d="M0 0 C0.99 0 1.98 0 3 0 C3 10.56 3 21.12 3 32 C2.01 32 1.02 32 0 32 C0 21.44 0 10.88 0 0 Z " fill="#394C55" transform="translate(207,169)"/>
<path d="M0 0 C0.99 0 1.98 0 3 0 C3 10.56 3 21.12 3 32 C2.01 32 1.02 32 0 32 C0 21.44 0 10.88 0 0 Z " fill="#394C55" transform="translate(162,169)"/>
<path d="M0 0 C0.99 0 1.98 0 3 0 C3 10.56 3 21.12 3 32 C2.01 32 1.02 32 0 32 C0 21.44 0 10.88 0 0 Z " fill="#3A4C54" transform="translate(258,124)"/>
<path d="M0 0 C0.99 0 1.98 0 3 0 C3 10.56 3 21.12 3 32 C2.01 32 1.02 32 0 32 C0 21.44 0 10.88 0 0 Z " fill="#3A4C54" transform="translate(252,124)"/>
</svg>
