<?xml version="1.0" encoding="UTF-8"?>
<svg version="1.1" xmlns="http://www.w3.org/2000/svg" width="512" height="512">
<path d="M0 0 C3.25824235 1.95494541 4.60300509 3.72595705 5.73582268 7.36141491 C8.2608292 18.46257953 10.01095652 29.68439638 11.81298828 40.92114258 C12.18581636 43.22538157 12.55902624 45.52955882 12.93258667 47.8336792 C13.94054818 54.05781799 14.94309212 60.28281823 15.94455576 66.50800538 C16.88875538 72.37235491 17.83684852 78.23607393 18.78483687 84.09981199 C20.66234471 95.71400199 22.53575011 107.32884988 24.40673828 118.9440918 C26.21970512 130.19910042 28.03531954 141.45367749 29.85400391 152.70776367 C29.96615616 153.401769 30.07830842 154.09577433 30.19385923 154.81081013 C30.4198174 156.20904187 30.6457758 157.60727358 30.87173443 159.00550525 C30.98321385 159.69534261 31.09469327 160.38517998 31.20955086 161.09592152 C31.32076134 161.78408866 31.43197181 162.4722558 31.54655231 163.18127649 C33.38890332 174.58232427 35.22873788 185.98377829 37.06845236 197.38525176 C37.69490845 201.26702758 38.32169369 205.14875014 38.94852066 209.03046608 C39.93326173 215.12962198 40.91647779 221.22902189 41.89851761 227.32861328 C42.25882374 229.56518494 42.61960658 231.80167986 42.98090363 234.03809166 C43.47436185 237.0931608 43.9660598 240.14850821 44.45730591 243.20393372 C44.60020274 244.08613628 44.74309958 244.96833884 44.89032662 245.87727481 C45.69703562 250.90898971 46.39716585 255.93968807 47 261 C33.76725939 268.51192717 20.50121212 275.96071063 7.1940918 283.34008789 C-0.3809544 287.5417494 -7.94482935 291.76271169 -15.5 296 C-25.28549306 301.48740223 -35.08850303 306.9426117 -44.89868164 312.38574219 C-52.58904556 316.65477846 -60.26632858 320.94658772 -67.9375 325.25 C-75.73963527 329.62291633 -83.54709253 333.98585411 -91.375 338.3125 C-92.20765381 338.77495117 -93.04030762 339.23740234 -93.89819336 339.71386719 C-94.66139893 340.13442383 -95.42460449 340.55498047 -96.2109375 340.98828125 C-96.87399902 341.35477783 -97.53706055 341.72127441 -98.22021484 342.09887695 C-104.69039221 345.37479254 -112.95407451 345.02635699 -120 344 C-124.87734531 342.35549195 -129.10702123 340.03353915 -133.53466797 337.43408203 C-136.37447056 335.78217072 -139.24803183 334.20027556 -142.12890625 332.62109375 C-147.94478254 329.42724017 -153.73831258 326.19565038 -159.52490234 322.94921875 C-162.844005 321.08749923 -166.16565979 319.23043059 -169.48828125 317.375 C-180.45611387 311.24689255 -191.40352193 305.0833591 -202.33691406 298.89404297 C-210.42011492 294.32076232 -218.52305337 289.78322226 -226.62890625 285.25024414 C-234.86715395 280.64071772 -243.08918866 276.00299799 -251.30273438 271.34960938 C-256.85371834 268.20608512 -262.41808509 265.08828473 -268 262 C-267.41528021 258.62062718 -266.35863903 256.98516876 -263.94482231 254.57847214 C-262.96076843 253.58638359 -262.96076843 253.58638359 -261.95683467 252.57425284 C-261.22913313 251.85597194 -260.50143158 251.13769104 -259.75167847 250.39764404 C-258.98397161 249.62807947 -258.21626475 248.8585149 -257.42529404 248.0656302 C-254.83992046 245.47764806 -252.24394918 242.90056169 -249.64794922 240.32324219 C-247.79646324 238.47423849 -245.94564376 236.6245672 -244.09544373 234.77427673 C-240.10384869 230.78452075 -236.10684755 226.80024765 -232.10619736 222.81957245 C-226.31378471 217.05597504 -220.53015703 211.28362698 -214.74872901 205.50901344 C-205.35799464 196.12972994 -195.96094724 186.75679867 -186.55957031 177.38818359 C-177.44507877 168.30541349 -168.3322748 159.2209585 -159.22265625 150.13330078 C-158.66233463 149.57433274 -158.10201301 149.01536469 -157.52471195 148.43945822 C-151.40198226 142.33138244 -145.27995968 136.22259863 -139.15878487 130.11296463 C-138.62002188 129.57522003 -138.08125889 129.03747542 -137.52616975 128.48343553 C-135.37167326 126.33299184 -133.21718491 124.18254 -131.06278719 122.03199735 C-124.76498195 115.74549516 -118.46500324 109.46119022 -112.16102345 103.18087944 C-107.73327209 98.76963106 -103.30789636 94.35600684 -98.88333321 89.94156075 C-97.07143651 88.13472201 -95.25866093 86.32876411 -93.44493294 84.52376366 C-90.96436182 82.05493447 -88.48694086 79.5829848 -86.01022339 77.11029053 C-85.29590617 76.40093251 -84.58158895 75.69157449 -83.84562576 74.96072078 C-79.90054241 71.01480956 -76.13826252 66.96694114 -72.50343716 62.73285508 C-68.78743198 58.4498038 -64.69344764 54.50886106 -60.6875 50.5 C-59.78193359 49.5821875 -58.87636719 48.664375 -57.94335938 47.71875 C-57.07904297 46.8525 -56.21472656 45.98625 -55.32421875 45.09375 C-54.54135498 44.30677734 -53.75849121 43.51980469 -52.9519043 42.70898438 C-51 41 -51 41 -49 41 C-48.60612846 40.11913475 -48.60612846 40.11913475 -48.20429993 39.22047424 C-46.93931166 36.88810355 -45.60056139 35.34686143 -43.73120117 33.47241211 C-43.06678513 32.80169174 -42.40236908 32.13097137 -41.71781921 31.43992615 C-41.00011856 30.72627396 -40.28241791 30.01262177 -39.54296875 29.27734375 C-38.43300285 28.16450768 -38.43300285 28.16450768 -37.3006134 27.02919006 C-35.73533896 25.46255563 -34.16753998 23.89844007 -32.59741211 22.33666992 C-30.19999563 19.94993993 -27.8134012 17.55276472 -25.42773438 15.15429688 C-23.90428654 13.63217097 -22.38021825 12.11066575 -20.85546875 10.58984375 C-20.14384079 9.87416733 -19.43221283 9.15849091 -18.69902039 8.42112732 C-13.07337226 2.84810917 -8.32891713 -1.67254117 0 0 Z " fill="#F5831F" transform="translate(367,128)"/>
<path d="M0 0 C3.9569817 3.39594304 6.24251498 6.86051271 8.56640625 11.49609375 C8.88220139 12.11798584 9.19799652 12.73987793 9.52336121 13.38061523 C10.19670696 14.70873923 10.86578247 16.03903559 11.53088379 17.37130737 C13.27866714 20.87188931 15.05728866 24.35678136 16.83203125 27.84375 C17.1852243 28.53979843 17.53841736 29.23584686 17.90231323 29.95298767 C21.51987263 37.06472244 25.33096878 44.06540687 29.19360352 51.04663086 C30.4714653 53.35959988 31.73701672 55.67888316 33 58 C33.41185547 58.73492676 33.82371094 59.46985352 34.24804688 60.22705078 C37.05669176 65.43984768 37.05669176 65.43984768 36.79666096 68.00912499 C35.84071693 70.39805224 34.68353581 71.68914767 32.86279964 73.50634384 C32.18851325 74.18660338 31.51422686 74.86686292 30.81950754 75.56773639 C29.69744727 76.67668887 29.69744727 76.67668887 28.55271912 77.80804443 C27.76373909 78.59958774 26.97475906 79.39113104 26.16187054 80.20666051 C23.50489341 82.86859599 20.83730366 85.51963772 18.16967773 88.17089844 C16.26742915 90.0723012 14.365783 91.97428894 12.46487427 93.87702942 C8.36529281 97.97818492 4.26024865 102.07380618 0.15145683 106.16573334 C-5.7891734 112.0819959 -11.72151514 118.00651233 -17.6518582 123.9330844 C-27.27335981 133.54801802 -36.90154366 143.15623127 -46.53393555 152.76025391 C-55.89161312 162.09039991 -65.24613873 171.42368752 -74.59643555 180.76123047 C-75.17266297 181.33666972 -75.74889039 181.91210897 -76.34257925 182.50498578 C-79.23328592 185.39177738 -82.12393066 188.27863098 -85.01454461 191.16551542 C-109.00010179 215.11996588 -132.99650517 239.063524 -157 263 C-158 260 -158 260 -157.03466797 257.72949219 C-156.27114014 256.40159668 -156.27114014 256.40159668 -155.4921875 255.046875 C-154.92435547 254.04720703 -154.35652344 253.04753906 -153.77148438 252.01757812 C-152.83272461 250.40012695 -152.83272461 250.40012695 -151.875 248.75 C-151.23626953 247.63044922 -150.59753906 246.51089844 -149.93945312 245.35742188 C-148.61165657 243.0308287 -147.28081011 240.70634733 -145.94433594 238.38476562 C-143.1028461 233.43820421 -140.30237961 228.46878283 -137.5 223.5 C-136.42586889 221.60151291 -135.35164939 219.70307583 -134.27734375 217.8046875 C-129.07783719 208.60520008 -123.9241929 199.37998113 -118.76611328 190.15722656 C-115.84601863 184.93706289 -112.92286434 179.71861321 -110 174.5 C-108.83331846 172.41667499 -107.6666518 170.33334166 -106.5 168.25 C-104.16666667 164.08333333 -101.83333333 159.91666667 -99.5 155.75 C-98.92241943 154.71858887 -98.34483887 153.68717773 -97.74975586 152.62451172 C-96.58396248 150.54277268 -95.41810968 148.46106691 -94.25219727 146.37939453 C-91.3216794 141.14694077 -88.39222084 135.91389914 -85.46484375 130.6796875 C-79.2994112 119.65829479 -73.1126603 108.64954681 -66.89208984 97.65917969 C-61.15830919 87.52320095 -55.47248459 77.36050728 -49.78808594 67.19677734 C-45.03783128 58.70417297 -40.28294142 50.21416383 -35.52636719 41.72509766 C-34.18576644 39.33165787 -32.8465907 36.93742819 -31.5078125 34.54296875 C-29.73406632 31.37374704 -27.95187445 28.20945423 -26.16113281 25.04980469 C-25.31237339 23.55144807 -24.46565099 22.05193704 -23.62011719 20.55175781 C-22.14949214 17.94718033 -20.66950366 15.34811692 -19.1875 12.75 C-18.73093018 11.93869629 -18.27436035 11.12739258 -17.80395508 10.29150391 C-13.24721597 2.34810148 -9.885462 -2.386146 0 0 Z " fill="#F5831F" transform="translate(261,101)"/>
<path d="M0 0 C4.127387 0.94658454 6.6890277 3.58853599 8.99121094 7.04785156 C9.73226074 8.47049316 9.73226074 8.47049316 10.48828125 9.921875 C11.0613501 11.00742676 11.63441895 12.09297852 12.22485352 13.21142578 C12.8388116 14.40131189 13.45265921 15.59125501 14.06640625 16.78125 C14.72012854 18.02778174 15.3750213 19.27370026 16.03100586 20.51904297 C17.41973463 23.15869872 18.80255207 25.80133002 20.18115234 28.44628906 C23.3553077 34.52922345 26.58410397 40.5830771 29.80783081 46.63983154 C30.87739971 48.65341377 31.94236718 50.66936644 33.00610352 52.68603516 C36.45238959 59.21089226 39.9492827 65.69748192 43.57421875 72.125 C44.24455707 73.32508013 44.91440896 74.52543212 45.58374023 75.72607422 C46.8320101 77.9559778 48.09634341 80.17699123 49.37915039 82.38720703 C49.92949951 83.37575684 50.47984863 84.36430664 51.046875 85.3828125 C51.53567139 86.23697754 52.02446777 87.09114258 52.52807617 87.97119141 C53.82480975 92.18226243 52.02602024 95.1124616 50.1340332 98.89526367 C49.69534912 99.65556885 49.25666504 100.41587402 48.8046875 101.19921875 C48.30195313 102.07835937 47.79921875 102.9575 47.28125 103.86328125 C46.46333984 105.27673828 46.46333984 105.27673828 45.62890625 106.71875 C44.4469103 108.78458077 43.26596336 110.85101201 42.0859375 112.91796875 C41.46799316 113.99868652 40.85004883 115.0794043 40.21337891 116.19287109 C37.0376887 121.7815954 33.92893132 127.40718081 30.81640625 133.03125 C25.64015507 142.37008639 20.42131835 151.68315825 15.15795898 160.97314453 C9.42977691 171.08643317 3.75589122 181.22991584 -1.91748047 191.37402344 C-4.83757512 196.59418711 -7.76072941 201.81263679 -10.68359375 207.03125 C-11.85027529 209.11457501 -13.01694195 211.19790834 -14.18359375 213.28125 C-16.51692708 217.44791667 -18.85026042 221.61458333 -21.18359375 225.78125 C-21.76157715 226.8134668 -22.33956055 227.84568359 -22.93505859 228.90917969 C-24.0964853 230.98294746 -25.25826656 233.0565167 -26.42041016 235.12988281 C-29.4202541 240.48295826 -32.41300876 245.83982054 -35.39453125 251.203125 C-47.15922646 272.33945886 -47.15922646 272.33945886 -53.68359375 282.53125 C-54.66361166 279.39135892 -54.66168503 277.08995703 -54.15629864 273.85195255 C-54.01322047 272.91003844 -53.8701423 271.96812433 -53.72272843 270.99766737 C-53.47527579 269.45026268 -53.47527579 269.45026268 -53.2228241 267.87159729 C-52.96895863 266.22404911 -52.96895863 266.22404911 -52.70996457 264.54321712 C-52.13866421 260.8486396 -51.55600071 257.15594412 -50.97338867 253.46313477 C-50.56232836 250.82054552 -50.15188934 248.17786657 -49.74220276 245.5350647 C-48.74208237 239.09323061 -47.73343139 232.65275995 -46.72181817 226.21272177 C-45.54425009 218.71447636 -44.37462831 211.21499815 -43.205223 203.71547615 C-41.11835423 190.33425097 -39.02353164 176.95428279 -36.92456055 163.57495117 C-34.8875127 150.59032602 -32.85713993 137.60467892 -30.83374023 124.61791992 C-28.63110659 110.48083945 -26.42471309 96.3443554 -24.21182519 82.20887607 C-23.97585828 80.70153171 -23.73989356 79.19418701 -23.50393105 77.68684196 C-23.32977175 76.57434874 -23.32977175 76.57434874 -23.15209409 75.4393809 C-22.33394919 70.21168876 -21.51842256 64.983592 -20.70384789 59.75534248 C-19.71094141 53.3831608 -18.71370949 47.01167362 -17.71097847 40.64103026 C-17.19941676 37.39028442 -16.69039062 34.13917786 -16.18523026 30.88743019 C-15.63741898 27.36335968 -15.08232296 23.84051305 -14.52531433 20.31788635 C-14.36703807 19.28851395 -14.2087618 18.25914154 -14.04568928 17.19857603 C-13.89478787 16.25405418 -13.74388646 15.30953232 -13.58841228 14.33638859 C-13.46104362 13.52329733 -13.33367496 12.71020607 -13.20244664 11.87247568 C-11.39673773 3.72455524 -8.3924781 0.11676491 0 0 Z " fill="#F5821F" transform="translate(163.68359375,39.46875)"/>
</svg>
