<?xml version="1.0" encoding="UTF-8"?>
<svg version="1.1" xmlns="http://www.w3.org/2000/svg" width="512" height="512">
<path d="M0 0 C0.85550446 0.09427528 1.71100891 0.18855057 2.59243774 0.28568268 C24.18138334 2.71076931 44.94921692 7.03511154 65.5625 13.9375 C61.779357 18.4537914 57.87766624 22.76687242 53.70171547 26.92133236 C53.14100583 27.48319584 52.5802962 28.04505932 52.00259537 28.62394896 C50.13369658 30.49548277 48.26126971 32.36344495 46.38882446 34.23143005 C45.0304982 35.59019265 43.67239182 36.94917509 42.31448591 38.30835778 C38.5905691 42.03450721 34.86354713 45.75753706 31.13600564 49.48005998 C27.11381227 53.49793137 23.09451286 57.51869592 19.07485962 61.53910828 C12.11282612 68.5016659 5.14896532 75.46239151 -1.81614304 82.42187309 C-11.88649569 92.48409569 -21.95408304 102.54908133 -32.02099951 112.61474157 C-48.35432917 128.94588309 -64.68988589 145.27479473 -81.02685547 161.60229492 C-96.89586974 177.46212167 -112.76383096 193.32300079 -128.63037109 209.18530273 C-129.11963228 209.67443239 -129.60889346 210.16356205 -130.11298074 210.66751381 C-135.02643765 215.57965218 -139.9398732 220.49181193 -144.85329311 225.40398732 C-186.04479917 266.58505612 -227.23990672 307.76252088 -268.4375 348.9375 C-272.41007858 346.63608355 -275.40996441 344.203424 -278.65161133 340.93457031 C-279.14667679 340.43819061 -279.64174225 339.94181091 -280.15180969 339.4303894 C-281.77904216 337.79669416 -283.39917147 336.1561345 -285.01953125 334.515625 C-286.15855906 333.37031803 -287.2981094 332.22553052 -288.43815613 331.08123779 C-291.43629457 328.06981895 -294.428819 325.05288841 -297.41973877 322.03430176 C-302.19414702 317.21674599 -306.97519669 312.40580733 -311.75971031 307.59828949 C-313.41932162 305.92856443 -315.07541164 304.25540723 -316.7311554 302.58184814 C-321.6189856 297.65530495 -326.54171228 292.83378617 -331.82304382 288.32363892 C-333.80351486 286.62324716 -335.66284333 284.8262161 -337.5 282.97265625 C-338.15097656 282.31845703 -338.80195313 281.66425781 -339.47265625 280.99023438 C-340.12105469 280.33345703 -340.76945312 279.67667969 -341.4375 279 C-342.45650391 277.97422852 -342.45650391 277.97422852 -343.49609375 276.92773438 C-345.14558359 275.26662841 -346.7926668 273.60321487 -348.4375 271.9375 C-346.85785813 268.08722794 -344.40605605 265.69124465 -341.45703125 262.796875 C-340.96595383 262.31099915 -340.4748764 261.82512329 -339.96891785 261.32452393 C-338.40064352 259.77399697 -336.82586518 258.23030844 -335.25 256.6875 C-333.69280129 255.15819069 -332.1371917 253.62735053 -330.5846405 252.09332275 C-329.16368497 250.69001463 -327.73787088 249.29163111 -326.31176758 247.89355469 C-324.21240082 245.77847693 -322.22842778 243.59041953 -320.27272034 241.34199524 C-319.65507026 240.63322927 -319.03742018 239.92446331 -318.40105343 239.19421959 C-317.7530808 238.44950212 -317.10510817 237.70478466 -316.4375 236.9375 C-283.8294609 199.5664634 -250.50101849 162.90383734 -216.34230596 126.94318229 C-214.44151827 124.94173108 -212.54220505 122.9388881 -210.6429534 120.93597937 C-86.55780191 -9.81505296 -86.55780191 -9.81505296 0 0 Z " fill="#3DB6D3" transform="translate(397.4375,-13.9375)"/>
<path d="M0 0 C4.41039445 0.10733102 8.82105147 0.11633908 13.23255038 0.13643193 C21.56012774 0.18896981 29.88384532 0.32803515 38.20973366 0.49937326 C47.69912043 0.69035427 57.18870596 0.78309584 66.67954051 0.86819565 C86.17839617 1.04520258 105.67367498 1.34360185 125.16957736 1.72369695 C123.61513047 4.99340719 121.9664843 7.16610949 119.38173556 9.72272038 C118.60365039 10.49742681 117.82556521 11.27213323 117.0239017 12.0703156 C116.18123248 12.89952519 115.33856326 13.72873479 114.47035861 14.58307195 C113.60194842 15.44628057 112.73353824 16.30948918 111.83881259 17.19885564 C109.05793151 19.96191845 106.27048418 22.71823069 103.48207736 25.47369695 C100.71235266 28.21569305 97.94413324 30.9591653 95.17890048 33.70569158 C93.45873646 35.41372395 91.73590675 37.11907734 90.00998569 38.82129216 C86.46462667 42.33748376 82.99255713 45.85960873 79.74062228 49.65045476 C75.76315623 54.27652396 71.45561744 58.5509406 67.12441134 62.84402776 C65.63243493 64.32301604 64.14380183 65.80530196 62.65590549 67.28839421 C58.96289582 70.96817082 55.26440624 74.64242322 51.56606174 78.3168366 C48.42887432 81.43415324 45.29384134 84.55360783 42.16152072 87.67581487 C40.70859828 89.12234763 39.25265455 90.56578862 37.79653049 92.00909734 C33.3062321 96.48287542 28.97477178 101.00703724 24.84850192 105.81769109 C21.80803785 109.26939015 18.53085053 112.48464517 15.26723361 115.72369695 C14.54466876 116.44484685 13.82210391 117.16599675 13.07764316 117.90899968 C10.79815132 120.18295109 8.51518496 122.45337648 6.23207736 124.72369695 C4.6739023 126.2768493 3.11595743 127.83023262 1.55824924 129.3838532 C-2.23532052 133.1664731 -6.03194539 136.9460059 -9.83042264 140.72369695 C-4.11540359 147.71170921 2.30328186 153.98336386 8.69252658 160.34430242 C9.96455442 161.61440888 11.23635314 162.88474484 12.50794101 164.1552918 C15.23527177 166.87947329 17.96414525 169.60209639 20.69423175 172.32351613 C25.00729986 176.62302871 29.31652127 180.92638284 33.62517428 185.23031926 C42.76201373 194.35608035 51.9030903 203.47759185 61.04457736 212.59869695 C70.93460444 222.46670939 80.82389916 232.33544928 90.70834816 242.20904958 C94.99627902 246.49198457 99.28663935 250.77246669 103.5788455 255.05111694 C106.23863306 257.70347756 108.89637627 260.35787922 111.55355144 263.01285672 C112.79112005 264.24854397 114.02955728 265.48336193 115.26889873 266.71727109 C116.95242387 268.39364498 118.63289986 270.07301555 120.31261325 271.75320745 C121.05937267 272.49457442 121.05937267 272.49457442 121.82121813 273.25091851 C125.16957736 276.60960363 125.16957736 276.60960363 125.16957736 277.72369695 C104.62886961 277.98105037 84.08842895 278.17482484 63.54643416 278.29363084 C54.00758685 278.35026982 44.46974318 278.427438 34.93154025 278.55353093 C26.61461669 278.66342609 18.29842015 278.73419661 9.98079067 278.75867039 C5.57919769 278.77297013 1.17968385 278.80638998 -3.22124028 278.88672757 C-7.37106381 278.96186172 -11.5179695 278.98433578 -15.66840863 278.96788144 C-17.18459161 278.97088747 -18.70088044 278.99250292 -20.21647191 279.03495717 C-27.34478675 279.22469965 -33.19559366 279.01408444 -38.5907039 273.94532305 C-40.79169191 271.63614739 -42.80834679 269.18966103 -44.83042264 266.72369695 C-48.10022082 263.36510648 -51.45264507 260.30101266 -55.08432889 257.34869695 C-56.83042264 255.72369695 -56.83042264 255.72369695 -58.67417264 253.41119695 C-61.17935764 250.28879246 -63.91771687 247.52764469 -66.76792264 244.72369695 C-67.28032498 244.21580632 -67.79272733 243.7079157 -68.32065701 243.18463445 C-69.34139611 242.17297436 -70.36311783 241.16230471 -71.38584256 240.15265203 C-72.67968756 238.87280164 -73.9664683 237.58581895 -75.25229764 236.2979157 C-77.28493304 234.26836004 -79.32901815 232.25288019 -81.38120389 230.2432282 C-82.63518649 229.00762859 -83.88909147 227.77195022 -85.14292264 226.53619695 C-85.78809842 225.90777898 -86.4332742 225.27936101 -87.09800076 224.63190007 C-88.01162381 223.72794499 -88.01162381 223.72794499 -88.94370389 222.8057282 C-89.77575345 221.98938909 -89.77575345 221.98938909 -90.62461209 221.15655828 C-91.83042264 219.72369695 -91.83042264 219.72369695 -91.83042264 217.72369695 C-92.49042264 217.72369695 -93.15042264 217.72369695 -93.83042264 217.72369695 C-95.31282258 216.22073483 -95.31282258 216.22073483 -97.02135587 214.16287541 C-100.43798468 210.14773659 -104.02836798 206.40198151 -107.775491 202.69684148 C-108.43000241 202.04539662 -109.08451383 201.39395177 -109.75885892 200.72276616 C-111.16436043 199.32435892 -112.5709908 197.92708549 -113.97865987 196.53086019 C-116.20412392 194.32291849 -118.42591178 192.11133722 -120.64672208 189.89871526 C-126.95572336 183.61406879 -133.27049187 177.3352398 -139.58945584 171.06061101 C-143.46610487 167.2106582 -147.3379389 163.35591801 -151.20679784 159.49813771 C-152.68138607 158.02977187 -154.15787076 156.56330805 -155.63625264 155.0987618 C-157.69239289 153.06171888 -159.74240908 151.01869984 -161.791116 148.97418523 C-162.40661817 148.36744466 -163.02212033 147.76070409 -163.65627408 147.13557744 C-167.83042264 142.95159601 -167.83042264 142.95159601 -167.83042264 140.72369695 C-168.49042264 140.72369695 -169.15042264 140.72369695 -169.83042264 140.72369695 C-168.29629225 137.08891721 -166.12683582 134.77570456 -163.34468961 132.00418401 C-162.88632846 131.54481958 -162.42796731 131.08545514 -161.95571643 130.61217058 C-160.42117991 129.0766827 -158.8796161 127.54845201 -157.337991 126.02008367 C-156.2354476 124.91974182 -155.13335184 123.81895128 -154.03167081 122.71774602 C-151.65987837 120.34888586 -149.28496484 117.98321581 -146.90758443 115.61996388 C-143.15095321 111.88559033 -139.40141523 108.14414919 -135.65282559 104.40170598 C-129.72569219 98.48595235 -123.79390394 92.57489157 -117.86007577 86.66585386 C-107.2262135 76.07633709 -96.59794877 65.48120929 -85.97486144 54.88088357 C-82.24455205 51.15899809 -78.51145266 47.43993995 -74.77611077 43.72310543 C-72.45720157 41.41481384 -70.14030139 39.10451362 -67.82390523 36.79370046 C-66.74640884 35.71968428 -65.6680413 34.64654128 -64.58875775 33.57432103 C-63.11993786 32.11490559 -61.65418894 30.65247408 -60.18917203 29.1892426 C-59.36676495 28.37035495 -58.54435786 27.55146729 -57.69702935 26.70776486 C-55.77809958 24.85834708 -55.77809958 24.85834708 -54.83042264 22.72369695 C-54.17042264 22.72369695 -53.51042264 22.72369695 -52.83042264 22.72369695 C-52.5547266 22.14724903 -52.27903056 21.57080112 -51.9949801 20.97688508 C-40.50163672 -1.26045903 -22.0154483 -0.62734249 0 0 Z " fill="#3DB6D3" transform="translate(337.8304226398468,234.27630305290222)"/>
<path d="M0 0 C3.19667418 1.39195075 5.34961683 3.70720885 7.75896072 6.15463257 C8.30957444 6.70197744 8.86018816 7.24932232 9.42748713 7.8132534 C11.27408943 9.65256192 13.10975578 11.50241129 14.94566727 13.35238647 C16.2658007 14.67172924 17.58658705 15.99041897 18.90797806 17.3085022 C22.49712387 20.89250778 26.07685149 24.48578845 29.65485859 28.08090973 C33.39474079 31.83580521 37.14270456 35.58261709 40.88969803 39.33041382 C47.17933688 45.62374667 53.46330745 51.9226933 59.74351883 58.22543335 C67.8164272 66.32724125 75.89860059 74.41974027 83.98374176 82.50933838 C90.92194386 89.45151382 97.85587714 96.39794847 104.7891264 103.34506989 C107.02459406 105.58464402 109.26065391 107.82362564 111.49679184 110.06253052 C115.00238991 113.57300696 118.50532447 117.08612005 122.00616455 120.60134125 C123.29534471 121.89505962 124.58538228 123.18792421 125.87631226 124.47989655 C127.63005851 126.23537743 129.3807113 127.99388357 131.13054276 129.75326538 C131.64920135 130.27105749 132.16785994 130.7888496 132.70223546 131.32233238 C136.19078445 134.83974157 136.19078445 134.83974157 136.19078445 135.95394897 C115.65007671 136.2113024 95.10963604 136.40507687 74.56764126 136.52388287 C65.02879395 136.58052185 55.49095028 136.65769002 45.95274734 136.78378296 C37.63582378 136.89367812 29.31962724 136.96444863 21.00199777 136.98892242 C16.60040478 137.00322216 12.20089094 137.03664201 7.79996681 137.1169796 C3.65014328 137.19211375 -0.4967624 137.2145878 -4.64720154 137.19813347 C-6.16338452 137.2011395 -7.67967335 137.22275494 -9.19526482 137.2652092 C-16.32357965 137.45495168 -22.17438657 137.24433646 -27.56949681 132.17557508 C-29.77048482 129.86639942 -31.7871397 127.41991306 -33.80921555 124.95394897 C-37.07901373 121.59535851 -40.43143797 118.53126469 -44.0631218 115.57894897 C-45.80921555 113.95394897 -45.80921555 113.95394897 -47.65296555 111.64144897 C-50.15815054 108.51904449 -52.89650978 105.75789672 -55.74671555 102.95394897 C-56.51531906 102.19211304 -56.51531906 102.19211304 -57.29944992 101.41488647 C-58.31945424 100.40395462 -59.34060368 99.39417678 -60.36292648 98.3855896 C-61.66883965 97.0929031 -62.96428795 95.78966546 -64.2584343 94.48519897 C-66.20501261 92.55352555 -68.17336414 90.66918414 -70.17640305 88.79769897 C-71.34585761 87.68330842 -72.51512598 86.56872244 -73.68421555 85.45394897 C-74.59300461 84.62057007 -74.59300461 84.62057007 -75.52015305 83.77035522 C-79.71001921 79.7233254 -79.71001921 79.7233254 -80.12952805 76.46957397 C-78.09337791 72.59004532 -75.06891095 70.07907358 -71.80921555 67.20394897 C-70.34838198 65.87857452 -68.8901396 64.55033965 -67.43421555 63.21957397 C-66.67495773 62.52670288 -65.91569992 61.83383179 -65.1334343 61.1199646 C-60.5358587 56.83533323 -56.14902933 52.33696954 -51.74671555 47.85336304 C-48.53808189 44.6055615 -45.30167985 41.46408508 -41.84046555 38.48519897 C-37.43718372 34.6925285 -33.37934631 30.59821691 -29.30921555 26.45394897 C-24.5726972 21.63115525 -19.7805201 16.9984822 -14.65296555 12.59262085 C-11.45087225 9.7466926 -8.55837477 6.60599696 -5.6803093 3.43441772 C-2.34032681 -0.05956971 -2.34032681 -0.05956971 0 0 Z " fill="#185899" transform="translate(326.8092155456543,376.0460510253906)"/>
<path d="M0 0 C27 27 54 54 81 81 C80.32517578 81.56654297 80.32517578 81.56654297 79.63671875 82.14453125 C74.46371596 86.57112883 69.66209478 91.28580655 64.90625 96.15625 C62.75162378 98.31698863 60.50044119 100.32250635 58.1875 102.3125 C53.7386275 106.16482869 49.62170735 110.30321601 45.5 114.5 C41.47246274 118.6008986 37.46363908 122.65936764 33.09765625 126.40234375 C28.11342316 130.69047544 23.54922706 135.38126688 18.9375 140.0625 C9.37650232 149.7669485 9.37650232 149.7669485 5.00390625 153.43359375 C1.90837922 155.8424463 1.90837922 155.8424463 0 159 C0 158.34 0 157.68 0 157 C-0.66 157 -1.32 157 -2 157 C-3.48239994 155.49703789 -3.48239994 155.49703789 -5.19093323 153.43917847 C-8.60756204 149.42403964 -12.19794534 145.67828456 -15.94506836 141.97314453 C-16.59957977 141.32169968 -17.25409119 140.67025482 -17.92843628 139.99906921 C-19.33393779 138.60066198 -20.74056816 137.20338854 -22.14823723 135.80716324 C-24.37370128 133.59922155 -26.59548914 131.38764028 -28.81629944 129.17501831 C-35.12530072 122.89037185 -41.44006923 116.61154286 -47.7590332 110.33691406 C-51.63568223 106.48696125 -55.50751626 102.63222107 -59.3763752 98.77444077 C-60.85096343 97.30607493 -62.32744812 95.8396111 -63.80583 94.37506485 C-65.86197025 92.33802193 -67.91198644 90.29500289 -69.96069336 88.25048828 C-70.57619553 87.64374771 -71.19169769 87.03700714 -71.82585144 86.41188049 C-76 82.22789906 -76 82.22789906 -76 80 C-76.66 80 -77.32 80 -78 80 C-76.65972043 77.01906991 -75.18468111 74.93654685 -72.87423706 72.63372803 C-72.23201202 71.98875366 -71.58978699 71.3437793 -70.92810059 70.67926025 C-70.22463501 69.98298523 -69.52116943 69.28671021 -68.79638672 68.56933594 C-68.0548233 67.82748047 -67.31325989 67.085625 -66.54922485 66.32128906 C-64.09742329 63.87088061 -61.63861395 61.427632 -59.1796875 58.984375 C-57.47817175 57.28658943 -55.77709708 55.58836171 -54.07644653 53.88970947 C-49.59935194 49.42025084 -45.11628362 44.95683086 -40.63195801 40.49462891 C-36.05701531 35.94014532 -31.48772952 31.37999433 -26.91796875 26.8203125 C-17.95085005 17.87464308 -8.97760292 8.9351471 0 0 Z " fill="#26AACD" transform="translate(246,295)"/>
</svg>
