<?xml version="1.0" encoding="UTF-8"?>
<svg version="1.1" xmlns="http://www.w3.org/2000/svg" width="512" height="512">
<path d="M0 0 C145.2 0 290.4 0 440 0 C440 6.50966825 439.99168387 12.72433034 439.39371586 19.15431976 C439.29539539 20.2762064 439.29539539 20.2762064 439.19508865 21.42075741 C438.9766996 23.89922295 438.7514365 26.37701213 438.52613831 28.8548584 C438.36557052 30.66059019 438.20542902 32.46635993 438.04567474 34.27216387 C437.60732587 39.2130039 437.16291976 44.15328289 436.71748245 49.09348822 C436.23745957 54.42914848 435.76307342 59.76531031 435.28796387 65.10140991 C434.35726476 75.5441549 433.42133228 85.9864245 432.48356313 96.42853671 C431.39202276 108.58473598 430.30538963 120.7413724 429.21888613 132.89802271 C427.28081339 154.58049635 425.33785618 176.26252958 423.39233398 197.94433594 C421.50340964 218.99539754 419.61859008 240.04682171 417.73803711 261.09863281 C415.69032998 284.02159054 413.64034035 306.94434197 411.58637375 329.86673975 C411.36757305 332.3086054 411.14877364 334.75047116 410.92997551 337.19233704 C410.82231592 338.39382211 410.71465633 339.59530719 410.60373433 340.8332009 C409.84402382 349.31322368 409.0859099 357.79338833 408.32837105 366.27360535 C407.40608342 376.59738596 406.48116998 386.92092736 405.55287952 397.24417001 C405.07904695 402.51420072 404.60638729 407.78432974 404.13684654 413.05474472 C403.70753078 417.87324804 403.27489739 422.6914412 402.8395431 427.50940257 C402.68213503 429.25799254 402.5259663 431.00669457 402.37112135 432.75551337 C402.16145103 435.12145938 401.94737235 437.48696518 401.73212528 439.85240936 C401.67218282 440.54087861 401.61224037 441.22934786 401.55048147 441.93867981 C401.28511765 444.80856642 400.91633173 447.25100481 400 450 C397.52534578 450.98745327 395.17707895 451.77723367 392.625 452.5 C391.90127197 452.71503174 391.17754395 452.93006348 390.43188477 453.15161133 C385.48349148 454.61083033 380.51526983 456.00650084 375.52734375 457.32421875 C373.00434045 457.99883942 370.49525028 458.71634489 367.98457336 459.43519592 C364.52822742 460.4188624 361.06476985 461.37675959 357.6015625 462.3359375 C356.76603851 462.56747025 355.93051453 462.79900299 355.06967163 463.03755188 C352.25491794 463.81719648 349.43998098 464.59617646 346.625 465.375 C345.64499023 465.64623688 344.66498047 465.91747375 343.65527344 466.19692993 C319.98442831 472.74609283 296.29549365 479.22932245 272.60599709 485.71062565 C269.47855163 486.56631513 266.35117649 487.42226139 263.22380447 488.27821922 C261.0567082 488.87120169 258.88948784 489.463729 256.72225952 490.05622864 C255.3981674 490.41856876 254.07408059 490.7809283 252.75 491.14331055 C251.61046875 491.45495651 250.4709375 491.76660248 249.296875 492.08769226 C242.07430026 494.06087827 242.07430026 494.06087827 234.9765625 496.4296875 C224.18740311 500.12553794 216.82094783 500.10506099 206.03076172 496.63183594 C202.87325703 495.64943366 199.65675322 494.93832686 196.4375 494.1875 C190.01170462 492.56893366 183.65949227 490.75502803 177.3046875 488.87890625 C164.37781439 485.08643744 151.41342962 481.43271078 138.44067383 477.80078125 C134.64563085 476.73827784 130.85109644 475.67397323 127.05664062 474.609375 C124.60419538 473.92177259 122.15172244 473.23426894 119.69921875 472.546875 C118.58447678 472.23433777 117.4697348 471.92180054 116.32121277 471.59979248 C108.55387862 469.4256469 100.77549662 467.29491696 92.99076843 465.184021 C86.07886792 463.30964136 79.16991199 461.4249227 72.26367188 459.52978516 C69.74122932 458.83961503 67.21777617 458.15312852 64.69335938 457.47021484 C61.03250101 456.47916683 57.37537326 455.47529541 53.71875 454.46875 C52.58755737 454.16553833 51.45636475 453.86232666 50.29089355 453.54992676 C49.24550415 453.25952515 48.20011475 452.96912354 47.12304688 452.66992188 C46.20358276 452.41915894 45.28411865 452.168396 44.33679199 451.91003418 C41.68585968 450.87766201 40.70176008 450.273869 39 448 C38.5187395 445.55607885 38.21743656 443.30565184 38.02177906 440.83679199 C37.95247095 440.09880672 37.88316285 439.36082145 37.81175449 438.60047299 C37.58113802 436.10899005 37.37001327 433.61623128 37.15864563 431.12304688 C36.99634444 429.32565488 36.83285557 427.52836981 36.66827649 425.73118496 C36.21816575 420.77774802 35.78505874 415.8229465 35.35462654 410.86776614 C34.88794488 405.52926129 34.40568316 400.19216194 33.92532349 394.85487366 C32.98606049 384.39097948 32.06126199 373.92585426 31.14121071 363.46025532 C30.06939345 351.27478678 28.98311825 339.09062044 27.8961493 326.90649569 C25.95679572 305.16242802 24.03027472 283.41724249 22.11108398 261.67138672 C20.24881505 240.57066155 18.37816836 219.47070239 16.49780273 198.37158203 C16.38209808 197.07327257 16.26639342 195.77496311 16.14718256 194.43731093 C15.97392256 192.49322038 15.97392256 192.49322038 15.79716235 190.50985527 C15.56459549 187.90029802 15.33203109 185.29074055 15.09946918 182.68118286 C14.9847755 181.39423724 14.87008181 180.10729161 14.75191255 178.78134763 C12.9608346 158.6804914 11.17712373 138.57898061 9.39429683 118.47739112 C8.74808976 111.19220544 8.10086357 103.90711112 7.45291344 96.62208027 C6.42457333 85.05969141 5.39943622 73.49702835 4.38083855 61.9337768 C3.91536594 56.65028286 3.44840717 51.36693228 2.97726631 46.08394051 C2.54573334 41.24437584 2.11872445 36.40443373 1.69528236 31.56415462 C1.54159805 29.81626731 1.38630222 28.06852075 1.22920183 26.32093716 C1.01521248 23.93764063 0.80724729 21.55388835 0.60069752 19.16993713 C0.53898559 18.49859287 0.47727366 17.8272486 0.41369167 17.13556057 C-0.0754601 11.36563999 0 5.86207855 0 0 Z " fill="#E44D26" transform="translate(36,6)"/>
<path d="M0 0 C91.08 0 182.16 0 276 0 C274.50550087 18.68123911 272.80520439 37.34622131 271 56 C201.7 56 132.4 56 61 56 C62.32 71.84 63.64 87.68 65 104 C65 106.64 65 109.28 65 112 C131 112 197 112 265 112 C265 118.6704057 264.9621683 125.05185266 264.36083984 131.64672852 C264.29233574 132.44088291 264.22383163 133.23503731 264.15325165 134.05325699 C263.92702894 136.66222667 263.69404942 139.27054385 263.4609375 141.87890625 C263.29739014 143.7477432 263.13424265 145.61661517 262.97146606 147.48551941 C262.53519344 152.48001753 262.09291341 157.47396643 261.64932251 162.46781921 C261.28287191 166.60181328 260.91998074 170.7361165 260.55713272 174.87042809 C257.45129648 210.25412023 254.26130333 245.63030718 251 281 C246.60546875 282.22070312 242.2109375 283.44140625 237.81640625 284.66210938 C237.0231192 284.88246857 236.22983215 285.10282776 235.4125061 285.3298645 C233.79269758 285.7798079 232.17288552 286.22973855 230.55307007 286.67965698 C226.00419976 287.94316193 226.00419976 287.94316193 221.45556641 289.20751953 C217.87533335 290.20305929 214.29417001 291.19499489 210.7109375 292.1796875 C203.12128094 294.26997892 195.55249044 296.41692128 188.00097656 298.64160156 C178.99504858 301.29470687 170.0031819 303.85033735 160.8671875 306.015625 C158.0121866 306.7423525 155.24804925 307.53111003 152.4453125 308.421875 C143.27242626 311.29853945 136.47718138 312.83670735 127 310 C126.02160156 309.73703125 125.04320312 309.4740625 124.03515625 309.203125 C121.09700213 308.39112604 118.17617801 307.53139677 115.25488281 306.66113281 C110.57901193 305.29016504 105.88105324 303.99634855 101.1875 302.6875 C99.01298684 302.07954865 96.83850821 301.47147378 94.6640625 300.86328125 C93.56481445 300.55600098 92.46556641 300.2487207 91.33300781 299.93212891 C88.04203307 299.01175522 84.75141656 298.09011291 81.4609375 297.16796875 C80.39939453 296.87051758 79.33785156 296.57306641 78.24414062 296.26660156 C76.12821429 295.6736486 74.01232866 295.08055036 71.89648438 294.48730469 C67.3110215 293.20262194 62.72481467 291.92128616 58.1328125 290.66015625 C47.03587515 287.61020487 36.0115534 284.34484555 25 281 C23.15863687 264.87110153 21.55169441 248.72299297 20.08483887 232.55599976 C19.90479551 230.5769956 19.72278182 228.5981696 19.53869629 226.61953735 C19.27626299 223.78983871 19.02188362 220.95951975 18.76953125 218.12890625 C18.691548 217.30042175 18.61356476 216.47193726 18.53321838 215.61834717 C17.92875225 208.6693827 18 202.06093029 18 195 C35.82 195 53.64 195 72 195 C73.23745738 201.18728688 74.33828922 206.97443289 74.8515625 213.1953125 C74.94719986 214.27279251 74.94719986 214.27279251 75.04476929 215.37203979 C75.24335536 217.62261028 75.43433064 219.87374651 75.625 222.125 C75.75990869 223.66931529 75.89532153 225.21358663 76.03125 226.7578125 C76.35997717 230.50472726 76.68189022 234.25216952 77 238 C77.82910889 238.21092285 78.65821777 238.4218457 79.51245117 238.63916016 C83.40493755 239.63132562 87.29654403 240.62685162 91.1875 241.625 C92.24268326 241.89561249 92.24268326 241.89561249 93.31918335 242.17169189 C103.00085537 244.65935813 112.64638723 247.2330697 122.2253418 250.09619141 C124.47646777 250.76072513 126.73409739 251.38789926 129 252 C129.79543213 252.22913086 130.59086426 252.45826172 131.41040039 252.69433594 C138.19023818 254.40010614 143.19140676 253.48758848 149.8125 251.5 C151.2960498 251.0836731 151.2960498 251.0836731 152.80957031 250.65893555 C155.87925482 249.79287041 158.9393549 248.89741592 162 248 C163.92514994 247.45220354 165.85091547 246.90656507 167.77734375 246.36328125 C174.05220037 244.58845161 180.31763857 242.78186736 186.578125 240.95703125 C187.54234375 240.68246094 188.5065625 240.40789062 189.5 240.125 C190.66015625 239.78855469 190.66015625 239.78855469 191.84375 239.4453125 C194 239 194 239 199 239 C199.33 233.06 199.66 227.12 200 221 C201.65 203.18 203.3 185.36 205 167 C142.3 167 79.6 167 15 167 C14.28282542 164.13130166 13.80943565 161.75685969 13.55444336 158.86523438 C13.47993454 158.03782242 13.40542572 157.21041046 13.32865906 156.35792542 C13.24985001 155.44574753 13.17104095 154.53356964 13.08984375 153.59375 C13.00197098 152.60612167 12.91409821 151.61849335 12.82356262 150.60093689 C12.52497835 147.23423492 12.23118588 143.86713258 11.9375 140.5 C11.72513516 138.08990748 11.51256334 135.67983318 11.29980469 133.26977539 C10.74613538 126.98538261 10.1962534 120.70066589 9.64775276 114.41582012 C9.09959741 108.13628646 8.54932588 101.85693973 7.99853516 95.57763672 C7.00355897 84.23267308 6.01171882 72.88743719 5.02119827 61.54208374 C4.75101236 58.44908912 4.48039407 55.35613258 4.20968628 52.26318359 C3.7768119 47.31581461 3.34559982 42.36830318 2.91556358 37.42068672 C2.75591497 35.58657886 2.59575851 33.75251511 2.43503761 31.9185009 C2.2114286 29.3656315 1.98977664 26.81259871 1.76855469 24.25952148 C1.70518889 23.5410479 1.6418231 22.82257431 1.57653713 22.0823288 C0.94307296 14.72548504 0.49153565 7.37303469 0 0 Z " fill="#FEFEFE" transform="translate(118,98)"/>
<path d="M0 0 C59.4 0 118.8 0 180 0 C177.84571742 29.08281479 177.84571742 29.08281479 176.44677734 41.00439453 C175.78313764 46.75668733 175.38364928 52.52792532 174.96783447 58.30255127 C173.55014817 77.78752147 171.69614841 97.23186516 169.85627365 116.68029404 C167.52542483 141.31881201 165.27249846 165.95907962 163.25 190.625 C163.09606781 192.50164337 163.09606781 192.50164337 162.93902588 194.41619873 C162.54803337 199.18624489 162.15718894 203.95630308 161.76693726 208.72640991 C160.79960505 220.51367837 159.72916342 232.28987715 158.63496399 244.06602478 C157.99650719 250.97329683 157.38769611 257.88316599 156.77734375 264.79296875 C156.55469992 267.30826933 156.33204355 269.8235688 156.109375 272.33886719 C155.77708181 276.0933721 155.44536433 279.84792244 155.11572266 283.60266113 C153.12892662 306.22364314 153.12892662 306.22364314 151.9765625 316.09375 C150.64381984 327.5543716 149.82536751 339.06061819 148.9375 350.5625 C148.67704455 353.91553135 148.4157147 357.26848906 148.15272522 360.62132263 C147.99084884 362.68700488 147.8304581 364.75280433 147.67185974 366.81874084 C147.22356082 372.5617978 146.66777134 378.27818821 146 384 C140.42644192 385.55777105 134.85272124 387.11495864 129.27883911 388.67156982 C127.30215228 389.22361292 125.32548803 389.77573687 123.34884644 390.32794189 C103.73945259 395.80541272 103.73945259 395.80541272 94.390625 398.3671875 C93.14611572 398.7082251 91.90160645 399.0492627 90.61938477 399.40063477 C89.44561279 399.72217529 88.27184082 400.04371582 87.0625 400.375 C78.50656232 402.71976727 70.00144872 405.18257034 61.52075195 407.78491211 C53.51849981 410.20743216 45.42357088 412.24930401 37.32177734 414.30908203 C28.29185398 416.6208555 19.34705218 419.17029393 10.42480469 421.86694336 C9.49055664 422.14675049 8.55630859 422.42655762 7.59375 422.71484375 C6.36688477 423.08790649 6.36688477 423.08790649 5.11523438 423.46850586 C3 424 3 424 0 424 C-0.33 405.19 -0.66 386.38 -1 367 C7.16407596 364.48797663 15.23669736 362.08996245 23.5 360 C29.54082713 358.45007643 35.55673426 356.89678694 41.5 355 C47.21952422 353.17844773 53.00006373 351.67742261 58.8125 350.1875 C67.10651802 348.05781638 75.34666665 345.78902059 83.5625 343.375 C85.06889038 342.93244873 85.06889038 342.93244873 86.60571289 342.48095703 C90.18688535 341.42587232 93.76687056 340.36688361 97.34521484 339.30224609 C99.31218295 338.71795806 101.28100908 338.13993464 103.25 337.5625 C104.28640625 337.25441406 105.3228125 336.94632812 106.390625 336.62890625 C109 336 109 336 113 336 C112.96825684 334.73663818 112.93651367 333.47327637 112.90380859 332.17163086 C112.91018518 323.83533483 113.79853833 315.54995937 114.5390625 307.25390625 C114.70440989 305.36607452 114.86938878 303.47821048 115.0340271 301.59031677 C115.47173215 296.58352598 115.91472402 291.57721621 116.35876465 286.57098389 C116.78550422 281.7487876 117.20689415 276.92612798 117.62890625 272.10351562 C120.70603999 237.06483238 123.86268308 202.03337228 127 167 C61 167 -5 167 -73 167 C-77 126 -77 126 -77 111 C-7.7 111 61.6 111 133 111 C133 108.03 133 105.06 133 102 C133.08791464 100.39884613 133.19856615 98.79842205 133.35131836 97.20214844 C133.42817368 96.37809509 133.50502899 95.55404175 133.58421326 94.70501709 C133.66857132 93.8484552 133.75292938 92.99189331 133.83984375 92.109375 C133.92625626 91.20173401 134.01266876 90.29409302 134.10169983 89.35894775 C134.28378281 87.45622509 134.46792697 85.55369864 134.65405273 83.65136719 C134.93802561 80.74461987 135.21461975 77.83723803 135.49023438 74.9296875 C135.66883716 73.0728749 135.84785898 71.21610255 136.02734375 69.359375 C136.1508445 68.06238678 136.1508445 68.06238678 136.27684021 66.73919678 C136.35684769 65.92775208 136.43685516 65.11630737 136.51928711 64.28027344 C136.58812607 63.57239685 136.65696503 62.86452026 136.72789001 62.13519287 C137.03330357 59.73867354 137.52620264 57.36898679 138 55 C92.46 55 46.92 55 0 55 C0 36.85 0 18.7 0 0 Z " fill="#F06428" transform="translate(256,43)"/>
<path d="M0 0 C91.08 0 182.16 0 276 0 C274.50550087 18.68123911 272.80520439 37.34622131 271 56 C201.7 56 132.4 56 61 56 C62.32 71.84 63.64 87.68 65 104 C65 106.64 65 109.28 65 112 C89.09 112 113.18 112 138 112 C138 129.82 138 147.64 138 166 C160.44 166 182.88 166 206 166 C206 167.65 206 169.3 206 171 C205.67 169.68 205.34 168.36 205 167 C142.3 167 79.6 167 15 167 C14.28282542 164.13130166 13.80943565 161.75685969 13.55444336 158.86523438 C13.47993454 158.03782242 13.40542572 157.21041046 13.32865906 156.35792542 C13.24985001 155.44574753 13.17104095 154.53356964 13.08984375 153.59375 C13.00197098 152.60612167 12.91409821 151.61849335 12.82356262 150.60093689 C12.52497835 147.23423492 12.23118588 143.86713258 11.9375 140.5 C11.72513516 138.08990748 11.51256334 135.67983318 11.29980469 133.26977539 C10.74613538 126.98538261 10.1962534 120.70066589 9.64775276 114.41582012 C9.09959741 108.13628646 8.54932588 101.85693973 7.99853516 95.57763672 C7.00355897 84.23267308 6.01171882 72.88743719 5.02119827 61.54208374 C4.75101236 58.44908912 4.48039407 55.35613258 4.20968628 52.26318359 C3.7768119 47.31581461 3.34559982 42.36830318 2.91556358 37.42068672 C2.75591497 35.58657886 2.59575851 33.75251511 2.43503761 31.9185009 C2.2114286 29.3656315 1.98977664 26.81259871 1.76855469 24.25952148 C1.70518889 23.5410479 1.6418231 22.82257431 1.57653713 22.0823288 C0.94307296 14.72548504 0.49153565 7.37303469 0 0 Z " fill="#EBE8E7" transform="translate(118,98)"/>
<path d="M0 0 C17.82 0 35.64 0 54 0 C55.23745738 6.18728688 56.33828922 11.97443289 56.8515625 18.1953125 C56.94719986 19.27279251 56.94719986 19.27279251 57.04476929 20.37203979 C57.24335536 22.62261028 57.43433064 24.87374651 57.625 27.125 C57.75990869 28.66931529 57.89532153 30.21358663 58.03125 31.7578125 C58.35997717 35.50472726 58.68189022 39.25216952 59 43 C60.24366333 43.31638428 60.24366333 43.31638428 61.51245117 43.63916016 C89.50442573 50.77410367 89.50442573 50.77410367 101.875 54.3125 C102.6796167 54.54211426 103.4842334 54.77172852 104.31323242 55.00830078 C109.5989444 56.53962817 114.77078098 58.25692699 120 60 C120.33 78.81 120.66 97.62 121 117 C107.56239601 114.76039933 107.56239601 114.76039933 102.8125 113.3125 C101.63945312 112.96445312 100.46640625 112.61640625 99.2578125 112.2578125 C98.5968457 112.0609082 97.93587891 111.86400391 97.25488281 111.66113281 C92.57901193 110.29016504 87.88105324 108.99634855 83.1875 107.6875 C81.01298684 107.07954865 78.83850821 106.47147378 76.6640625 105.86328125 C75.56481445 105.55600098 74.46556641 105.2487207 73.33300781 104.93212891 C70.04203307 104.01175522 66.75141656 103.09011291 63.4609375 102.16796875 C61.86862305 101.72179199 61.86862305 101.72179199 60.24414062 101.26660156 C58.12821429 100.6736486 56.01232866 100.08055036 53.89648438 99.48730469 C49.3110215 98.20262194 44.72481467 96.92128616 40.1328125 95.66015625 C29.03587515 92.61020487 18.0115534 89.34484555 7 86 C5.15863687 69.87110153 3.55169441 53.72299297 2.08483887 37.55599976 C1.90479551 35.5769956 1.72278182 33.5981696 1.53869629 31.61953735 C1.27626299 28.78983871 1.02188362 25.95951975 0.76953125 23.12890625 C0.691548 22.30042175 0.61356476 21.47193726 0.53321838 20.61834717 C-0.07124775 13.6693827 0 7.06093029 0 0 Z " fill="#EBEAEA" transform="translate(136,293)"/>
<path d="M0 0 C45.21 0 90.42 0 137 0 C137 18.04931516 134.75258786 36.03597446 133 54 C89.11 54 45.22 54 0 54 C0 36.18 0 18.36 0 0 Z " fill="#FEFEFE" transform="translate(256,99)"/>
<path d="M0 0 C22.11 0 44.22 0 67 0 C65.85072802 26.43325564 65.85072802 26.43325564 64.80859375 35.96484375 C64.69902847 37.01990616 64.5894632 38.07496857 64.47657776 39.16200256 C64.13666725 42.42121943 63.78734541 45.67933638 63.4375 48.9375 C63.20053539 51.19329261 62.96420454 53.44915188 62.72851562 55.70507812 C62.15960514 61.13750462 61.5830391 66.56907262 61 72 C60.28776276 72.17469818 59.57552551 72.34939636 58.84170532 72.52938843 C43.44342 76.28010679 43.44342 76.28010679 28.1875 80.5625 C22.02149423 82.4158528 15.83997925 84.19218027 9.625 85.875 C8.80926514 86.1026001 7.99353027 86.3302002 7.15307617 86.56469727 C1.34779793 88.11593264 1.34779793 88.11593264 -2 87 C-1.34 87 -0.68 87 0 87 C0 58.29 0 29.58 0 0 Z " fill="#F16428" transform="translate(256,265)"/>
<path d="M0 0 C25.41 0 50.82 0 77 0 C77 18.15 77 36.3 77 55 C52.91 55 28.82 55 4 55 C3.34 48.709375 2.68 42.41875 2 35.9375 C1.79117188 33.98577881 1.58234375 32.03405762 1.3671875 30.02319336 C1.20252164 28.42047203 1.0384244 26.81769214 0.875 25.21484375 C0.78863281 24.42791138 0.70226562 23.640979 0.61328125 22.8302002 C-0.15934836 15.12115027 0 7.8844785 0 0 Z " fill="#E44D26" transform="translate(179,154)"/>
</svg>
