<?xml version="1.0" encoding="UTF-8"?>
<svg version="1.1" xmlns="http://www.w3.org/2000/svg" width="512" height="512">
<path d="M0 0 C8.25 0 16.5 0 25 0 C26.175625 3.3103125 26.175625 3.3103125 27.375 6.6875 C33.42510012 22.39641106 44.79095754 33.59648002 59.9921875 40.75 C75.45114097 47.17450014 91.50503963 47.50983314 107.1875 41.4375 C108.21230469 41.00308594 109.23710937 40.56867188 110.29296875 40.12109375 C112.54175474 39.18977834 114.62707552 38.50403408 117 38 C122.93925866 53.87537691 121.87908551 70.34371524 115.4765625 85.86328125 C107.88337671 101.9937791 95.33631981 112.92000522 79 119.75 C63.44926168 125.16779587 47.15121252 127.51820093 30.9375 130 C-1.60980481 135.00334236 -30.29087225 144.66071719 -60 159 C-60.96990875 159.46720459 -60.96990875 159.46720459 -61.95941162 159.94384766 C-74.46236665 165.96661487 -86.94971902 172.02224575 -99.40234375 178.1484375 C-132.18893388 194.19218074 -170.28628511 211.05117387 -206.96484375 198.56640625 C-224.07909861 192.20011579 -237.59781586 180.55859819 -245.42578125 163.98046875 C-257.78880949 134.40402065 -252.48529119 101.63191655 -240.8125 72.8125 C-236.61227588 62.69350684 -231.78598029 52.85122301 -227 43 C-223.37 43.99 -219.74 44.98 -216 46 C-216.04640625 47.41410156 -216.0928125 48.82820313 -216.140625 50.28515625 C-216.63520444 71.58017325 -212.33193511 90.03904153 -197.35595703 105.84643555 C-190.37671697 112.84843661 -182.27453128 119.42035635 -173 123 C-154.42934661 120.87048157 -133.52860328 107.01721451 -119 96 C-118.12456543 95.34233643 -118.12456543 95.34233643 -117.23144531 94.67138672 C-109.9969883 89.21592587 -103.2120526 83.62314431 -97 77 C-92 72 -92 72 -90.4921875 70.59765625 C-83.77483493 64.20836043 -77.71228775 56.59287789 -73 48.61328125 C-71 46 -71 46 -68.73046875 45.484375 C-67.89128906 45.57203125 -67.05210937 45.6596875 -66.1875 45.75 C-48.34535218 46.67655628 -32.40881183 41.29400769 -18.59765625 30.04296875 C-9.59087447 21.74441254 -4.91634266 11.06177098 0 0 Z " fill="#F4501D" transform="translate(321,268)"/>
<path d="M0 0 C72.93 0 145.86 0 221 0 C218.75011967 10.12446149 218.75011967 10.12446149 217.36206055 14.1784668 C217.04880829 15.10116364 216.73555603 16.02386047 216.41281128 16.97451782 C216.07420074 17.95616913 215.73559021 18.93782043 215.38671875 19.94921875 C215.02474396 21.01143646 214.66276917 22.07365417 214.28982544 23.1680603 C213.09339402 26.67604032 211.89041164 30.18173738 210.6875 33.6875 C209.84347342 36.15859499 208.99997768 38.62987135 208.15698242 41.10131836 C206.8281112 44.99708412 205.49891181 48.89273534 204.1676178 52.78767395 C200.87834785 62.41253329 197.60946449 72.04416837 194.3515625 81.6796875 C193.88245195 83.06681843 193.41334083 84.45394917 192.94422913 85.84107971 C191.12737825 91.21395193 189.31104009 96.58699727 187.49545288 101.96029663 C185.43988196 108.04257558 183.37954023 114.12314158 181.30712891 120.19970703 C179.76016581 124.73862908 178.24522443 129.28656954 176.75146484 133.84326172 C176.04672559 135.95676446 175.34181901 138.07021142 174.63671875 140.18359375 C174.32636185 141.15273209 174.01600494 142.12187042 173.69624329 143.12037659 C173.39904892 144.0016069 173.10185455 144.88283722 172.7956543 145.79077148 C172.54389938 146.55969223 172.29214447 147.32861298 172.03276062 148.12083435 C170.7158138 150.51709267 169.54451598 151.08944746 167 152 C164.43408203 151.93603516 164.43408203 151.93603516 162 151 C160.41357422 148.86474609 160.41357422 148.86474609 159.0546875 146.0234375 C158.54115723 144.9725293 158.02762695 143.92162109 157.49853516 142.83886719 C156.96276855 141.69579102 156.42700195 140.55271484 155.875 139.375 C155.30442871 138.19583008 154.73385742 137.01666016 154.14599609 135.80175781 C152.40896511 132.21127724 150.70386116 128.60633808 149 125 C148.0791852 123.06980636 147.15739023 121.14007986 146.234375 119.2109375 C144.9216356 116.465585 143.61054951 113.71954215 142.30615234 110.97021484 C138.17181743 102.27876588 133.85930333 93.67940044 129.53512573 85.08151245 C124.67605538 75.41639778 119.93135704 65.70453437 115.32421875 55.91601562 C114.91171875 55.04267578 114.49921875 54.16933594 114.07421875 53.26953125 C113.71932373 52.51260986 113.36442871 51.75568848 112.9987793 50.97583008 C111.93357901 48.77071706 111.93357901 48.77071706 110 46 C109.76594955 46.49839386 109.53189911 46.99678772 109.29075623 47.51028442 C103.02970959 60.80316188 96.55361734 73.98045568 89.97265625 87.1171875 C89.57327221 87.91451546 89.17388817 88.71184341 88.76240158 89.53333282 C85.86528186 95.31531827 82.96424648 101.0953355 80.0625 106.875 C77.13358095 112.70904395 74.20608056 118.54379193 71.28191948 124.38022232 C70.12703523 126.68359232 68.96972274 128.98573061 67.81227112 131.28781128 C64.38144422 138.12575696 61.01618694 144.96600954 58 152 C54.6875 151.8125 54.6875 151.8125 51 151 C47.54457561 146.62361313 46.18162328 141.03030298 44.48046875 135.796875 C44.14565994 134.78400925 43.81085114 133.77114349 43.46589661 132.72758484 C42.74479091 130.54432599 42.02635242 128.36018475 41.31030273 126.17526245 C39.40026133 120.34842136 37.47004003 114.5282574 35.54296875 108.70703125 C35.155112 107.5335463 34.76725525 106.36006134 34.36764526 105.15101624 C30.97381619 94.89165939 27.50456043 84.65946775 24 74.4375 C23.44723052 72.82173581 22.89457809 71.20593157 22.34204102 69.59008789 C19.81535373 62.20438308 17.28285745 54.82069621 14.74316406 47.43945312 C12.75481219 41.65995965 10.77252495 35.87841234 8.79345703 30.09573364 C8.01904398 27.83687383 7.24237745 25.57878523 6.46337891 23.32150269 C5.37886535 20.17845532 4.30190093 17.03291491 3.2265625 13.88671875 C2.89919098 12.94395081 2.57181946 12.00118286 2.23452759 11.02984619 C1.79093399 9.72476105 1.79093399 9.72476105 1.33837891 8.39331055 C0.94871445 7.25976387 0.94871445 7.25976387 0.55117798 6.10331726 C0 4 0 4 0 0 Z " fill="#F4501D" transform="translate(222,41)"/>
<path d="M0 0 C8.39789106 5.93752238 14.10447439 13.45278454 16.63671875 23.53515625 C18.28095175 34.69118878 16.40816322 44.68806417 9.78515625 53.8984375 C3.16502679 61.69193783 -5.2643366 66.25500644 -15.42578125 67.37890625 C-25.91786215 67.73437566 -34.98293331 65.44878772 -43.21875 58.765625 C-50.84885844 51.20244734 -54.38960446 41.95850911 -55.3125 31.4375 C-55.1205304 21.41668701 -51.14645057 11.96356896 -44 5 C-32.06045457 -4.77067117 -13.75574917 -8.73643966 0 0 Z " fill="#F4501D" transform="translate(133,221)"/>
<path d="M0 0 C8.2995637 7.22865226 13.60091356 14.38396512 14.61328125 25.5078125 C14.95747374 37.2815693 12.37283766 46.242594 4.2890625 54.9453125 C-3.05620127 61.91927722 -11.64125321 65.1147977 -21.7109375 65.4453125 C-32.52398033 65.05575965 -39.77404393 61.83014296 -47.546875 54.31640625 C-55.45580228 45.65084874 -57.3793189 36.80126646 -57.08984375 25.2890625 C-56.53551457 16.19726928 -52.39731595 8.07312371 -45.7109375 1.9453125 C-33.15011717 -9.10215599 -13.39436726 -10.15192677 0 0 Z " fill="#F4501D" transform="translate(426.7109375,223.0546875)"/>
<path d="M0 0 C7.53835401 5.2968833 12.15396312 12.66686143 14.5390625 21.52734375 C15.61349065 34.17061455 14.7498233 43.82653279 6.3515625 53.83984375 C0.06982158 60.42120718 -7.54514037 64.91805207 -16.72265625 65.86328125 C-28.29428993 65.9952269 -37.92013783 63.67089693 -46.4609375 55.52734375 C-55.08546499 46.17398295 -57.22963185 38.24412878 -56.80859375 25.6640625 C-56.26787234 17.09585689 -52.40968636 9.66075444 -46.4609375 3.52734375 C-43.61615405 1.19979366 -40.67281304 -0.69197914 -37.4609375 -2.47265625 C-36.86925781 -2.81425781 -36.27757812 -3.15585938 -35.66796875 -3.5078125 C-24.6161012 -8.7531801 -10.03583334 -6.00557011 0 0 Z " fill="#F4501D" transform="translate(281.4609375,222.47265625)"/>
<path d="M0 0 C2.70255472 3.49185591 4.70793396 7.14261927 6.66015625 11.08984375 C7.00671768 11.78279037 7.35327911 12.475737 7.71034241 13.18968201 C8.83232399 15.43669986 9.94797438 17.68677561 11.0625 19.9375 C11.6303421 21.08125092 11.6303421 21.08125092 12.20965576 22.24810791 C14.11195117 26.07982971 16.00965386 29.91377187 17.90185547 33.75048828 C19.19199956 36.36635606 20.48659345 38.97984682 21.78955078 41.58935547 C23.24671371 44.51218704 24.68899106 47.44173309 26.125 50.375 C26.54402588 51.21023193 26.96305176 52.04546387 27.39477539 52.90600586 C27.76207764 53.6666333 28.12937988 54.42726074 28.5078125 55.2109375 C28.82379395 55.85337402 29.13977539 56.49581055 29.46533203 57.15771484 C30.14859282 59.51200063 29.88463702 60.72792189 29 63 C28.154375 63.9075 27.30875 64.815 26.4375 65.75 C23.10317318 69.46377806 20.96414535 73.56664144 18.75 78 C18.4089624 78.67643555 18.0679248 79.35287109 17.71655273 80.04980469 C15.58517628 84.41745756 14.38033061 88.16884286 13 93 C5.41 93 -2.18 93 -10 93 C-11.32 89.7 -12.64 86.4 -14 83 C-17.43181533 75.04398868 -21.43870981 68.85750606 -27.4375 62.5703125 C-29 60 -29 60 -28.3996582 57.47143555 C-26.53020504 52.83481343 -24.37454163 48.37106318 -22.16796875 43.88671875 C-21.69434402 42.91773148 -21.2207193 41.9487442 -20.73274231 40.95039368 C-19.73175438 38.90460318 -18.72892136 36.85971457 -17.72436523 34.81567383 C-16.19893036 31.71076564 -14.68006507 28.60271094 -13.16210938 25.49414062 C-12.18528653 23.49980859 -11.20808512 21.50566192 -10.23046875 19.51171875 C-9.78132614 18.59267258 -9.33218353 17.6736264 -8.86943054 16.72673035 C-6.07668201 11.05337918 -3.12708556 5.49622168 0 0 Z " fill="#F4501D" transform="translate(332,147)"/>
</svg>
