<?xml version="1.0" encoding="UTF-8"?>
<svg version="1.1" xmlns="http://www.w3.org/2000/svg" width="512" height="512">
<path d="M0 0 C0.66 0 1.32 0 2 0 C2.74443359 1.50626953 2.74443359 1.50626953 3.50390625 3.04296875 C5.29726882 6.66264048 7.11414596 10.2701067 8.93603516 13.87548828 C9.86464225 15.72971934 10.76846559 17.59632079 11.66796875 19.46484375 C17.94092005 31.99525757 27.41300873 41.59088883 37.33422852 51.29882812 C42.3204508 56.21326816 46.69121812 61.47909673 51 67 C52.11181641 68.3303125 52.11181641 68.3303125 53.24609375 69.6875 C55 72 55 72 55 74 C55.66 74 56.32 74 57 74 C58.41015625 75.9140625 58.41015625 75.9140625 60.0625 78.625 C62.3939192 82.40633073 64.75135843 86.15788834 67.19897461 89.86523438 C102.54717424 143.74391972 115.55476132 203.65542377 112.625 267.25 C112.5943042 267.97453369 112.5636084 268.69906738 112.53198242 269.44555664 C112.28639269 273.62668371 111.36033741 277.06140576 110 281 C109.08440864 285.13752262 108.34723993 289.31185979 107.58789062 293.48046875 C106.68386577 298.22749969 105.54413323 302.62167441 103.75170898 307.11035156 C102.53314218 310.17358866 101.53328543 313.3078374 100.5 316.4375 C100.28641846 317.08275635 100.07283691 317.7280127 99.8527832 318.39282227 C99.23423402 320.26156575 98.61708474 322.13077243 98 324 C97.39654894 325.81273838 96.79252683 327.62528695 96.1875 329.4375 C95.795625 330.613125 95.40375 331.78875 95 333 C94.34 333 93.68 333 93 333 C92.91234375 333.65226562 92.8246875 334.30453125 92.734375 334.9765625 C91.74691628 339.04195104 90.0417724 342.60700803 88.25 346.375 C87.91484375 347.10460937 87.5796875 347.83421875 87.234375 348.5859375 C85.22302874 352.85242957 82.96827713 356.61275371 80.15136719 360.39208984 C78.51420275 362.67842678 77.27033582 365.12041745 76 367.625 C73.75876735 371.8223212 71.50756926 374.74908215 68 378 C65.03492524 381.60144694 62.20014654 385.30916854 59.5 389.11328125 C57.03352176 392.5650103 54.5828387 395.49465109 51.32421875 398.2265625 C46.9071108 402.02334408 42.82769208 406.09478526 38.75 410.25 C37.37219977 411.6534099 35.99206979 413.05453717 34.609375 414.453125 C34.01092773 415.06317383 33.41248047 415.67322266 32.79589844 416.30175781 C27.82748706 421 27.82748706 421 25 421 C25 421.66 25 422.32 25 423 C24.236875 423.7425 23.47375 424.485 22.6875 425.25 C17.10318055 430.96418735 15.9366245 436.88051341 16 444.625 C16.020625 445.35976563 16.04125 446.09453125 16.0625 446.8515625 C16 449 16 449 15.50219727 450.63134766 C14.7688684 454.09015014 14.8779672 457.52856632 14.90234375 461.046875 C14.9037587 461.81807678 14.90517365 462.58927856 14.90663147 463.3838501 C14.91221466 465.83927338 14.92476405 468.29460442 14.9375 470.75 C14.94251717 472.41796743 14.9470797 474.08593629 14.95117188 475.75390625 C14.96217859 479.83597287 14.97943164 483.91797081 15 488 C4.38204886 486.36413335 4.38204886 486.36413335 1 483 C-0.26620092 478.7876571 -0.30269527 474.62684639 -0.375 470.25 C-0.45998703 467.94247327 -0.55099427 465.63515929 -0.6484375 463.328125 C-0.69121826 462.2345166 -0.73399902 461.1409082 -0.77807617 460.01416016 C-1.06375387 456.13409765 -1.93790949 452.73620774 -3 449 C-3.19105102 447.3796939 -3.34450177 445.75387805 -3.4375 444.125 C-4.49380883 433.49690807 -6.82480987 428.33288278 -15.171875 421.296875 C-16.10515625 420.53890625 -17.0384375 419.7809375 -18 419 C-19.31793993 417.86042788 -20.6310616 416.71523977 -21.9375 415.5625 C-22.56914062 415.01078125 -23.20078125 414.4590625 -23.8515625 413.890625 C-41.41179391 398.43762136 -56.00302134 381.45819176 -69 362 C-69.58136719 361.14535156 -70.16273438 360.29070312 -70.76171875 359.41015625 C-85.1026397 337.71491686 -94.99806594 313.29256705 -101.43896484 288.16845703 C-101.91664226 286.32218602 -102.43283795 284.48595051 -102.95703125 282.65234375 C-117.63372078 227.77743068 -103.35099437 156.43479003 -76.17089844 107.15332031 C-74.75354591 104.54676291 -73.39842678 101.91068997 -72.0390625 99.2734375 C-65.95831607 87.6050029 -59.51354879 76.84524833 -51.23779297 66.60839844 C-49.98513134 64.98067954 -48.88340397 63.30502742 -47.78515625 61.5703125 C-47.19605469 60.72210938 -46.60695312 59.87390625 -46 59 C-45.34 59 -44.68 59 -44 59 C-43.67 57.68 -43.34 56.36 -43 55 C-42.34 55 -41.68 55 -41 55 C-40.62875 54.195625 -40.62875 54.195625 -40.25 53.375 C-38.69347463 50.4176018 -36.96564327 47.70275949 -35 45 C-34.34 45 -33.68 45 -33 45 C-33 44.34 -33 43.68 -33 43 C-31.49609375 41.51953125 -31.49609375 41.51953125 -29.4375 39.8125 C-26.6746132 37.46720242 -24.03320243 35.09170595 -21.5 32.5 C-19.08601044 30.03102207 -16.58529791 27.77820945 -13.9375 25.5625 C-5.83539146 18.52811119 -1.33433747 10.67469974 0 0 Z " fill="#4DA93F" transform="translate(253,12)"/>
<path d="M0 0 C0.66 0 1.32 0 2 0 C2.30067383 0.59312988 2.60134766 1.18625977 2.91113281 1.79736328 C11.47733102 18.52508291 20.9931115 31.23739428 34.33544922 44.30102539 C39.32259366 49.2132946 43.69183287 54.47988442 48 60 C48.74121094 60.886875 49.48242188 61.77375 50.24609375 62.6875 C52 65 52 65 52 67 C52.66 67 53.32 67 54 67 C55.41015625 68.9140625 55.41015625 68.9140625 57.0625 71.625 C59.3939192 75.40633073 61.75135843 79.15788834 64.19897461 82.86523438 C99.54717424 136.74391972 112.55476132 196.65542377 109.625 260.25 C109.5943042 260.97453369 109.5636084 261.69906738 109.53198242 262.44555664 C109.28639269 266.62668371 108.36033741 270.06140576 107 274 C106.08440864 278.13752262 105.34723993 282.31185979 104.58789062 286.48046875 C103.68386577 291.22749969 102.54413323 295.62167441 100.75170898 300.11035156 C99.53314218 303.17358866 98.53328543 306.3078374 97.5 309.4375 C97.28641846 310.08275635 97.07283691 310.7280127 96.8527832 311.39282227 C96.23423402 313.26156575 95.61708474 315.13077243 95 317 C94.39654894 318.81273838 93.79252683 320.62528695 93.1875 322.4375 C92.795625 323.613125 92.40375 324.78875 92 326 C91.34 326 90.68 326 90 326 C89.91234375 326.65226562 89.8246875 327.30453125 89.734375 327.9765625 C88.74691628 332.04195104 87.0417724 335.60700803 85.25 339.375 C84.91484375 340.10460937 84.5796875 340.83421875 84.234375 341.5859375 C82.22302874 345.85242957 79.96827713 349.61275371 77.15136719 353.39208984 C75.51420275 355.67842678 74.27033582 358.12041745 73 360.625 C70.75876735 364.8223212 68.50756926 367.74908215 65 371 C62.03492524 374.60144694 59.20014654 378.30916854 56.5 382.11328125 C54.03352176 385.5650103 51.5828387 388.49465109 48.32421875 391.2265625 C43.9071108 395.02334408 39.82769208 399.09478526 35.75 403.25 C34.37219977 404.6534099 32.99206979 406.05453717 31.609375 407.453125 C30.7117041 408.36819824 30.7117041 408.36819824 29.79589844 409.30175781 C24.82748706 414 24.82748706 414 22 414 C22 414.66 22 415.32 22 416 C20.68 416.66 19.36 417.32 18 418 C10.30387506 413.23573218 7.4705707 404.89473566 5.36572266 396.45751953 C2.7800708 384.73208602 1.29692603 372.99851085 1 361 C0.95746094 359.51306641 0.95746094 359.51306641 0.9140625 357.99609375 C0.8366827 352.55629413 1.2131405 347.23305464 1.71484375 341.8203125 C2.17647055 335.63577806 2.381577 329.44049081 2.60717773 323.2434082 C2.81230305 317.81903298 3.1074127 312.41518976 3.50949097 307.00160217 C4.02763065 299.55789707 4.14164643 292.14353224 4.12939453 284.68139648 C4.13075505 283.322138 4.13253859 281.96287988 4.13470459 280.60362244 C4.13921168 276.95330591 4.13751472 273.30301808 4.1343255 269.65270114 C4.13175482 265.77612159 4.13415341 261.89954415 4.13571167 258.02296448 C4.13752482 251.49276298 4.13515479 244.96257282 4.13037109 238.43237305 C4.12557459 231.8102952 4.12551404 225.1882399 4.13037109 218.56616211 C4.19779588 171.42563278 4.19779588 171.42563278 3.21826172 124.2980957 C2.9229656 115.1724715 2.91326654 106.05551829 2.98168945 96.9263916 C3.09251497 81.48396452 2.88134446 66.10867289 2.21875 50.6796875 C2.01730628 45.90641556 1.95258143 41.15167077 2 36.375 C2.08879811 24.55216621 1.30528106 12.74752952 0 1 C0 0.67 0 0.34 0 0 Z " fill="#439B34" transform="translate(256,19)"/>
<path d="M0 0 C0.66 0 1.32 0 2 0 C2.03963867 0.57218262 2.07927734 1.14436523 2.12011719 1.73388672 C3.29372995 17.97318599 4.61641555 34.23283111 12 49 C12 49.66 12 50.32 12 51 C12.61875 51.2475 13.2375 51.495 13.875 51.75 C16.42909271 53.25240748 17.03360705 54.22600159 18 57 C17.35546875 58.9296875 17.35546875 58.9296875 16.1875 60.875 C13.10488177 66.51089798 12.88520903 71.53557156 13.0625 77.8515625 C13 80 13 80 12.50219727 81.63134766 C11.7688684 85.09015014 11.8779672 88.52856632 11.90234375 92.046875 C11.90446617 93.20367767 11.90446617 93.20367767 11.90663147 94.3838501 C11.91221466 96.83927338 11.92476405 99.29460442 11.9375 101.75 C11.94251717 103.41796743 11.9470797 105.08593629 11.95117188 106.75390625 C11.96217859 110.83597287 11.97943164 114.91797081 12 119 C1.38204886 117.36413335 1.38204886 117.36413335 -2 114 C-3.26620092 109.7876571 -3.30269527 105.62684639 -3.375 101.25 C-3.45998703 98.94247327 -3.55099427 96.63515929 -3.6484375 94.328125 C-3.69129883 93.2342749 -3.73416016 92.1404248 -3.77832031 91.01342773 C-4.0638101 87.13259026 -4.93707042 83.73699258 -6 80 C-6.21240634 78.31764523 -6.38701554 76.62944224 -6.5 74.9375 C-6.75574963 71.82587952 -7.15646484 69.51322049 -8.125 66.5 C-9.94057872 59.23768512 -7.90367909 52.432215 -6.125 45.3125 C-2.44918937 30.54550542 -0.84483247 15.17785223 0 0 Z " fill="#CDCCB5" transform="translate(256,381)"/>
<path d="M0 0 C0.66 0 1.32 0 2 0 C2.03963867 0.57218262 2.07927734 1.14436523 2.12011719 1.73388672 C3.639162 24.27280118 3.639162 24.27280118 10.5 45.625 C12.1568849 49.39650844 12.1568849 49.39650844 11.46484375 52.05859375 C10.4375 54.0625 10.4375 54.0625 9.2109375 56.03125 C7.98182218 58.02955362 7.27014795 59.83132764 6.5625 62.0625 C6.3253125 62.79855469 6.088125 63.53460938 5.84375 64.29296875 C5.16844679 66.45956654 4.50424605 68.62962364 3.84375 70.80078125 C3.41691215 72.15893134 2.98982778 73.51700398 2.5625 74.875 C2.36922119 75.52992432 2.17594238 76.18484863 1.97680664 76.85961914 C0.73377539 80.77346724 -0.39683759 82.93449288 -4 85 C-6.06782455 80.86435089 -6.35030054 77.00455985 -6.7109375 72.4765625 C-6.94386883 69.78703219 -6.94386883 69.78703219 -8.125 66.5 C-9.94057872 59.23768512 -7.90367909 52.432215 -6.125 45.3125 C-2.44918937 30.54550542 -0.84483247 15.17785223 0 0 Z " fill="#A5AA85" transform="translate(256,381)"/>
<path d="M0 0 C3.56260064 1.87505297 5.69092373 3.11522772 7 7 C6.35546875 9.03515625 6.35546875 9.03515625 5.1875 11.0625 C3.85769259 13.42710635 2.86592881 15.40221356 2 18 C1.34 18 0.68 18 0 18 C-0.17668213 18.59425781 -0.35336426 19.18851562 -0.53540039 19.80078125 C-2.45076804 26.21735644 -4.39741631 32.62191131 -6.4375 39 C-6.72431641 39.93972656 -7.01113281 40.87945312 -7.30664062 41.84765625 C-7.59603516 42.74355469 -7.88542969 43.63945312 -8.18359375 44.5625 C-8.43681396 45.36816406 -8.69003418 46.17382812 -8.95092773 47.00390625 C-10.24320948 49.46276023 -11.44987241 50.02311665 -14 51 C-14.24867947 48.39635591 -14.47457902 45.79410106 -14.6875 43.1875 C-14.76033203 42.44951172 -14.83316406 41.71152344 -14.90820312 40.95117188 C-15.07421875 38.79296875 -15.07421875 38.79296875 -15 35 C-14.01840428 33.98192837 -13.01637435 32.98335303 -12 32 C-11.02591416 29.85113767 -11.02591416 29.85113767 -10.31640625 27.4296875 C-10.02830078 26.5325 -9.74019531 25.6353125 -9.44335938 24.7109375 C-9.15267578 23.77507812 -8.86199219 22.83921875 -8.5625 21.875 C-6.18836125 14.32043715 -3.54507866 7.09015732 0 0 Z " fill="#C2C0A6" transform="translate(267,431)"/>
<path d="M0 0 C3 1 3 1 4.08984375 2.56640625 C6.34026465 7.8657845 6.34026465 7.8657845 5.40234375 10.9921875 C4.69397188 12.33351523 3.9491637 13.65601207 3.17578125 14.9609375 C2.01066377 16.98150669 1.27242692 18.84553524 0.5625 21.0625 C0.3253125 21.79855469 0.088125 22.53460938 -0.15625 23.29296875 C-0.83155321 25.45956654 -1.49575395 27.62962364 -2.15625 29.80078125 C-2.58308785 31.15893134 -3.01017222 32.51700398 -3.4375 33.875 C-3.63077881 34.52992432 -3.82405762 35.18484863 -4.02319336 35.85961914 C-5.26622461 39.77346724 -6.39683759 41.93449288 -10 44 C-11.67430351 40.26554527 -12.42989989 36.94586512 -12.8125 32.875 C-12.92207031 31.84117187 -13.03164062 30.80734375 -13.14453125 29.7421875 C-13 27 -13 27 -11.61425781 25.65917969 C-9.52736624 23.51421369 -8.9519772 21.54920031 -8.02734375 18.7109375 C-7.68509766 17.68742187 -7.34285156 16.66390625 -6.99023438 15.609375 C-6.46913086 14.00835937 -6.46913086 14.00835937 -5.9375 12.375 C-5.2450108 10.25560186 -4.54612608 8.13827911 -3.83984375 6.0234375 C-3.38146118 4.61457275 -3.38146118 4.61457275 -2.91381836 3.17724609 C-2 1 -2 1 0 0 Z " fill="#B4B496" transform="translate(262,422)"/>
<path d="M0 0 C0.66 0 1.32 0 2 0 C2.33 9.57 2.66 19.14 3 29 C-1.99875355 28.16687441 -4.71772212 27.34505694 -9 25 C-6.286575 16.55823333 -3.14265947 8.28889147 0 0 Z " fill="#DADAC6" transform="translate(265,471)"/>
<path d="M0 0 C0.66 0.33 1.32 0.66 2 1 C2.4140625 3.72265625 2.4140625 3.72265625 2.625 7.0625 C2.69976562 8.16722656 2.77453125 9.27195312 2.8515625 10.41015625 C2.90054687 11.26480469 2.94953125 12.11945313 3 13 C0.03 12.505 0.03 12.505 -3 12 C-2.49202991 7.6822542 -1.80317221 3.96697886 0 0 Z " fill="#E8E6D8" transform="translate(265,487)"/>
<path d="M0 0 C0.99 0 1.98 0 3 0 C2.39816251 2.02045442 1.72693904 4.02111039 1 6 C0.01 6.495 0.01 6.495 -1 7 C-0.67 4.69 -0.34 2.38 0 0 Z " fill="#CDCDB5" transform="translate(271,436)"/>
<path d="" fill="#329C16" transform="translate(0,0)"/>
</svg>
