<?xml version="1.0" encoding="UTF-8"?>
<svg version="1.1" xmlns="http://www.w3.org/2000/svg" width="256" height="256">
<path d="M0 0 C4.29 0 8.58 0 13 0 C16.24984834 7.87864608 19.06191647 15.85135949 21.75 23.9375 C22.16121094 25.15501953 22.57242187 26.37253906 22.99609375 27.62695312 C23.38410156 28.79033203 23.77210937 29.95371094 24.171875 31.15234375 C24.5234668 32.20413818 24.87505859 33.25593262 25.23730469 34.33959961 C26 37 26 37 26 40 C26.66 40 27.32 40 28 40 C28.22558594 38.8346875 28.45117188 37.669375 28.68359375 36.46875 C30.11683173 30.02359875 32.26004788 23.80647561 34.3684082 17.55859375 C35.06976359 15.47845706 35.76287335 13.39569745 36.45507812 11.3125 C39.86026923 1.13973077 39.86026923 1.13973077 41 0 C43.18639453 -0.07258946 45.37500389 -0.08373783 47.5625 -0.0625 C49.35880859 -0.04896484 49.35880859 -0.04896484 51.19140625 -0.03515625 C52.11824219 -0.02355469 53.04507813 -0.01195312 54 0 C54.48253484 4.39547024 54.96039078 8.7914378 55.4375 13.1875 C55.57220703 14.41404297 55.70691406 15.64058594 55.84570312 16.90429688 C57.06805711 28.20361786 58.1896454 39.43787695 58.0625 50.8125 C58.05798828 51.61236328 58.05347656 52.41222656 58.04882812 53.23632812 C58.03732358 55.15758658 58.01940601 57.07880511 58 59 C54.37 59 50.74 59 47 59 C46.01 45.47 45.02 31.94 44 18 C42.60974609 22.31384766 42.60974609 22.31384766 41.19140625 26.71484375 C40.29524704 29.48843733 39.39804158 32.26169038 38.50073242 35.03491211 C37.87593738 36.96782605 37.25223682 38.90109411 36.62963867 40.8347168 C35.73641395 43.60819022 34.83930736 46.38038132 33.94140625 49.15234375 C33.6622084 50.02213364 33.38301056 50.89192352 33.09535217 51.78807068 C32.83515793 52.58882523 32.57496368 53.38957977 32.30688477 54.21459961 C32.07816177 54.9229747 31.84943878 55.63134979 31.61378479 56.3611908 C31 58 31 58 30 59 C28.48071962 59.07179964 26.95832518 59.08392007 25.4375 59.0625 C24.61121094 59.05347656 23.78492187 59.04445312 22.93359375 59.03515625 C22.29550781 59.02355469 21.65742188 59.01195312 21 59 C20.70230713 58.06615479 20.40461426 57.13230957 20.09790039 56.17016602 C18.99584907 52.7158849 17.88977915 49.26290185 16.7824707 45.81030273 C16.30317679 44.31391104 15.82498325 42.81716645 15.34790039 41.32006836 C14.66319007 39.17208302 13.9745725 37.02538508 13.28515625 34.87890625 C12.96479149 33.86951744 12.96479149 33.86951744 12.63795471 32.83973694 C11.78238619 29.66449468 11.78238619 29.66449468 10 27 C9.34 27.66 8.68 28.32 8 29 C8 25.7 8 22.4 8 19 C7.34 32.2 6.68 45.4 6 59 C2.7 59 -0.6 59 -4 59 C-4.33147908 44.54996735 -3.99611721 30.37303959 -2.5625 16 C-2.49501556 15.31316132 -2.42753113 14.62632263 -2.35800171 13.91867065 C-1.21216911 2.42433823 -1.21216911 2.42433823 0 0 Z M9 22 C10 25 10 25 10 25 Z " fill="#0F5E86" transform="translate(4,141)"/>
<path d="M0 0 C6.29278535 5.73753958 8.63162829 13.30326074 9.28125 21.5859375 C9.56724963 33.33575582 7.74162529 42.34307729 1 52 C5.455 53.98 5.455 53.98 10 56 C8.125 61.75 8.125 61.75 7 64 C2.97284252 63.43289583 0.4476342 62.14383554 -2.9375 59.9375 C-8.73419226 56.62734555 -13.27610579 56.6824937 -19.82421875 56.96875 C-25.36974587 57.02331853 -28.38672821 55.3131282 -32.6875 51.8125 C-40.31835421 42.53173137 -40.49785141 32.64710272 -40 21 C-39.13862873 12.71853051 -35.72481562 6.28617719 -29.625 0.625 C-20.93376212 -6.26805074 -9.18688823 -5.53088169 0 0 Z M-24 7 C-30.21494148 16.4111971 -29.67759466 27.40217747 -27.7265625 38.171875 C-26.51203283 42.8993991 -24.97039297 45.74113782 -20.75 48.4375 C-16.94720232 49.21534498 -13.71955054 49.16706545 -10 48 C-5.18849627 44.23447535 -3.37160527 40.59524324 -2.515625 34.6171875 C-1.29631594 19.99959948 -1.29631594 19.99959948 -7 7 C-9.91278638 5.23107608 -12.10795706 4.72676683 -15.5 4.75 C-16.2528125 4.74484375 -17.005625 4.7396875 -17.78125 4.734375 C-20.30800708 5.03687409 -21.86079901 5.62640778 -24 7 Z " fill="#C37902" transform="translate(191,144)"/>
<path d="M0 0 C2.13335657 0.82594172 4.05568315 1.80007253 6.04296875 2.9296875 C10.10651794 5.15206769 14.03722969 6.25073009 18.5625 7.125 C32.26753128 10.51766706 43.779795 21.40096529 51.5625 32.875 C65 55.32545732 65 55.32545732 65 62 C65.80050781 62.20302734 65.80050781 62.20302734 66.6171875 62.41015625 C73.39350734 64.36802029 78.42316991 67.75887921 84 72 C84.99 72.70125 85.98 73.4025 87 74.125 C89 76 89 76 91 81 C86.71 81.99 82.42 82.98 78 84 C80.73840984 86.73840984 82.92794541 88.77146151 86 90.9375 C89.21183881 93.31486107 91.86211962 95.56080114 94 99 C93.505 100.485 93.505 100.485 93 102 C92.53851563 101.62488281 92.07703125 101.24976563 91.6015625 100.86328125 C87.8550834 97.92385002 84.28955202 95.57775841 79.9375 93.625 C74.87220688 91.20996861 70.84484885 87.90916155 68 83 C68.495 81.515 68.495 81.515 69 80 C72.16015625 79.05078125 72.16015625 79.05078125 76.0625 78.3125 C77.35285156 78.06113281 78.64320313 77.80976562 79.97265625 77.55078125 C80.97167969 77.36902344 81.97070312 77.18726562 83 77 C77.57044365 73.26127261 72.85885411 70.07400841 66.375 68.625 C60.7131958 66.74041652 58.89083806 63.32280046 56.3125 58.25 C54.81444121 55.19271031 53.39698625 52.10455949 52 49 C44.93935659 33.6331221 37.07272936 21.36895328 21 14 C17.44769486 13.02978391 13.94231303 12.33437697 10.3125 11.72265625 C6.08065219 10.79943474 2.70582613 9.06492015 -1.01171875 6.890625 C-3.1365221 5.66971984 -3.1365221 5.66971984 -6 7 C-4.55491842 9.42842112 -3.10105156 11.84317682 -1.5703125 14.21875 C2.08372289 19.98620046 4.58766578 25.7665003 6.82421875 32.21484375 C7.79590269 35.00421138 7.79590269 35.00421138 9.66015625 36.66015625 C10.10230469 37.10230469 10.54445312 37.54445312 11 38 C10.74468291 41.57443924 10.13211641 44.60365077 9 48 C8.87906505 50.28932678 8.82461674 52.58251324 8.8125 54.875 C8.79123047 56.69644531 8.79123047 56.69644531 8.76953125 58.5546875 C8.98952745 61.84344421 9.58284382 64.05365948 11 67 C11.33 67 11.66 67 12 67 C12.29003906 65.96939453 12.29003906 65.96939453 12.5859375 64.91796875 C12.84632813 64.01691406 13.10671875 63.11585937 13.375 62.1875 C13.63023437 61.29417969 13.88546875 60.40085938 14.1484375 59.48046875 C15 57 15 57 17 54 C20 55 20 55 21.83203125 58.31640625 C22.49944903 59.72836117 23.15920945 61.14395334 23.8125 62.5625 C28.76390769 73.07824353 28.76390769 73.07824353 37 81 C37 81.66 37 82.32 37 83 C33.42170892 81.44747 30.8310783 79.28430104 27.9375 76.6875 C27.08027344 75.92824219 26.22304687 75.16898437 25.33984375 74.38671875 C23.0623089 72.06355716 21.53953315 69.85192207 20 67 C19.525625 67.969375 19.05125 68.93875 18.5625 69.9375 C17 73 17 73 16 74 C13.8125 74.5 13.8125 74.5 11 74 C6.02623122 70.00148 3.74773388 65.23513571 3 59 C2.59911218 52.98668277 3.55505533 47.78604603 4.953125 41.9296875 C5.0173592 37.91505016 3.30896723 36.22267619 1 33 C0.16461803 30.75211098 -0.60526604 28.47893802 -1.3125 26.1875 C-3.24506292 20.48011792 -5.49964653 16.40799675 -9.546875 11.96484375 C-11.27854749 9.62336186 -11.70410187 7.87913577 -12 5 C-9.90781263 -0.79374964 -5.60501437 -0.73879803 0 0 Z " fill="#0D5377" transform="translate(162,44)"/>
<path d="M0 0 C-0.66 1.98 -1.32 3.96 -2 6 C-2.69867188 5.83886719 -3.39734375 5.67773438 -4.1171875 5.51171875 C-7.16980587 4.96985831 -10.02607856 4.8319168 -13.125 4.8125 C-14.67574219 4.79123047 -14.67574219 4.79123047 -16.2578125 4.76953125 C-19.21720034 4.79591855 -19.21720034 4.79591855 -22 7 C-22.91884408 10.32708257 -22.91884408 10.32708257 -22 14 C-18.21794055 18.26693886 -12.71003081 20.73946348 -7.8125 23.5 C0.48191278 28.32355231 0.48191278 28.32355231 3 33 C3.87116171 38.3388626 3.70883337 42.55608017 1.3125 47.4375 C-3.13587326 52.36677847 -7.29434631 55.58719402 -14.015625 56.3359375 C-21.3240911 56.424204 -26.63067639 55.6292027 -33 52 C-33.66 51.67 -34.32 51.34 -35 51 C-34.01 48.03 -34.01 48.03 -33 45 C-32.3709375 45.144375 -31.741875 45.28875 -31.09375 45.4375 C-21.53259254 47.58346011 -21.53259254 47.58346011 -12.0625 45.875 C-9.78304919 44.0921298 -9.78304919 44.0921298 -8.9375 41.125 C-9.02045597 36.97720166 -10.13205957 35.97116833 -13 33 C-15.56891875 31.30680864 -18.2639082 29.90274272 -21 28.5 C-26.7588705 25.5475356 -30.99012939 23.01974123 -34 17 C-34.51848559 11.79814462 -34.62018013 7.36439629 -32.4375 2.5625 C-23.04953795 -7.306896 -11.10083466 -6.37270138 0 0 Z " fill="#C37902" transform="translate(145,145)"/>
<path d="M0 0 C3.63 0 7.26 0 11 0 C14.3 10.23 17.6 20.46 21 31 C24.84345939 17.03324643 24.84345939 17.03324643 27.640625 2.8359375 C28 1 28 1 29 0 C30.68608966 -0.07205511 32.37500659 -0.08386068 34.0625 -0.0625 C34.98160156 -0.05347656 35.90070313 -0.04445312 36.84765625 -0.03515625 C37.55792969 -0.02355469 38.26820312 -0.01195312 39 0 C38.42845245 6.71568369 37.14965455 12.85320081 35.25 19.3125 C34.8468457 20.69453613 34.8468457 20.69453613 34.43554688 22.10449219 C29.9691854 37.10323089 24.49543225 51.10274065 10.5 59.5 C6.77360935 60.24527813 3.73742781 59.6851951 0 59 C-0.33 58.67 -0.66 58.34 -1 58 C-1 56.02 -1 54.04 -1 52 C2.96 51.34 6.92 50.68 11 50 C12.15111885 43.12062331 11.73321195 38.46262693 9.47265625 31.9140625 C9.20488876 31.09046234 8.93712128 30.26686218 8.66123962 29.41830444 C7.81152403 26.8147436 6.9381748 24.21993159 6.0625 21.625 C5.19514887 19.00731649 4.33280995 16.38807778 3.47447205 13.76742554 C2.94099455 12.14379143 2.40146669 10.52212993 1.85523987 8.90274048 C0.83026604 5.82326148 0 3.26875965 0 0 Z " fill="#0D5276" transform="translate(66,156)"/>
<path d="M0 0 C3.63 0 7.26 0 11 0 C11 16.83 11 33.66 11 51 C17.27 51 23.54 51 30 51 C30 53.64 30 56.28 30 59 C20.1 59 10.2 59 0 59 C0 39.53 0 20.06 0 0 Z " fill="#C27902" transform="translate(207,141)"/>
<path d="M0 0 C5.86622167 5.34861388 8.65435738 12.81536074 9.17578125 20.63671875 C9.1857744 22.75859812 9.10255274 24.88057676 9 27 C5.37 27 1.74 27 -2 27 C-2.29003906 25.46279297 -2.29003906 25.46279297 -2.5859375 23.89453125 C-2.84869863 22.53380399 -3.11173398 21.17312967 -3.375 19.8125 C-3.50132812 19.13896484 -3.62765625 18.46542969 -3.7578125 17.77148438 C-4.81329548 12.19011307 -4.81329548 12.19011307 -7 7 C-9.75136081 5.79919422 -12.52252007 5.86480315 -15.5 5.875 C-16.2528125 5.87242187 -17.005625 5.86984375 -17.78125 5.8671875 C-20.98115286 6.03537172 -20.98115286 6.03537172 -24 7 C-26.18362874 10.94390088 -26.80105049 15.41950388 -27.625 19.8125 C-27.7590625 20.50537109 -27.893125 21.19824219 -28.03125 21.91210938 C-28.35858288 23.60722609 -28.67990594 25.30350146 -29 27 C-32.63 27 -36.26 27 -40 27 C-39.63137588 16.43277525 -38.04036053 8.45427156 -30.125 1 C-21.19863848 -6.09103485 -9.5566736 -5.75350758 0 0 Z " fill="#DE8A02" transform="translate(191,144)"/>
<path d="M0 0 C10.0088606 8.17049845 15.58164353 16.43122453 21.04345703 27.99902344 C22.93466671 31.95521398 24.96966736 35.83972298 26.96875 39.7421875 C28 42 28 42 28 44 C28.53367188 44.13535156 29.06734375 44.27070312 29.6171875 44.41015625 C36.39350734 46.36802029 41.42316991 49.75887921 47 54 C48.485 55.051875 48.485 55.051875 50 56.125 C52 58 52 58 54 63 C49.71 63.99 45.42 64.98 41 66 C43.73840984 68.73840984 45.92794541 70.77146151 49 72.9375 C52.21183881 75.31486107 54.86211962 77.56080114 57 81 C56.505 82.485 56.505 82.485 56 84 C55.53851563 83.62488281 55.07703125 83.24976563 54.6015625 82.86328125 C50.8550834 79.92385002 47.28955202 77.57775841 42.9375 75.625 C37.87220688 73.20996861 33.84484885 69.90916155 31 65 C31.495 63.515 31.495 63.515 32 62 C35.16015625 61.05078125 35.16015625 61.05078125 39.0625 60.3125 C40.35285156 60.06113281 41.64320313 59.80976562 42.97265625 59.55078125 C43.97167969 59.36902344 44.97070312 59.18726563 46 59 C40.57044365 55.26127261 35.85885411 52.07400841 29.375 50.625 C23.71352521 48.74052617 21.89034189 45.32290647 19.3125 40.25 C17.81700216 37.1917613 16.40223415 34.10187239 15 31 C13.67019638 28.15454675 12.31320159 25.32352472 10.9375 22.5 C10.61765137 21.83403809 10.29780273 21.16807617 9.96826172 20.48193359 C7.48554778 15.50022973 4.34321634 11.81043511 0.43359375 7.83984375 C-1 6 -1 6 -1 2.4375 C-0.67 1.633125 -0.34 0.82875 0 0 Z " fill="#0F5E87" transform="translate(199,62)"/>
<path d="M0 0 C-0.66 1.98 -1.32 3.96 -2 6 C-2.69867188 5.83886719 -3.39734375 5.67773438 -4.1171875 5.51171875 C-7.16980587 4.96985831 -10.02607856 4.8319168 -13.125 4.8125 C-14.67574219 4.79123047 -14.67574219 4.79123047 -16.2578125 4.76953125 C-19.21720034 4.79591855 -19.21720034 4.79591855 -22 7 C-22.91884408 10.32708257 -22.91884408 10.32708257 -22 14 C-19.6495718 16.51068467 -16.93265717 18.23020515 -14 20 C-12.96552734 20.62455078 -12.96552734 20.62455078 -11.91015625 21.26171875 C-10.29105051 22.20536934 -8.64781751 23.10743218 -7 24 C-7 24.66 -7 25.32 -7 26 C-10.04317386 26.13558695 -13.08025562 26.23437239 -16.125 26.3125 C-16.9809375 26.35439453 -17.836875 26.39628906 -18.71875 26.43945312 C-23.01258796 26.52202693 -26.04471411 26.46644231 -29.4921875 23.73046875 C-34.04446377 18.77401842 -34.45851363 15.31433734 -34.30859375 8.69140625 C-33.86349465 4.80946604 -32.68186582 2.8193974 -30 0 C-20.23598584 -7.17261704 -10.02598919 -5.75566046 0 0 Z " fill="#DF8A02" transform="translate(145,145)"/>
<path d="M0 0 C3.63 0 7.26 0 11 0 C14 6.625 14 6.625 14 10 C14.66 10 15.32 10 16 10 C16.13277344 9.36191406 16.26554687 8.72382813 16.40234375 8.06640625 C16.57894531 7.24011719 16.75554688 6.41382813 16.9375 5.5625 C17.19853516 4.32693359 17.19853516 4.32693359 17.46484375 3.06640625 C18 1 18 1 19 0 C20.51928038 -0.07179964 22.04167482 -0.08392007 23.5625 -0.0625 C24.38878906 -0.05347656 25.21507813 -0.04445312 26.06640625 -0.03515625 C26.70449219 -0.02355469 27.34257813 -0.01195312 28 0 C26.740482 3.9705745 25.47697782 7.93985091 24.2097168 11.90795898 C23.77892229 13.25884344 23.34923099 14.61008021 22.9206543 15.96166992 C22.30545141 17.90115924 21.68632916 19.83935874 21.06640625 21.77734375 C20.69459229 22.94515381 20.32277832 24.11296387 19.93969727 25.31616211 C19 28 19 28 18 29 C15.03 29 12.06 29 9 29 C6.03 19.43 3.06 9.86 0 0 Z " fill="#0D5276" transform="translate(16,171)"/>
<path d="M0 0 C3.63 0 7.26 0 11 0 C11 9.9 11 19.8 11 30 C7.37 30 3.74 30 0 30 C0 20.1 0 10.2 0 0 Z " fill="#DD8902" transform="translate(207,141)"/>
<path d="M0 0 C3.63 0 7.26 0 11 0 C12.10737929 9.6895688 12.09639597 19.26400653 12 29 C8.37 29 4.74 29 1 29 C0.16220564 19.29056184 -0.12276617 9.73944972 0 0 Z " fill="#0D5276" transform="translate(50,171)"/>
<path d="M0 0 C2.97 0 5.94 0 9 0 C9 9.57 9 19.14 9 29 C5.7 29 2.4 29 -1 29 C-1.02897435 24.72918086 -1.04678996 20.45838691 -1.0625 16.1875 C-1.07087891 14.97255859 -1.07925781 13.75761719 -1.08789062 12.50585938 C-1.09111328 11.34248047 -1.09433594 10.17910156 -1.09765625 8.98046875 C-1.10289307 7.90692139 -1.10812988 6.83337402 -1.11352539 5.72729492 C-1 3 -1 3 0 0 Z " fill="#0D5276" transform="translate(1,171)"/>
<path d="M0 0 C3.63 0 7.26 0 11 0 C11.6700834 2.12392506 12.33596797 4.24917524 13 6.375 C13.37125 7.55835938 13.7425 8.74171875 14.125 9.9609375 C15 13 15 13 15 15 C11.37 15 7.74 15 4 15 C3.32779649 13.06441401 2.66241923 11.12645628 2 9.1875 C1.62875 8.10855469 1.2575 7.02960938 0.875 5.91796875 C0 3 0 3 0 0 Z " fill="#0F5E86" transform="translate(66,156)"/>
<path d="M0 0 C1.37478516 0.01740234 1.37478516 0.01740234 2.77734375 0.03515625 C3.69644531 0.04417969 4.61554688 0.05320313 5.5625 0.0625 C6.27277344 0.07410156 6.98304687 0.08570313 7.71484375 0.09765625 C7.26955525 5.37080958 6.63111212 10.11535849 4.71484375 15.09765625 C1.41484375 15.09765625 -1.88515625 15.09765625 -5.28515625 15.09765625 C-4.97772722 12.78447664 -4.66407923 10.47212273 -4.34765625 8.16015625 C-4.17363281 6.87238281 -3.99960938 5.58460938 -3.8203125 4.2578125 C-3.12186662 0.1334131 -3.12186662 0.1334131 0 0 Z " fill="#0F5E86" transform="translate(97.28515625,155.90234375)"/>
<path d="M0 0 C0.33 0 0.66 0 1 0 C1 15.84 1 31.68 1 48 C6.28 48 11.56 48 17 48 C17 48.33 17 48.66 17 49 C11.39 49 5.78 49 0 49 C0 32.83 0 16.66 0 0 Z " fill="#CD7F02" transform="translate(219,142)"/>
<path d="M0 0 C0.33 0 0.66 0 1 0 C1 19.14 1 38.28 1 58 C0.67 58 0.34 58 0 58 C0 38.86 0 19.72 0 0 Z " fill="#D08102" transform="translate(205,142)"/>
<path d="M0 0 C2.375 -0.125 2.375 -0.125 5 0 C7 2 7 2 7.125 4.625 C7.08375 5.40875 7.0425 6.1925 7 7 C6.01 7.33 5.02 7.66 4 8 C2.68 5.36 1.36 2.72 0 0 Z " fill="#0E5479" transform="translate(171,61)"/>
<path d="M0 0 C0.33 0 0.66 0 1 0 C1.22655901 3.08227709 1.42803465 6.1657016 1.625 9.25 C1.68945312 10.12269531 1.75390625 10.99539062 1.8203125 11.89453125 C1.871875 12.73886719 1.9234375 13.58320313 1.9765625 14.453125 C2.02893066 15.22817383 2.08129883 16.00322266 2.13525391 16.80175781 C1.9810467 19.30804237 1.25581508 20.84839873 0 23 C0.020625 21.96875 0.04125 20.9375 0.0625 19.875 C0.1189656 16.15540314 0.1189656 16.15540314 -0.5625 13.1875 C-1.17791265 8.7037793 -0.57405117 4.46876756 0 0 Z " fill="#C57A02" transform="translate(149,166)"/>
<path d="M0 0 C0.33 0 0.66 0 1 0 C1 6.93 1 13.86 1 21 C0.67 21 0.34 21 0 21 C0 14.07 0 7.14 0 0 Z " fill="#0D5275" transform="translate(11,178)"/>
<path d="M0 0 C0.33 0 0.66 0 1 0 C1 4.62 1 9.24 1 14 C0.67 14 0.34 14 0 14 C0 9.38 0 4.76 0 0 Z " fill="#0D5275" transform="translate(63,186)"/>
<path d="M0 0 C4.29 0 8.58 0 13 0 C13 0.33 13 0.66 13 1 C8.71 1 4.42 1 0 1 C0 0.67 0 0.34 0 0 Z " fill="#C07702" transform="translate(168,202)"/>
<path d="M0 0 C4.29 0 8.58 0 13 0 C13 0.33 13 0.66 13 1 C8.71 1 4.42 1 0 1 C0 0.67 0 0.34 0 0 Z " fill="#0F5D85" transform="translate(4,139)"/>
<path d="M0 0 C0.33 0 0.66 0 1 0 C1 4.29 1 8.58 1 13 C0.67 13 0.34 13 0 13 C0 8.71 0 4.42 0 0 Z " fill="#0D5275" transform="translate(171,92)"/>
<path d="M0 0 C0.33 0 0.66 0 1 0 C1 3.96 1 7.92 1 12 C0.67 12 0.34 12 0 12 C0 8.04 0 4.08 0 0 Z " fill="#0D5275" transform="translate(48,170)"/>
<path d="M0 0 C3.96 0 7.92 0 12 0 C12 0.33 12 0.66 12 1 C8.04 1 4.08 1 0 1 C0 0.67 0 0.34 0 0 Z " fill="#0F5D85" transform="translate(45,139)"/>
<path d="M0 0 C3.63 0 7.26 0 11 0 C11 0.33 11 0.66 11 1 C7.37 1 3.74 1 0 1 C0 0.67 0 0.34 0 0 Z " fill="#C37902" transform="translate(122,202)"/>
<path d="M0 0 C0.33 0 0.66 0 1 0 C1 3.63 1 7.26 1 11 C0.67 11 0.34 11 0 11 C0 7.37 0 3.74 0 0 Z " fill="#0D5072" transform="translate(49,189)"/>
<path d="M0 0 C0.33 0 0.66 0 1 0 C1 3.63 1 7.26 1 11 C0.67 11 0.34 11 0 11 C0 7.37 0 3.74 0 0 Z " fill="#D48302" transform="translate(201,164)"/>
<path d="M0 0 C0.33 0 0.66 0 1 0 C1 3.3 1 6.6 1 10 C0.67 10 0.34 10 0 10 C0 6.7 0 3.4 0 0 Z " fill="#DD8902" transform="translate(109,152)"/>
<path d="M0 0 C0.33 0 0.66 0 1 0 C1 2.97 1 5.94 1 9 C0.67 9 0.34 9 0 9 C0 6.03 0 3.06 0 0 Z " fill="#0D5174" transform="translate(62,171)"/>
<path d="M0 0 C2.97 0 5.94 0 9 0 C9 0.33 9 0.66 9 1 C6.03 1 3.06 1 0 1 C0 0.67 0 0.34 0 0 Z " fill="#0F5E86" transform="translate(95,154)"/>
<path d="M0 0 C2.97 0 5.94 0 9 0 C9 0.33 9 0.66 9 1 C6.03 1 3.06 1 0 1 C0 0.67 0 0.34 0 0 Z " fill="#0F5E86" transform="translate(67,154)"/>
<path d="M0 0 C2.97 0 5.94 0 9 0 C9 0.33 9 0.66 9 1 C6.03 1 3.06 1 0 1 C0 0.67 0 0.34 0 0 Z " fill="#DD8902" transform="translate(171,150)"/>
<path d="M0 0 C2.97 0 5.94 0 9 0 C9 0.33 9 0.66 9 1 C6.03 1 3.06 1 0 1 C0 0.67 0 0.34 0 0 Z " fill="#DD8903" transform="translate(208,139)"/>
<path d="M0 0 C0.33 0 0.66 0 1 0 C1 2.64 1 5.28 1 8 C0.67 8 0.34 8 0 8 C0 5.36 0 2.72 0 0 Z " fill="#0F5D85" transform="translate(61,160)"/>
<path d="M0 0 C0.66 0 1.32 0 2 0 C2 1.65 2 3.3 2 5 C1.34 4.34 0.68 3.68 0 3 C0 2.01 0 1.02 0 0 Z " fill="#0D5174" transform="translate(172,106)"/>
<path d="M0 0 C0.33 0 0.66 0 1 0 C1 1.65 1 3.3 1 5 C0.01 5.495 0.01 5.495 -1 6 C-0.67 4.02 -0.34 2.04 0 0 Z " fill="#0F5D85" transform="translate(47,162)"/>
<path d="M0 0 C0.33 0 0.66 0 1 0 C1 2.31 1 4.62 1 7 C0.67 7 0.34 7 0 7 C0 4.69 0 2.38 0 0 Z " fill="#DD8902" transform="translate(123,152)"/>
<path d="M0 0 C0.33 0 0.66 0 1 0 C1 2.31 1 4.62 1 7 C0.67 7 0.34 7 0 7 C0 4.69 0 2.38 0 0 Z " fill="#0F5D85" transform="translate(0,154)"/>
<path d="M0 0 C0.33 0 0.66 0 1 0 C1 2.31 1 4.62 1 7 C0.67 7 0.34 7 0 7 C0 4.69 0 2.38 0 0 Z " fill="#0F5D85" transform="translate(60,150)"/>
<path d="M0 0 C0.99 0.66 1.98 1.32 3 2 C1.02 2 -0.96 2 -3 2 C-2.01 1.34 -1.02 0.68 0 0 Z " fill="#0F5D85" transform="translate(241,119)"/>
<path d="M0 0 C0.33 0 0.66 0 1 0 C1 1.98 1 3.96 1 6 C0.67 6 0.34 6 0 6 C0 4.02 0 2.04 0 0 Z " fill="#0E5376" transform="translate(63,208)"/>
<path d="M0 0 C1.98 0 3.96 0 6 0 C6 0.33 6 0.66 6 1 C4.02 1 2.04 1 0 1 C0 0.67 0 0.34 0 0 Z " fill="#0D5173" transform="translate(66,206)"/>
<path d="M0 0 C0.33 0 0.66 0 1 0 C1 1.98 1 3.96 1 6 C0.67 6 0.34 6 0 6 C0 4.02 0 2.04 0 0 Z " fill="#0D4F72" transform="translate(77,197)"/>
<path d="M0 0 C1.98 0 3.96 0 6 0 C6 0.33 6 0.66 6 1 C4.02 1 2.04 1 0 1 C0 0.67 0 0.34 0 0 Z " fill="#BB7402" transform="translate(123,191)"/>
<path d="M0 0 C0.33 0 0.66 0 1 0 C1 1.98 1 3.96 1 6 C0.67 6 0.34 6 0 6 C0 4.02 0 2.04 0 0 Z " fill="#0F5D85" transform="translate(1,145)"/>
<path d="M0 0 C0.33 0 0.66 0 1 0 C1 1.98 1 3.96 1 6 C0.67 6 0.34 6 0 6 C0 4.02 0 2.04 0 0 Z " fill="#0F5D85" transform="translate(59,142)"/>
<path d="M0 0 C1.98 0 3.96 0 6 0 C6 0.33 6 0.66 6 1 C4.02 1 2.04 1 0 1 C0 0.67 0 0.34 0 0 Z " fill="#0D5275" transform="translate(174,57)"/>
<path d="M0 0 C0.33 0.99 0.66 1.98 1 3 C0.34 3 -0.32 3 -1 3 C-0.67 2.01 -0.34 1.02 0 0 Z " fill="#0D5275" transform="translate(87,181)"/>
<path d="M0 0 C0.33 0 0.66 0 1 0 C1 1.65 1 3.3 1 5 C0.67 5 0.34 5 0 5 C0 3.35 0 1.7 0 0 Z " fill="#C17802" transform="translate(164,176)"/>
<path d="M0 0 C0.33 0 0.66 0 1 0 C1 1.65 1 3.3 1 5 C0.67 5 0.34 5 0 5 C0 3.35 0 1.7 0 0 Z " fill="#DD8902" transform="translate(186,160)"/>
<path d="M0 0 C0.33 0 0.66 0 1 0 C1 1.65 1 3.3 1 5 C0.67 5 0.34 5 0 5 C0 3.35 0 1.7 0 0 Z " fill="#0F5D85" transform="translate(92,157)"/>
<path d="M0 0 C1.65 0 3.3 0 5 0 C5 0.33 5 0.66 5 1 C3.35 1 1.7 1 0 1 C0 0.67 0 0.34 0 0 Z " fill="#DD8902" transform="translate(174,138)"/>
<path d="M0 0 C0.99 0 1.98 0 3 0 C3 0.66 3 1.32 3 2 C2.01 1.67 1.02 1.34 0 1 C0 0.67 0 0.34 0 0 Z " fill="#0F5D85" transform="translate(240,128)"/>
<path d="M0 0 C1.65 0 3.3 0 5 0 C5 0.33 5 0.66 5 1 C3.35 1 1.7 1 0 1 C0 0.67 0 0.34 0 0 Z " fill="#0F5D85" transform="translate(245,127)"/>
<path d="M0 0 C1 4 1 4 1 4 Z " fill="#C07702" transform="translate(200,178)"/>
<path d="M0 0 C1 4 1 4 1 4 Z " fill="#C37902" transform="translate(186,177)"/>
<path d="M0 0 C0 3 0 3 0 3 Z " fill="#0D5275" transform="translate(31,175)"/>
<path d="M0 0 C1 4 1 4 1 4 Z " fill="#0E577D" transform="translate(103,169)"/>
<path d="M0 0 C1 4 1 4 1 4 Z " fill="#0F5D85" transform="translate(91,164)"/>
<path d="M0 0 C1 4 1 4 1 4 Z " fill="#0F5D85" transform="translate(105,160)"/>
<path d="M0 0 C1 4 1 4 1 4 Z " fill="#DD8902" transform="translate(164,160)"/>
<path d="M0 0 C1 4 1 4 1 4 Z " fill="#DD8902" transform="translate(150,160)"/>
<path d="M0 0 C1 4 1 4 1 4 Z " fill="#DD8902" transform="translate(200,158)"/>
<path d="M0 0 C4 1 4 1 4 1 Z " fill="#DD8902" transform="translate(133,150)"/>
<path d="M0 0 C4 1 4 1 4 1 Z " fill="#DD8A02" transform="translate(133,139)"/>
<path d="M0 0 C4 1 4 1 4 1 Z " fill="#DD8902" transform="translate(122,139)"/>
<path d="M0 0 C4 1 4 1 4 1 Z " fill="#0D5276" transform="translate(173,119)"/>
<path d="M0 0 C0.66 0.66 1.32 1.32 2 2 C1.01 2.495 1.01 2.495 0 3 C0 2.01 0 1.02 0 0 Z " fill="#0D5173" transform="translate(181,112)"/>
<path d="M0 0 C1 4 1 4 1 4 Z " fill="#0E5477" transform="translate(163,97)"/>
<path d="M0 0 C1 4 1 4 1 4 Z " fill="#0D5174" transform="translate(164,90)"/>
<path d="M0 0 C4 1 4 1 4 1 Z " fill="#0E5276" transform="translate(172,59)"/>
<path d="M0 0 C4 1 4 1 4 1 Z " fill="#0D4F71" transform="translate(177,49)"/>
<path d="M0 0 C3 1 3 1 3 1 Z " fill="#0D5173" transform="translate(74,216)"/>
<path d="M0 0 C3 1 3 1 3 1 Z " fill="#BD7502" transform="translate(134,201)"/>
<path d="M0 0 C3 1 3 1 3 1 Z " fill="#C07702" transform="translate(118,201)"/>
<path d="" fill="#0D5073" transform="translate(0,0)"/>
<path d="M0 0 C0.33 0.66 0.66 1.32 1 2 C0.34 1.67 -0.32 1.34 -1 1 C-0.67 0.67 -0.34 0.34 0 0 Z " fill="#C07702" transform="translate(193,194)"/>
<path d="" fill="#0D5074" transform="translate(0,0)"/>
<path d="" fill="#0E5074" transform="translate(0,0)"/>
<path d="M0 0 C3 1 3 1 3 1 Z " fill="#AC6A02" transform="translate(174,191)"/>
<path d="" fill="#0D5175" transform="translate(0,0)"/>
<path d="" fill="#0D5174" transform="translate(0,0)"/>
<path d="M0 0 C3 1 3 1 3 1 Z " fill="#BC7403" transform="translate(130,190)"/>
<path d="M0 0 C3 1 3 1 3 1 Z " fill="#BE7602" transform="translate(118,190)"/>
<path d="" fill="#0D5175" transform="translate(0,0)"/>
<path d="" fill="#0D5274" transform="translate(0,0)"/>
<path d="" fill="#C17802" transform="translate(0,0)"/>
<path d="" fill="#0D5073" transform="translate(0,0)"/>
<path d="" fill="#0D5174" transform="translate(0,0)"/>
<path d="" fill="#0D5174" transform="translate(0,0)"/>
<path d="" fill="#0D5072" transform="translate(0,0)"/>
<path d="" fill="#0D5174" transform="translate(0,0)"/>
<path d="" fill="#0D5073" transform="translate(0,0)"/>
<path d="" fill="#0C5073" transform="translate(0,0)"/>
<path d="" fill="#0F587E" transform="translate(0,0)"/>
<path d="" fill="#0F567C" transform="translate(0,0)"/>
<path d="" fill="#0E597F" transform="translate(0,0)"/>
<path d="" fill="#0F5E85" transform="translate(0,0)"/>
<path d="" fill="#0F5D86" transform="translate(0,0)"/>
<path d="" fill="#0F5D85" transform="translate(0,0)"/>
<path d="" fill="#0F5D86" transform="translate(0,0)"/>
<path d="" fill="#105D86" transform="translate(0,0)"/>
<path d="" fill="#105D85" transform="translate(0,0)"/>
<path d="" fill="#DD8A02" transform="translate(0,0)"/>
<path d="" fill="#DE8902" transform="translate(0,0)"/>
<path d="" fill="#DE8902" transform="translate(0,0)"/>
<path d="" fill="#DD8902" transform="translate(0,0)"/>
<path d="M0 0 C3 1 3 1 3 1 Z " fill="#DD8902" transform="translate(138,151)"/>
<path d="M0 0 C3 1 3 1 3 1 Z " fill="#DD8903" transform="translate(126,150)"/>
<path d="M0 0 C0.66 0.66 1.32 1.32 2 2 C1.34 2 0.68 2 0 2 C0 1.34 0 0.68 0 0 Z " fill="#0F5D85" transform="translate(254,139)"/>
<path d="M0 0 C3 1 3 1 3 1 Z " fill="#DD8902" transform="translate(181,139)"/>
<path d="M0 0 C3 1 3 1 3 1 Z " fill="#DE8902" transform="translate(168,139)"/>
<path d="M0 0 C3 1 3 1 3 1 Z " fill="#0F5D85" transform="translate(250,126)"/>
<path d="M0 0 C3 1 3 1 3 1 Z " fill="#0F5D85" transform="translate(231,114)"/>
<path d="M0 0 C3 1 3 1 3 1 Z " fill="#0F5D85" transform="translate(225,112)"/>
<path d="" fill="#0D5074" transform="translate(0,0)"/>
<path d="" fill="#0D5174" transform="translate(0,0)"/>
<path d="" fill="#0D5174" transform="translate(0,0)"/>
<path d="" fill="#0E5377" transform="translate(0,0)"/>
<path d="" fill="#0D5174" transform="translate(0,0)"/>
<path d="" fill="#0D5173" transform="translate(0,0)"/>
<path d="M0 0 C3 1 3 1 3 1 Z " fill="#0D5275" transform="translate(159,42)"/>
<path d="M0 0 C2 1 2 1 2 1 Z " fill="#0D5275" transform="translate(67,216)"/>
<path d="M0 0 C2 1 2 1 2 1 Z " fill="#0D4F72" transform="translate(77,215)"/>
<path d="M0 0 C2 1 2 1 2 1 Z " fill="#0D5072" transform="translate(79,214)"/>
<path d="M0 0 C2 1 2 1 2 1 Z " fill="#0E5275" transform="translate(82,212)"/>
<path d="M0 0 C2 1 2 1 2 1 Z " fill="#C37902" transform="translate(195,209)"/>
<path d="" fill="#0D5173" transform="translate(0,0)"/>
<path d="M0 0 C2 1 2 1 2 1 Z " fill="#BE7702" transform="translate(190,206)"/>
<path d="" fill="#C37902" transform="translate(0,0)"/>
<path d="M0 0 C2 1 2 1 2 1 Z " fill="#C27902" transform="translate(188,205)"/>
<path d="M0 0 C2 1 2 1 2 1 Z " fill="#0E5377" transform="translate(73,205)"/>
<path d="" fill="#0D5174" transform="translate(0,0)"/>
<path d="" fill="#BB7502" transform="translate(0,0)"/>
<path d="M0 0 C2 1 2 1 2 1 Z " fill="#BD7602" transform="translate(183,202)"/>
<path d="M0 0 C2 1 2 1 2 1 Z " fill="#C27803" transform="translate(165,201)"/>
<path d="" fill="#0E5276" transform="translate(0,0)"/>
<path d="M0 0 C2 1 2 1 2 1 Z " fill="#BE7602" transform="translate(137,200)"/>
<path d="M0 0 C2 1 2 1 2 1 Z " fill="#BC7403" transform="translate(116,200)"/>
<path d="M0 0 C2 1 2 1 2 1 Z " fill="#BF7602" transform="translate(139,199)"/>
<path d="" fill="#0D5275" transform="translate(0,0)"/>
<path d="M0 0 C2 1 2 1 2 1 Z " fill="#C27802" transform="translate(159,198)"/>
<path d="" fill="#0D5174" transform="translate(0,0)"/>
<path d="M0 0 C2 1 2 1 2 1 Z " fill="#BE7502" transform="translate(110,197)"/>
<path d="" fill="#0D5275" transform="translate(0,0)"/>
<path d="" fill="#C57A02" transform="translate(0,0)"/>
<path d="" fill="#0D5275" transform="translate(0,0)"/>
<path d="" fill="#0D5174" transform="translate(0,0)"/>
<path d="" fill="#BE7603" transform="translate(0,0)"/>
<path d="" fill="#C17703" transform="translate(0,0)"/>
<path d="" fill="#0E5376" transform="translate(0,0)"/>
<path d="" fill="#B87302" transform="translate(0,0)"/>
<path d="" fill="#0D5275" transform="translate(0,0)"/>
<path d="" fill="#C17803" transform="translate(0,0)"/>
<path d="" fill="#C27803" transform="translate(0,0)"/>
<path d="M0 0 C2 1 2 1 2 1 Z " fill="#C37903" transform="translate(179,190)"/>
<path d="M0 0 C2 1 2 1 2 1 Z " fill="#C27802" transform="translate(170,190)"/>
<path d="" fill="#BE7503" transform="translate(0,0)"/>
<path d="" fill="#0D5173" transform="translate(0,0)"/>
<path d="" fill="#C37903" transform="translate(0,0)"/>
<path d="M0 0 C2 1 2 1 2 1 Z " fill="#C27802" transform="translate(181,189)"/>
<path d="M0 0 C2 1 2 1 2 1 Z " fill="#C17702" transform="translate(168,189)"/>
<path d="" fill="#C27902" transform="translate(0,0)"/>
<path d="M0 0 C2 1 2 1 2 1 Z " fill="#C37902" transform="translate(116,189)"/>
<path d="" fill="#0D5275" transform="translate(0,0)"/>
<path d="" fill="#C27802" transform="translate(0,0)"/>
<path d="" fill="#C17802" transform="translate(0,0)"/>
<path d="" fill="#C27902" transform="translate(0,0)"/>
<path d="M0 0 C2 1 2 1 2 1 Z " fill="#BA7303" transform="translate(113,188)"/>
<path d="" fill="#0E5376" transform="translate(0,0)"/>
<path d="" fill="#0D5174" transform="translate(0,0)"/>
<path d="" fill="#C37902" transform="translate(0,0)"/>
<path d="" fill="#C37902" transform="translate(0,0)"/>
<path d="" fill="#C07702" transform="translate(0,0)"/>
<path d="" fill="#0E5275" transform="translate(0,0)"/>
<path d="" fill="#A86802" transform="translate(0,0)"/>
<path d="" fill="#0E5275" transform="translate(0,0)"/>
<path d="" fill="#0D5174" transform="translate(0,0)"/>
<path d="" fill="#C27802" transform="translate(0,0)"/>
<path d="" fill="#C27803" transform="translate(0,0)"/>
<path d="" fill="#0E5375" transform="translate(0,0)"/>
<path d="" fill="#C37903" transform="translate(0,0)"/>
<path d="" fill="#0E5276" transform="translate(0,0)"/>
<path d="" fill="#0D5175" transform="translate(0,0)"/>
<path d="" fill="#0D5174" transform="translate(0,0)"/>
<path d="" fill="#0D5174" transform="translate(0,0)"/>
<path d="" fill="#0E5276" transform="translate(0,0)"/>
<path d="" fill="#0D5275" transform="translate(0,0)"/>
<path d="" fill="#0D5174" transform="translate(0,0)"/>
<path d="M0 0 C2 1 2 1 2 1 Z " fill="#C27802" transform="translate(130,178)"/>
<path d="" fill="#0D5275" transform="translate(0,0)"/>
<path d="" fill="#0E5175" transform="translate(0,0)"/>
<path d="" fill="#0E5275" transform="translate(0,0)"/>
<path d="M0 0 C2 1 2 1 2 1 Z " fill="#BE7602" transform="translate(123,174)"/>
<path d="" fill="#0D5174" transform="translate(0,0)"/>
<path d="M0 0 C2 1 2 1 2 1 Z " fill="#C87C02" transform="translate(121,173)"/>
<path d="" fill="#0D5275" transform="translate(0,0)"/>
<path d="" fill="#0D5175" transform="translate(0,0)"/>
<path d="" fill="#0D5276" transform="translate(0,0)"/>
<path d="" fill="#0E5478" transform="translate(0,0)"/>
<path d="M0 0 C2 1 2 1 2 1 Z " fill="#DD8A02" transform="translate(116,170)"/>
<path d="" fill="#0F5C84" transform="translate(0,0)"/>
<path d="" fill="#0F5D84" transform="translate(0,0)"/>
<path d="" fill="#0F5D84" transform="translate(0,0)"/>
<path d="M0 0 C2 1 2 1 2 1 Z " fill="#C27903" transform="translate(140,169)"/>
<path d="" fill="#105E86" transform="translate(0,0)"/>
<path d="" fill="#0F5D85" transform="translate(0,0)"/>
<path d="" fill="#0F5D85" transform="translate(0,0)"/>
<path d="M0 0 C2 1 2 1 2 1 Z " fill="#DD8902" transform="translate(135,166)"/>
<path d="M0 0 C2 1 2 1 2 1 Z " fill="#DD8902" transform="translate(133,165)"/>
<path d="" fill="#DD8903" transform="translate(0,0)"/>
<path d="" fill="#105D85" transform="translate(0,0)"/>
<path d="M0 0 C2 1 2 1 2 1 Z " fill="#DD8903" transform="translate(131,164)"/>
<path d="" fill="#105D85" transform="translate(0,0)"/>
<path d="" fill="#DD8902" transform="translate(0,0)"/>
<path d="" fill="#0F5D85" transform="translate(0,0)"/>
<path d="M0 0 C2 1 2 1 2 1 Z " fill="#DD8902" transform="translate(126,161)"/>
<path d="" fill="#0F5E85" transform="translate(0,0)"/>
<path d="" fill="#0F5D85" transform="translate(0,0)"/>
<path d="" fill="#0F5D85" transform="translate(0,0)"/>
<path d="" fill="#0F5E85" transform="translate(0,0)"/>
<path d="" fill="#0F5E85" transform="translate(0,0)"/>
<path d="" fill="#105D85" transform="translate(0,0)"/>
<path d="" fill="#0F5E85" transform="translate(0,0)"/>
<path d="" fill="#0F5D86" transform="translate(0,0)"/>
<path d="" fill="#DD8902" transform="translate(0,0)"/>
<path d="" fill="#DD8902" transform="translate(0,0)"/>
<path d="" fill="#DD8903" transform="translate(0,0)"/>
<path d="" fill="#DD8902" transform="translate(0,0)"/>
<path d="" fill="#DD8902" transform="translate(0,0)"/>
<path d="" fill="#0F5E86" transform="translate(0,0)"/>
<path d="" fill="#0F5D85" transform="translate(0,0)"/>
<path d="" fill="#DD8A02" transform="translate(0,0)"/>
<path d="" fill="#DD8903" transform="translate(0,0)"/>
<path d="" fill="#DD8A03" transform="translate(0,0)"/>
<path d="" fill="#105D85" transform="translate(0,0)"/>
<path d="" fill="#0F5D85" transform="translate(0,0)"/>
<path d="" fill="#DD8903" transform="translate(0,0)"/>
<path d="" fill="#0F5D85" transform="translate(0,0)"/>
<path d="" fill="#0F5D85" transform="translate(0,0)"/>
<path d="M0 0 C2 1 2 1 2 1 Z " fill="#0F5D85" transform="translate(251,144)"/>
<path d="" fill="#105D85" transform="translate(0,0)"/>
<path d="" fill="#0F5D85" transform="translate(0,0)"/>
<path d="M0 0 C2 1 2 1 2 1 Z " fill="#DE8A02" transform="translate(189,142)"/>
<path d="M0 0 C2 1 2 1 2 1 Z " fill="#DD8902" transform="translate(142,142)"/>
<path d="M0 0 C2 1 2 1 2 1 Z " fill="#DD8902" transform="translate(187,141)"/>
<path d="M0 0 C2 1 2 1 2 1 Z " fill="#DE8903" transform="translate(140,141)"/>
<path d="M0 0 C2 1 2 1 2 1 Z " fill="#DD8902" transform="translate(185,140)"/>
<path d="M0 0 C2 1 2 1 2 1 Z " fill="#DD8902" transform="translate(138,140)"/>
<path d="M0 0 C2 1 2 1 2 1 Z " fill="#DD8902" transform="translate(120,140)"/>
<path d="M0 0 C2 1 2 1 2 1 Z " fill="#0F5D85" transform="translate(242,139)"/>
<path d="M0 0 C2 1 2 1 2 1 Z " fill="#0F5D86" transform="translate(237,136)"/>
<path d="M0 0 C2 1 2 1 2 1 Z " fill="#0F5D85" transform="translate(247,133)"/>
<path d="" fill="#105E85" transform="translate(0,0)"/>
<path d="" fill="#0F5D85" transform="translate(0,0)"/>
<path d="M0 0 C2 1 2 1 2 1 Z " fill="#105D86" transform="translate(232,122)"/>
<path d="M0 0 C2 1 2 1 2 1 Z " fill="#0D5072" transform="translate(190,122)"/>
<path d="M0 0 C2 1 2 1 2 1 Z " fill="#0F5D86" transform="translate(235,121)"/>
<path d="M0 0 C2 1 2 1 2 1 Z " fill="#0F5D85" transform="translate(246,115)"/>
<path d="M0 0 C2 1 2 1 2 1 Z " fill="#0F5D86" transform="translate(234,115)"/>
<path d="M0 0 C2 1 2 1 2 1 Z " fill="#0F5D85" transform="translate(229,113)"/>
<path d="M0 0 C2 1 2 1 2 1 Z " fill="#0F5D85" transform="translate(242,112)"/>
<path d="" fill="#0D5275" transform="translate(0,0)"/>
<path d="" fill="#0D5377" transform="translate(0,0)"/>
<path d="M0 0 C2 1 2 1 2 1 Z " fill="#0F5D85" transform="translate(239,110)"/>
<path d="" fill="#0F5D85" transform="translate(0,0)"/>
<path d="" fill="#0D5073" transform="translate(0,0)"/>
<path d="M0 0 C2 1 2 1 2 1 Z " fill="#0F5D85" transform="translate(236,108)"/>
<path d="M0 0 C2 1 2 1 2 1 Z " fill="#105D85" transform="translate(234,107)"/>
<path d="M0 0 C2 1 2 1 2 1 Z " fill="#0F5D85" transform="translate(232,106)"/>
<path d="" fill="#0F5D85" transform="translate(0,0)"/>
<path d="" fill="#0F5D85" transform="translate(0,0)"/>
<path d="" fill="#0D5275" transform="translate(0,0)"/>
<path d="" fill="#0F5D85" transform="translate(0,0)"/>
<path d="" fill="#0D5276" transform="translate(0,0)"/>
<path d="" fill="#0D4E6F" transform="translate(0,0)"/>
<path d="" fill="#0F5D85" transform="translate(0,0)"/>
<path d="" fill="#0D5275" transform="translate(0,0)"/>
<path d="" fill="#0E5073" transform="translate(0,0)"/>
<path d="" fill="#0F5D86" transform="translate(0,0)"/>
<path d="" fill="#0F5D85" transform="translate(0,0)"/>
<path d="" fill="#0F5D85" transform="translate(0,0)"/>
<path d="" fill="#0E5375" transform="translate(0,0)"/>
<path d="" fill="#0F5E85" transform="translate(0,0)"/>
<path d="" fill="#0F5D86" transform="translate(0,0)"/>
<path d="" fill="#0F5E85" transform="translate(0,0)"/>
<path d="" fill="#105D85" transform="translate(0,0)"/>
<path d="" fill="#0D5174" transform="translate(0,0)"/>
<path d="" fill="#0F5D86" transform="translate(0,0)"/>
<path d="" fill="#0F5D85" transform="translate(0,0)"/>
<path d="" fill="#0F5D85" transform="translate(0,0)"/>
<path d="" fill="#0D4D6F" transform="translate(0,0)"/>
<path d="" fill="#0F5D86" transform="translate(0,0)"/>
<path d="" fill="#0F5D86" transform="translate(0,0)"/>
<path d="" fill="#0D4F71" transform="translate(0,0)"/>
<path d="" fill="#0D5376" transform="translate(0,0)"/>
<path d="" fill="#0F5D86" transform="translate(0,0)"/>
<path d="" fill="#0D5275" transform="translate(0,0)"/>
<path d="" fill="#0D5377" transform="translate(0,0)"/>
<path d="" fill="#0F5D85" transform="translate(0,0)"/>
<path d="" fill="#0D5175" transform="translate(0,0)"/>
<path d="" fill="#0D5175" transform="translate(0,0)"/>
<path d="" fill="#0D5275" transform="translate(0,0)"/>
<path d="" fill="#0D5073" transform="translate(0,0)"/>
<path d="" fill="#0F5E85" transform="translate(0,0)"/>
<path d="" fill="#0E5275" transform="translate(0,0)"/>
<path d="M0 0 C2 1 2 1 2 1 Z " fill="#0E577E" transform="translate(195,67)"/>
<path d="" fill="#0D5276" transform="translate(0,0)"/>
<path d="" fill="#0D5073" transform="translate(0,0)"/>
<path d="" fill="#0E5275" transform="translate(0,0)"/>
<path d="" fill="#0D5072" transform="translate(0,0)"/>
<path d="M0 0 C2 1 2 1 2 1 Z " fill="#105C85" transform="translate(202,63)"/>
<path d="" fill="#0E5073" transform="translate(0,0)"/>
<path d="" fill="#0D5072" transform="translate(0,0)"/>
<path d="M0 0 C2 1 2 1 2 1 Z " fill="#0D5071" transform="translate(185,60)"/>
<path d="" fill="#0D4E70" transform="translate(0,0)"/>
<path d="M0 0 C2 1 2 1 2 1 Z " fill="#0D5072" transform="translate(183,59)"/>
<path d="M0 0 C2 1 2 1 2 1 Z " fill="#0E5275" transform="translate(196,58)"/>
<path d="M0 0 C2 1 2 1 2 1 Z " fill="#0E5276" transform="translate(180,58)"/>
<path d="" fill="#0E5174" transform="translate(0,0)"/>
<path d="M0 0 C2 1 2 1 2 1 Z " fill="#0D4F72" transform="translate(193,56)"/>
<path d="M0 0 C2 1 2 1 2 1 Z " fill="#0D4F72" transform="translate(169,56)"/>
<path d="M0 0 C2 1 2 1 2 1 Z " fill="#0D5174" transform="translate(190,54)"/>
<path d="" fill="#0D5276" transform="translate(0,0)"/>
<path d="M0 0 C2 1 2 1 2 1 Z " fill="#0D5377" transform="translate(187,52)"/>
<path d="M0 0 C2 1 2 1 2 1 Z " fill="#0E5275" transform="translate(185,51)"/>
<path d="M0 0 C2 1 2 1 2 1 Z " fill="#0E5276" transform="translate(160,51)"/>
<path d="M0 0 C2 1 2 1 2 1 Z " fill="#0E5275" transform="translate(182,50)"/>
<path d="M0 0 C2 1 2 1 2 1 Z " fill="#0D5275" transform="translate(171,48)"/>
<path d="" fill="#0D5073" transform="translate(0,0)"/>
<path d="" fill="#0D5173" transform="translate(0,0)"/>
<path d="M0 0 C2 1 2 1 2 1 Z " fill="#0E5276" transform="translate(165,44)"/>
<path d="M0 0 C2 1 2 1 2 1 Z " fill="#0D5072" transform="translate(162,43)"/>
<path d="M0 0 C2 1 2 1 2 1 Z " fill="#0D5073" transform="translate(152,43)"/>
<path d="M0 0 C2 1 2 1 2 1 Z " fill="#0D5174" transform="translate(154,42)"/>
<path d="" fill="#0E5174" transform="translate(0,0)"/>
<path d="" fill="#0E5174" transform="translate(0,0)"/>
<path d="" fill="#0E5274" transform="translate(0,0)"/>
<path d="" fill="#0E5377" transform="translate(0,0)"/>
<path d="" fill="#0E5376" transform="translate(0,0)"/>
<path d="" fill="#0E5376" transform="translate(0,0)"/>
<path d="" fill="#C17802" transform="translate(0,0)"/>
<path d="" fill="#C37903" transform="translate(0,0)"/>
<path d="" fill="#C37902" transform="translate(0,0)"/>
<path d="" fill="#0E5174" transform="translate(0,0)"/>
<path d="" fill="#0E5276" transform="translate(0,0)"/>
<path d="" fill="#C17802" transform="translate(0,0)"/>
<path d="" fill="#0E5377" transform="translate(0,0)"/>
<path d="" fill="#C37902" transform="translate(0,0)"/>
<path d="" fill="#0E5376" transform="translate(0,0)"/>
<path d="" fill="#0E5376" transform="translate(0,0)"/>
<path d="" fill="#C47A03" transform="translate(0,0)"/>
<path d="" fill="#B77102" transform="translate(0,0)"/>
<path d="" fill="#0C4C6E" transform="translate(0,0)"/>
<path d="" fill="#C27803" transform="translate(0,0)"/>
<path d="" fill="#C37903" transform="translate(0,0)"/>
<path d="" fill="#C27803" transform="translate(0,0)"/>
<path d="" fill="#C27803" transform="translate(0,0)"/>
<path d="" fill="#C17802" transform="translate(0,0)"/>
<path d="" fill="#C37903" transform="translate(0,0)"/>
<path d="" fill="#C37803" transform="translate(0,0)"/>
<path d="" fill="#C57A03" transform="translate(0,0)"/>
<path d="" fill="#BD7602" transform="translate(0,0)"/>
<path d="" fill="#C37903" transform="translate(0,0)"/>
<path d="" fill="#C37A03" transform="translate(0,0)"/>
<path d="" fill="#C97D03" transform="translate(0,0)"/>
<path d="" fill="#C47902" transform="translate(0,0)"/>
<path d="" fill="#C47A03" transform="translate(0,0)"/>
<path d="" fill="#B87302" transform="translate(0,0)"/>
<path d="" fill="#C27802" transform="translate(0,0)"/>
<path d="" fill="#C07802" transform="translate(0,0)"/>
<path d="" fill="#C57A03" transform="translate(0,0)"/>
<path d="" fill="#C17802" transform="translate(0,0)"/>
<path d="" fill="#C17803" transform="translate(0,0)"/>
<path d="" fill="#C17802" transform="translate(0,0)"/>
<path d="" fill="#C27802" transform="translate(0,0)"/>
<path d="" fill="#C47903" transform="translate(0,0)"/>
<path d="" fill="#C37902" transform="translate(0,0)"/>
<path d="" fill="#C17802" transform="translate(0,0)"/>
<path d="" fill="#C37903" transform="translate(0,0)"/>
<path d="" fill="#C37903" transform="translate(0,0)"/>
<path d="" fill="#C37902" transform="translate(0,0)"/>
<path d="" fill="#BF7703" transform="translate(0,0)"/>
<path d="" fill="#B77303" transform="translate(0,0)"/>
<path d="" fill="#B87303" transform="translate(0,0)"/>
<path d="" fill="#D88602" transform="translate(0,0)"/>
<path d="" fill="#BF7703" transform="translate(0,0)"/>
<path d="" fill="#DD8903" transform="translate(0,0)"/>
<path d="" fill="#C17803" transform="translate(0,0)"/>
<path d="" fill="#DD8A02" transform="translate(0,0)"/>
<path d="" fill="#CA7D03" transform="translate(0,0)"/>
<path d="" fill="#DE8A02" transform="translate(0,0)"/>
<path d="" fill="#DD8A03" transform="translate(0,0)"/>
<path d="" fill="#DE8A03" transform="translate(0,0)"/>
<path d="" fill="#DE8A03" transform="translate(0,0)"/>
<path d="" fill="#DE8903" transform="translate(0,0)"/>
<path d="" fill="#DE8902" transform="translate(0,0)"/>
<path d="" fill="#DD8903" transform="translate(0,0)"/>
<path d="" fill="#DE8902" transform="translate(0,0)"/>
<path d="" fill="#DD8A03" transform="translate(0,0)"/>
<path d="" fill="#DD8903" transform="translate(0,0)"/>
<path d="" fill="#DE8A03" transform="translate(0,0)"/>
<path d="" fill="#DE8A02" transform="translate(0,0)"/>
<path d="" fill="#DD8A03" transform="translate(0,0)"/>
<path d="" fill="#DE8A02" transform="translate(0,0)"/>
<path d="" fill="#DE8902" transform="translate(0,0)"/>
<path d="" fill="#DE8A02" transform="translate(0,0)"/>
<path d="" fill="#DE8A02" transform="translate(0,0)"/>
<path d="" fill="#DE8902" transform="translate(0,0)"/>
<path d="" fill="#DE8A02" transform="translate(0,0)"/>
<path d="" fill="#DD8903" transform="translate(0,0)"/>
<path d="" fill="#105D86" transform="translate(0,0)"/>
<path d="" fill="#DD8903" transform="translate(0,0)"/>
<path d="" fill="#DD8902" transform="translate(0,0)"/>
<path d="" fill="#105E86" transform="translate(0,0)"/>
<path d="" fill="#DD8A03" transform="translate(0,0)"/>
<path d="" fill="#DE8903" transform="translate(0,0)"/>
<path d="" fill="#DD8A02" transform="translate(0,0)"/>
<path d="" fill="#105E86" transform="translate(0,0)"/>
<path d="" fill="#DE8A03" transform="translate(0,0)"/>
<path d="" fill="#DE8903" transform="translate(0,0)"/>
<path d="" fill="#DD8902" transform="translate(0,0)"/>
<path d="" fill="#DD8A02" transform="translate(0,0)"/>
<path d="" fill="#DE8A02" transform="translate(0,0)"/>
<path d="" fill="#DD8A02" transform="translate(0,0)"/>
<path d="" fill="#DD8A02" transform="translate(0,0)"/>
<path d="" fill="#105E86" transform="translate(0,0)"/>
<path d="" fill="#DE8A03" transform="translate(0,0)"/>
<path d="" fill="#DD8902" transform="translate(0,0)"/>
<path d="" fill="#DD8902" transform="translate(0,0)"/>
<path d="" fill="#105D85" transform="translate(0,0)"/>
<path d="" fill="#DD8902" transform="translate(0,0)"/>
<path d="" fill="#DE8A02" transform="translate(0,0)"/>
<path d="" fill="#0F5E86" transform="translate(0,0)"/>
<path d="" fill="#0F5D85" transform="translate(0,0)"/>
<path d="" fill="#DD8A03" transform="translate(0,0)"/>
<path d="" fill="#DD8903" transform="translate(0,0)"/>
<path d="" fill="#105E85" transform="translate(0,0)"/>
<path d="" fill="#DE8A02" transform="translate(0,0)"/>
<path d="" fill="#0F5D85" transform="translate(0,0)"/>
<path d="" fill="#0F5E86" transform="translate(0,0)"/>
<path d="" fill="#0F5D85" transform="translate(0,0)"/>
<path d="" fill="#0F5E86" transform="translate(0,0)"/>
<path d="" fill="#0F5D86" transform="translate(0,0)"/>
<path d="" fill="#0F5E86" transform="translate(0,0)"/>
<path d="" fill="#105D86" transform="translate(0,0)"/>
<path d="" fill="#0F5E86" transform="translate(0,0)"/>
<path d="" fill="#105E85" transform="translate(0,0)"/>
<path d="" fill="#0F5D85" transform="translate(0,0)"/>
<path d="" fill="#0F5D86" transform="translate(0,0)"/>
<path d="" fill="#0F5D85" transform="translate(0,0)"/>
<path d="" fill="#105D86" transform="translate(0,0)"/>
<path d="" fill="#105E85" transform="translate(0,0)"/>
<path d="" fill="#105D85" transform="translate(0,0)"/>
<path d="" fill="#0F5E86" transform="translate(0,0)"/>
<path d="" fill="#0F5D85" transform="translate(0,0)"/>
<path d="" fill="#0E5478" transform="translate(0,0)"/>
<path d="" fill="#0E5377" transform="translate(0,0)"/>
<path d="" fill="#0F5D85" transform="translate(0,0)"/>
<path d="" fill="#0E5277" transform="translate(0,0)"/>
<path d="" fill="#0E5477" transform="translate(0,0)"/>
<path d="" fill="#0E5276" transform="translate(0,0)"/>
<path d="" fill="#0E5377" transform="translate(0,0)"/>
<path d="" fill="#0E5174" transform="translate(0,0)"/>
<path d="" fill="#105D85" transform="translate(0,0)"/>
<path d="" fill="#0E5377" transform="translate(0,0)"/>
<path d="" fill="#0E5377" transform="translate(0,0)"/>
<path d="" fill="#0E5477" transform="translate(0,0)"/>
<path d="" fill="#0F5D85" transform="translate(0,0)"/>
<path d="" fill="#0E5376" transform="translate(0,0)"/>
<path d="" fill="#0E5377" transform="translate(0,0)"/>
<path d="" fill="#105D85" transform="translate(0,0)"/>
<path d="" fill="#0E5275" transform="translate(0,0)"/>
<path d="" fill="#0E5376" transform="translate(0,0)"/>
<path d="" fill="#105D85" transform="translate(0,0)"/>
<path d="" fill="#0F5D86" transform="translate(0,0)"/>
<path d="" fill="#0D5174" transform="translate(0,0)"/>
<path d="" fill="#0E5376" transform="translate(0,0)"/>
<path d="" fill="#0E5376" transform="translate(0,0)"/>
<path d="" fill="#0D5173" transform="translate(0,0)"/>
<path d="" fill="#105D86" transform="translate(0,0)"/>
<path d="" fill="#105E85" transform="translate(0,0)"/>
<path d="" fill="#0E5377" transform="translate(0,0)"/>
<path d="" fill="#0E5376" transform="translate(0,0)"/>
<path d="" fill="#0E5478" transform="translate(0,0)"/>
<path d="" fill="#105D86" transform="translate(0,0)"/>
<path d="" fill="#0F5E85" transform="translate(0,0)"/>
<path d="" fill="#0E5377" transform="translate(0,0)"/>
<path d="" fill="#0E5377" transform="translate(0,0)"/>
<path d="" fill="#0E5376" transform="translate(0,0)"/>
<path d="" fill="#0E5478" transform="translate(0,0)"/>
<path d="" fill="#0E5275" transform="translate(0,0)"/>
<path d="" fill="#0E5478" transform="translate(0,0)"/>
<path d="" fill="#105E86" transform="translate(0,0)"/>
<path d="" fill="#0E5072" transform="translate(0,0)"/>
<path d="" fill="#105E86" transform="translate(0,0)"/>
<path d="" fill="#0E5276" transform="translate(0,0)"/>
<path d="" fill="#0E5376" transform="translate(0,0)"/>
<path d="" fill="#0F5E86" transform="translate(0,0)"/>
<path d="" fill="#105E86" transform="translate(0,0)"/>
<path d="" fill="#0F5E86" transform="translate(0,0)"/>
<path d="" fill="#0E5275" transform="translate(0,0)"/>
<path d="" fill="#105D85" transform="translate(0,0)"/>
<path d="" fill="#0E5276" transform="translate(0,0)"/>
<path d="" fill="#0F5D86" transform="translate(0,0)"/>
<path d="" fill="#0E5276" transform="translate(0,0)"/>
<path d="" fill="#105E85" transform="translate(0,0)"/>
<path d="" fill="#105D85" transform="translate(0,0)"/>
<path d="" fill="#0E5276" transform="translate(0,0)"/>
<path d="" fill="#0F5D86" transform="translate(0,0)"/>
<path d="" fill="#0F5E85" transform="translate(0,0)"/>
<path d="" fill="#0E5174" transform="translate(0,0)"/>
<path d="" fill="#105E86" transform="translate(0,0)"/>
<path d="" fill="#105E85" transform="translate(0,0)"/>
<path d="" fill="#0E5377" transform="translate(0,0)"/>
<path d="" fill="#0E5173" transform="translate(0,0)"/>
<path d="" fill="#105D86" transform="translate(0,0)"/>
<path d="" fill="#105E85" transform="translate(0,0)"/>
<path d="" fill="#105D86" transform="translate(0,0)"/>
<path d="" fill="#105E86" transform="translate(0,0)"/>
<path d="" fill="#0F5E86" transform="translate(0,0)"/>
<path d="" fill="#105E86" transform="translate(0,0)"/>
<path d="" fill="#0E5275" transform="translate(0,0)"/>
<path d="" fill="#0E5275" transform="translate(0,0)"/>
<path d="" fill="#0D5073" transform="translate(0,0)"/>
<path d="" fill="#105E85" transform="translate(0,0)"/>
<path d="" fill="#0E5073" transform="translate(0,0)"/>
<path d="" fill="#0D5275" transform="translate(0,0)"/>
<path d="" fill="#0F5E85" transform="translate(0,0)"/>
<path d="" fill="#105D86" transform="translate(0,0)"/>
<path d="" fill="#105E86" transform="translate(0,0)"/>
<path d="" fill="#0F5E86" transform="translate(0,0)"/>
<path d="" fill="#0F5E86" transform="translate(0,0)"/>
<path d="" fill="#105E85" transform="translate(0,0)"/>
<path d="" fill="#0F5D86" transform="translate(0,0)"/>
<path d="" fill="#105D85" transform="translate(0,0)"/>
<path d="" fill="#0F5E85" transform="translate(0,0)"/>
<path d="" fill="#105E86" transform="translate(0,0)"/>
<path d="" fill="#0F5E85" transform="translate(0,0)"/>
<path d="" fill="#0E5478" transform="translate(0,0)"/>
<path d="" fill="#105D86" transform="translate(0,0)"/>
<path d="" fill="#0F5A80" transform="translate(0,0)"/>
<path d="" fill="#0E5377" transform="translate(0,0)"/>
<path d="" fill="#0F587E" transform="translate(0,0)"/>
<path d="" fill="#0E5478" transform="translate(0,0)"/>
<path d="" fill="#105E86" transform="translate(0,0)"/>
<path d="" fill="#0E5376" transform="translate(0,0)"/>
<path d="" fill="#105E86" transform="translate(0,0)"/>
<path d="" fill="#0D5276" transform="translate(0,0)"/>
<path d="" fill="#0E5276" transform="translate(0,0)"/>
<path d="" fill="#105E86" transform="translate(0,0)"/>
<path d="" fill="#0D5174" transform="translate(0,0)"/>
<path d="" fill="#0E5377" transform="translate(0,0)"/>
<path d="" fill="#0E5377" transform="translate(0,0)"/>
<path d="" fill="#0E5376" transform="translate(0,0)"/>
<path d="" fill="#105C84" transform="translate(0,0)"/>
<path d="" fill="#0D5174" transform="translate(0,0)"/>
<path d="" fill="#0D5173" transform="translate(0,0)"/>
<path d="" fill="#0D5073" transform="translate(0,0)"/>
<path d="" fill="#0E5275" transform="translate(0,0)"/>
<path d="" fill="#0F5A81" transform="translate(0,0)"/>
<path d="" fill="#0E5376" transform="translate(0,0)"/>
<path d="" fill="#0D5173" transform="translate(0,0)"/>
<path d="" fill="#0E5377" transform="translate(0,0)"/>
<path d="" fill="#0F597F" transform="translate(0,0)"/>
<path d="" fill="#0D5175" transform="translate(0,0)"/>
<path d="" fill="#0E5377" transform="translate(0,0)"/>
<path d="" fill="#0D5275" transform="translate(0,0)"/>
<path d="" fill="#0D5074" transform="translate(0,0)"/>
<path d="" fill="#0E5275" transform="translate(0,0)"/>
<path d="" fill="#0E5276" transform="translate(0,0)"/>
<path d="" fill="#0E5376" transform="translate(0,0)"/>
<path d="" fill="#0E5377" transform="translate(0,0)"/>
<path d="" fill="#0E5275" transform="translate(0,0)"/>
<path d="" fill="#0D5073" transform="translate(0,0)"/>
<path d="" fill="#0E5275" transform="translate(0,0)"/>
<path d="" fill="#0E5377" transform="translate(0,0)"/>
<path d="" fill="#0E5275" transform="translate(0,0)"/>
<path d="" fill="#0E5276" transform="translate(0,0)"/>
<path d="" fill="#0D5275" transform="translate(0,0)"/>
<path d="" fill="#0E5276" transform="translate(0,0)"/>
<path d="" fill="#0E5377" transform="translate(0,0)"/>
<path d="" fill="#0D5174" transform="translate(0,0)"/>
<path d="" fill="#0E5376" transform="translate(0,0)"/>
<path d="" fill="#0D5275" transform="translate(0,0)"/>
<path d="" fill="#0E5377" transform="translate(0,0)"/>
</svg>
