<?xml version="1.0" encoding="UTF-8"?>
<svg version="1.1" xmlns="http://www.w3.org/2000/svg" width="512" height="512">
<path d="M0 0 C16.5 0 33 0 50 0 C50 111.87 50 223.74 50 339 C33.5 339 17 339 0 339 C0 227.13 0 115.26 0 0 Z " fill="#110553" transform="translate(116,144)"/>
<path d="M0 0 C16.5 0 33 0 50 0 C50 111.87 50 223.74 50 339 C33.83 339 17.66 339 1 339 C0 338 0 338 -0.1241985 335.70853561 C-0.12381878 334.68215156 -0.12343906 333.65576751 -0.12304783 332.59828091 C-0.12503888 331.41890215 -0.12702993 330.2395234 -0.12908131 329.0244059 C-0.12616847 327.71217821 -0.12325563 326.39995053 -0.12025452 325.04795837 C-0.1206901 323.6529126 -0.12156476 322.2578669 -0.12284368 320.86282164 C-0.12509126 317.01133869 -0.12106379 313.15988328 -0.11606562 309.30840385 C-0.11176505 305.16182508 -0.11320726 301.01524798 -0.1139679 296.8686676 C-0.11449338 289.6784573 -0.11134402 282.48825604 -0.10573006 275.29804802 C-0.09761838 264.90209112 -0.09500018 254.50613862 -0.09374207 244.1101789 C-0.09155102 227.24524373 -0.08488952 210.3803134 -0.07543945 193.51538086 C-0.06626669 177.12833683 -0.05918519 160.74129412 -0.05493164 144.35424805 C-0.05453756 142.84023537 -0.05453756 142.84023537 -0.05413551 141.29563659 C-0.05283051 136.23229115 -0.0515668 131.16894569 -0.05032361 126.10560024 C-0.03994936 84.07039665 -0.02205527 42.03519895 0 0 Z " fill="#120553" transform="translate(348,34)"/>
<path d="M0 0 C16.5 0 33 0 50 0 C50 33.99 50 67.98 50 103 C33.5 103 17 103 0 103 C0 69.01 0 35.02 0 0 Z " fill="#110553" transform="translate(194,269)"/>
<path d="M0 0 C16.5 0 33 0 50 0 C50 33.99 50 67.98 50 103 C33.5 103 17 103 0 103 C0 69.01 0 35.02 0 0 Z " fill="#110553" transform="translate(194,60)"/>
<path d="M0 0 C16.17 0 32.34 0 49 0 C49 33.99 49 67.98 49 103 C32.5 103 16 103 -1 103 C-1.04010881 77.58438448 -1.04010881 77.58438448 -1.04882812 66.79101562 C-1.05481717 59.41218349 -1.0619191 52.0333637 -1.07543945 44.65454102 C-1.08626629 38.70883994 -1.0922764 32.76315211 -1.09487724 26.81744194 C-1.09673186 24.54353057 -1.10035317 22.26961996 -1.10573006 19.99571419 C-1.11293778 16.8227288 -1.11399106 13.64979883 -1.11352539 10.47680664 C-1.11712067 9.52662659 -1.12071594 8.57644653 -1.12442017 7.59747314 C-1.11405216 1.11405216 -1.11405216 1.11405216 0 0 Z " fill="#110553" transform="translate(272,353)"/>
<path d="M0 0 C16.5 0 33 0 50 0 C50 33.99 50 67.98 50 103 C33.83 103 17.66 103 1 103 C-0.96428367 101.03571633 -0.12023917 98.01702837 -0.12442017 95.40252686 C-0.12082489 94.4523468 -0.11722961 93.50216675 -0.11352539 92.52319336 C-0.11374443 91.03067802 -0.11374443 91.03067802 -0.1139679 89.50801086 C-0.11326831 86.20193338 -0.10547379 82.89591146 -0.09765625 79.58984375 C-0.09579223 77.30440807 -0.09436825 75.01897199 -0.09336853 72.73353577 C-0.08954207 66.70501613 -0.0797107 60.67652041 -0.06866455 54.64801025 C-0.05665925 47.42188766 -0.0520488 40.19575709 -0.04621124 32.96962738 C-0.03649901 21.97973493 -0.01734334 10.98989501 0 0 Z " fill="#110553" transform="translate(271,144)"/>
<path d="M0 0 C16.5 0 33 0 50 0 C50 16.17 50 32.34 50 49 C33.5 49 17 49 0 49 C0 32.83 0 16.66 0 0 Z " fill="#FFCB00" transform="translate(194,192)"/>
<path d="M0 0 C16.5 0 33 0 50 0 C50 15.84 50 31.68 50 48 C33.5 48 17 48 0 48 C0 32.16 0 16.32 0 0 Z " fill="#E70389" transform="translate(271,276)"/>
</svg>
