<?xml version="1.0" encoding="UTF-8"?>
<svg version="1.1" xmlns="http://www.w3.org/2000/svg" width="512" height="512">
<path d="M0 0 C3.2401564 1.68215016 6.09342186 3.80042735 9 6 C9.92425781 6.69609375 10.84851563 7.3921875 11.80078125 8.109375 C16.95510152 12.10451999 16.95510152 12.10451999 19 14 C19 14.66 19 15.32 19 16 C19.54269531 16.24234375 20.08539063 16.4846875 20.64453125 16.734375 C23.56790586 18.30514345 26.05631545 20.22759933 28.6875 22.25 C37.09961414 28.63543739 45.63608045 34.11139635 55 39 C56.11503906 39.59554687 57.23007812 40.19109375 58.37890625 40.8046875 C110.5262395 68.15780802 169.44351644 77.07177256 227.1875 65.8125 C232.10559878 64.90550563 237.02984315 64.10447624 242 65 C245.34625024 67.52676039 246.67977847 69.03933542 248 73 C247.89225106 94.54978766 243.06393147 116.69214138 237.65234375 137.4609375 C237.02508109 139.902379 236.46899971 142.34864865 235.9375 144.8125 C235.11085023 148.59340631 234.1066339 152.28952163 233 156 C232.78472656 156.74894531 232.56945312 157.49789062 232.34765625 158.26953125 C230.49806672 164.61812233 228.31824785 170.8086955 226 177 C225.73058594 177.72316406 225.46117187 178.44632813 225.18359375 179.19140625 C224.69553542 180.49715394 224.20475783 181.80188928 223.7109375 183.10546875 C223.22668451 184.39592314 222.75312714 185.69043014 222.2890625 186.98828125 C220.78714448 191.1468177 219.04929729 195.044287 216.96484375 198.9453125 C215.91153679 201.07246408 215.91153679 201.07246408 215.12890625 203.734375 C213.74886976 207.72645288 211.92220774 211.3711233 210 215.125 C209.46632813 216.17880859 209.46632813 216.17880859 208.921875 217.25390625 C208.24144851 218.59698689 207.55801775 219.93855122 206.87109375 221.27832031 C206.19893172 222.60681994 205.56083886 223.95259219 204.9375 225.3046875 C204 227 204 227 202.53125 228.40234375 C199.83446279 231.21608347 198.75619432 234.94418486 197.28125 238.50390625 C196 241 196 241 193 243 C192.30899447 244.99172182 191.64097297 246.99161804 191 249 C190.34 249.33 189.68 249.66 189 250 C188.71125 250.763125 188.4225 251.52625 188.125 252.3125 C186.86024843 255.33385098 185.3682993 256.77523399 183 259 C181.98758315 260.32392972 180.98560611 261.65599167 180 263 C179.34 263.66 178.68 264.32 178 265 C177.30251417 266.31747324 176.63040043 267.64914193 176 269 C175.34 269 174.68 269 174 269 C173.62875 269.86625 173.62875 269.86625 173.25 270.75 C171.09255996 274.63339208 167.79765718 277.1786022 164.4375 280 C161.9 282.15335821 159.85656253 284.21515621 158 287 C156.4375 289.25 156.4375 289.25 155 291 C154.34 291 153.68 291 153 291 C152.67 291.66 152.34 292.32 152 293 C149.9375 294.125 149.9375 294.125 148 295 C148 295.66 148 296.32 148 297 C147.34 297 146.68 297 146 297 C146 297.66 146 298.32 146 299 C145.34 299 144.68 299 144 299 C144 299.66 144 300.32 144 301 C143.34 301 142.68 301 142 301 C142 301.66 142 302.32 142 303 C141.21625 303.2475 140.4325 303.495 139.625 303.75 C136.89299833 304.71232534 136.89299833 304.71232534 136.1015625 306.890625 C134.72416514 309.52819441 133.25787197 310.43044748 130.75 312 C129.94949219 312.50917969 129.14898437 313.01835937 128.32421875 313.54296875 C127.55722656 314.02378906 126.79023438 314.50460937 126 315 C124.85132366 315.76659032 123.70499707 316.53673038 122.5625 317.3125 C120 319 120 319 118 320 C117.09894531 320.47953125 116.19789063 320.9590625 115.26953125 321.453125 C103.14729422 327.75394877 90.90864934 333 77 333 C76.67 333.33 76.34 333.66 76 334 C74.23140807 334.09946453 72.45888549 334.13080217 70.6875 334.1328125 C69.61242187 334.13410156 68.53734375 334.13539063 67.4296875 334.13671875 C66.29789062 334.13285156 65.16609375 334.12898438 64 334.125 C62.86820312 334.12886719 61.73640625 334.13273437 60.5703125 334.13671875 C59.49523437 334.13542969 58.42015625 334.13414062 57.3125 334.1328125 C55.82169922 334.13112061 55.82169922 334.13112061 54.30078125 334.12939453 C52 334 52 334 51 333 C49.37822865 332.8384213 47.75192424 332.72178586 46.125 332.625 C40.15470504 332.14239467 34.71963858 330.70569449 29 329 C27.95392578 328.73896484 27.95392578 328.73896484 26.88671875 328.47265625 C24.20596064 327.80107917 21.61449198 326.89130409 19 326 C19 325.34 19 324.68 19 324 C17.98679688 323.90074219 16.97359375 323.80148437 15.9296875 323.69921875 C6.74985445 322.06582897 -3.90236926 316.06490669 -11 310 C-11 309.34 -11 308.68 -11 308 C-11.598125 307.71125 -12.19625 307.4225 -12.8125 307.125 C-15 306 -15 306 -18 304 C-18 303.34 -18 302.68 -18 302 C-18.66 302 -19.32 302 -20 302 C-20 301.01 -20 300.02 -20 299 C-20.66 299.33 -21.32 299.66 -22 300 C-22 299.34 -22 298.68 -22 298 C-22.66 298 -23.32 298 -24 298 C-25 296 -26 294 -27 292 C-27.66 292 -28.32 292 -29 292 C-29 291.34 -29 290.68 -29 290 C-29.66 289.67 -30.32 289.34 -31 289 C-31.66666667 287.33333333 -32.33333333 285.66666667 -33 284 C-33.66 283.67 -34.32 283.34 -35 283 C-35.625 280.9375 -35.625 280.9375 -36 279 C-36.8971875 279.680625 -36.8971875 279.680625 -37.8125 280.375 C-43.94203281 283.49985987 -51.15875903 284.36979681 -58 284 C-58 284.33 -58 284.66 -58 285 C-75.65355322 285.36482659 -75.65355322 285.36482659 -84 283 C-84.928125 282.835 -85.85625 282.67 -86.8125 282.5 C-89.12603315 281.97119242 -90.92811979 281.14310632 -93 280 C-93.66 279.67 -94.32 279.34 -95 279 C-95.66 278.67 -96.32 278.34 -97 278 C-97.61875 277.85433594 -98.2375 277.70867187 -98.875 277.55859375 C-101.11568207 276.96959093 -102.9451495 276.12604567 -105 275.0625 C-105.66 274.72347656 -106.32 274.38445312 -107 274.03515625 C-107.66 273.69355469 -108.32 273.35195313 -109 273 C-110.07121094 272.48373047 -110.07121094 272.48373047 -111.1640625 271.95703125 C-113.21135702 270.88982453 -114.37020145 269.62979855 -116 268 C-116.99 267.360625 -117.98 266.72125 -119 266.0625 C-121.77661262 264.15357883 -123.05644807 262.65029809 -125 260 C-125.680625 259.67 -126.36125 259.34 -127.0625 259 C-129.49109689 257.74653064 -130.0046023 256.48849426 -131 254 C-131.66 254 -132.32 254 -133 254 C-134.7265625 252.3203125 -134.7265625 252.3203125 -136.625 250.125 C-137.25664062 249.40570313 -137.88828125 248.68640625 -138.5390625 247.9453125 C-140 246 -140 246 -140 244 C-140.99 243.67 -141.98 243.34 -143 243 C-144.1875 240.4375 -144.1875 240.4375 -145 238 C-145.66 238 -146.32 238 -147 238 C-147.66 236.02 -148.32 234.04 -149 232 C-149.66 232 -150.32 232 -151 232 C-151.12375 231.360625 -151.2475 230.72125 -151.375 230.0625 C-151.58125 229.381875 -151.7875 228.70125 -152 228 C-152.66 227.67 -153.32 227.34 -154 227 C-157 222.5 -157 222.5 -157 220 C-157.66 219.67 -158.32 219.34 -159 219 C-160.84566538 216.11591688 -162.35592123 213.03535319 -163.9375 210 C-164.60168945 208.76056641 -164.60168945 208.76056641 -165.27929688 207.49609375 C-167.77896912 202.73516807 -169.7712286 198.06518024 -171.37182617 192.93310547 C-172.10358683 190.68122793 -173.05910376 188.64203484 -174.1875 186.5625 C-176 183 -176 183 -176 181 C-176.66 180.34 -177.32 179.68 -178 179 C-178.5625 177.1953125 -178.5625 177.1953125 -179 175.125 C-179.51395812 172.8844638 -179.96945582 171.06108836 -181 169 C-182.29908703 166.40182593 -182.83548008 163.76462437 -183.49609375 160.9453125 C-183.98765712 158.86181103 -183.98765712 158.86181103 -185.0625 156.4375 C-186 154 -186 154 -186.4375 150.75 C-186.89217885 147.71880766 -187.49554844 145.35322472 -188.5 142.5 C-189.84110919 138.67848984 -190.52555222 135.03280613 -191 131 C-191.32364426 129.66428174 -191.65792512 128.33111745 -192 127 C-193.04736762 122.188655 -193.99987018 117.39398641 -194.5625 112.5 C-194.78332024 109.15600943 -194.78332024 109.15600943 -196 107 C-196.01453644 104.16539481 -195.95024213 101.38971553 -195.8125 98.5625 C-195.79380859 97.78583984 -195.77511719 97.00917969 -195.75585938 96.20898438 C-195.4757071 90.50272495 -195.4757071 90.50272495 -193.07421875 87.96484375 C-191 87 -191 87 -189 87 C-188.87625 86.38125 -188.7525 85.7625 -188.625 85.125 C-188 83 -188 83 -186 81 C-179.90064808 80.18356409 -173.68619021 81.3747763 -167.6875 82.4375 C-160.4596206 83.63436266 -153.33170793 84.70779425 -146 85 C-145.32517578 85.02723145 -144.65035156 85.05446289 -143.95507812 85.08251953 C-111.80653439 86.19084964 -81.51921995 78.79840937 -52.0625 66.375 C-51.41829102 66.11025879 -50.77408203 65.84551758 -50.11035156 65.57275391 C-45.87789723 63.71921518 -42.95144326 61.55366789 -40 58 C-39.14257316 55.86874403 -39.14257316 55.86874403 -38.9375 53.6875 C-38.23177938 49.69061502 -36.9819483 46.66171207 -35.07421875 43.1015625 C-33.08035938 39.20084853 -31.59195209 35.07727813 -30 31 C-27.64992871 25.01800035 -24.94888646 19.10697336 -21 14 C-17.6875 12.5625 -17.6875 12.5625 -15 12 C-14.67 11.01 -14.34 10.02 -14 9 C-13.34 9 -12.68 9 -12 9 C-11.814375 8.13375 -11.814375 8.13375 -11.625 7.25 C-10.97946097 4.92605949 -10.27275111 3.05054346 -9 1 C-5.5133353 -0.16222157 -3.66903341 -0.47561544 0 0 Z M12 117 C16 118 16 118 16 118 Z M-4 121 C-6.98525925 122.94914146 -6.98525925 122.94914146 -9 125 C-2.85837289 127.39853188 3.331513 129.3560713 9.66796875 131.171875 C10.66580887 131.45855042 11.66364899 131.74522583 12.69172668 132.04058838 C14.78799142 132.64080755 16.88481908 133.23906381 18.98217773 133.83544922 C22.19107004 134.75101861 25.39523176 135.68205268 28.59960938 136.61328125 C30.64295515 137.19627378 32.68656618 137.77833755 34.73046875 138.359375 C35.68575974 138.63948425 36.64105072 138.91959351 37.62528992 139.20819092 C38.52004532 139.45885315 39.41480072 139.70951538 40.33666992 139.96777344 C41.11862228 140.19188904 41.90057465 140.41600464 42.70622253 140.64691162 C45.37877067 141.05830536 47.39649189 140.66546947 50 140 C47.02017994 135.76551886 44.01317493 131.67105831 39 130 C39.33 129.01 39.66 128.02 40 127 C39.443125 126.938125 38.88625 126.87625 38.3125 126.8125 C36 126 36 126 33.6875 123.5 C30.3812947 120.42446019 28.41713855 120.39438737 24 120 C23.24203125 119.65839844 22.4840625 119.31679687 21.703125 118.96484375 C14.44106336 116.37274949 3.23917569 118.34665806 -4 121 Z M-96 137 C-96 137.66 -96 138.32 -96 139 C-96.763125 138.814375 -97.52625 138.62875 -98.3125 138.4375 C-101.08967375 137.77180827 -101.08967375 137.77180827 -104 139 C-104 139.66 -104 140.32 -104 141 C-109.34403802 142.02885218 -114.63831907 143.0141206 -120.0625 143.5 C-123.99988402 143.59161885 -123.99988402 143.59161885 -126 146 C-128.625 146.125 -128.625 146.125 -131 146 C-131 146.66 -131 147.32 -131 148 C-133.97 148.66 -136.94 149.32 -140 150 C-133.72113799 156.83287924 -127.13235629 159.29470484 -118 160 C-110.74426536 159.62074564 -103.6519487 157.72130654 -98 153 C-95.10281303 149.11860119 -92.7622501 144.83101753 -92 140 C-93.29209912 138.20747941 -93.29209912 138.20747941 -95 137 C-95.33 137 -95.66 137 -96 137 Z M135 154 C135 154.33 135 154.66 135 155 C136.65 155 138.3 155 140 155 C140 154.67 140 154.34 140 154 C138.35 154 136.7 154 135 154 Z M126 155 C126 155.33 126 155.66 126 156 C127.65 156 129.3 156 131 156 C131 155.67 131 155.34 131 155 C129.35 155 127.7 155 126 155 Z M145 155 C145 155.66 145 156.32 145 157 C145.99 156.67 146.98 156.34 148 156 C147.01 155.67 146.02 155.34 145 155 Z M125.3125 156.875 C124.27899414 156.99294922 124.27899414 156.99294922 123.22460938 157.11328125 C121.47242582 157.33725752 119.73364894 157.66121697 118 158 C117.67 158.66 117.34 159.32 117 160 C116.01 160.66 115.02 161.32 114 162 C125.61224921 165.81390294 137.312782 169.33244355 149.04940796 172.74176025 C150.64077197 173.20538359 152.23113275 173.67246449 153.82046509 174.14300537 C156.08461725 174.8121853 158.35219624 175.46821157 160.62109375 176.12109375 C161.30583771 176.32597916 161.99058167 176.53086456 162.69607544 176.74195862 C166.11023943 177.70857677 168.63255497 178.35114525 172 177 C171.505 176.01 171.505 176.01 171 175 C170.01 175.495 170.01 175.495 169 176 C168.505 174.02 168.505 174.02 168 172 C167.34 172 166.68 172 166 172 C165.7525 171.38125 165.505 170.7625 165.25 170.125 C163.79371361 167.64931313 162.62187494 167.04874998 160 166 C160 165.34 160 164.68 160 164 C148.25377505 157.48115264 138.66950456 155.17201369 125.3125 156.875 Z M-62 196 C-62 196.66 -62 197.32 -62 198 C-64.97851562 198.73242188 -64.97851562 198.73242188 -67.95703125 199.46484375 C-69.65683202 199.91010705 -71.33301954 200.44433985 -73 201 C-73 201.66 -73 202.32 -73 203 C-73.8353125 203.1546875 -73.8353125 203.1546875 -74.6875 203.3125 C-81.28238495 205.27314147 -84.27867441 209.54074663 -88 215 C-88.45761719 215.65484375 -88.91523438 216.3096875 -89.38671875 216.984375 C-92.55313722 221.73875709 -94.43897159 226.51736365 -96 232 C-92.998398 233.500801 -91.1451453 232.37344829 -87.9609375 231.453125 C-86.12982422 230.9271875 -86.12982422 230.9271875 -84.26171875 230.390625 C-83.62282715 230.20306641 -82.98393555 230.01550781 -82.32568359 229.82226562 C-80.40563203 229.25898642 -78.48212805 228.70751879 -76.55859375 228.15625 C-67.12556597 225.50940749 -67.12556597 225.50940749 -58 222 C-56.47122703 217.4136811 -57.59102558 212.95398891 -58.5625 208.3125 C-59 206 -59 206 -58.9375 203.5 C-59.00959044 200.61638252 -59.80883085 198.60568253 -61 196 C-61.33 196 -61.66 196 -62 196 Z M12 212 C18.73227799 223.32993126 27.52189691 231.59467334 39 238 C40.05960938 238.59683594 41.11921875 239.19367188 42.2109375 239.80859375 C62.19209014 250.43929853 87.14793479 255.87564777 109.33935547 249.30761719 C113.98656752 247.75306136 118.50484473 245.94749234 123 244 C120.04622502 241.63019987 120.04622502 241.63019987 116 242 C115.505 241.01 115.505 241.01 115 240 C112.39163059 239.19243704 109.83930011 238.50140947 107.1875 237.875 C106.46240234 237.69324219 105.73730469 237.51148438 104.99023438 237.32421875 C101.53637079 236.48366274 98.57424146 236 95 236 C94.505 235.01 94.505 235.01 94 234 C92.02 234 90.04 234 88 234 C87.505 232.515 87.505 232.515 87 231 C87 231.66 87 232.32 87 233 C82.88523067 231.76469606 78.77366464 230.51939797 74.66479492 229.26464844 C73.26589805 228.83901729 71.86615608 228.41615358 70.46557617 227.99609375 C68.45524382 227.39263823 66.44813752 226.77937136 64.44140625 226.1640625 C63.23170166 225.79748535 62.02199707 225.4309082 60.77563477 225.05322266 C58 224 58 224 57 222 C53.7 222 50.4 222 47 222 C46.505 221.01 46.505 221.01 46 220 C45.34 220.33 44.68 220.66 44 221 C43.67 220.34 43.34 219.68 43 219 C42.01 219.33 41.02 219.66 40 220 C39.67 219.34 39.34 218.68 39 218 C37.34385343 217.61781233 35.67542976 217.28604898 34 217 C33.34 216.67 32.68 216.34 32 216 C30.46331135 215.77532169 28.92031946 215.59203195 27.375 215.4375 C26.55773437 215.35371094 25.74046875 215.26992188 24.8984375 215.18359375 C24.27195313 215.12300781 23.64546875 215.06242188 23 215 C23 214.34 23 213.68 23 213 C17.5155733 212.25669086 17.5155733 212.25669086 12 212 Z M74 227 C74 227.66 74 228.32 74 229 C75.32 228.67 76.64 228.34 78 228 C76.68 227.67 75.36 227.34 74 227 Z M-13 305 C-12 307 -12 307 -12 307 Z M54 332 C58 333 58 333 58 333 Z M64 332 C64 332.33 64 332.66 64 333 C65.65 333 67.3 333 69 333 C69 332.67 69 332.34 69 332 C67.35 332 65.7 332 64 332 Z " fill="#1C8D22" transform="translate(224,96)"/>
<path d="M0 0 C1.64203179 0.20774732 3.2742673 0.49391167 4.8984375 0.8125 C5.89842773 1.00457031 6.89841797 1.19664062 7.92871094 1.39453125 C8.94223633 1.59433594 9.95576172 1.79414063 11 2 C45.72395808 8.68700994 79.37909903 9.59965339 114.1875 2.8125 C119.10559878 1.90550563 124.02984315 1.10447624 129 2 C132.34625024 4.52676039 133.67977847 6.03933542 135 10 C134.89225106 31.54978766 130.06393147 53.69214138 124.65234375 74.4609375 C124.02508109 76.902379 123.46899971 79.34864865 122.9375 81.8125 C122.11085023 85.59340631 121.1066339 89.28952163 120 93 C119.67708984 94.12341797 119.67708984 94.12341797 119.34765625 95.26953125 C117.49806672 101.61812233 115.31824785 107.8086955 113 114 C112.59587891 115.08474609 112.59587891 115.08474609 112.18359375 116.19140625 C111.69553542 117.49715394 111.20475783 118.80188928 110.7109375 120.10546875 C110.22668451 121.39592314 109.75312714 122.69043014 109.2890625 123.98828125 C107.78714448 128.1468177 106.04929729 132.044287 103.96484375 135.9453125 C102.91153679 138.07246408 102.91153679 138.07246408 102.12890625 140.734375 C100.74886976 144.72645288 98.92220774 148.3711233 97 152.125 C96.46632813 153.17880859 96.46632813 153.17880859 95.921875 154.25390625 C95.24144851 155.59698689 94.55801775 156.93855122 93.87109375 158.27832031 C93.19893172 159.60681994 92.56083886 160.95259219 91.9375 162.3046875 C91 164 91 164 89.53125 165.40234375 C86.83446279 168.21608347 85.75619432 171.94418486 84.28125 175.50390625 C83 178 83 178 80 180 C79.30899447 181.99172182 78.64097297 183.99161804 78 186 C77.34 186.33 76.68 186.66 76 187 C75.71125 187.763125 75.4225 188.52625 75.125 189.3125 C73.86024843 192.33385098 72.3682993 193.77523399 70 196 C68.98758315 197.32392972 67.98560611 198.65599167 67 200 C66.34 200.66 65.68 201.32 65 202 C64.30251417 203.31747324 63.63040043 204.64914193 63 206 C62.34 206 61.68 206 61 206 C60.7525 206.5775 60.505 207.155 60.25 207.75 C58.09255996 211.63339208 54.79765718 214.1786022 51.4375 217 C48.9 219.15335821 46.85656253 221.21515621 45 224 C43.4375 226.25 43.4375 226.25 42 228 C41.34 228 40.68 228 40 228 C39.67 228.66 39.34 229.32 39 230 C38.15888672 230.18369141 38.15888672 230.18369141 37.30078125 230.37109375 C34.05702363 231.25775755 31.89408753 233.07766915 29.1875 235.0625 C10.71220692 248.18760122 -10.21215557 255.86727089 -33 257 C-33.86109375 257.06445312 -34.7221875 257.12890625 -35.609375 257.1953125 C-45.91987206 257.63219797 -55.96886467 255.12012753 -66 253 C-64.79440758 245.87743112 -63.31136838 238.91259781 -61.4375 231.9375 C-61.18790527 230.99447021 -60.93831055 230.05144043 -60.68115234 229.07983398 C-60.11687336 226.94955448 -59.55067469 224.81978287 -58.98291016 222.69042969 C-57.85177015 218.44345692 -56.72815128 214.19452716 -55.60546875 209.9453125 C-53.40767632 201.62913822 -51.2050552 193.31425121 -49 185 C-48.20480957 185.13567383 -47.40961914 185.27134766 -46.59033203 185.41113281 C-26.10328263 188.87294204 -9.14857784 188.29597786 10 180 C10 179.34 10 178.68 10 178 C11.06154297 178.11988281 11.06154297 178.11988281 12.14453125 178.2421875 C15.93958153 177.92030909 17.68592394 176.42634481 20.6875 174.125 C21.64011719 173.40570313 22.59273438 172.68640625 23.57421875 171.9453125 C26.00130643 170.07153456 26.00130643 170.07153456 28 168 C24.87555204 167.08142524 21.75039312 166.16535057 18.625 165.25 C17.605271 164.9499707 16.58554199 164.64994141 15.53491211 164.34082031 C9.02087862 162.4339095 2.4964084 160.57466534 -4.04467773 158.76300049 C-7.88116567 157.69960657 -11.71503389 156.6269182 -15.54888916 155.55407715 C-17.47793948 155.01710441 -19.40825206 154.48464627 -21.33978271 153.95666504 C-24.08267194 153.20636772 -26.82085693 152.44072624 -29.55859375 151.671875 C-30.39608658 151.44705444 -31.23357941 151.22223389 -32.09645081 150.99060059 C-34.09370902 150.4216815 -36.05294539 149.72227949 -38 149 C-39.21886243 145.34341271 -38.65552012 143.9488262 -37.62890625 140.26953125 C-37.30567383 139.08939453 -36.98244141 137.90925781 -36.64941406 136.69335938 C-36.47253052 136.06196045 -36.29564697 135.43056152 -36.11340332 134.7800293 C-35.16877294 131.40631946 -34.25154228 128.02515743 -33.33203125 124.64453125 C-33.13970917 123.93990753 -32.94738708 123.23528381 -32.74923706 122.50930786 C-30.4504377 114.04824812 -28.35250197 105.5374051 -26.26516724 97.02212524 C-24.6251345 90.33262086 -22.93424435 83.67418402 -21.015625 77.05859375 C-18.80757403 69.44178166 -16.89313544 61.76168215 -15 54.0625 C-12.43969442 43.67751051 -9.78590807 33.32731971 -7 23 C-6.44398435 20.9192778 -5.88799304 18.83854909 -5.33203125 16.7578125 C-4.82590048 14.88010596 -4.31939851 13.00249943 -3.8125 11.125 C-3.55275391 10.15175781 -3.29300781 9.17851562 -3.02539062 8.17578125 C-2.77595703 7.25410156 -2.52652344 6.33242187 -2.26953125 5.3828125 C-2.04885986 4.56184082 -1.82818848 3.74086914 -1.60083008 2.89501953 C-1 1 -1 1 0 0 Z M22 91 C22 91.33 22 91.66 22 92 C23.65 92 25.3 92 27 92 C27 91.67 27 91.34 27 91 C25.35 91 23.7 91 22 91 Z M13 92 C13 92.33 13 92.66 13 93 C14.65 93 16.3 93 18 93 C18 92.67 18 92.34 18 92 C16.35 92 14.7 92 13 92 Z M32 92 C32 92.66 32 93.32 32 94 C32.99 93.67 33.98 93.34 35 93 C34.01 92.67 33.02 92.34 32 92 Z M12.3125 93.875 C11.27899414 93.99294922 11.27899414 93.99294922 10.22460938 94.11328125 C8.47242582 94.33725752 6.73364894 94.66121697 5 95 C4.67 95.66 4.34 96.32 4 97 C3.01 97.66 2.02 98.32 1 99 C12.61224921 102.81390294 24.312782 106.33244355 36.04940796 109.74176025 C37.64077197 110.20538359 39.23113275 110.67246449 40.82046509 111.14300537 C43.08461725 111.8121853 45.35219624 112.46821157 47.62109375 113.12109375 C48.30583771 113.32597916 48.99058167 113.53086456 49.69607544 113.74195862 C53.11023943 114.70857677 55.63255497 115.35114525 59 114 C58.505 113.01 58.505 113.01 58 112 C57.01 112.495 57.01 112.495 56 113 C55.505 111.02 55.505 111.02 55 109 C54.34 109 53.68 109 53 109 C52.7525 108.38125 52.505 107.7625 52.25 107.125 C50.79371361 104.64931313 49.62187494 104.04874998 47 103 C47 102.34 47 101.68 47 101 C35.25377505 94.48115264 25.66950456 92.17201369 12.3125 93.875 Z " fill="#2DAC31" transform="translate(337,159)"/>
<path d="M0 0 C1.08356539 3.26221367 0.90874518 5.10640739 -0.1875 8.33984375 C-0.47085205 9.21922607 -0.7542041 10.0986084 -1.04614258 11.00463867 C-1.36091553 11.97248291 -1.67568848 12.94032715 -2 13.9375 C-5.3246703 24.74035264 -7.70824135 35.59339027 -9.8125 46.6875 C-10.03208374 47.81718704 -10.03208374 47.81718704 -10.25610352 48.96969604 C-14.1911743 69.33701277 -15.30929867 89.6028213 -15.625 110.3125 C-15.66332639 112.43295614 -15.70238562 114.55339917 -15.7421875 116.67382812 C-15.83652764 121.78244124 -15.92111085 126.8911259 -16 132 C-16.67868637 132.26930832 -17.35737274 132.53861664 -18.05662537 132.81608582 C-18.95115921 133.17221451 -19.84569305 133.5283432 -20.76733398 133.89526367 C-21.65227036 134.24707199 -22.53720673 134.59888031 -23.44895935 134.96134949 C-34.8928964 139.62072294 -46.53504498 145.00957646 -53 156 C-54.73169221 158.32260141 -56.46585131 160.64256343 -58.21875 162.94921875 C-60.81052351 167.38819926 -62.35485825 172.14416115 -64 177 C-60.21055142 175.95550744 -56.42118959 174.91070073 -52.63186646 173.86575317 C-50.62957988 173.31376258 -48.6271748 172.76220356 -46.62475586 172.21069336 C-40.83878889 170.61635861 -35.05351303 169.02020583 -29.27734375 167.390625 C-28.46507324 167.16205811 -27.65280273 166.93349121 -26.81591797 166.69799805 C-25.36236205 166.28807323 -23.90950467 165.87565942 -22.45751953 165.46020508 C-18.65941129 164.39083019 -14.90407118 163.57324075 -11 163 C-10.82460693 163.61294922 -10.64921387 164.22589844 -10.46850586 164.85742188 C-5.89068877 180.71888336 -1.22968779 196.18159633 7.93359375 210.08203125 C9 212 9 212 9 215 C-17.24126744 223.14598586 -41.76199328 225.25361599 -67.2265625 212.3671875 C-109.43521842 188.53799694 -134.25962667 140.20375608 -147.13964844 95.15380859 C-160.69531079 45.46253552 -160.69531079 45.46253552 -158 29 C-156.45134117 27.0038846 -155.5827007 26.10347847 -153.06567383 25.65649414 C-147.50411393 25.82597381 -142.16362381 26.4673538 -136.6875 27.4375 C-129.4596206 28.63436266 -122.33170793 29.70779425 -115 30 C-114.32517578 30.02723145 -113.65035156 30.05446289 -112.95507812 30.08251953 C-73.22515948 31.45221968 -33.96894888 20.43444581 0 0 Z M-65 82 C-65 82.66 -65 83.32 -65 84 C-65.763125 83.814375 -66.52625 83.62875 -67.3125 83.4375 C-70.08967375 82.77180827 -70.08967375 82.77180827 -73 84 C-73 84.66 -73 85.32 -73 86 C-78.34403802 87.02885218 -83.63831907 88.0141206 -89.0625 88.5 C-92.99988402 88.59161885 -92.99988402 88.59161885 -95 91 C-97.625 91.125 -97.625 91.125 -100 91 C-100 91.66 -100 92.32 -100 93 C-102.97 93.66 -105.94 94.32 -109 95 C-102.72113799 101.83287924 -96.13235629 104.29470484 -87 105 C-79.74426536 104.62074564 -72.6519487 102.72130654 -67 98 C-64.10281303 94.11860119 -61.7622501 89.83101753 -61 85 C-62.29209912 83.20747941 -62.29209912 83.20747941 -64 82 C-64.33 82 -64.66 82 -65 82 Z " fill="#D95348" transform="translate(193,151)"/>
<path d="M0 0 C0.08451416 0.75168457 0.16902832 1.50336914 0.25610352 2.27783203 C4.35101102 37.75630374 12.12841297 72.78074537 28 105 C28.65524658 106.34505615 28.65524658 106.34505615 29.32373047 107.71728516 C42.4675751 134.47874843 60.30077045 162.0671425 87 177 C88.08023438 177.60714844 89.16046875 178.21429688 90.2734375 178.83984375 C111.98218997 190.37719197 134.51220265 191.05820937 158 185 C159.08152344 184.60554687 160.16304687 184.21109375 161.27734375 183.8046875 C164.41025992 182.87874671 165.95233942 182.83874497 169 184 C170.81640625 185.86328125 170.81640625 185.86328125 172.5625 188.3125 C192.45931741 214.33427054 221.04777402 226.88756643 252.89453125 231.5 C281.12414278 235.16668634 310.38605599 225.71465427 333 209 C333.89203125 208.26265625 334.7840625 207.5253125 335.703125 206.765625 C338 205 338 205 340 205 C339.67 205.99 339.34 206.98 339 208 C338.34 208 337.68 208 337 208 C337 208.66 337 209.32 337 210 C336.34 210 335.68 210 335 210 C335 210.66 335 211.32 335 212 C334.34 212 333.68 212 333 212 C333 212.66 333 213.32 333 214 C332.34 214 331.68 214 331 214 C331 214.66 331 215.32 331 216 C330.21625 216.2475 329.4325 216.495 328.625 216.75 C325.89299833 217.71232534 325.89299833 217.71232534 325.1015625 219.890625 C323.72416514 222.52819441 322.25787197 223.43044748 319.75 225 C318.94949219 225.50917969 318.14898437 226.01835937 317.32421875 226.54296875 C316.55722656 227.02378906 315.79023438 227.50460937 315 228 C313.85132366 228.76659032 312.70499707 229.53673038 311.5625 230.3125 C309 232 309 232 307 233 C306.09894531 233.47953125 305.19789063 233.9590625 304.26953125 234.453125 C292.14729422 240.75394877 279.90864934 246 266 246 C265.67 246.33 265.34 246.66 265 247 C263.23140807 247.09946453 261.45888549 247.13080217 259.6875 247.1328125 C258.61242187 247.13410156 257.53734375 247.13539063 256.4296875 247.13671875 C255.29789062 247.13285156 254.16609375 247.12898437 253 247.125 C251.30230469 247.13080078 251.30230469 247.13080078 249.5703125 247.13671875 C248.49523437 247.13542969 247.42015625 247.13414062 246.3125 247.1328125 C245.31863281 247.13168457 244.32476562 247.13055664 243.30078125 247.12939453 C241 247 241 247 240 246 C238.37822865 245.8384213 236.75192424 245.72178586 235.125 245.625 C229.15470504 245.14239467 223.71963858 243.70569449 218 242 C217.30261719 241.82597656 216.60523438 241.65195312 215.88671875 241.47265625 C213.20596064 240.80107917 210.61449198 239.89130409 208 239 C208 238.34 208 237.68 208 237 C206.98679688 236.90074219 205.97359375 236.80148437 204.9296875 236.69921875 C195.74985445 235.06582897 185.09763074 229.06490669 178 223 C178 222.34 178 221.68 178 221 C177.401875 220.71125 176.80375 220.4225 176.1875 220.125 C174 219 174 219 171 217 C171 216.34 171 215.68 171 215 C170.34 215 169.68 215 169 215 C169 214.01 169 213.02 169 212 C168.34 212.33 167.68 212.66 167 213 C167 212.34 167 211.68 167 211 C166.34 211 165.68 211 165 211 C164 209 163 207 162 205 C161.34 205 160.68 205 160 205 C160 204.34 160 203.68 160 203 C159.34 202.67 158.68 202.34 158 202 C157.33333333 200.33333333 156.66666667 198.66666667 156 197 C155.34 196.67 154.68 196.34 154 196 C153.375 193.9375 153.375 193.9375 153 192 C152.401875 192.45375 151.80375 192.9075 151.1875 193.375 C145.05796719 196.49985987 137.84124097 197.36979681 131 197 C131 197.33 131 197.66 131 198 C113.34644678 198.36482659 113.34644678 198.36482659 105 196 C104.071875 195.835 103.14375 195.67 102.1875 195.5 C99.87396685 194.97119242 98.07188021 194.14310632 96 193 C95.34 192.67 94.68 192.34 94 192 C93.34 191.67 92.68 191.34 92 191 C91.071875 190.78150391 91.071875 190.78150391 90.125 190.55859375 C87.88431793 189.96959093 86.0548505 189.12604567 84 188.0625 C83.01 187.55396484 83.01 187.55396484 82 187.03515625 C81.34 186.69355469 80.68 186.35195313 80 186 C78.92878906 185.48373047 78.92878906 185.48373047 77.8359375 184.95703125 C75.78864298 183.88982453 74.62979855 182.62979855 73 181 C72.01 180.360625 71.02 179.72125 70 179.0625 C67.22338738 177.15357883 65.94355193 175.65029809 64 173 C63.319375 172.67 62.63875 172.34 61.9375 172 C59.50890311 170.74653064 58.9953977 169.48849426 58 167 C57.34 167 56.68 167 56 167 C54.2734375 165.3203125 54.2734375 165.3203125 52.375 163.125 C51.74335937 162.40570313 51.11171875 161.68640625 50.4609375 160.9453125 C49 159 49 159 49 157 C48.01 156.67 47.02 156.34 46 156 C44.8125 153.4375 44.8125 153.4375 44 151 C43.34 151 42.68 151 42 151 C41.34 149.02 40.68 147.04 40 145 C39.34 145 38.68 145 38 145 C37.87625 144.360625 37.7525 143.72125 37.625 143.0625 C37.41875 142.381875 37.2125 141.70125 37 141 C36.34 140.67 35.68 140.34 35 140 C32 135.5 32 135.5 32 133 C31.34 132.67 30.68 132.34 30 132 C28.15433462 129.11591688 26.64407877 126.03535319 25.0625 123 C24.61970703 122.17371094 24.17691406 121.34742188 23.72070312 120.49609375 C21.22103088 115.73516807 19.2287714 111.06518024 17.62817383 105.93310547 C16.89641317 103.68122793 15.94089624 101.64203484 14.8125 99.5625 C13 96 13 96 13 94 C12.34 93.34 11.68 92.68 11 92 C10.4375 90.1953125 10.4375 90.1953125 10 88.125 C9.48604188 85.8844638 9.03054418 84.06108836 8 82 C6.70091297 79.40182593 6.16451992 76.76462437 5.50390625 73.9453125 C5.01234288 71.86181103 5.01234288 71.86181103 3.9375 69.4375 C3 67 3 67 2.5625 63.75 C2.10782115 60.71880766 1.50445156 58.35322472 0.5 55.5 C-0.84110919 51.67848984 -1.52555222 48.03280613 -2 44 C-2.32364426 42.66428174 -2.65792512 41.33111745 -3 40 C-4.04736762 35.188655 -4.99987018 30.39398641 -5.5625 25.5 C-5.78332024 22.15600943 -5.78332024 22.15600943 -7 20 C-7.01453644 17.16539481 -6.95024213 14.38971553 -6.8125 11.5625 C-6.79380859 10.78583984 -6.77511719 10.00917969 -6.75585938 9.20898438 C-6.4757071 3.50272495 -6.4757071 3.50272495 -4.07421875 0.96484375 C-2 0 -2 0 0 0 Z M176 218 C177 220 177 220 177 220 Z M243 245 C247 246 247 246 247 246 Z M253 245 C253 245.33 253 245.66 253 246 C254.65 246 256.3 246 258 246 C258 245.67 258 245.34 258 245 C256.35 245 254.7 245 253 245 Z " fill="#2D494D" transform="translate(35,183)"/>
<path d="M0 0 C1.08356539 3.26221367 0.90874518 5.10640739 -0.1875 8.33984375 C-0.47085205 9.21922607 -0.7542041 10.0986084 -1.04614258 11.00463867 C-1.36091553 11.97248291 -1.67568848 12.94032715 -2 13.9375 C-5.3246703 24.74035264 -7.70824135 35.59339027 -9.8125 46.6875 C-9.95888916 47.44062469 -10.10527832 48.19374939 -10.25610352 48.96969604 C-14.1911743 69.33701277 -15.30929867 89.6028213 -15.625 110.3125 C-15.66332639 112.43295614 -15.70238562 114.55339917 -15.7421875 116.67382812 C-15.83652764 121.78244124 -15.92111085 126.8911259 -16 132 C-16.67623917 132.26645325 -17.35247833 132.53290649 -18.04920959 132.80743408 C-18.94184006 133.16134216 -19.83447052 133.51525024 -20.75415039 133.87988281 C-21.63663956 134.22883606 -22.51912872 134.57778931 -23.42835999 134.93731689 C-27.49933558 136.61957295 -31.35436352 138.64888147 -35.24804688 140.70703125 C-38.05677835 142.15690157 -39.78717566 143 -43 143 C-42.34 141.02 -41.68 139.04 -41 137 C-41.70125 136.54625 -42.4025 136.0925 -43.125 135.625 C-45 133 -45 133 -44.78515625 130.68359375 C-44.39157689 128.95750389 -43.95742866 127.24009031 -43.48046875 125.53515625 C-42.93955882 122.68108676 -43.26967288 120.79022413 -44 118 C-44.2784375 116.8553125 -44.2784375 116.8553125 -44.5625 115.6875 C-44.706875 115.130625 -44.85125 114.57375 -45 114 C-44.01 113.505 -44.01 113.505 -43 113 C-43.66 111.68 -44.32 110.36 -45 109 C-43.68 109.33 -42.36 109.66 -41 110 C-40.34 107.69 -39.68 105.38 -39 103 C-40.65 101.35 -42.3 99.7 -44 98 C-43.505 97.01 -43.505 97.01 -43 96 C-41 96 -41 96 -39.421875 97.57421875 C-37.76826535 99.66441226 -36.27099567 101.65523212 -35 104 C-35.625 106.625 -35.625 106.625 -37 109 C-37.16724737 112.16695956 -37.16724737 112.16695956 -37 115 C-37 115.33 -37 115.66 -37 116 C-35.515 115.505 -35.515 115.505 -34 115 C-34.020625 113.7625 -34.04125 112.525 -34.0625 111.25 C-34.08872178 108.7633013 -34.05925673 107.15953734 -33.1875 104.8125 C-33.125625 104.214375 -33.06375 103.61625 -33 103 C-35.35426499 100.22877725 -35.35426499 100.22877725 -38 98 C-37.505 97.01 -37.505 97.01 -37 96 C-36.50628906 96.5053125 -36.01257813 97.010625 -35.50390625 97.53125 C-34.86324219 98.1809375 -34.22257813 98.830625 -33.5625 99.5 C-32.92441406 100.1496875 -32.28632813 100.799375 -31.62890625 101.46875 C-30.25117073 103.11415476 -30.25117073 103.11415476 -29 103 C-28.90501221 102.13648926 -28.81002441 101.27297852 -28.7121582 100.38330078 C-25.58420702 72.3412648 -21.03612283 45.12025604 -13 18 C-12.69046387 16.91396484 -12.38092773 15.82792969 -12.06201172 14.70898438 C-11.57692139 13.10893555 -11.57692139 13.10893555 -11.08203125 11.4765625 C-10.79690674 10.51572754 -10.51178223 9.55489258 -10.21801758 8.56494141 C-8.11360186 4.1333937 -4.29041151 2.09020048 0 0 Z M-75 42 C-73.515 42.99 -73.515 42.99 -72 44 C-72.33 44.66 -72.66 45.32 -73 46 C-73.66 44.68 -74.32 43.36 -75 42 Z M-51 40 C-48.875 40.375 -48.875 40.375 -47 41 C-46.01 44.465 -46.01 44.465 -45 48 C-45.99 48.33 -46.98 48.66 -48 49 C-47.505 49.495 -47.505 49.495 -47 50 C-46.34 50 -45.68 50 -45 50 C-43.23077784 55.55861999 -41.62956822 61.16010761 -40.1875 66.8125 C-39.77564453 68.39998047 -39.77564453 68.39998047 -39.35546875 70.01953125 C-38.95206853 73.40188695 -39.4058895 75.02467324 -41 78 C-41.99 78.99 -41.99 78.99 -43 80 C-39.9254644 79.2236068 -39.9254644 79.2236068 -38 77 C-37.51891725 78.41601714 -37.04021859 79.83284437 -36.5625 81.25 C-36.29566406 82.03890625 -36.02882813 82.8278125 -35.75390625 83.640625 C-33.84257871 89.62218891 -33.84257871 89.62218891 -34.9375 92.25 C-35.288125 92.8275 -35.63875 93.405 -36 94 C-36.66 94 -37.32 94 -38 94 C-38.33 94.99 -38.66 95.98 -39 97 C-39.66 96.67 -40.32 96.34 -41 96 C-40.835 95.236875 -40.67 94.47375 -40.5 93.6875 C-39.90854604 90.96403764 -39.90854604 90.96403764 -40 88 C-40.33 87.67 -40.66 87.34 -41 87 C-43.87950786 89.6008458 -45.21737013 91.21728897 -46 95 C-46.99 95.495 -46.99 95.495 -48 96 C-48.33 95.01 -48.66 94.02 -49 93 C-50.65 93.99 -52.3 94.98 -54 96 C-54.33 95.01 -54.66 94.02 -55 93 C-56.73647948 94.67488528 -56.73647948 94.67488528 -58 97 C-57.29042763 99.73398135 -57.29042763 99.73398135 -56 102 C-56.804375 102.268125 -57.60875 102.53625 -58.4375 102.8125 C-59.7059375 103.4003125 -59.7059375 103.4003125 -61 104 C-61.495 105.485 -61.495 105.485 -62 107 C-63.65002828 108.35386936 -65.3174387 109.68678142 -67 111 C-67.66 111.99 -68.32 112.98 -69 114 C-68.67 114.66 -68.34 115.32 -68 116 C-68.86625 116.12375 -69.7325 116.2475 -70.625 116.375 C-73.90671229 116.85958615 -73.90671229 116.85958615 -76.4453125 118.0234375 C-81.70315787 119.46790051 -86.82409289 119.28866442 -92.25 119.25 C-93.35085937 119.25773437 -94.45171875 119.26546875 -95.5859375 119.2734375 C-96.63523437 119.27085937 -97.68453125 119.26828125 -98.765625 119.265625 C-99.72243164 119.26336914 -100.67923828 119.26111328 -101.66503906 119.25878906 C-104 119 -104 119 -106 117 C-105.34 116.01 -104.68 115.02 -104 114 C-104.598125 113.71125 -105.19625 113.4225 -105.8125 113.125 C-108 112 -108 112 -111 110 C-110.67 108.68 -110.34 107.36 -110 106 C-110.99 105.67 -111.98 105.34 -113 105 C-114.125 102.5625 -114.125 102.5625 -115 100 C-115.33 99.34 -115.66 98.68 -116 98 C-115.34 98 -114.68 98 -114 98 C-113.20046862 94.71303767 -112.90341064 93.28976808 -114 90 C-104.43 87.36 -94.86 84.72 -85 82 C-85 81.34 -85 80.68 -85 80 C-85.99 79.34 -86.98 78.68 -88 78 C-88.82852221 74.55844622 -89.37651365 72.07161578 -88.1875 68.6875 C-86.68158543 66.54751613 -84.84829914 64.84829914 -83 63 C-83 62.01 -83 61.02 -83 60 C-81 58.66666667 -79 57.33333333 -77 56 C-77 55.01 -77 54.02 -77 53 C-77 52.01 -77 51.02 -77 50 C-76.071875 49.5978125 -76.071875 49.5978125 -75.125 49.1875 C-72.7004767 48.04443152 -72.7004767 48.04443152 -71 45 C-71 44.01 -71 43.02 -71 42 C-70.443125 42.185625 -69.88625 42.37125 -69.3125 42.5625 C-66.96712418 43.15591602 -66.96712418 43.15591602 -64.5 42.5 C-61.82319617 41.96463923 -60.58842051 42.35289487 -58 43 C-54.67009811 42.60358311 -53.40563753 42.40563753 -51 40 Z M-65 82 C-65 82.66 -65 83.32 -65 84 C-65.763125 83.814375 -66.52625 83.62875 -67.3125 83.4375 C-70.08967375 82.77180827 -70.08967375 82.77180827 -73 84 C-73 84.66 -73 85.32 -73 86 C-78.34403802 87.02885218 -83.63831907 88.0141206 -89.0625 88.5 C-92.99988402 88.59161885 -92.99988402 88.59161885 -95 91 C-97.625 91.125 -97.625 91.125 -100 91 C-100 91.66 -100 92.32 -100 93 C-102.97 93.66 -105.94 94.32 -109 95 C-102.72113799 101.83287924 -96.13235629 104.29470484 -87 105 C-79.74426536 104.62074564 -72.6519487 102.72130654 -67 98 C-64.10281303 94.11860119 -61.7622501 89.83101753 -61 85 C-62.29209912 83.20747941 -62.29209912 83.20747941 -64 82 C-64.33 82 -64.66 82 -65 82 Z " fill="#D75248" transform="translate(193,151)"/>
<path d="M0 0 C19.71214784 5.19837423 39.36757781 10.57331833 58.98516846 16.11829376 C62.4362917 17.09326405 65.88811498 18.06575035 69.33984375 19.03857422 C76.91053296 21.1727793 84.48020707 23.31056889 92.04968262 25.44907379 C95.17104978 26.33079847 98.29255937 27.21201855 101.4140625 28.09326172 C114.2771698 31.72485645 127.1392918 35.35991831 140 39 C137.01271235 42.65119811 134.46196499 45.7383402 130.5 48.375 C129.7678125 48.87773437 129.035625 49.38046875 128.28125 49.8984375 C125.63796664 51.17481748 123.90064301 51.12242974 121 51 C119.515 51.495 119.515 51.495 118 52 C115.62298761 51.40352123 113.33368034 50.73370139 111 50 C109.55511571 49.59917827 108.10840825 49.20488381 106.66015625 48.81640625 C105.90669922 48.61080078 105.15324219 48.40519531 104.37695312 48.19335938 C102.83860931 47.77404709 101.29954655 47.35736324 99.75976562 46.94335938 C96.07215328 45.93249382 92.48043022 44.8436909 88.9140625 43.4609375 C85.11292244 41.99230452 81.2820795 40.99769922 77.3125 40.0625 C72.0348125 38.77749241 66.78193678 37.44354894 61.5625 35.9375 C60.51191406 35.63714844 59.46132813 35.33679688 58.37890625 35.02734375 C57.59386719 34.68832031 56.80882812 34.34929687 56 34 C55.67 33.01 55.34 32.02 55 31 C54.175 31.226875 53.35 31.45375 52.5 31.6875 C48.53783343 32.04126487 46.52750521 31.26800695 42.94921875 29.76171875 C40.35647259 28.74852135 37.74275757 28.42665118 35 28 C34.236875 27.690625 33.47375 27.38125 32.6875 27.0625 C28.89580066 25.56345607 24.9862913 24.81636467 21 24 C21 23.34 21 22.68 21 22 C20.4225 22.185625 19.845 22.37125 19.25 22.5625 C15.292651 23.33198453 13.31727407 22.21151604 10 20 C4.4227294 15.59689163 2.22198725 9.63759595 0 3 C0 2.01 0 1.02 0 0 Z M72 36 C72 36.66 72 37.32 72 38 C73.32 37.67 74.64 37.34 76 37 C74.68 36.67 73.36 36.34 72 36 Z " fill="#2C464F" transform="translate(226,287)"/>
<path d="M0 0 C0.17539307 0.61294922 0.35078613 1.22589844 0.53149414 1.85742188 C5.10931123 17.71888336 9.77031221 33.18159633 18.93359375 47.08203125 C20 49 20 49 20 52 C5.09283207 56.62758057 -8.3395958 59.38509191 -24 59 C-24 58.67 -24 58.34 -24 58 C-22.72125 57.9175 -21.4425 57.835 -20.125 57.75 C-17.93234619 57.52365934 -17.93234619 57.52365934 -16 57 C-14.79996657 55.18398635 -14.79996657 55.18398635 -14 53 C-12.96875 52.360625 -11.9375 51.72125 -10.875 51.0625 C-9.92625 50.381875 -8.9775 49.70125 -8 49 C-7.49758678 46.3295947 -7.49758678 46.3295947 -8 44 C-9.65 43.67 -11.3 43.34 -13 43 C-12.34 41.68 -11.68 40.36 -11 39 C-11.99 38.34 -12.98 37.68 -14 37 C-13.505 36.01 -13.505 36.01 -13 35 C-13.33 34.67 -13.66 34.34 -14 34 C-16.55659503 34.00901797 -19.09893445 34.13289751 -21.65234375 34.2578125 C-22.42707031 34.17273438 -23.20179688 34.08765625 -24 34 C-24.66 33.01 -25.32 32.02 -26 31 C-23.36 28.69 -20.72 26.38 -18 24 C-18.495 23.01 -18.495 23.01 -19 22 C-25.31240422 21.63835706 -25.31240422 21.63835706 -31 24 C-31.66 24.33 -32.32 24.66 -33 25 C-33.4021875 25.51175781 -33.804375 26.02351563 -34.21875 26.55078125 C-36.89698067 28.72978032 -39.11166427 28.29052372 -42.5 28.1875 C-43.6446875 28.16042969 -44.789375 28.13335937 -45.96875 28.10546875 C-46.9690625 28.07066406 -47.969375 28.03585937 -49 28 C-52.05270463 27.84188612 -52.05270463 27.84188612 -55 29 C-55.66 28.34 -56.32 27.68 -57 27 C-56.34 26.01 -55.68 25.02 -55 24 C-55.680625 23.443125 -56.36125 22.88625 -57.0625 22.3125 C-59 20 -59 20 -58.8125 17.625 C-58.544375 16.75875 -58.27625 15.8925 -58 15 C-57.66055205 13.00102872 -57.32578384 11.00124361 -57 9 C-57.804375 8.401875 -58.60875 7.80375 -59.4375 7.1875 C-62 5 -62 5 -63 2 C-60.75522671 1.27846573 -59.37508163 0.90320474 -57.0625 1.5 C-54.4562936 2.13180761 -52.57326442 1.64331611 -50 1 C-49.6144392 6.26933092 -50.87550775 9.31050398 -53 14 C-48.54158768 12.77111976 -44.08327091 11.54189314 -39.625 10.3125 C-38.96605743 10.13081268 -38.30711487 9.94912537 -37.62820435 9.76193237 C-28.84288576 7.33938128 -20.05883271 4.91242387 -11.28173828 2.46020508 C-2.45644869 0 -2.45644869 0 0 0 Z " fill="#D65247" transform="translate(182,314)"/>
<path d="M0 0 C1.485 0.99 1.485 0.99 3 2 C2.67 2.66 2.34 3.32 2 4 C1.34 2.68 0.68 1.36 0 0 Z M24 -2 C26.125 -1.625 26.125 -1.625 28 -1 C28.99 2.465 28.99 2.465 30 6 C29.01 6.33 28.02 6.66 27 7 C27.495 7.495 27.495 7.495 28 8 C28.66 8 29.32 8 30 8 C30.50512244 9.60256108 31.00391627 11.20711792 31.5 12.8125 C31.7784375 13.70582031 32.056875 14.59914062 32.34375 15.51953125 C33 18 33 18 33 21 C32.34 21 31.68 21 31 21 C30.31379969 22.32338632 29.65213539 23.65949948 29 25 C28.5875 25.804375 28.175 26.60875 27.75 27.4375 C26.80426417 30.66876409 27.49113919 32.06610398 29 35 C27.02 35.99 25.04 36.98 23 38 C23.33 38.99 23.66 39.98 24 41 C23.01 41.33 22.02 41.66 21 42 C19.51224141 43.42620026 19.51224141 43.42620026 18.125 45.1875 C17.609375 45.81140625 17.09375 46.4353125 16.5625 47.078125 C16.046875 47.71234375 15.53125 48.3465625 15 49 C14.04273387 50.14672506 13.08449932 51.29264286 12.125 52.4375 C11.073125 53.7059375 11.073125 53.7059375 10 55 C9.67 54.34 9.34 53.68 9 53 C9.77734375 50.94140625 9.77734375 50.94140625 10.9375 48.5625 C12.3388088 45.67912901 13 44.25348302 13 41 C8.46992606 41.41685213 8.46992606 41.41685213 4.234375 42.91015625 C1.1187198 44.4298552 -2.15644876 45.20875828 -5.5 46.0625 C-6.16386719 46.23587891 -6.82773438 46.40925781 -7.51171875 46.58789062 C-9.33973326 47.06405009 -11.16979615 47.53232623 -13 48 C-14.11955078 48.29583984 -14.11955078 48.29583984 -15.26171875 48.59765625 C-17 49 -17 49 -20.3125 49.375 C-24.07629142 49.85036235 -24.07629142 49.85036235 -27.5625 51.625 C-31.37172754 53.14869101 -33.14607289 53.34439318 -37 52 C-37.66 50.68 -38.32 49.36 -39 48 C-29.43 45.36 -19.86 42.72 -10 40 C-10 39.34 -10 38.68 -10 38 C-10.99 37.34 -11.98 36.68 -13 36 C-13.82852221 32.55844622 -14.37651365 30.07161578 -13.1875 26.6875 C-11.68158543 24.54751613 -9.84829914 22.84829914 -8 21 C-8 20.01 -8 19.02 -8 18 C-6 16.66666667 -4 15.33333333 -2 14 C-2 13.01 -2 12.02 -2 11 C-2 10.01 -2 9.02 -2 8 C-1.071875 7.5978125 -1.071875 7.5978125 -0.125 7.1875 C2.2995233 6.04443152 2.2995233 6.04443152 4 3 C4 2.01 4 1.02 4 0 C4.556875 0.185625 5.11375 0.37125 5.6875 0.5625 C8.03287582 1.15591602 8.03287582 1.15591602 10.5 0.5 C13.17680383 -0.03536077 14.41157949 0.35289487 17 1 C20.32990189 0.60358311 21.59436247 0.40563753 24 -2 Z M25 30 C26 32 26 32 26 32 Z M29 32 C29.99 32.495 29.99 32.495 31 33 C30.01 33.495 30.01 33.495 29 34 C29 33.34 29 32.68 29 32 Z " fill="#D85248" transform="translate(118,193)"/>
<path d="M0 0 C1.08356539 3.26221367 0.90874518 5.10640739 -0.1875 8.33984375 C-0.61252808 9.65891724 -0.61252808 9.65891724 -1.04614258 11.00463867 C-1.36091553 11.97248291 -1.67568848 12.94032715 -2 13.9375 C-5.3246703 24.74035264 -7.70824135 35.59339027 -9.8125 46.6875 C-9.95888916 47.44062469 -10.10527832 48.19374939 -10.25610352 48.96969604 C-14.1911743 69.33701277 -15.30929867 89.6028213 -15.625 110.3125 C-15.66332639 112.43295614 -15.70238562 114.55339917 -15.7421875 116.67382812 C-15.83652764 121.78244124 -15.92111085 126.8911259 -16 132 C-17.60149886 132.67305018 -19.20631029 133.33822227 -20.8125 134 C-21.70582031 134.37125 -22.59914062 134.7425 -23.51953125 135.125 C-26 136 -26 136 -29 136 C-29.82230227 100.3753356 -26.32348303 64.94374765 -16.70214844 30.52734375 C-16.20183231 28.72648401 -15.71717311 26.92124349 -15.24316406 25.11328125 C-14.44850086 22.10581658 -13.60553291 19.11565838 -12.75 16.125 C-12.51104004 15.20283691 -12.27208008 14.28067383 -12.02587891 13.33056641 C-10.11950969 6.98345064 -7.5634306 4.28261982 -1.83691406 0.95654297 C-1.23073242 0.64088379 -0.62455078 0.32522461 0 0 Z " fill="#BD4C40" transform="translate(193,151)"/>
<path d="M0 0 C10.54610387 7.92195596 17.47655372 18.73120083 19.8125 31.8125 C19.8125 33.1325 19.8125 34.4525 19.8125 35.8125 C13.52435658 34.71722912 7.65767373 33.42195256 1.8125 30.8125 C1.1525 29.8225 0.4925 28.8325 -0.1875 27.8125 C-0.8475 27.8125 -1.5075 27.8125 -2.1875 27.8125 C-2.6825 25.8325 -2.6825 25.8325 -3.1875 23.8125 C-3.8475 23.8125 -4.5075 23.8125 -5.1875 23.8125 C-6.54136936 22.16247172 -7.87428142 20.4950613 -9.1875 18.8125 C-9.8475 18.4825 -10.5075 18.1525 -11.1875 17.8125 C-11.1875 17.1525 -11.1875 16.4925 -11.1875 15.8125 C-11.90679687 15.52503906 -12.62609375 15.23757813 -13.3671875 14.94140625 C-15.14685565 14.22904601 -16.92338541 13.50874667 -18.6953125 12.77734375 C-29.99311794 8.34253355 -40.32377148 8.05236724 -52.1875 10.8125 C-52.8475 11.4725 -53.5075 12.1325 -54.1875 12.8125 C-56.3125 12.4375 -56.3125 12.4375 -58.1875 11.8125 C-44.45234299 -6.21489357 -19.51090393 -12.81225776 0 0 Z M-36.1875 5.8125 C-36.1875 6.1425 -36.1875 6.4725 -36.1875 6.8125 C-34.5375 6.8125 -32.8875 6.8125 -31.1875 6.8125 C-31.1875 6.4825 -31.1875 6.1525 -31.1875 5.8125 C-32.8375 5.8125 -34.4875 5.8125 -36.1875 5.8125 Z M-45.1875 6.8125 C-45.1875 7.1425 -45.1875 7.4725 -45.1875 7.8125 C-43.5375 7.8125 -41.8875 7.8125 -40.1875 7.8125 C-40.1875 7.4825 -40.1875 7.1525 -40.1875 6.8125 C-41.8375 6.8125 -43.4875 6.8125 -45.1875 6.8125 Z M-26.1875 6.8125 C-26.1875 7.4725 -26.1875 8.1325 -26.1875 8.8125 C-25.1975 8.4825 -24.2075 8.1525 -23.1875 7.8125 C-24.1775 7.4825 -25.1675 7.1525 -26.1875 6.8125 Z " fill="#2C4650" transform="translate(395.1875,244.1875)"/>
<path d="M0 0 C8.78906385 7.17134242 14.78877833 17.55759192 17.05859375 28.6796875 C17.08278085 30.34617865 17.0867905 32.01325937 17.05859375 33.6796875 C13.71759203 33.04778778 10.38725097 32.37356211 7.05859375 31.6796875 C6.35992187 31.54691406 5.66125 31.41414063 4.94140625 31.27734375 C1.53615575 30.51006628 0.26413082 29.97736188 -1.75390625 27.0546875 C-2.14578125 26.2709375 -2.53765625 25.4871875 -2.94140625 24.6796875 C-3.60140625 24.6796875 -4.26140625 24.6796875 -4.94140625 24.6796875 C-5.09609375 23.720625 -5.09609375 23.720625 -5.25390625 22.7421875 C-5.48078125 22.0615625 -5.70765625 21.3809375 -5.94140625 20.6796875 C-6.93140625 20.3496875 -7.92140625 20.0196875 -8.94140625 19.6796875 C-10.75922492 18.07161714 -11.85214885 16.8582023 -12.94140625 14.6796875 C-14.59191913 13.56334598 -14.59191913 13.56334598 -16.50390625 12.5546875 C-17.63828125 11.9359375 -18.77265625 11.3171875 -19.94140625 10.6796875 C-19.94140625 10.0196875 -19.94140625 9.3596875 -19.94140625 8.6796875 C-20.99328125 8.5559375 -22.04515625 8.4321875 -23.12890625 8.3046875 C-26.94140625 7.6796875 -26.94140625 7.6796875 -29.2578125 6.625 C-37.81320019 3.61131176 -50.3708447 6.59486995 -58.50390625 10.3046875 C-59.71046875 10.9853125 -59.71046875 10.9853125 -60.94140625 11.6796875 C-56.32936877 1.48346739 -46.74238111 -3.1561052 -36.94140625 -7.3203125 C-24.31878602 -11.60254264 -10.41499989 -7.463155 0 0 Z M-38.94140625 3.6796875 C-34.94140625 4.6796875 -34.94140625 4.6796875 -34.94140625 4.6796875 Z " fill="#2C474F" transform="translate(274.94140625,209.3203125)"/>
<path d="M0 0 C0.17539307 0.61294922 0.35078613 1.22589844 0.53149414 1.85742188 C5.10931123 17.71888336 9.77031221 33.18159633 18.93359375 47.08203125 C20 49 20 49 20 52 C18.1096624 52.70246995 16.21243172 53.38640849 14.3125 54.0625 C13.25675781 54.44535156 12.20101562 54.82820313 11.11328125 55.22265625 C7.74636082 56.06333024 6.17455968 56.41032851 3 55 C1.41084217 52.71909112 0.28085125 50.74221102 -0.875 48.25 C-1.21160645 47.55060303 -1.54821289 46.85120605 -1.89501953 46.13061523 C-7.54133581 33.97715085 -14.88307551 17.68767036 -14 4 C-12.75108386 3.51801537 -11.50081192 3.03954323 -10.25 2.5625 C-9.55390625 2.29566406 -8.8578125 2.02882813 -8.140625 1.75390625 C-5.40716264 0.79120874 -2.90916609 0 0 0 Z " fill="#BF4C40" transform="translate(182,314)"/>
<path d="M0 0 C0.70151025 4.39371654 1.38375437 8.79021398 2.0625 13.1875 C2.26166016 14.43337891 2.46082031 15.67925781 2.66601562 16.96289062 C2.94155273 18.7659668 2.94155273 18.7659668 3.22265625 20.60546875 C3.39547119 21.71043701 3.56828613 22.81540527 3.74633789 23.95385742 C3.99251022 26.91005772 3.7455111 29.14569116 3 32 C1.23225581 32.53122363 -0.53934083 33.04964073 -2.3125 33.5625 C-3.29863281 33.85253906 -4.28476563 34.14257812 -5.30078125 34.44140625 C-8 35 -8 35 -11 34 C-11.09087891 33.00419922 -11.09087891 33.00419922 -11.18359375 31.98828125 C-11.68724551 26.56177727 -11.68724551 26.56177727 -12.5625 21.1875 C-13 19 -13 19 -12.9375 16.375 C-12.79616351 13.72875002 -12.79616351 13.72875002 -15 11 C-17.97065509 11.34227572 -17.97065509 11.34227572 -21 12 C-21.33 12.66 -21.66 13.32 -22 14 C-23.61363404 14.91353885 -25.26623229 15.75923647 -26.9375 16.5625 C-27.83339844 16.99691406 -28.72929687 17.43132812 -29.65234375 17.87890625 C-30.81443359 18.43384766 -30.81443359 18.43384766 -32 19 C-32.66 19.33 -33.32 19.66 -34 20 C-31.34157987 12.83523354 -21.83876787 8.25618703 -15.16796875 5.1171875 C-3.6341798 0 -3.6341798 0 0 0 Z " fill="#2E464F" transform="translate(177,283)"/>
<path d="M0 0 C-1.26346794 7.83350122 -3.83429613 15.60517372 -10.1953125 20.7890625 C-10.79085937 21.18867188 -11.38640625 21.58828125 -12 22 C-11.71125 21.360625 -11.4225 20.72125 -11.125 20.0625 C-9.6752275 16.11589708 -8.84221938 12.1125393 -8 8 C-12.53007394 8.41685213 -12.53007394 8.41685213 -16.765625 9.91015625 C-19.8812802 11.4298552 -23.15644876 12.20875828 -26.5 13.0625 C-27.49580078 13.32256836 -27.49580078 13.32256836 -28.51171875 13.58789062 C-30.33973326 14.06405009 -32.16979615 14.53232623 -34 15 C-34.74636719 15.19722656 -35.49273437 15.39445313 -36.26171875 15.59765625 C-38 16 -38 16 -41.3125 16.375 C-45.07629142 16.85036235 -45.07629142 16.85036235 -48.5625 18.625 C-52.37172754 20.14869101 -54.14607289 20.34439318 -58 19 C-59.16796875 16.94140625 -59.16796875 16.94140625 -60 15 C-53.31084745 13.18411233 -46.62135894 11.36946635 -39.93164062 9.55566406 C-37.6581264 8.93908493 -35.38468789 8.32222651 -33.11132812 7.70507812 C-29.83483658 6.81566273 -26.55806981 5.92726763 -23.28125 5.0390625 C-22.27259888 4.76502594 -21.26394775 4.49098938 -20.22473145 4.20864868 C-17.48469662 3.46652 -14.74290138 2.73145343 -12 2 C-10.84262329 1.68660675 -10.84262329 1.68660675 -9.66186523 1.36688232 C-6.28430319 0.47847561 -3.52345625 0 0 0 Z " fill="#2F4B4B" transform="translate(139,226)"/>
<path d="M0 0 C-0.65142956 3.82507195 -1.75585871 7.21813543 -3.1796875 10.82421875 C-3.61410156 11.93603516 -4.04851562 13.04785156 -4.49609375 14.19335938 C-4.95113281 15.34642578 -5.40617187 16.49949219 -5.875 17.6875 C-8.65785787 24.74088182 -11.36486771 31.70243321 -13.2980957 39.04248047 C-14.8409136 43.34519834 -18.49917801 44.7354148 -22.3125 46.75 C-23.199375 47.1625 -24.08625 47.575 -25 48 C-25 41.47339798 -23.13034388 35.80481459 -20.07421875 30.1015625 C-18.08035938 26.20084853 -16.59195209 22.07727813 -15 18 C-7.92857143 0 -7.92857143 0 0 0 Z " fill="#2D464F" transform="translate(209,109)"/>
<path d="M0 0 C-0.68835938 0.87011719 -0.68835938 0.87011719 -1.390625 1.7578125 C-4.77869815 6.07119974 -8.03970201 10.38193513 -11 15 C-11.99 14.01 -12.98 13.02 -14 12 C-13.67 11.34 -13.34 10.68 -13 10 C-13 7.53721199 -13.85452863 6.14775881 -15 4 C-11.44175575 4 -8.42984189 4.05383672 -5 5 C-5.33 3.35 -5.66 1.7 -6 0 C-3 -1 -3 -1 0 0 Z " fill="#C55446" transform="translate(146,299)"/>
<path d="M0 0 C0.66 0.66 1.32 1.32 2 2 C-17.58767204 10.04384024 -17.58767204 10.04384024 -26 8 C-26 7.67 -26 7.34 -26 7 C-25.29617188 6.91363281 -24.59234375 6.82726562 -23.8671875 6.73828125 C-15.39494308 5.53270078 -7.94528225 3.07938454 0 0 Z " fill="#2E7432" transform="translate(328,420)"/>
<path d="M0 0 C8.44451694 2.11112923 13.96556339 7.39954976 18.96875 14.265625 C20 16 20 16 20 18 C19.34 18 18.68 18 18 18 C17.67 16.68 17.34 15.36 17 14 C16.34 14 15.68 14 15 14 C13.64613064 12.34997172 12.31321858 10.6825613 11 9 C10.34 8.67 9.68 8.34 9 8 C9 7.34 9 6.68 9 6 C8.278125 5.71125 7.55625 5.4225 6.8125 5.125 C4.20833333 4.08333333 1.60416667 3.04166667 -1 2 C-0.67 1.34 -0.34 0.68 0 0 Z " fill="#2F7432" transform="translate(375,254)"/>
<path d="M0 0 C0.66 0 1.32 0 2 0 C2 0.66 2 1.32 2 2 C3.36125 1.87625 3.36125 1.87625 4.75 1.75 C10.44813997 1.70300503 15.72449644 4.0595849 21 6 C20.67 6.66 20.34 7.32 20 8 C13.33333333 6.33333333 6.66666667 4.66666667 0 3 C0 2.01 0 1.02 0 0 Z " fill="#2E7631" transform="translate(319,329)"/>
<path d="M0 0 C1.5 1.25 1.5 1.25 3 3 C3 4.66666667 3 6.33333333 3 8 C-1.95 8 -6.9 8 -12 8 C-12 7.67 -12 7.34 -12 7 C-10.72125 6.9175 -9.4425 6.835 -8.125 6.75 C-5.9422095 6.53200078 -5.9422095 6.53200078 -4 6 C-2.53195637 4.14853436 -2.53195637 4.14853436 -2 2 C-1.34 1.34 -0.68 0.68 0 0 Z " fill="#C35049" transform="translate(170,365)"/>
<path d="M0 0 C0 0.66 0 1.32 0 2 C0.99 2.33 1.98 2.66 3 3 C1.515 2.87431641 1.515 2.87431641 0 2.74609375 C-6.78797045 2.20927463 -13.25663655 1.76142304 -20 3 C-20.33 2.34 -20.66 1.68 -21 1 C-13.66847392 -1.07726572 -7.53537771 -0.94351599 0 0 Z " fill="#2F7432" transform="translate(369,251)"/>
<path d="M0 0 C0.825 0.391875 1.65 0.78375 2.5 1.1875 C3.82676508 1.54608516 5.15835921 1.8893576 6.5 2.1875 C6.5 2.8475 6.5 3.5075 6.5 4.1875 C2.21 3.1975 -2.08 2.2075 -6.5 1.1875 C-2.5 -0.8125 -2.5 -0.8125 0 0 Z " fill="#2E7631" transform="translate(304.5,324.8125)"/>
<path d="M0 0 C2.03448779 0.41740567 4.05401678 0.90895178 6.0625 1.4375 C7.71958984 1.86869141 7.71958984 1.86869141 9.41015625 2.30859375 C10.26480469 2.53675781 11.11945313 2.76492188 12 3 C12 3.66 12 4.32 12 5 C10.58194169 4.71517632 9.16559621 4.42181856 7.75 4.125 C6.96109375 3.96257812 6.1721875 3.80015625 5.359375 3.6328125 C3.03168856 3.00849925 1.10968048 2.15161458 -1 1 C-0.67 0.67 -0.34 0.34 0 0 Z " fill="#2E7532" transform="translate(286,320)"/>
<path d="M0 0 C2 1 2 1 2 1 Z " fill="#2F7432" transform="translate(241,420)"/>
<path d="M0 0 C2 1 2 1 2 1 Z " fill="#2F7432" transform="translate(127,374)"/>
<path d="" fill="#2F7432" transform="translate(0,0)"/>
<path d="M0 0 C2 1 2 1 2 1 Z " fill="#2F7432" transform="translate(278,319)"/>
<path d="M0 0 C2 1 2 1 2 1 Z " fill="#2F7432" transform="translate(253,218)"/>
<path d="" fill="#2F7432" transform="translate(0,0)"/>
<path d="" fill="#2F7432" transform="translate(0,0)"/>
<path d="" fill="#2F7432" transform="translate(0,0)"/>
<path d="" fill="#2F7432" transform="translate(0,0)"/>
<path d="" fill="#2F7432" transform="translate(0,0)"/>
<path d="" fill="#2F7432" transform="translate(0,0)"/>
<path d="" fill="#2F7432" transform="translate(0,0)"/>
<path d="" fill="#2F7432" transform="translate(0,0)"/>
<path d="" fill="#2F7432" transform="translate(0,0)"/>
<path d="" fill="#2F7432" transform="translate(0,0)"/>
<path d="" fill="#2F7432" transform="translate(0,0)"/>
<path d="" fill="#2F7432" transform="translate(0,0)"/>
<path d="" fill="#2F7432" transform="translate(0,0)"/>
<path d="" fill="#2F7432" transform="translate(0,0)"/>
<path d="" fill="#2F7432" transform="translate(0,0)"/>
<path d="" fill="#2F7432" transform="translate(0,0)"/>
<path d="" fill="#2F7432" transform="translate(0,0)"/>
<path d="" fill="#2F7432" transform="translate(0,0)"/>
<path d="" fill="#2F7432" transform="translate(0,0)"/>
<path d="" fill="#2F7432" transform="translate(0,0)"/>
<path d="" fill="#2F7432" transform="translate(0,0)"/>
<path d="" fill="#2F7432" transform="translate(0,0)"/>
<path d="" fill="#2F7432" transform="translate(0,0)"/>
<path d="" fill="#2F7432" transform="translate(0,0)"/>
<path d="" fill="#2F7432" transform="translate(0,0)"/>
<path d="" fill="#2F7432" transform="translate(0,0)"/>
<path d="" fill="#2F7432" transform="translate(0,0)"/>
<path d="" fill="#2F7432" transform="translate(0,0)"/>
<path d="" fill="#2F7432" transform="translate(0,0)"/>
<path d="" fill="#2F7432" transform="translate(0,0)"/>
<path d="" fill="#2F7432" transform="translate(0,0)"/>
<path d="" fill="#2F7432" transform="translate(0,0)"/>
<path d="" fill="#2F7432" transform="translate(0,0)"/>
<path d="" fill="#2F7432" transform="translate(0,0)"/>
<path d="" fill="#2F7432" transform="translate(0,0)"/>
</svg>
