<?xml version="1.0" encoding="UTF-8"?>
<svg version="1.1" xmlns="http://www.w3.org/2000/svg" width="512" height="512">
<path d="M0 0 C4.40607973 26.72770591 9.95474861 61.25255781 -6.22615898 84.91565514 C-11.98553365 92.81022103 -18.62992627 99.88072968 -25.55859375 106.75 C-26.19878842 107.38478775 -26.83898309 108.0195755 -27.49857759 108.67359924 C-35.44626619 116.49220276 -43.68563791 123.96207929 -52.05316603 131.3265934 C-59.26592964 137.68908681 -66.25867345 144.27556791 -73.24541557 150.8841362 C-85.15865819 162.1472944 -97.2014622 173.25102039 -109.4506073 184.14820862 C-110.21140826 184.82769499 -110.21140826 184.82769499 -110.98757893 185.52090836 C-112.33934293 186.72762684 -113.69440382 187.93064935 -115.04971981 189.13337708 C-117.0680175 190.85525192 -117.0680175 190.85525192 -118 193 C-118.66 193 -119.32 193 -120 193 C-120.27908203 193.58595947 -120.55816406 194.17191895 -120.84570312 194.77563477 C-121.92692828 196.85918857 -123.10537315 198.68291007 -124.46875 200.58984375 C-136.50089941 217.7666085 -144.91326313 235.64433488 -150 256 C-150.33902344 257.26585937 -150.67804688 258.53171875 -151.02734375 259.8359375 C-155.4728725 279.70765589 -155.12853263 304.33373172 -150 324 C-149.65570778 325.45690322 -149.31198343 326.91394072 -148.96875 328.37109375 C-146.22514719 339.48745662 -142.01346913 349.72692243 -137 360 C-136.50628906 361.01707031 -136.01257813 362.03414063 -135.50390625 363.08203125 C-129.13136548 375.41190475 -120.36667503 387.15507753 -110.24609375 396.64453125 C-109 398 -109 398 -109 400 C-108.40735352 400.26272705 -107.81470703 400.5254541 -107.20410156 400.79614258 C-104.89772621 402.05586088 -103.51535704 403.34487629 -101.734375 405.26171875 C-98.18373648 408.90951874 -94.41586109 411.89941418 -90.25 414.8125 C-89.15570679 415.57844482 -89.15570679 415.57844482 -88.03930664 416.35986328 C-53.37071288 440.07060656 -11.96129048 448.08691269 29.32568359 440.55224609 C57.06516467 434.82404578 82.50485526 421.43763917 102.890625 401.8359375 C105 400 105 400 107 400 C107.38671875 399.11441406 107.38671875 399.11441406 107.78125 398.2109375 C109.1017075 395.81549217 110.47878247 394.45569293 112.5 392.625 C130.66654013 374.85338465 141.83964391 349.24727835 148 325 C148.27118652 323.94449951 148.27118652 323.94449951 148.54785156 322.86767578 C157.98098332 284.07556238 148.01802703 242.73648178 128 209.125 C121.96365341 199.58215968 114.62409271 191.29473049 107 183 C108.3761536 179.90820864 109.95158445 177.80361247 112.34814453 175.42480469 C113.36897629 174.40419952 113.36897629 174.40419952 114.41043091 173.36297607 C115.5105098 172.27838104 115.5105098 172.27838104 116.6328125 171.171875 C117.76056595 170.04836639 117.76056595 170.04836639 118.91110229 168.90216064 C121.31107901 166.5133698 123.71792009 164.13163103 126.125 161.75 C127.75436352 160.13066831 129.38327534 158.51088198 131.01171875 156.890625 C135.00258806 152.92179495 138.99911415 148.95873101 143 145 C168.61318535 157.28302659 185.87973963 199.06239264 195.07275391 224.30224609 C212.78230828 275.82688428 208.30127805 332.52640446 184.84765625 381.40136719 C174.37423911 402.80319417 160.33728819 420.76743778 144 438 C142.93265625 439.13115234 142.93265625 439.13115234 141.84375 440.28515625 C127.89839489 454.65915957 110.69019001 465.7924011 93 475 C92.33419922 475.34659668 91.66839844 475.69319336 90.98242188 476.05029297 C44.4657613 499.87944849 -12.30611042 503.8748808 -62 488 C-93.43518411 477.17781323 -119.90050147 460.77741293 -144 438 C-144.85722656 437.19691406 -145.71445313 436.39382813 -146.59765625 435.56640625 C-185.53708291 397.98461412 -204.46282589 344.71263858 -205.92578125 291.48828125 C-206.8504305 237.07302022 -185.18346035 186.16480723 -148 147 C-143.15083728 141.98872566 -138.20759844 137.07035387 -133.27294922 132.14355469 C-131.82448576 130.69373301 -130.37623442 129.24369939 -128.92817688 127.79347229 C-125.03244604 123.89322162 -121.13360637 119.99609316 -117.23402166 116.09969616 C-113.14508 112.01330112 -109.05859541 107.92445008 -104.97171021 103.83599854 C-98.12290952 96.98538512 -91.2720171 90.13686884 -84.41992188 83.28955078 C-76.48971367 75.36480741 -68.56314653 67.43643578 -60.63841426 59.50621676 C-53.82563259 52.68890684 -47.01091651 45.87353519 -40.19455922 39.05980039 C-36.12643929 34.99324176 -32.05900365 30.92600488 -27.99331284 26.85701752 C-24.18208973 23.0429191 -20.36845435 19.23124966 -16.55289268 15.42149162 C-15.14950404 14.01943138 -13.74697704 12.61650811 -12.34535027 11.21268654 C-10.44149859 9.30612712 -8.53463408 7.40263505 -6.62692261 5.49993896 C-5.78459275 4.65426302 -5.78459275 4.65426302 -4.92524612 3.79150271 C-1.11415139 0 -1.11415139 0 0 0 Z " fill="#EF4B2B" transform="translate(256,8)"/>
<path d="M0 0 C5.5732862 6.10997302 8.1307065 13.1336474 8.14453125 21.359375 C7.4547997 28.72069177 4.72132348 34.97405987 -0.6796875 40.0859375 C-7.06960062 45.18280337 -13.56542603 48.20243019 -21.85546875 47.359375 C-30.92124817 46.05826777 -36.97420045 42.39725637 -42.85546875 35.359375 C-46.90962135 28.85387432 -47.92795263 21.89993176 -46.85546875 14.359375 C-44.83375253 6.96635357 -40.23213456 0.28843955 -33.8359375 -3.9921875 C-22.68333823 -9.92033778 -9.53475278 -8.43072878 0 0 Z " fill="#EF4B2B" transform="translate(347.85546875,97.640625)"/>
</svg>
