<?xml version="1.0" encoding="UTF-8"?>
<svg version="1.1" xmlns="http://www.w3.org/2000/svg" width="512" height="512">
<path d="M0 0 C0.96988861 0.00182281 1.93977722 0.00364563 2.9390564 0.00552368 C17.29056055 0.05091691 31.25442918 0.5562653 45.375 3.3125 C46.72053955 3.55395752 46.72053955 3.55395752 48.09326172 3.80029297 C69.86076295 7.73910207 91.50346423 14.53050586 111.375 24.3125 C112.47086426 24.84713867 112.47086426 24.84713867 113.58886719 25.39257812 C130.73700161 33.84860436 146.55052885 44.25003763 161.375 56.3125 C161.9097998 56.74433594 162.44459961 57.17617188 162.99560547 57.62109375 C178.46742645 70.20648306 192.51386301 84.27545858 204.375 100.3125 C205.46748047 101.67761719 205.46748047 101.67761719 206.58203125 103.0703125 C234.14279208 137.93095052 250.01017889 182.546623 255.375 226.3125 C255.47216309 227.09568604 255.56932617 227.87887207 255.66943359 228.68579102 C256.66347051 237.92926353 256.61865214 247.2138377 256.625 256.5 C256.62601212 257.83233673 256.62601212 257.83233673 256.62704468 259.19158936 C256.60052923 281.21526995 253.926021 301.98762739 248.375 323.3125 C248.16536621 324.13105469 247.95573242 324.94960938 247.73974609 325.79296875 C242.05028049 347.55221825 232.70073573 367.93626703 221.4765625 387.36132812 C220.00786793 389.96279244 218.67638983 392.62410258 217.375 395.3125 C216.715 395.3125 216.055 395.3125 215.375 395.3125 C215.15714844 395.9828125 214.93929688 396.653125 214.71484375 397.34375 C212.94966114 401.25494179 210.53683606 404.41575156 207.9375 407.8125 C207.39673828 408.52245117 206.85597656 409.23240234 206.29882812 409.96386719 C204.66857724 412.08891352 203.02544752 414.20311269 201.375 416.3125 C200.9404248 416.87001953 200.50584961 417.42753906 200.05810547 418.00195312 C188.37497483 432.81775486 174.52052703 447.04192506 159.375 458.3125 C158.25495576 459.17284837 157.13518278 460.03354995 156.015625 460.89453125 C146.56169388 468.07657762 136.64641573 474.36921986 126.375 480.3125 C125.69775879 480.70679199 125.02051758 481.10108398 124.32275391 481.50732422 C98.40230324 496.4161927 68.9121548 505.97063031 39.375 510.3125 C38.17689697 510.48982666 36.97879395 510.66715332 35.74438477 510.84985352 C24.85423923 512.35022789 14.05860942 512.65327827 3.07495117 512.62817383 C0.20777988 512.62502229 -2.65834631 512.64855161 -5.52539062 512.67382812 C-18.77713496 512.71908904 -31.55744979 511.47616063 -44.625 509.3125 C-45.74672607 509.12969482 -46.86845215 508.94688965 -48.02416992 508.75854492 C-86.67724845 501.93496966 -121.97564572 485.02268374 -153.9375 462.625 C-154.8188562 462.00975464 -154.8188562 462.00975464 -155.71801758 461.38208008 C-157.06038186 460.4120081 -158.34969423 459.36918192 -159.625 458.3125 C-159.625 457.6525 -159.625 456.9925 -159.625 456.3125 C-160.15480469 456.10109375 -160.68460937 455.8896875 -161.23046875 455.671875 C-164.56749102 453.777448 -167.17605712 451.19100516 -169.9375 448.5625 C-171.10188772 447.4677101 -172.26724226 446.37394752 -173.43359375 445.28125 C-173.98772949 444.76175781 -174.54186523 444.24226563 -175.11279297 443.70703125 C-176.8594739 442.09627221 -178.66293066 440.56898055 -180.5 439.0625 C-183.58535544 436.46112189 -186.16457874 433.54914542 -188.76953125 430.47265625 C-190.00466556 429.03469988 -191.27350174 427.62501018 -192.57421875 426.24609375 C-231.3643673 385.01811701 -255.38205033 324.57012297 -255.86328125 268.00390625 C-255.87797203 266.56941383 -255.87797203 266.56941383 -255.89295959 265.10594177 C-256.06025201 244.5420911 -256.11786813 224.48595659 -251.625 204.3125 C-251.30354004 202.84780273 -251.30354004 202.84780273 -250.97558594 201.35351562 C-242.36009505 163.30489939 -225.89104194 127.88118695 -201.625 97.3125 C-201.20057617 96.77238281 -200.77615234 96.23226562 -200.33886719 95.67578125 C-196.21254211 90.43788818 -191.970468 85.48213279 -187.16796875 80.85546875 C-185.39879158 79.13921497 -185.39879158 79.13921497 -183.1875 76.3125 C-180.61148034 73.29667211 -177.91665262 70.84088659 -174.90234375 68.28125 C-172.38876369 66.10827513 -169.98451004 63.83695817 -167.5625 61.5625 C-160.98132081 55.57878687 -153.92818939 50.37870856 -146.625 45.3125 C-145.97821289 44.86261719 -145.33142578 44.41273437 -144.66503906 43.94921875 C-116.29271954 24.42478667 -84.45656199 11.33830228 -50.75 4.5 C-49.78940674 4.30510986 -48.82881348 4.11021973 -47.83911133 3.90942383 C-31.86844929 0.85218666 -16.22904744 -0.06338725 0 0 Z " fill="#74AADB" transform="translate(255.625,-0.3125)"/>
<path d="M0 0 C1.554702 0.19077443 3.10855656 0.3908751 4.6574707 0.62402344 C24.88732985 3.56671508 46.62075241 3.16056413 66.88183594 0.72070312 C75.59370633 -0.23833765 84.30819594 -0.2300257 93.0625 -0.25 C94.19040451 -0.25749268 94.19040451 -0.25749268 95.34109497 -0.26513672 C116.80843389 -0.38267742 136.49645224 3.90986559 152.625 19 C163.92298193 30.82607457 168.86862368 43.94654151 169.4375 60.375 C168.98144151 78.6933495 162.0590691 94.08262062 149 107 C148.22462891 107.82564453 148.22462891 107.82564453 147.43359375 108.66796875 C140.76606325 115.16141229 130.1266557 120.39826308 121 122 C124.65345666 128.84707444 128.72483187 135.33907919 133 141.8125 C134.05610474 143.4197998 134.05610474 143.4197998 135.13354492 145.05957031 C137.24116614 148.26642827 139.35344799 151.47019715 141.46624756 154.67364502 C143.80313729 158.21817732 146.13750168 161.76437154 148.47219849 165.31034851 C154.26618745 174.10994379 160.06289383 182.907746 165.86328125 191.703125 C166.42308182 192.55216904 166.98288239 193.40121307 167.55964661 194.27598572 C168.58709116 195.83360304 169.62032509 197.3874245 170.66061401 198.93649292 C172 201 172 201 173.02420044 202.88796997 C174.00621625 204.76735917 174.00621625 204.76735917 176 207 C179.27236871 207.82472857 179.27236871 207.82472857 182.953125 207.5859375 C183.61334656 207.57744781 184.27356812 207.56895813 184.95379639 207.56021118 C187.05422053 207.5267285 189.15074547 207.45148521 191.25 207.375 C192.6770277 207.34489256 194.10411586 207.31751808 195.53125 207.29296875 C199.02352803 207.23205692 202.50742487 207.11471962 206 207 C206 215.58 206 224.16 206 233 C170.07839656 239.29701415 170.07839656 239.29701415 158.63568115 231.36004639 C149.03999246 222.48159851 143.10059784 209.86535526 137.10345459 198.43682861 C131.5967165 187.96081719 125.07522175 178.31871987 118.33105469 168.60903931 C115.91908923 165.12648429 113.54320804 161.62069104 111.18118286 158.10411072 C110.06525634 156.45718086 108.93326004 154.82101665 107.78488159 153.19654846 C104.46434493 148.45577935 101.87683703 143.88553476 99.79959106 138.47271729 C97.74889887 134.6458634 97.74889887 134.6458634 91 128 C79.78 127.67 68.56 127.34 57 127 C57 153.4 57 179.8 57 207 C68.88 207 80.76 207 93 207 C93 215.58 93 224.16 93 233 C61.98 233 30.96 233 -1 233 C-1 224.75 -1 216.5 -1 208 C8.90499313 206.58500098 18.99444599 207 29 207 C29 146.94 29 86.88 29 25 C23.72 24.67 18.44 24.34 13 24 C10.32774675 23.69079502 7.65783412 23.35278658 5 22.9375 C3.845 22.76089844 2.69 22.58429688 1.5 22.40234375 C0.675 22.26957031 -0.15 22.13679688 -1 22 C-1.02887814 18.52085059 -1.04675687 15.04173169 -1.0625 11.5625 C-1.07087891 10.56927734 -1.07925781 9.57605469 -1.08789062 8.55273438 C-1.09111328 7.60849609 -1.09433594 6.66425781 -1.09765625 5.69140625 C-1.10289307 4.81685791 -1.10812988 3.94230957 -1.11352539 3.04125977 C-1 1 -1 1 0 0 Z " fill="#FDFEFE" transform="translate(166,128)"/>
<path d="M0 0 C2.625 2.3125 2.625 2.3125 5 5 C5.48210937 5.49113281 5.96421875 5.98226562 6.4609375 6.48828125 C14.36658509 14.89555622 17.23260473 24.5878303 17 36 C16.37596296 44.22948851 12.58993145 51.34515116 6.83984375 57.19921875 C-14.09304116 75.06875465 -40.90159497 73 -67 73 C-67 46.93 -67 20.86 -67 -6 C-16.23474178 -10.61502347 -16.23474178 -10.61502347 0 0 Z " fill="#74ABDB" transform="translate(290,159)"/>
</svg>
