<?xml version="1.0" encoding="UTF-8"?>
<svg version="1.1" xmlns="http://www.w3.org/2000/svg" width="512" height="512">
<path d="M0 0 C1.16547363 0.47469727 1.16547363 0.47469727 2.35449219 0.95898438 C26.16573643 10.7983415 47.84146921 24.48351708 66.28173828 42.55761719 C66.84747559 43.11094727 67.41321289 43.66427734 67.99609375 44.234375 C68.48263428 44.72131836 68.9691748 45.20826172 69.47045898 45.70996094 C71.19614775 47.16543411 72.95239877 48.06543541 75 49 C75.63164062 48.33355469 76.26328125 47.66710937 76.9140625 46.98046875 C83.58260343 40.11014199 90.57582327 34.06124136 98.23681641 28.32324219 C99.91269686 27.06551966 101.57149506 25.7876937 103.23046875 24.5078125 C126.96708437 6.54332305 156.70001601 -8.78742992 187.15625 -4.71142578 C199.29052758 -2.4331907 210.34094389 4.33201115 218 14 C239.43227641 45.66858754 236.78237558 87.93991212 229.91015625 123.890625 C229.3879549 126.52450692 228.84798325 129.15137088 228.27050781 131.77368164 C227.43013485 135.59344703 226.77180565 139.05774584 227 143 C228.22589844 143.37769531 229.45179688 143.75539062 230.71484375 144.14453125 C264.95026603 154.96564681 305.8218987 171.83289093 324.41015625 204.84375 C330.85243103 217.63332745 332.62065947 232.423908 328.5625 246.375 C320.54578539 266.1255218 304.79684121 280.07845576 287 291 C286.31486328 291.4223291 285.62972656 291.8446582 284.92382812 292.27978516 C266.88558915 303.21956522 247.09108738 310.7595865 227 317 C227.66475339 323.70235897 228.72048723 330.25341573 229.9375 336.875 C235.91026297 370.78366067 240.29048946 412.79483955 220 443 C211.05853923 454.67548435 199.73864914 462.74234565 185 465 C149.5002256 466.83315618 115.94963417 448.03252369 89.76708984 425.0390625 C87.04263973 422.54785535 84.35478674 420.02655428 81.71826172 417.44238281 C81.15252441 416.88905273 80.58678711 416.33572266 80.00390625 415.765625 C79.51736572 415.27868164 79.0308252 414.79173828 78.52954102 414.29003906 C76.80385225 412.83456589 75.04760123 411.93456459 73 411 C72.36835938 411.66644531 71.73671875 412.33289063 71.0859375 413.01953125 C64.41739657 419.88985801 57.42417673 425.93875864 49.76318359 431.67675781 C48.08730314 432.93448034 46.42850494 434.2123063 44.76953125 435.4921875 C21.19004667 453.33775608 -6.95037558 467.21537874 -37 465 C-40.8809524 464.4029304 -44.35250785 463.4414889 -48 462 C-48.83660156 461.67128906 -49.67320312 461.34257812 -50.53515625 461.00390625 C-64.01789802 454.981476 -73.17113067 443.3754559 -78.875 430.03515625 C-90.77490586 397.9302019 -87.50094983 361.05969043 -80.27050781 328.22631836 C-80.10518555 327.47487549 -79.93986328 326.72343262 -79.76953125 325.94921875 C-79.62104736 325.30299561 -79.47256348 324.65677246 -79.31958008 323.9909668 C-78.94195373 321.63837485 -78.94922623 319.37863506 -79 317 C-79.99290039 316.67745239 -79.99290039 316.67745239 -81.00585938 316.34838867 C-108.39765985 307.36781816 -136.40574289 296.76478903 -158 277 C-158.49193848 276.55575684 -158.98387695 276.11151367 -159.49072266 275.65380859 C-171.33464749 264.847849 -181.33788406 251.7938243 -182.375 235.22265625 C-182.97831309 218.50519787 -178.82625894 205.52220459 -167.625 192.875 C-166.09005705 191.24364741 -164.54872694 189.61827253 -163 188 C-162.11248047 187.00033203 -162.11248047 187.00033203 -161.20703125 185.98046875 C-140.56595325 163.6079096 -107.19194492 151.78634403 -79 143 C-79.66475339 136.29764103 -80.72048723 129.74658427 -81.9375 123.125 C-87.91026297 89.21633933 -92.29048946 47.20516045 -72 17 C-54.41198704 -5.96588615 -26.06785183 -10.81422716 0 0 Z M-52 28 C-68.1580019 48.95666604 -65.12375327 81.37414199 -62 106 C-60.471166 116.42953495 -58.67532963 126.8003058 -56 137 C-49.82686828 135.99315418 -43.6628215 134.95069812 -37.51171875 133.81640625 C-25.10466333 131.5327718 -12.73582081 129.40580523 -0.19604492 127.98852539 C8.30247257 127.10561343 8.30247257 127.10561343 14.69140625 121.8671875 C15.65954581 120.54451796 16.61592409 119.21318645 17.5625 117.875 C18.62751063 116.41529633 19.69261746 114.95566285 20.7578125 113.49609375 C21.29696289 112.74827637 21.83611328 112.00045898 22.39160156 111.22998047 C30.73748146 99.6587499 39.49125695 88.63809862 49 78 C49.47727539 77.46487793 49.95455078 76.92975586 50.44628906 76.37841797 C52.95109783 73.57363744 55.4681837 70.78041842 58 68 C53.49327865 57.7219161 41.75118868 50.57582589 33 44 C32.15566406 43.360625 31.31132812 42.72125 30.44140625 42.0625 C9.20341477 26.59064112 -29.79188024 2.66810076 -52 28 Z M90 66 C91.59805396 69.86272471 94.22209447 72.58140374 97.0625 75.5625 C102.30047374 81.17845426 107.23797825 86.97290172 112 93 C112.5249707 93.66306152 113.04994141 94.32612305 113.59082031 95.00927734 C124.76391272 109.15702423 124.76391272 109.15702423 128.9453125 115.19921875 C129.39140869 115.84334717 129.83750488 116.48747559 130.29711914 117.15112305 C131.11525258 118.34651656 131.92256136 119.54942301 132.71655273 120.76098633 C135.16401733 124.35259308 136.90509581 125.68399622 141 127 C143.41168429 127.43239794 145.83608585 127.79621875 148.265625 128.11328125 C149.71682195 128.30881462 151.16799279 128.50454186 152.61914062 128.70043945 C153.37557861 128.80023102 154.1320166 128.90002258 154.91137695 129.00283813 C169.72293565 130.96406694 184.31989442 133.41388119 198.91992188 136.62036133 C201.13946837 137.08977292 201.13946837 137.08977292 204 137 C216.05349091 82.95416095 216.05349091 82.95416095 202.125 30.875 C196.44329239 23.3233633 190.23999026 19.26520537 181 17 C149.05557633 12.57156744 110.25740663 44.61019176 90 66 Z M73 84 C64.79192584 92.62349152 57.19848343 101.51985441 50 111 C49.55398437 111.58330078 49.10796875 112.16660156 48.6484375 112.76757812 C43.73397629 118.08056323 43.73397629 118.08056323 41 124 C62.78 124 84.56 124 107 124 C103.75974765 118.21961332 103.75974765 118.21961332 99.96875 113.08984375 C99.41106934 112.41638916 98.85338867 111.74293457 98.27880859 111.04907227 C97.69180176 110.35225342 97.10479492 109.65543457 96.5 108.9375 C95.88850098 108.20523193 95.27700195 107.47296387 94.64697266 106.71850586 C93.38747237 105.21338837 92.12526099 103.71053542 90.86035156 102.20996094 C89.08252625 100.09803512 87.31765032 97.97589697 85.5546875 95.8515625 C84.49556427 94.58789372 83.43570615 93.32484039 82.375 92.0625 C81.89095703 91.47782959 81.40691406 90.89315918 80.90820312 90.29077148 C78.5156695 87.47347034 76.50651198 85.30876856 73 84 Z M49.45410156 144.96337891 C34.02487975 143.97378568 34.02487975 143.97378568 20.5 149.5234375 C18.10192225 152.52536418 16.66830331 155.8742133 15.19433594 159.39990234 C13.26847284 163.59255197 10.77257905 167.42056822 8.34863281 171.33984375 C0.0208133 184.80569201 -7.37084908 198.77936746 -14.44628906 212.93701172 C-15.5202499 215.05421988 -16.62881379 217.15410123 -17.76464844 219.23876953 C-18.32442383 220.28532715 -18.88419922 221.33188477 -19.4609375 222.41015625 C-20.22736572 223.80633179 -20.22736572 223.80633179 -21.00927734 225.23071289 C-22.61846633 229.72874903 -21.45812664 232.9434776 -19.609375 237.20703125 C-18.99847477 238.41339809 -18.37796337 239.6149266 -17.75 240.8125 C-17.40211426 241.48917725 -17.05422852 242.16585449 -16.69580078 242.86303711 C-15.90836608 244.39157692 -15.11728548 245.91824213 -14.32324219 247.44335938 C-12.88684886 250.2186197 -11.47805094 253.00697676 -10.0703125 255.796875 C-3.63912946 268.45823537 3.13301835 280.8054583 10.79296875 292.76953125 C12.85335498 296.00947825 14.57890573 299.1550275 16.05078125 302.69921875 C17.97943915 307.01951147 19.84466312 310.515721 24 313 C32.91385353 315.64815598 42.48224643 315.11273636 51.69592285 315.012146 C55.73296958 314.99086461 59.76834162 315.07662047 63.8046875 315.14453125 C71.4409372 315.25653081 79.06796123 315.230798 86.70385742 315.10232544 C90.6528067 315.0364934 94.59648714 314.99350337 98.54589844 315.03662109 C114.22108788 316.0534024 114.22108788 316.0534024 127.74609375 310.0546875 C130.13116461 306.98059617 131.67526931 303.67833566 133.11523438 300.08007812 C134.28249886 297.33584705 135.80433103 294.91236168 137.3984375 292.39916992 C139.35177074 289.31718042 141.16811717 286.15518143 143 283 C143.35384766 282.39140137 143.70769531 281.78280273 144.07226562 281.15576172 C150.63485524 269.80920024 156.6803092 258.1937357 162.67871094 246.54150391 C163.80675055 244.37171596 164.95895361 242.21940859 166.1328125 240.07421875 C166.96425781 238.52154297 166.96425781 238.52154297 167.8125 236.9375 C168.27269531 236.10089844 168.73289062 235.26429688 169.20703125 234.40234375 C171.07995411 228.72821786 168.14592945 223.57921944 165.6875 218.5 C165.33993652 217.77296875 164.99237305 217.0459375 164.63427734 216.296875 C147.63237913 179.39328933 147.63237913 179.39328933 124 147 C102.53432455 144.14338688 80.41757817 144.57702253 58.81933594 144.93896484 C55.69610505 144.98769444 52.57750961 144.99747873 49.45410156 144.96337891 Z M-20.390625 152.4609375 C-21.17644958 152.61156647 -21.96227417 152.76219543 -22.77191162 152.91738892 C-24.42303429 153.23571151 -26.07360308 153.55691924 -27.72363281 153.88085938 C-30.25405762 154.37579364 -32.78694293 154.85633327 -35.3203125 155.3359375 C-36.92725145 155.64757183 -38.53402848 155.96004256 -40.140625 156.2734375 C-40.89893616 156.41623138 -41.65724731 156.55902527 -42.4385376 156.70614624 C-46.64541577 157.48334231 -46.64541577 157.48334231 -50 160 C-48.34945954 164.85756694 -46.69528703 169.71387648 -45.0378418 174.5690918 C-44.47533551 176.21849652 -43.91379642 177.86823144 -43.35327148 179.51831055 C-42.54409169 181.89981659 -41.7313585 184.28008529 -40.91796875 186.66015625 C-40.67096725 187.38960953 -40.42396576 188.11906281 -40.16947937 188.87062073 C-38.63581529 193.3446522 -36.91345467 197.67425228 -35 202 C-32.09828999 199.46045912 -30.58316773 196.61712292 -28.8125 193.21484375 C-28.20092041 192.05194824 -27.58934082 190.88905273 -26.95922852 189.69091797 C-26.63914825 189.07746521 -26.31906799 188.46401245 -25.98928833 187.83197021 C-20.70993093 177.72209119 -15.27793681 167.78485567 -9.15039062 158.15600586 C-6.81107352 154.83957872 -6.81107352 154.83957872 -6 151 C-10.99570278 150.81574035 -15.51773042 151.50714691 -20.390625 152.4609375 Z M154 151 C155.78557882 156.12701286 158.5902055 160.64347367 161.3125 165.3125 C166.67991258 174.58423767 171.80974936 183.96778979 176.80981445 193.44262695 C177.32890381 194.41546631 177.84799316 195.38830566 178.3828125 196.390625 C178.84059082 197.25719727 179.29836914 198.12376953 179.77001953 199.01660156 C180.84850484 201.14276772 180.84850484 201.14276772 183 202 C188.46057574 187.79411342 193.61664358 173.5768088 198 159 C188.85762245 156.53758313 179.68849436 154.46372028 170.375 152.75 C169.43962402 152.57500977 168.50424805 152.40001953 167.54052734 152.21972656 C162.96869524 151.39928946 158.66709523 150.7829258 154 151 Z M-147 203 C-154.9318469 211.65164083 -160.4356728 220.31861083 -160.27734375 232.28125 C-159.21036607 242.74063684 -152.44687723 251.07267234 -145 258 C-144.4225 258.57105469 -143.845 259.14210938 -143.25 259.73046875 C-127.08097834 275.07266544 -93.48425089 295 -71 295 C-70.72961914 294.15219971 -70.45923828 293.30439941 -70.18066406 292.4309082 C-63.97186166 273.08499811 -57.13821008 254.23124004 -49.04052734 235.5925293 C-47.22243094 231.44109603 -47.22243094 231.44109603 -47.53808594 227.09423828 C-47.85036133 226.42634277 -48.16263672 225.75844727 -48.484375 225.0703125 C-48.83733643 224.28978516 -49.19029785 223.50925781 -49.55395508 222.70507812 C-49.9486499 221.85365234 -50.34334473 221.00222656 -50.75 220.125 C-54.80255333 211.04311991 -58.40330228 201.83726157 -61.8125 192.5 C-62.26786133 191.26137207 -62.72322266 190.02274414 -63.19238281 188.74658203 C-66.04309373 180.90030964 -68.6250708 173.00293379 -71 165 C-95.8235293 165 -128.93336473 187.16381353 -147 203 Z M219 165 C218.72961914 165.84780029 218.45923828 166.69560059 218.18066406 167.5690918 C211.97186166 186.91500189 205.13821008 205.76875996 197.04052734 224.4074707 C195.05225842 229.15968018 195.05225842 229.15968018 196.1171875 234.046875 C196.69457213 235.28527372 197.28129222 236.51934348 197.875 237.75 C206.36019553 256.25685849 212.72105351 275.6578388 219 295 C248.59041148 289.14896086 281.40262549 273.53545451 301 250 C306.41997401 241.83876991 309.00082952 234.81094852 308 225 C305.54089624 215.66945773 299.97230787 208.48586779 293 202 C292.4225 201.42894531 291.845 200.85789063 291.25 200.26953125 C275.08097834 184.92733456 241.48425089 165 219 165 Z M-35 258 C-40.46057574 272.20588658 -45.61664358 286.4231912 -50 301 C-40.85762245 303.46241687 -31.68849436 305.53627972 -22.375 307.25 C-21.43962402 307.42499023 -20.50424805 307.59998047 -19.54052734 307.78027344 C-14.96869524 308.60071054 -10.66709523 309.2170742 -6 309 C-7.78557882 303.87298714 -10.5902055 299.35652633 -13.3125 294.6875 C-18.67991258 285.41576233 -23.80974936 276.03221021 -28.80981445 266.55737305 C-29.32890381 265.58453369 -29.84799316 264.61169434 -30.3828125 263.609375 C-30.84059082 262.74280273 -31.29836914 261.87623047 -31.77001953 260.98339844 C-32.84850484 258.85723228 -32.84850484 258.85723228 -35 258 Z M182 258 C180.04045145 261.45764607 178.08240472 264.91613985 176.125 268.375 C175.53654297 269.41470947 174.94808594 270.45441895 174.34179688 271.52563477 C170.29717105 278.68096347 166.28471817 285.85302297 162.33642578 293.06201172 C160.02106925 297.26283114 157.56409372 301.32479982 154.93554688 305.33813477 C153.83648032 306.97261873 153.83648032 306.97261873 154 309 C162.68414385 308.51686661 171.10065166 307.20613861 179.61279297 305.47094727 C181.6552196 305.05636588 183.70034452 304.6575907 185.74609375 304.25976562 C187.03902344 304.00001953 188.33195312 303.74027344 189.6640625 303.47265625 C191.41904053 303.12086304 191.41904053 303.12086304 193.20947266 302.76196289 C196.11385009 302.21673352 196.11385009 302.21673352 198 300 C196.34945954 295.14243306 194.69528703 290.28612352 193.0378418 285.4309082 C192.47533551 283.78150348 191.91379642 282.13176856 191.35327148 280.48168945 C190.54409169 278.10018341 189.7313585 275.71991471 188.91796875 273.33984375 C188.67096725 272.61039047 188.42396576 271.88093719 188.16947937 271.12937927 C186.63581529 266.6553478 184.91345467 262.32574772 183 258 C182.67 258 182.34 258 182 258 Z M-56 323 C-68.05349091 377.04583905 -68.05349091 377.04583905 -54.125 429.125 C-48.31805293 436.90720017 -41.62588073 441.35232672 -32 443 C-6.47214928 445.49551105 21.41627979 425.80650593 40.34716797 410.39160156 C46.47959017 405.22841005 52.38092887 399.71595167 58 394 C56.40194604 390.13727529 53.77790553 387.41859626 50.9375 384.4375 C45.69952626 378.82154574 40.76202175 373.02709828 36 367 C35.4750293 366.33693848 34.95005859 365.67387695 34.40917969 364.99072266 C23.23608728 350.84297577 23.23608728 350.84297577 19.0546875 344.80078125 C18.60859131 344.15665283 18.16249512 343.51252441 17.70288086 342.84887695 C16.88474742 341.65348344 16.07743864 340.45057699 15.28344727 339.23901367 C12.83598267 335.64740692 11.09490419 334.31600378 7 333 C4.58831571 332.56760206 2.16391415 332.20378125 -0.265625 331.88671875 C-1.71682195 331.69118538 -3.16799279 331.49545814 -4.61914062 331.29956055 C-5.37557861 331.19976898 -6.1320166 331.09997742 -6.91137695 330.99716187 C-21.72293565 329.03593306 -36.31989442 326.58611881 -50.91992188 323.37963867 C-53.13946837 322.91022708 -53.13946837 322.91022708 -56 323 Z M195.19921875 324.171875 C180.36958861 327.28925684 165.63882976 329.92342395 150.58666992 331.70605469 C148.80933472 331.92116699 148.80933472 331.92116699 146.99609375 332.140625 C145.95638428 332.25954102 144.9166748 332.37845703 143.84545898 332.50097656 C139.28650397 333.30050501 136.05576573 334.30214748 133.30859375 338.1328125 C132.84525635 338.76582275 132.38191895 339.39883301 131.90454102 340.05102539 C131.42041748 340.73543701 130.93629395 341.41984863 130.4375 342.125 C129.37248937 343.58470367 128.30738254 345.04433715 127.2421875 346.50390625 C126.70303711 347.25172363 126.16388672 347.99954102 125.60839844 348.77001953 C117.26251854 360.3412501 108.50874305 371.36190138 99 382 C98.52272461 382.53512207 98.04544922 383.07024414 97.55371094 383.62158203 C95.04890217 386.42636256 92.5318163 389.21958158 90 392 C94.50672135 402.2780839 106.24881132 409.42417411 115 416 C115.84433594 416.639375 116.68867188 417.27875 117.55859375 417.9375 C134.0386374 429.9431979 159.00879251 445.58497066 180 443 C189.53872704 441.07843035 196.33218001 436.92573202 202 429 C209.04153905 418.14174268 211.58440419 403.77505376 212 391 C212.03996094 389.93394531 212.07992187 388.86789062 212.12109375 387.76953125 C212.52307723 366.08606928 209.44763199 343.9676602 204 323 C200.86320823 323 198.26501626 323.51238162 195.19921875 324.171875 Z M41 336 C44.24025235 341.78038668 44.24025235 341.78038668 48.03125 346.91015625 C48.58893066 347.58361084 49.14661133 348.25706543 49.72119141 348.95092773 C50.30819824 349.64774658 50.89520508 350.34456543 51.5 351.0625 C52.11149902 351.79476807 52.72299805 352.52703613 53.35302734 353.28149414 C54.61252763 354.78661163 55.87473901 356.28946458 57.13964844 357.79003906 C58.91747375 359.90196488 60.68234968 362.02410303 62.4453125 364.1484375 C63.50443573 365.41210628 64.56429385 366.67515961 65.625 367.9375 C66.10904297 368.52217041 66.59308594 369.10684082 67.09179688 369.70922852 C69.4843305 372.52652966 71.49348802 374.69123144 75 376 C83.20807416 367.37650848 90.80151657 358.48014559 98 349 C98.44601562 348.41669922 98.89203125 347.83339844 99.3515625 347.23242188 C104.26602371 341.91943677 104.26602371 341.91943677 107 336 C85.22 336 63.44 336 41 336 Z " fill="#54AEF6" transform="translate(182,26)"/>
<path d="M0 0 C9.01643625 7.03880521 15.1108423 16.14007339 17.25 27.4375 C18.57745953 41.22372037 16.25002545 52.78115963 7.57421875 63.89453125 C-0.86877257 73.13215705 -11.15283274 78.33023854 -23.68408203 78.90625 C-36.67374665 79.10273748 -47.12290409 75.23645862 -56.75 66.4375 C-65.54895862 56.81040409 -69.41523748 46.36124665 -69.21875 33.37158203 C-68.64273854 20.84033274 -63.44465705 10.55627257 -54.20703125 2.11328125 C-38.00161747 -10.53769834 -17.12245062 -11.43845467 0 0 Z M-41.75 21.4375 C-45.63288308 26.83039317 -47.0218631 31.76639787 -46.75 38.4375 C-45.3416013 45.06390043 -42.12466481 49.72774133 -36.625 53.6875 C-31.60818126 56.31944987 -26.06283433 57.14162158 -20.5078125 55.9609375 C-14.25183035 53.81265684 -9.67999643 50.46784013 -6.54296875 44.48828125 C-4.45752157 39.09488338 -4.05231932 33.61481187 -5.9375 28.125 C-8.66284197 22.05103158 -12.44557733 17.8752101 -18.75 15.4375 C-27.58895647 13.31788075 -35.2186893 14.9061893 -41.75 21.4375 Z " fill="#54ADF6" transform="translate(281.75,220.5625)"/>
</svg>
