<?xml version="1.0" encoding="UTF-8"?>
<svg version="1.1" xmlns="http://www.w3.org/2000/svg" width="512" height="512">
<path d="M0 0 C10.89 0 21.78 0 33 0 C33 24.42 33 48.84 33 74 C57.75 74 82.5 74 108 74 C108 84.89 108 95.78 108 107 C83.25 107 58.5 107 33 107 C33 131.75 33 156.5 33 182 C22.11 182 11.22 182 0 182 C0 157.25 0 132.5 0 107 C-24.42 107 -48.84 107 -74 107 C-74 96.11 -74 85.22 -74 74 C-49.58 74 -25.16 74 0 74 C0 49.58 0 25.16 0 0 Z " fill="#E7752C" transform="translate(234,160)"/>
<path d="M0 0 C7.26 0 14.52 0 22 0 C22 21.12 22 42.24 22 64 C43.12 64 64.24 64 86 64 C86 71.26 86 78.52 86 86 C64.88 86 43.76 86 22 86 C22 107.12 22 128.24 22 150 C14.74 150 7.48 150 0 150 C0 128.88 0 107.76 0 86 C-21.12 86 -42.24 86 -64 86 C-64 78.74 -64 71.48 -64 64 C-42.88 64 -21.76 64 0 64 C0 42.88 0 21.76 0 0 Z " fill="#0C47A1" transform="translate(362,288)"/>
<path d="M0 0 C7.26 0 14.52 0 22 0 C22 21.12 22 42.24 22 64 C43.12 64 64.24 64 86 64 C86 71.26 86 78.52 86 86 C64.88 86 43.76 86 22 86 C22 107.12 22 128.24 22 150 C14.74 150 7.48 150 0 150 C0 128.88 0 107.76 0 86 C-21.12 86 -42.24 86 -64 86 C-64 78.74 -64 71.48 -64 64 C-42.88 64 -21.76 64 0 64 C0 42.88 0 21.76 0 0 Z " fill="#C52727" transform="translate(117,288)"/>
<path d="M0 0 C7.26 0 14.52 0 22 0 C22 21.12 22 42.24 22 64 C43.12 64 64.24 64 86 64 C86 71.26 86 78.52 86 86 C64.88 86 43.76 86 22 86 C22 107.12 22 128.24 22 150 C14.74 150 7.48 150 0 150 C0 128.88 0 107.76 0 86 C-21.12 86 -42.24 86 -64 86 C-64 78.74 -64 71.48 -64 64 C-42.88 64 -21.76 64 0 64 C0 42.88 0 21.76 0 0 Z " fill="#607D8A" transform="translate(362,64)"/>
<path d="M0 0 C7.26 0 14.52 0 22 0 C22 21.12 22 42.24 22 64 C43.12 64 64.24 64 86 64 C86 71.26 86 78.52 86 86 C64.88 86 43.76 86 22 86 C22 107.12 22 128.24 22 150 C14.74 150 7.48 150 0 150 C0 128.88 0 107.76 0 86 C-21.12 86 -42.24 86 -64 86 C-64 78.74 -64 71.48 -64 64 C-42.88 64 -21.76 64 0 64 C0 42.88 0 21.76 0 0 Z " fill="#FF9F00" transform="translate(117,64)"/>
<path d="M0 0 C5.61 0 11.22 0 17 0 C17 13.2 17 26.4 17 40 C30.2 40 43.4 40 57 40 C57 45.61 57 51.22 57 57 C43.8 57 30.6 57 17 57 C17 70.2 17 83.4 17 97 C11.39 97 5.78 97 0 97 C0 83.8 0 70.6 0 57 C-13.2 57 -26.4 57 -40 57 C-40 51.39 -40 45.78 -40 40 C-26.8 40 -13.6 40 0 40 C0 26.8 0 13.6 0 0 Z " fill="#5C6BBF" transform="translate(242,394)"/>
<path d="M0 0 C5.61 0 11.22 0 17 0 C17 13.2 17 26.4 17 40 C30.2 40 43.4 40 57 40 C57 45.61 57 51.22 57 57 C43.8 57 30.6 57 17 57 C17 70.2 17 83.4 17 97 C11.39 97 5.78 97 0 97 C0 83.8 0 70.6 0 57 C-13.2 57 -26.4 57 -40 57 C-40 51.39 -40 45.78 -40 40 C-26.8 40 -13.6 40 0 40 C0 26.8 0 13.6 0 0 Z " fill="#5C6BBF" transform="translate(434,202)"/>
<path d="M0 0 C5.61 0 11.22 0 17 0 C17 13.2 17 26.4 17 40 C30.2 40 43.4 40 57 40 C57 45.61 57 51.22 57 57 C43.8 57 30.6 57 17 57 C17 70.2 17 83.4 17 97 C11.39 97 5.78 97 0 97 C0 83.8 0 70.6 0 57 C-13.2 57 -26.4 57 -40 57 C-40 51.39 -40 45.78 -40 40 C-26.8 40 -13.6 40 0 40 C0 26.8 0 13.6 0 0 Z " fill="#77909B" transform="translate(50,202)"/>
<path d="M0 0 C5.61 0 11.22 0 17 0 C17 13.2 17 26.4 17 40 C30.2 40 43.4 40 57 40 C57 45.61 57 51.22 57 57 C43.8 57 30.6 57 17 57 C17 70.2 17 83.4 17 97 C11.39 97 5.78 97 0 97 C0 83.8 0 70.6 0 57 C-13.2 57 -26.4 57 -40 57 C-40 51.39 -40 45.78 -40 40 C-26.8 40 -13.6 40 0 40 C0 26.8 0 13.6 0 0 Z " fill="#77909B" transform="translate(242,10)"/>
</svg>
