<?xml version="1.0" encoding="UTF-8"?>
<svg version="1.1" xmlns="http://www.w3.org/2000/svg" width="512" height="512">
<path d="M0 0 C4.28797894 0.85759579 6.24494957 1.49609404 9.82421875 3.6328125 C10.75669434 4.18380615 11.68916992 4.7347998 12.64990234 5.30249023 C13.65230957 5.90391846 14.6547168 6.50534668 15.6875 7.125 C17.86025981 8.41086159 20.03345157 9.69599352 22.20703125 10.98046875 C23.32932129 11.6461084 24.45161133 12.31174805 25.60791016 12.99755859 C31.00694148 16.18475126 36.4405284 19.31124675 41.875 22.4375 C44.05994368 23.69653156 46.24483925 24.95564661 48.4296875 26.21484375 C49.51475586 26.83987793 50.59982422 27.46491211 51.71777344 28.10888672 C57.14659942 31.23680148 62.57319281 34.36858448 68 37.5 C70.16665583 38.75001879 72.3333225 40.00001878 74.5 41.25 C94 52.5 94 52.5 113.5 63.75 C114.57282227 64.36891113 115.64564453 64.98782227 116.75097656 65.62548828 C118.91447476 66.87371034 121.07788643 68.12208239 123.24121094 69.37060547 C128.70565017 72.52405256 134.17163645 75.67476096 139.640625 78.8203125 C150.30855676 84.95910175 160.96050697 91.12285524 171.5625 97.375 C172.50319336 97.92881348 173.44388672 98.48262695 174.41308594 99.05322266 C175.26805664 99.55901855 176.12302734 100.06481445 177.00390625 100.5859375 C177.75486572 101.0298584 178.5058252 101.4737793 179.27954102 101.93115234 C181 103 181 103 182 104 C182.09522418 106.86091818 182.12553326 109.69763621 182.11352539 112.55883789 C182.11367142 113.45631241 182.11381744 114.35378693 182.1139679 115.27845764 C182.11326842 118.25988134 182.10547441 121.2412434 182.09765625 124.22265625 C182.09579219 126.28388942 182.09436823 128.34512304 182.09336853 130.40635681 C182.08954237 135.8430401 182.07971126 141.27969686 182.06866455 146.71636963 C182.05845253 152.25947714 182.05387136 157.80258892 182.04882812 163.34570312 C182.03808908 174.23048043 182.02101149 185.11523802 182 196 C163.88071675 186.13049604 145.91764637 176.01192348 128.1171875 165.578125 C120.66407671 161.21097365 113.17908919 156.89947663 105.69360352 152.58813477 C96.12032479 147.07364523 86.56131715 141.53549941 77 136 C76.67 152.83 76.34 169.66 76 187 C77.65 187.66 79.3 188.32 81 189 C83.11571988 190.13063739 85.21327043 191.29559262 87.296875 192.484375 C87.88994446 192.82245178 88.48301392 193.16052856 89.09405518 193.5088501 C90.34551256 194.22338752 91.59604647 194.93954449 92.84570312 195.65722656 C94.72776244 196.73723906 96.61361608 197.81037562 98.5 198.8828125 C99.72419499 199.58291969 100.94816048 200.28342835 102.171875 200.984375 C103.2659668 201.61053711 104.36005859 202.23669922 105.48730469 202.88183594 C106.30854576 203.40002396 106.30854576 203.40002396 107.14637756 203.92868042 C109.03887622 205.08497713 109.03887622 205.08497713 111.39744568 205.93484497 C114.35860971 207.32115642 115.97623421 208.4078619 118 211 C119.29573592 217.17003546 119.04761764 223.24765003 118.87890625 229.5234375 C118.86210964 231.35329047 118.84930343 233.18318405 118.84031677 235.01309204 C118.80603396 239.81789891 118.71770315 244.62023744 118.61798096 249.42407227 C118.52573329 254.33055223 118.48477076 259.23743313 118.43945312 264.14453125 C118.34307438 273.76410244 118.18957369 283.38184559 118 293 C113.87382343 291.67043346 110.32022188 290.19929131 106.5859375 287.98828125 C105.57660156 287.39466797 104.56726563 286.80105469 103.52734375 286.18945312 C101.96693359 285.26036133 101.96693359 285.26036133 100.375 284.3125 C99.35792969 283.71244141 98.34085937 283.11238281 97.29296875 282.49414062 C95.35048892 281.34810215 93.40937517 280.19974205 91.47021484 279.0480957 C86.33017984 276.00368709 81.16189305 273.00712785 76 270 C76.02350572 270.84426953 76.02350572 270.84426953 76.04748631 271.70559502 C76.42382408 285.43590806 76.70356461 299.1653121 76.88080692 312.89968681 C76.96942551 319.54272301 77.08948749 326.18039625 77.2824707 332.82128906 C77.46765637 339.23423745 77.56891644 345.64360866 77.61291313 352.05902481 C77.64424745 354.5019071 77.70544919 356.94460017 77.79741096 359.385952 C78.47112921 378.01827385 78.47112921 378.01827385 74.359869 382.97902298 C70.35322443 386.28720993 65.94706042 388.32634687 61.11557674 390.15370083 C57.9328329 391.42690138 55.13138131 393.14271657 52.19921875 394.9140625 C50.02933027 396.1522419 47.85874663 397.38920377 45.6875 398.625 C43.89999211 399.64348377 42.11264576 400.66225053 40.32533264 401.68107605 C39.09814578 402.38060379 37.87088138 403.0799955 36.64353943 403.7792511 C32.11603878 406.3598926 27.59605779 408.95343366 23.078125 411.55078125 C21.15357226 412.65578732 19.22887284 413.76053735 17.30410767 414.86517334 C16.06641327 415.57620262 14.82924449 416.28814768 13.59262085 417.0010376 C11.87434888 417.99141241 10.15401799 418.97821247 8.43359375 419.96484375 C6.96490845 420.80970337 6.96490845 420.80970337 5.46655273 421.67163086 C3 423 3 423 0 424 C0 284.08 0 144.16 0 0 Z " fill="#FFB300" transform="translate(266,42)"/>
<path d="M0 0 C0 139.92 0 279.84 0 424 C-8.66648665 419.66675667 -17.02987081 415.37650477 -25.3125 410.4375 C-34.85851957 404.80210928 -44.48037032 399.32497703 -54.18676758 393.97045898 C-56.07674401 392.92215838 -57.95312902 391.84880706 -59.81200123 390.74629211 C-62.95722061 388.92419799 -62.95722061 388.92419799 -66.36427593 387.74530029 C-70.29318619 386.02389032 -73.42073799 384.49912124 -76 381 C-78.537983 373.63605739 -77.6982644 365.26972845 -77.56762695 357.6015625 C-77.57382474 355.18659935 -77.58573917 352.77164511 -77.60293579 350.35673523 C-77.62707902 345.16420734 -77.61159131 339.9734177 -77.55968666 334.78115845 C-77.4847137 327.27436057 -77.48178143 319.76887694 -77.49615004 312.26178133 C-77.51751996 300.08121124 -77.48103269 287.9015342 -77.40795898 275.72119141 C-77.33712034 263.89267379 -77.29365582 252.06457514 -77.28686523 240.23583984 C-77.28643682 239.50612772 -77.28600841 238.77641559 -77.28556702 238.02459097 C-77.28358612 234.36365869 -77.28214191 230.70272644 -77.28096449 227.04179382 C-77.2705104 196.6940605 -77.16510867 166.34730915 -77 136 C-80.74748914 138.13984879 -84.49478232 140.28004029 -88.24191284 142.42051697 C-89.51021342 143.14495056 -90.77856275 143.8692988 -92.04696655 144.59355164 C-103.97656017 151.40543418 -115.87908689 158.26346262 -127.7734375 165.13671875 C-131.03524007 167.0203505 -134.29861844 168.90122321 -137.5625 170.78125 C-139.7500331 172.04160923 -141.93753329 173.30202556 -144.125 174.5625 C-145.71453491 175.47829834 -145.71453491 175.47829834 -147.33618164 176.41259766 C-152.8787181 179.60961289 -158.4126055 182.82064781 -163.93359375 186.0546875 C-165.04653809 186.70622803 -166.15948242 187.35776855 -167.30615234 188.02905273 C-169.43917189 189.27915124 -171.57105264 190.53119536 -173.70166016 191.78540039 C-174.64702637 192.3396167 -175.59239258 192.89383301 -176.56640625 193.46484375 C-177.81852905 194.20142212 -177.81852905 194.20142212 -179.09594727 194.95288086 C-181 196 -181 196 -182 196 C-182.30160855 184.14356954 -182.53238921 172.28805528 -182.67355824 160.42856598 C-182.74132631 154.92104848 -182.83317587 149.4161602 -182.98071289 143.91015625 C-183.12229036 138.59309738 -183.19975475 133.27856111 -183.23340416 127.95976257 C-183.25737091 125.93405933 -183.30418084 123.90848991 -183.37449074 121.88386536 C-183.88915638 106.4453532 -183.88915638 106.4453532 -180.75935555 102.39409065 C-177.2700184 99.33452409 -173.28770802 97.72083186 -169 96 C-166.96834325 94.85175792 -164.95090817 93.67750356 -162.95703125 92.46484375 C-160.90995526 91.28714651 -158.86174178 90.11142462 -156.8125 88.9375 C-155.10957218 87.95848887 -153.4066462 86.97947453 -151.7038269 86.00027466 C-149.95604539 84.99552701 -148.20779404 83.99160086 -146.45947266 82.98779297 C-140.96860763 79.8327737 -135.48452655 76.66602037 -130 73.5 C-127.83336859 72.24993888 -125.66670186 70.999939 -123.5 69.75 C-122.4275 69.13125 -121.355 68.5125 -120.25 67.875 C-84.5 47.25 -84.5 47.25 -81.24951172 45.37475586 C-79.08442929 44.12564482 -76.91939018 42.87645871 -74.75439453 41.62719727 C-69.31384294 38.48797691 -63.87252784 35.35009437 -58.4296875 32.21484375 C-45.76768156 24.91917926 -33.12534544 17.59108043 -20.5078125 10.21875 C-19.61739258 9.70054688 -18.72697266 9.18234375 -17.80957031 8.6484375 C-15.78059341 7.45799155 -13.7601156 6.25301894 -11.74511719 5.0390625 C-10.67165039 4.39710937 -9.59818359 3.75515625 -8.4921875 3.09375 C-7.51362793 2.50271484 -6.53506836 1.91167969 -5.52685547 1.30273438 C-3 0 -3 0 0 0 Z " fill="#FF9F00" transform="translate(246,42)"/>
</svg>
