<?xml version="1.0" encoding="UTF-8"?>
<svg version="1.1" xmlns="http://www.w3.org/2000/svg" width="512" height="512">
<path d="M0 0 C0.25515571 10.96117585 0.45045967 21.92164282 0.56993389 32.8851862 C0.62728551 37.97652817 0.7050278 43.06583525 0.82983398 48.15600586 C0.9495873 53.07100238 1.01517002 57.98404574 1.04364967 62.90038872 C1.06393609 64.77331744 1.10355667 66.64614205 1.16303062 68.51823616 C1.61062812 83.19468909 1.61062812 83.19468909 -2.37553406 87.66267395 C-5.19874259 89.48645082 -7.87660628 90.7780548 -11 92 C-12.40147052 92.7712963 -13.79399699 93.55962657 -15.16796875 94.37890625 C-16.50634336 95.10946872 -17.84623147 95.83726428 -19.1875 96.5625 C-26.69282622 100.67737668 -34.1096687 104.9321754 -41.5 109.25 C-42.4902417 109.8282251 -43.4804834 110.4064502 -44.50073242 111.00219727 C-49.11932884 113.70598361 -53.72446645 116.42955679 -58.30859375 119.19140625 C-61.04135116 120.83693175 -63.78019506 122.45841615 -66.56640625 124.01171875 C-68.04947266 124.84123047 -68.04947266 124.84123047 -69.5625 125.6875 C-71.08037109 126.52861328 -71.08037109 126.52861328 -72.62890625 127.38671875 C-75.28459762 128.84302884 -75.28459762 128.84302884 -76 132 C-73.60030318 134.65565787 -71.03555811 136.27998553 -67.93359375 138.046875 C-66.90427734 138.63662109 -65.87496094 139.22636719 -64.81445312 139.83398438 C-63.70005859 140.46626953 -62.58566406 141.09855469 -61.4375 141.75 C-60.26598539 142.41941347 -59.09476624 143.08934426 -57.92382812 143.75976562 C-55.49056166 145.15239997 -53.05603768 146.54279747 -50.62060547 147.93164062 C-45.06842452 151.1002974 -39.53514822 154.30171701 -34 157.5 C-31.85427306 158.7384656 -29.70843909 159.97674579 -27.5625 161.21484375 C-26.49257812 161.83214355 -25.42265625 162.44944336 -24.3203125 163.08544922 C-21.45269016 164.73897086 -18.58437824 166.39128193 -15.71557617 168.04275513 C-13.94954478 169.05947198 -12.18372569 170.07655658 -10.41796875 171.09375 C-8.21265845 172.36400873 -6.00695784 173.63359018 -3.80078125 174.90234375 C-2.79402344 175.48242188 -1.78726563 176.0625 -0.75 176.66015625 C0.70212891 177.48990967 0.70212891 177.48990967 2.18359375 178.33642578 C4.05858789 179.44393359 5.90619087 180.59919759 7.72265625 181.80029297 C12.68147326 185.0577224 12.68147326 185.0577224 18.38671875 186.2890625 C23.92684282 184.31258581 28.7812096 181.39617438 33.8125 178.375 C34.96477605 177.6947446 36.11778589 177.0157308 37.27148438 176.33789062 C39.66513744 174.93023797 42.05556108 173.51732301 44.44384766 172.10058594 C49.93346312 168.85014836 55.46910073 165.67947695 61 162.5 C63.14603133 161.26206193 65.29186364 160.02377877 67.4375 158.78515625 C71.38542992 156.50736716 75.33428819 154.23120557 79.28442383 151.95724487 C81.05045522 150.94052802 82.81627431 149.92344342 84.58203125 148.90625 C86.78734155 147.63599127 88.99304216 146.36640982 91.19921875 145.09765625 C93.18951112 143.95088088 95.17665616 142.79862058 97.16015625 141.64013672 C99.06966822 140.53730819 100.994757 139.46106291 102.93359375 138.41064453 C103.84238281 137.9051709 104.75117188 137.39969727 105.6875 136.87890625 C106.49574219 136.44263916 107.30398438 136.00637207 108.13671875 135.55688477 C110.53869627 133.54988652 110.69707298 132.04948677 111 129 C110.33427979 128.64156006 109.66855957 128.28312012 108.98266602 127.91381836 C102.22448698 124.25424638 95.56306157 120.4561258 88.9375 116.5625 C80.09964581 111.38813517 71.24657954 106.24133872 62.375 101.125 C61.28316406 100.4944873 60.19132813 99.86397461 59.06640625 99.21435547 C54.4842514 96.5710739 49.8996463 93.93415417 45.28515625 91.34765625 C44.28572998 90.78570557 44.28572998 90.78570557 43.26611328 90.21240234 C41.59549455 89.27605289 39.92099031 88.34664456 38.24609375 87.41796875 C36 86 36 86 35 84 C34.90690929 81.34519619 34.8742104 78.7168528 34.88647461 76.06201172 C34.88632858 75.24241974 34.88618256 74.42282776 34.8860321 73.57839966 C34.88673026 70.8621356 34.89451812 68.14593962 34.90234375 65.4296875 C34.90420827 63.54924558 34.90563202 61.66880317 34.90663147 59.7883606 C34.91045393 54.83338078 34.92028192 49.87843017 34.93133545 44.92346191 C34.94155539 39.86955155 34.94613034 34.81563647 34.95117188 29.76171875 C34.96190441 19.84113299 34.9789776 9.92056892 35 0 C39.27793554 1.37699305 42.97006877 2.95388359 46.8671875 5.203125 C48.54772217 6.16810913 48.54772217 6.16810913 50.26220703 7.15258789 C51.46655776 7.85157641 52.67081986 8.55071765 53.875 9.25 C55.13241165 9.97494112 56.39006494 10.69946327 57.64794922 11.42358398 C61.43678802 13.60744493 65.21936085 15.80198083 69 18 C70.60198242 18.93126709 70.60198242 18.93126709 72.23632812 19.88134766 C77.1662965 22.75080539 82.09179218 25.6278425 87.015625 28.5078125 C96.55822933 34.08429156 106.14057793 39.59211491 115.71777344 45.10888672 C121.14659942 48.23680148 126.57319281 51.36858448 132 54.5 C134.16665583 55.75001879 136.3333225 57.00001878 138.5 58.25 C151.5 65.75 164.5 73.25 177.5 80.75 C178.57419189 81.36963623 179.64838379 81.98927246 180.75512695 82.62768555 C182.90501869 83.86818812 185.05459959 85.10922956 187.20385742 86.35083008 C192.26796479 89.27543382 197.33500902 92.19453767 202.4133606 95.09432983 C204.80537117 96.46063872 207.19559708 97.83005286 209.58569336 99.19970703 C211.26828963 100.16221014 212.95344836 101.12022931 214.63867188 102.078125 C215.66154297 102.66464844 216.68441406 103.25117187 217.73828125 103.85546875 C218.63587158 104.36746826 219.53346191 104.87946777 220.45825195 105.40698242 C221.29702881 105.93267822 222.13580566 106.45837402 223 107 C223.86580531 107.51067394 224.73161062 108.02134789 225.62365246 108.5474968 C228.44517595 111.45944266 228.5859878 113.29680301 228.61923343 117.27441049 C228.5915507 118.54094638 228.5915507 118.54094638 228.56330872 119.83306885 C228.56349729 120.73486807 228.56368586 121.63666728 228.56388015 122.56579375 C228.5583948 125.59428107 228.51699612 128.621217 228.47583008 131.64941406 C228.4645602 133.81745406 228.45549893 135.98550651 228.44848633 138.15356445 C228.42314503 144.04601354 228.36681547 149.93781143 228.3050406 155.82997608 C228.24573858 161.98515566 228.2147694 168.14047512 228.18083191 174.2958374 C228.11222583 185.9548451 228.01803289 197.61350098 227.91471261 209.27224708 C227.79833842 222.54403554 227.7103885 235.8159514 227.62486041 249.08797121 C227.44826637 276.39225554 227.235865 303.69616792 227 331 C222.84500704 329.24104975 218.86473891 327.47025971 214.98046875 325.171875 C214.05371338 324.62692383 213.12695801 324.08197266 212.17211914 323.52050781 C211.18719482 322.93624023 210.20227051 322.35197266 209.1875 321.75 C207.04465202 320.48893538 204.90140876 319.22854224 202.7578125 317.96875 C201.64954102 317.31648438 200.54126953 316.66421875 199.39941406 315.9921875 C192.79666738 312.12272377 186.15767408 308.31593316 179.5222168 304.50292969 C177.5407427 303.36241609 175.57030411 302.20246705 173.61262512 301.02157593 C171.04519504 299.52055321 168.45274517 298.31542967 165.7121582 297.1635437 C154.44280795 292.08546175 154.44280795 292.08546175 152.03390312 286.93399048 C150.52459466 280.89551752 150.90088562 274.72467078 151.12109375 268.5546875 C151.13037605 266.57359874 151.13213427 264.59246176 151.12672424 262.61135864 C151.1325912 257.42342124 151.23989989 252.24247024 151.36914062 247.05633545 C151.48307255 241.75412659 151.50002658 236.45167874 151.52539062 231.1484375 C151.58923268 220.76313499 151.76036256 210.38263061 152 200 C148.78342673 198.95804204 148.22520118 198.89808203 144.953125 200.37890625 C143.7113689 201.09410572 142.47757517 201.82322489 141.25 202.5625 C140.5595459 202.96452637 139.8690918 203.36655273 139.15771484 203.78076172 C137.61144168 204.6829507 136.06849207 205.59085202 134.52832031 206.50341797 C131.86718394 208.07861747 129.19657258 209.63666166 126.5234375 211.19140625 C122.48800953 213.53938414 118.45581968 215.89278401 114.42578125 218.25 C107.90019821 222.06283492 101.35884451 225.84794584 94.8125 229.625 C93.19686157 230.55892578 93.19686157 230.55892578 91.54858398 231.51171875 C86.33872653 234.51872413 81.1181499 237.50278981 75.8671875 240.4375 C74.90707764 240.97681152 73.94696777 241.51612305 72.95776367 242.07177734 C71.17022884 243.07400671 69.378966 244.06962927 67.58325195 245.05712891 C66.7862085 245.50491699 65.98916504 245.95270508 65.16796875 246.4140625 C64.47985107 246.7951416 63.7917334 247.1762207 63.08276367 247.56884766 C58.05212979 250.88459582 58.05212979 250.88459582 55.54692936 256.16504288 C55.38359431 258.9185178 55.38191431 261.63191987 55.43237305 264.38989258 C55.43164291 265.43425476 55.43091278 266.47861694 55.43016052 267.55462646 C55.43364006 271.00179226 55.47252088 274.4476019 55.51171875 277.89453125 C55.52104551 280.28634401 55.52816227 282.67816633 55.53315735 285.06999207 C55.55223761 291.36174952 55.60134848 297.65292881 55.65667725 303.94445801 C55.70784684 310.36588723 55.73066658 316.78740999 55.75585938 323.20898438 C55.80946519 335.80623609 55.89382875 348.40308728 56 361 C59.13240104 361.98277327 59.13240104 361.98277327 62.24462891 361.06640625 C63.06366699 360.57011719 63.88270508 360.07382812 64.7265625 359.5625 C65.66242188 359.00498047 66.59828125 358.44746094 67.5625 357.87304688 C68.573125 357.25494141 69.58375 356.63683594 70.625 356 C72.80414976 354.6970169 74.98385629 353.39496462 77.1640625 352.09375 C78.29231445 351.41570312 79.42056641 350.73765625 80.58300781 350.0390625 C87.08670253 346.15803519 93.6658788 342.40725803 100.23974609 338.64672852 C105.79487615 335.45953012 111.30609251 332.21982779 116.765625 328.87109375 C117.85488281 328.21109375 118.94414062 327.55109375 120.06640625 326.87109375 C122.14181838 325.61056736 124.20754517 324.33391121 126.26171875 323.0390625 C127.19113281 322.47832031 128.12054688 321.91757812 129.078125 321.33984375 C129.88668945 320.83831787 130.69525391 320.33679199 131.52832031 319.82006836 C134.99824043 318.66879795 136.69848749 319.54864255 140 321 C141.83663347 321.94451621 143.64650115 322.94246338 145.4296875 323.984375 C146.46037354 324.58290283 147.49105957 325.18143066 148.55297852 325.7980957 C149.64924561 326.44222412 150.7455127 327.08635254 151.875 327.75 C153.03088154 328.42391386 154.18705492 329.09732738 155.34350586 329.77026367 C157.72513293 331.15738277 160.10483182 332.54772388 162.48291016 333.94091797 C165.80136856 335.88486158 169.12468427 337.8203689 172.44921875 339.75390625 C176.4517275 342.08209275 180.45012862 344.41708108 184.4453125 346.7578125 C188.03222096 348.85773915 191.63031221 350.93552059 195.2421875 352.9921875 C196.04068115 353.45069092 196.8391748 353.90919434 197.66186523 354.3815918 C199.13378476 355.22627558 200.60963554 356.06416119 202.09008789 356.89379883 C206.8873807 359.66214209 206.8873807 359.66214209 208 363 C162.5 389.25 117 415.5 71.5 441.75 C70.42596924 442.36963623 69.35193848 442.98927246 68.24536133 443.62768555 C66.09416776 444.86875254 63.94296345 446.10980093 61.79174805 447.35083008 C56.74037001 450.26498344 51.6890969 453.17931818 46.63821411 456.09432983 C44.84933082 457.12673478 43.06041283 458.15907956 41.27148438 459.19140625 C39.02662364 460.48685948 36.7818281 461.7824257 34.53710938 463.078125 C32.55261321 464.22326863 30.56595459 465.36467699 28.57666016 466.50146484 C26.99646745 467.42047402 25.42963386 468.36358369 23.88818359 469.34619141 C19.58027866 472.0584901 19.58027866 472.0584901 16.609375 471.7590332 C13.8129808 470.94559855 11.67480066 469.85902861 9.17578125 468.3671875 C8.24330566 467.81619385 7.31083008 467.2652002 6.35009766 466.69750977 C5.34769043 466.09608154 4.3452832 465.49465332 3.3125 464.875 C1.13974019 463.58913841 -1.03345157 462.30400648 -3.20703125 461.01953125 C-4.32932129 460.3538916 -5.45161133 459.68825195 -6.60791016 459.00244141 C-12.00694148 455.81524874 -17.4405284 452.68875325 -22.875 449.5625 C-25.05994368 448.30346844 -27.24483925 447.04435339 -29.4296875 445.78515625 C-30.51475586 445.16012207 -31.59982422 444.53508789 -32.71777344 443.89111328 C-38.14659942 440.76319852 -43.57319281 437.63141552 -49 434.5 C-51.16665583 433.24998121 -53.3333225 431.99998122 -55.5 430.75 C-77.16666667 418.25 -98.83333333 405.75 -120.5 393.25 C-122.11104614 392.3206665 -122.11104614 392.3206665 -123.75463867 391.37255859 C-125.90611452 390.1311669 -128.05732212 388.88931018 -130.20825195 387.64697266 C-135.25448916 384.73310475 -140.30319261 381.82381662 -145.36178589 378.93145752 C-147.15136127 377.90793591 -148.94006506 376.88290746 -150.72851562 375.85742188 C-152.97158856 374.57186624 -155.2162854 373.28913831 -157.46289062 372.00976562 C-162.85872945 368.91323161 -168.02089345 365.73256926 -173 362 C-170.60030318 359.34434213 -168.03555811 357.72001447 -164.93359375 355.953125 C-163.90355225 355.36297607 -162.87351074 354.77282715 -161.81225586 354.16479492 C-160.14175171 353.21697144 -160.14175171 353.21697144 -158.4375 352.25 C-157.27257374 351.58425458 -156.1079462 350.91798622 -154.94360352 350.2512207 C-152.51696582 348.86218324 -150.08904911 347.47542209 -147.66015625 346.09033203 C-143.01128695 343.43759872 -138.37348889 340.76584441 -133.73754883 338.09057617 C-131.54906873 336.82852081 -129.35881629 335.56953348 -127.16674805 334.3137207 C-122.32949935 331.53650022 -117.52490869 328.73187347 -112.80078125 325.765625 C-111.63301147 325.04209839 -111.63301147 325.04209839 -110.44165039 324.30395508 C-109.03263722 323.4254604 -107.63359768 322.53064892 -106.24780273 321.6159668 C-104.390625 320.46484375 -104.390625 320.46484375 -101 319 C-96.8299318 320.04959456 -93.33612239 321.78550436 -89.640625 323.94921875 C-88.6204126 324.54250977 -87.6002002 325.13580078 -86.54907227 325.74707031 C-85.46037842 326.38741211 -84.37168457 327.02775391 -83.25 327.6875 C-82.09791526 328.35963328 -80.94548362 329.03117225 -79.79272461 329.70214844 C-77.39482094 331.09847149 -74.99843233 332.49734437 -72.60302734 333.89794922 C-65.8579569 337.83796798 -59.08238254 341.7254993 -52.31103516 345.62011719 C-47.28521612 348.5142135 -42.27065421 351.42361515 -37.28515625 354.38671875 C-35.97019165 355.16354004 -35.97019165 355.16354004 -34.62866211 355.95605469 C-33.0092622 356.91427201 -31.39388068 357.8793275 -29.78344727 358.85253906 C-29.07373779 359.27116211 -28.36402832 359.68978516 -27.6328125 360.12109375 C-26.71846436 360.66914673 -26.71846436 360.66914673 -25.78564453 361.22827148 C-23.71225248 362.26447979 -23.71225248 362.26447979 -20 362 C-19.9532779 348.11803205 -19.91814309 334.2360763 -19.89637566 320.35404587 C-19.88592947 313.90836616 -19.87175494 307.46273919 -19.84912109 301.01708984 C-19.82742264 294.79904917 -19.81543767 288.58105931 -19.81024551 282.3629837 C-19.80654438 279.98827566 -19.79931718 277.61357045 -19.78853989 275.23888397 C-19.77406495 271.91798347 -19.7720204 268.59729406 -19.77294922 265.27636719 C-19.76216339 263.79714531 -19.76216339 263.79714531 -19.75115967 262.28804016 C-19.75528366 260.92932045 -19.75528366 260.92932045 -19.75949097 259.54315186 C-19.75764738 258.75778423 -19.75580379 257.97241661 -19.75390434 257.16324997 C-20.0350892 254.69155608 -20.6963596 253.1100738 -22 251 C-24.1699944 249.39713386 -24.1699944 249.39713386 -26.8203125 248.0390625 C-27.81933594 247.4917749 -28.81835938 246.9444873 -29.84765625 246.38061523 C-31.46994141 245.51158569 -31.46994141 245.51158569 -33.125 244.625 C-35.39953357 243.38090807 -37.67294202 242.13475725 -39.9453125 240.88671875 C-40.81860199 240.40915886 -40.81860199 240.40915886 -41.70953369 239.92195129 C-48.87148502 235.99615053 -55.90214722 231.84724148 -62.94189453 227.70751953 C-67.80582987 224.85140588 -72.68959479 222.04878148 -77.62841797 219.32446289 C-82.47792496 216.61614753 -87.26598044 213.80071261 -92.0625 211 C-93.09955078 210.39671875 -94.13660156 209.7934375 -95.20507812 209.171875 C-100.34254397 206.17474844 -105.43025803 203.15281805 -110.37670898 199.84765625 C-112.13799786 198.7685621 -112.13799786 198.7685621 -115 199 C-117.01840466 203.03680931 -116.41366145 208.12375031 -116.5625 212.5625 C-116.63597656 214.4487207 -116.63597656 214.4487207 -116.7109375 216.37304688 C-116.99952218 224.80173543 -116.99263105 233.20369396 -116.82298279 241.63572693 C-116.71947819 246.79031342 -116.64687396 251.94524053 -116.57199097 257.10031128 C-116.52403094 259.69826486 -116.45953693 262.29596627 -116.37844849 264.89309692 C-116.26388136 268.59582039 -116.2050675 272.29590694 -116.15625 276 C-116.10661606 277.12079453 -116.05698212 278.24158905 -116.00584412 279.39634705 C-115.97799512 286.93035428 -115.97799512 286.93035428 -118.88316345 289.97094727 C-121.19043281 291.53545128 -123.48831492 292.7962073 -126 294 C-126.9082251 294.54527344 -127.8164502 295.09054687 -128.75219727 295.65234375 C-129.51588623 296.07644531 -130.2795752 296.50054687 -131.06640625 296.9375 C-132.39454346 297.68036255 -132.39454346 297.68036255 -133.74951172 298.43823242 C-135.14194092 299.21130737 -135.14194092 299.21130737 -136.5625 300 C-144.87623211 304.65744879 -153.14808574 309.37826367 -161.375 314.1875 C-162.36902832 314.76838379 -163.36305664 315.34926758 -164.38720703 315.94775391 C-169.01565059 318.65654533 -173.6383482 321.37477989 -178.25390625 324.10546875 C-179.05070801 324.57637939 -179.84750977 325.04729004 -180.66845703 325.5324707 C-182.14337547 326.40513871 -183.61707931 327.27986396 -185.08935547 328.15698242 C-189.89000927 331 -189.89000927 331 -191 331 C-191 257.74 -191 184.48 -191 109 C-181.76 103.72 -172.52 98.44 -163 93 C-155.40665844 88.62478891 -147.81440303 84.24798229 -140.2265625 79.86328125 C-136.96475993 77.9796495 -133.70138156 76.09877679 -130.4375 74.21875 C-119.98287049 68.19560261 -109.53951558 62.15477555 -99.125 56.0625 C-89.85500223 50.64078822 -80.54168248 45.29795085 -71.21154785 39.98077393 C-62.10114499 34.78751405 -53.02619753 29.53635705 -43.97485352 24.24072266 C-36.31115156 19.7586279 -28.62877938 15.30953178 -20.9375 10.875 C-19.84872559 10.247146 -18.75995117 9.61929199 -17.63818359 8.97241211 C-15.63321178 7.81698062 -13.62741428 6.66298014 -11.62060547 5.51074219 C-10.00039166 4.57671172 -8.38399078 3.63598841 -6.77392578 2.68457031 C-2.20827399 0 -2.20827399 0 0 0 Z " fill="#4C4C4C" transform="translate(240,20)"/>
<path d="M0 0 C0.25515571 10.96117585 0.45045967 21.92164282 0.56993389 32.8851862 C0.62728551 37.97652817 0.7050278 43.06583525 0.82983398 48.15600586 C0.9495873 53.07100238 1.01517002 57.98404574 1.04364967 62.90038872 C1.06393609 64.77331744 1.10355667 66.64614205 1.16303062 68.51823616 C1.61062812 83.19468909 1.61062812 83.19468909 -2.37553406 87.66267395 C-5.19874259 89.48645082 -7.87660628 90.7780548 -11 92 C-12.40147052 92.7712963 -13.79399699 93.55962657 -15.16796875 94.37890625 C-16.50634336 95.10946872 -17.84623147 95.83726428 -19.1875 96.5625 C-26.69282622 100.67737668 -34.1096687 104.9321754 -41.5 109.25 C-42.4902417 109.8282251 -43.4804834 110.4064502 -44.50073242 111.00219727 C-49.11932884 113.70598361 -53.72446645 116.42955679 -58.30859375 119.19140625 C-61.04135116 120.83693175 -63.78019506 122.45841615 -66.56640625 124.01171875 C-68.04947266 124.84123047 -68.04947266 124.84123047 -69.5625 125.6875 C-71.08037109 126.52861328 -71.08037109 126.52861328 -72.62890625 127.38671875 C-75.28459762 128.84302884 -75.28459762 128.84302884 -76 132 C-73.60030318 134.65565787 -71.03555811 136.27998553 -67.93359375 138.046875 C-66.90427734 138.63662109 -65.87496094 139.22636719 -64.81445312 139.83398438 C-63.70005859 140.46626953 -62.58566406 141.09855469 -61.4375 141.75 C-60.26598539 142.41941347 -59.09476624 143.08934426 -57.92382812 143.75976562 C-55.49056166 145.15239997 -53.05603768 146.54279747 -50.62060547 147.93164062 C-45.06842452 151.1002974 -39.53514822 154.30171701 -34 157.5 C-31.85427306 158.7384656 -29.70843909 159.97674579 -27.5625 161.21484375 C-26.49257812 161.83214355 -25.42265625 162.44944336 -24.3203125 163.08544922 C-21.45269016 164.73897086 -18.58437824 166.39128193 -15.71557617 168.04275513 C-13.94954478 169.05947198 -12.18372569 170.07655658 -10.41796875 171.09375 C-8.21265845 172.36400873 -6.00695784 173.63359018 -3.80078125 174.90234375 C-2.79402344 175.48242188 -1.78726563 176.0625 -0.75 176.66015625 C0.70212891 177.48990967 0.70212891 177.48990967 2.18359375 178.33642578 C4.05858789 179.44393359 5.90619087 180.59919759 7.72265625 181.80029297 C12.68147326 185.0577224 12.68147326 185.0577224 18.38671875 186.2890625 C23.92684282 184.31258581 28.7812096 181.39617438 33.8125 178.375 C34.96477605 177.6947446 36.11778589 177.0157308 37.27148438 176.33789062 C39.66513744 174.93023797 42.05556108 173.51732301 44.44384766 172.10058594 C49.93346312 168.85014836 55.46910073 165.67947695 61 162.5 C63.14603133 161.26206193 65.29186364 160.02377877 67.4375 158.78515625 C71.38542992 156.50736716 75.33428819 154.23120557 79.28442383 151.95724487 C81.05045522 150.94052802 82.81627431 149.92344342 84.58203125 148.90625 C86.78734155 147.63599127 88.99304216 146.36640982 91.19921875 145.09765625 C93.18951112 143.95088088 95.17665616 142.79862058 97.16015625 141.64013672 C99.06966822 140.53730819 100.994757 139.46106291 102.93359375 138.41064453 C103.84238281 137.9051709 104.75117188 137.39969727 105.6875 136.87890625 C106.49574219 136.44263916 107.30398438 136.00637207 108.13671875 135.55688477 C110.53869627 133.54988652 110.69707298 132.04948677 111 129 C110.33427979 128.64156006 109.66855957 128.28312012 108.98266602 127.91381836 C102.22448698 124.25424638 95.56306157 120.4561258 88.9375 116.5625 C80.09964581 111.38813517 71.24657954 106.24133872 62.375 101.125 C61.28316406 100.4944873 60.19132813 99.86397461 59.06640625 99.21435547 C54.4842514 96.5710739 49.8996463 93.93415417 45.28515625 91.34765625 C44.28572998 90.78570557 44.28572998 90.78570557 43.26611328 90.21240234 C41.59549455 89.27605289 39.92099031 88.34664456 38.24609375 87.41796875 C36 86 36 86 35 84 C34.90690929 81.34519619 34.8742104 78.7168528 34.88647461 76.06201172 C34.88632858 75.24241974 34.88618256 74.42282776 34.8860321 73.57839966 C34.88673026 70.8621356 34.89451812 68.14593962 34.90234375 65.4296875 C34.90420827 63.54924558 34.90563202 61.66880317 34.90663147 59.7883606 C34.91045393 54.83338078 34.92028192 49.87843017 34.93133545 44.92346191 C34.94155539 39.86955155 34.94613034 34.81563647 34.95117188 29.76171875 C34.96190441 19.84113299 34.9789776 9.92056892 35 0 C39.27793554 1.37699305 42.97006877 2.95388359 46.8671875 5.203125 C48.54772217 6.16810913 48.54772217 6.16810913 50.26220703 7.15258789 C51.46655776 7.85157641 52.67081986 8.55071765 53.875 9.25 C55.13241165 9.97494112 56.39006494 10.69946327 57.64794922 11.42358398 C61.43678802 13.60744493 65.21936085 15.80198083 69 18 C70.60198242 18.93126709 70.60198242 18.93126709 72.23632812 19.88134766 C77.1662965 22.75080539 82.09179218 25.6278425 87.015625 28.5078125 C96.55822933 34.08429156 106.14057793 39.59211491 115.71777344 45.10888672 C121.14659942 48.23680148 126.57319281 51.36858448 132 54.5 C134.16665583 55.75001879 136.3333225 57.00001878 138.5 58.25 C151.5 65.75 164.5 73.25 177.5 80.75 C178.57435303 81.36979736 179.64870605 81.98959473 180.75561523 82.62817383 C182.90364046 83.86746267 185.05159075 85.10688141 187.19946289 86.34643555 C192.28655549 89.28202567 197.37441847 92.21625672 202.4649353 95.14590454 C204.87543748 96.53328095 207.28551376 97.92139624 209.69555664 99.30957031 C211.40143968 100.29173815 213.10793986 101.27283385 214.81445312 102.25390625 C215.84376953 102.846875 216.87308594 103.43984375 217.93359375 104.05078125 C218.84165771 104.57325439 219.74972168 105.09572754 220.68530273 105.6340332 C222.49126201 106.69977966 224.25521129 107.83680752 226 109 C226 109.66 226 110.32 226 111 C115.5 174.75 115.5 174.75 112.24951172 176.62524414 C110.08442929 177.87435518 107.91939018 179.12354129 105.75439453 180.37280273 C100.31384294 183.51202309 94.87252784 186.64990563 89.4296875 189.78515625 C79.96093943 195.24106608 70.49308713 200.69764079 61.0637207 206.22143555 C59.11529094 207.35922011 57.16332507 208.49097213 55.20776367 209.61645508 C50.25793839 212.47063263 45.36280455 215.38080987 40.54437256 218.45069885 C38.05257462 220.0294927 35.53910763 221.57160137 33.02215576 223.1098938 C31.81170704 223.86210036 30.61126226 224.6306819 29.42218018 225.41622925 C25.73509604 227.84705742 22.29082956 229.88632379 18 231 C13.65256044 229.94166101 10.57883984 227.60924155 7 225 C5.11475623 223.92215691 3.21451833 222.87015158 1.30078125 221.84375 C-11.18320857 214.88374137 -23.57912736 207.78964947 -35.91015625 200.5625 C-42.21570419 196.8678669 -48.54294436 193.21147319 -54.875 189.5625 C-56.49523071 188.62869507 -56.49523071 188.62869507 -58.14819336 187.67602539 C-60.33796334 186.41423174 -62.52782355 185.15259466 -64.71777344 183.89111328 C-71.22871257 180.13971976 -77.73663194 176.38309006 -84.24511719 172.62744141 C-89.68585336 169.48817754 -95.12731477 166.35018503 -100.5703125 163.21484375 C-111.02206236 157.1925265 -121.46296702 151.15325836 -131.875 145.0625 C-140.05850549 140.27670484 -148.27012592 135.54212275 -156.5043335 130.8442688 C-158.29252483 129.82389815 -160.08017269 128.80258161 -161.86767578 127.78100586 C-167.23715679 124.7132058 -172.61081506 121.65328507 -177.99609375 118.61328125 C-179.74749494 117.61736176 -181.49880395 116.62128014 -183.25 115.625 C-184.04833252 115.17874268 -184.84666504 114.73248535 -185.66918945 114.27270508 C-187.47956106 113.23823627 -189.24607307 112.12752445 -191 111 C-191 110.34 -191 109.68 -191 109 C-190.2879541 108.59386475 -189.5759082 108.18772949 -188.84228516 107.76928711 C-172.61238092 98.50970237 -156.40519854 89.21224977 -140.2265625 79.86328125 C-136.96475993 77.9796495 -133.70138156 76.09877679 -130.4375 74.21875 C-119.98287049 68.19560261 -109.53951558 62.15477555 -99.125 56.0625 C-89.85500223 50.64078822 -80.54168248 45.29795085 -71.21154785 39.98077393 C-62.10114499 34.78751405 -53.02619753 29.53635705 -43.97485352 24.24072266 C-36.31115156 19.7586279 -28.62877938 15.30953178 -20.9375 10.875 C-19.84872559 10.247146 -18.75995117 9.61929199 -17.63818359 8.97241211 C-15.63321178 7.81698062 -13.62741428 6.66298014 -11.62060547 5.51074219 C-10.00039166 4.57671172 -8.38399078 3.63598841 -6.77392578 2.68457031 C-2.20827399 0 -2.20827399 0 0 0 Z " fill="#808080" transform="translate(240,20)"/>
<path d="M0 0 C0.99 0.495 0.99 0.495 2 1 C1.505 109.9 1.505 109.9 1 221 C-3.34242 219.13896286 -7.04568987 217.52326043 -11.01953125 215.171875 C-11.94628662 214.62692383 -12.87304199 214.08197266 -13.82788086 213.52050781 C-14.81280518 212.93624023 -15.79772949 212.35197266 -16.8125 211.75 C-18.95534798 210.48893538 -21.09859124 209.22854224 -23.2421875 207.96875 C-24.35045898 207.31648437 -25.45873047 206.66421875 -26.60058594 205.9921875 C-33.20333262 202.12272377 -39.84232592 198.31593316 -46.4777832 194.50292969 C-48.4592573 193.36241609 -50.42969589 192.20246705 -52.38737488 191.02157593 C-54.95480496 189.52055321 -57.54725483 188.31542967 -60.2878418 187.1635437 C-71.55719205 182.08546175 -71.55719205 182.08546175 -73.96609688 176.93399048 C-75.47540534 170.89551752 -75.09911438 164.72467078 -74.87890625 158.5546875 C-74.86962395 156.57359874 -74.86786573 154.59246176 -74.87327576 152.61135864 C-74.8674088 147.42342124 -74.76010011 142.24247024 -74.63085938 137.05633545 C-74.51692745 131.75412659 -74.49997342 126.45167874 -74.47460938 121.1484375 C-74.41076732 110.76313499 -74.23963744 100.38263061 -74 90 C-77.21657327 88.95804204 -77.77479882 88.89808203 -81.046875 90.37890625 C-82.2886311 91.09410572 -83.52242483 91.82322489 -84.75 92.5625 C-85.4404541 92.96452637 -86.1309082 93.36655273 -86.84228516 93.78076172 C-88.38855832 94.6829507 -89.93150793 95.59085202 -91.47167969 96.50341797 C-94.13281606 98.07861747 -96.80342742 99.63666166 -99.4765625 101.19140625 C-103.51199047 103.53938414 -107.54418032 105.89278401 -111.57421875 108.25 C-118.09980179 112.06283492 -124.64115549 115.84794584 -131.1875 119.625 C-132.26459229 120.24761719 -133.34168457 120.87023437 -134.45141602 121.51171875 C-139.66127347 124.51872413 -144.8818501 127.50278981 -150.1328125 130.4375 C-151.09292236 130.97681152 -152.05303223 131.51612305 -153.04223633 132.07177734 C-154.82977116 133.07400671 -156.621034 134.06962927 -158.41674805 135.05712891 C-159.2137915 135.50491699 -160.01083496 135.95270508 -160.83203125 136.4140625 C-161.52014893 136.7951416 -162.2082666 137.1762207 -162.91723633 137.56884766 C-167.94787021 140.88459582 -167.94787021 140.88459582 -170.45307064 146.16504288 C-170.61640569 148.9185178 -170.61808569 151.63191987 -170.56762695 154.38989258 C-170.56872215 155.95643585 -170.56872215 155.95643585 -170.56983948 157.55462646 C-170.56635994 161.00179226 -170.52747912 164.4476019 -170.48828125 167.89453125 C-170.47895449 170.28634401 -170.47183773 172.67816633 -170.46684265 175.06999207 C-170.44776239 181.36174952 -170.39865152 187.65292881 -170.34332275 193.94445801 C-170.29215316 200.36588723 -170.26933342 206.78740999 -170.24414062 213.20898438 C-170.19053481 225.80623609 -170.10617125 238.40308728 -170 251 C-166.86759896 251.98277327 -166.86759896 251.98277327 -163.75537109 251.06640625 C-162.93633301 250.57011719 -162.11729492 250.07382812 -161.2734375 249.5625 C-159.86964844 248.7262207 -159.86964844 248.7262207 -158.4375 247.87304688 C-157.426875 247.25494141 -156.41625 246.63683594 -155.375 246 C-153.19585024 244.6970169 -151.01614371 243.39496462 -148.8359375 242.09375 C-147.70768555 241.41570312 -146.57943359 240.73765625 -145.41699219 240.0390625 C-138.91329747 236.15803519 -132.3341212 232.40725803 -125.76025391 228.64672852 C-120.20512385 225.45953012 -114.69390749 222.21982779 -109.234375 218.87109375 C-108.14511719 218.21109375 -107.05585938 217.55109375 -105.93359375 216.87109375 C-103.85818162 215.61056736 -101.79245483 214.33391121 -99.73828125 213.0390625 C-98.80886719 212.47832031 -97.87945312 211.91757812 -96.921875 211.33984375 C-95.70902832 210.58755493 -95.70902832 210.58755493 -94.47167969 209.82006836 C-91.00175957 208.66879795 -89.30151251 209.54864255 -86 211 C-84.16336653 211.94451621 -82.35349885 212.94246338 -80.5703125 213.984375 C-79.53962646 214.58290283 -78.50894043 215.18143066 -77.44702148 215.7980957 C-76.35075439 216.44222412 -75.2544873 217.08635254 -74.125 217.75 C-72.96911846 218.42391386 -71.81294508 219.09732738 -70.65649414 219.77026367 C-68.27486707 221.15738277 -65.89516818 222.54772388 -63.51708984 223.94091797 C-60.19863144 225.88486158 -56.87531573 227.8203689 -53.55078125 229.75390625 C-49.5482725 232.08209275 -45.54987138 234.41708108 -41.5546875 236.7578125 C-37.96777904 238.85773915 -34.36968779 240.93552059 -30.7578125 242.9921875 C-29.56007202 243.67994263 -29.56007202 243.67994263 -28.33813477 244.3815918 C-26.86621524 245.22627558 -25.39036446 246.06416119 -23.90991211 246.89379883 C-19.1126193 249.66214209 -19.1126193 249.66214209 -18 253 C-63.5 279.25 -109 305.5 -154.5 331.75 C-155.5739502 332.36963623 -156.64790039 332.98927246 -157.75439453 333.62768555 C-159.90623914 334.86903475 -162.05825548 336.11008629 -164.21044922 337.35083008 C-169.25552062 340.25980003 -174.29888421 343.17160523 -179.33599854 346.09432983 C-181.11680001 347.1274294 -182.89815858 348.15956171 -184.6796875 349.19140625 C-186.91257083 350.48506088 -189.1444091 351.78052164 -191.375 353.078125 C-192.38820313 353.66464844 -193.40140625 354.25117188 -194.4453125 354.85546875 C-195.32719238 355.36746826 -196.20907227 355.87946777 -197.11767578 356.40698242 C-200.68725998 358.37983833 -204.35208643 360.17604321 -208 362 C-208 282.14 -208 202.28 -208 120 C-199.75 115.38 -191.5 110.76 -183 106 C-176.75850592 102.34802223 -176.75850592 102.34802223 -170.53125 98.671875 C-164.90132145 95.33998092 -159.2308083 92.07852327 -153.5625 88.8125 C-152.45527588 88.17449463 -151.34805176 87.53648926 -150.20727539 86.87915039 C-147.93662932 85.57110523 -145.66587642 84.26324552 -143.39501953 82.95556641 C-137.9283002 79.80667946 -132.46425113 76.65316736 -127 73.5 C-124.83334689 72.2499765 -122.66668021 70.99997653 -120.5 69.75 C-119.4275 69.13125 -118.355 68.5125 -117.25 67.875 C-81.5 47.25 -81.5 47.25 -78.24951172 45.37475586 C-76.08442929 44.12564482 -73.91939018 42.87645871 -71.75439453 41.62719727 C-66.31384294 38.48797691 -60.87252784 35.35009437 -55.4296875 32.21484375 C-42.76768156 24.91917926 -30.12534544 17.59108043 -17.5078125 10.21875 C-16.17411621 9.44337891 -16.17411621 9.44337891 -14.81347656 8.65234375 C-12.76961365 7.45199108 -10.73643639 6.23338557 -8.70996094 5.00390625 C-7.6274707 4.35292969 -6.54498047 3.70195312 -5.4296875 3.03125 C-4.43952637 2.42861328 -3.44936523 1.82597656 -2.42919922 1.20507812 C-1.22674561 0.60856445 -1.22674561 0.60856445 0 0 Z " fill="#000000" transform="translate(466,130)"/>
</svg>
