<?xml version="1.0" encoding="UTF-8"?>
<svg version="1.1" xmlns="http://www.w3.org/2000/svg" width="512" height="512">
<path d="M0 0 C1.9375 1.625 1.9375 1.625 3 4 C2.89198077 6.53845191 2.56059077 8.54267352 2 11 C1.77699219 12.09183594 1.55398438 13.18367188 1.32421875 14.30859375 C-0.13755509 21.15269385 -0.13755509 21.15269385 -1 24 C-1.66 24.33 -2.32 24.66 -3 25 C-2.94070313 25.80566406 -2.88140625 26.61132812 -2.8203125 27.44140625 C-3.04892088 31.96884622 -4.36065424 35.69381015 -5.875 39.9375 C-6.41546868 41.48779174 -6.95455156 43.03856735 -7.4921875 44.58984375 C-7.88349854 45.71749146 -7.88349854 45.71749146 -8.28271484 46.86791992 C-9.29729335 49.88368375 -10.15481827 52.93280822 -11 56 C-11.42911961 57.51708783 -11.85884486 59.03400443 -12.2890625 60.55078125 C-12.73467201 62.13793747 -13.17998068 63.72517819 -13.625 65.3125 C-13.85445313 66.12267578 -14.08390625 66.93285156 -14.3203125 67.76757812 C-14.64515625 68.92870117 -14.64515625 68.92870117 -14.9765625 70.11328125 C-15.17330566 70.81235596 -15.37004883 71.51143066 -15.57275391 72.23168945 C-16.07828493 74.0208114 -16.07828493 74.0208114 -16 76 C-3.6676918 74.44248944 8.52793011 72.14619536 20.74899101 69.89942551 C24.56144693 69.19892959 28.37461304 68.50242654 32.18800354 67.80703735 C43.01990807 65.83145355 53.85076655 63.85019194 64.68041992 61.86230469 C71.3285791 60.64201977 77.97789977 59.42824086 84.62788582 58.2179451 C87.1540404 57.75694452 89.6797764 57.29364397 92.20507622 56.82798386 C95.72873484 56.17836729 99.25370002 55.53634558 102.77905273 54.89599609 C103.81657684 54.70277267 104.85410095 54.50954926 105.92306519 54.31047058 C118.99240573 51.95759528 118.99240573 51.95759528 124.25 54.6875 C128.35333175 58.13802897 129.77470891 60.33847818 130.5 65.6875 C130.13677912 74.64521384 123.01214722 83.66926789 118.6875 91.25 C118.1200708 92.2505542 117.5526416 93.2511084 116.96801758 94.28198242 C114.45453611 98.70995312 111.92999219 103.13099847 109.375 107.53515625 C108.99899658 108.18516602 108.62299316 108.83517578 108.2355957 109.50488281 C107.25893431 111.18929953 106.27618881 112.87018449 105.29296875 114.55078125 C103.84438315 116.83318607 103.84438315 116.83318607 104 119 C103.34 119 102.68 119 102 119 C101.62875 119.99 101.62875 119.99 101.25 121 C99.10092107 126.15778943 96.66068728 131.05493382 93.625 135.75 C90.78513699 140.15486491 88.5756964 144.82854505 86.33203125 149.55859375 C85 152 85 152 83 153 C82.31731363 154.66016913 81.65504717 156.32873239 81 158 C79.65079891 160.55925671 78.19593878 163.05690536 76.75 165.5625 C73.32080868 171.55753654 70.14246612 177.59301331 67.19140625 183.83984375 C66 186 66 186 64 187 C63.31787654 188.9947812 62.65376835 190.99574667 62 193 C61.01021925 194.86185784 59.96507885 196.69503223 58.875 198.5 C58.26269531 199.52867187 57.65039062 200.55734375 57.01953125 201.6171875 C56.01986328 203.29167969 56.01986328 203.29167969 55 205 C53.50910864 207.53497525 52.03315367 210.07824219 50.5625 212.625 C50.20849121 213.22892578 49.85448242 213.83285156 49.48974609 214.45507812 C47.59581383 217.52650402 47.59581383 217.52650402 47 221 C46.34 221 45.68 221 45 221 C44.62875 221.99 44.62875 221.99 44.25 223 C41.73057097 229.04662967 38.68405299 234.60356264 35.1640625 240.12109375 C32.63092906 244.20980913 30.71439151 248.51620683 29 253 C28.34 253 27.68 253 27 253 C26.75765625 253.65742188 26.5153125 254.31484375 26.265625 254.9921875 C24.65001237 258.83176072 22.7170791 262.45583691 20.75 266.125 C20.35031006 266.87330078 19.95062012 267.62160156 19.53881836 268.39257812 C18.7358833 269.89418774 17.93178514 271.39517607 17.12646484 272.89550781 C16.12457283 274.76726967 15.13375664 276.64495056 14.14453125 278.5234375 C13.62246094 279.50570313 13.10039062 280.48796875 12.5625 281.5 C12.11003906 282.3559375 11.65757812 283.211875 11.19140625 284.09375 C10 286 10 286 8 287 C7.29894157 288.65249487 6.64199649 290.32367583 6 292 C3.23570408 297.83573583 0.07003359 303.35994833 -3.20703125 308.921875 C-5.38469712 312.66043863 -7.46026867 316.44707691 -9.515625 320.25390625 C-10.55856941 322.18335341 -11.61156287 324.10738604 -12.671875 326.02734375 C-13.21328125 327.00832031 -13.7546875 327.98929687 -14.3125 329 C-14.80363281 329.886875 -15.29476563 330.77375 -15.80078125 331.6875 C-17.10533842 334.05599647 -17.10533842 334.05599647 -18 337 C-18.66 337 -19.32 337 -20 337 C-20.309375 338.15822266 -20.309375 338.15822266 -20.625 339.33984375 C-22.53159188 344.41506135 -25.25561107 348.89898061 -28 353.5625 C-29.08634623 355.41620636 -30.16978305 357.27162147 -31.25 359.12890625 C-31.72953125 359.94431885 -32.2090625 360.75973145 -32.703125 361.59985352 C-34.00678288 364.01255317 -35.03292421 366.43605173 -36 369 C-36.66 369 -37.32 369 -38 369 C-38.23589844 369.81726563 -38.47179687 370.63453125 -38.71484375 371.4765625 C-40.26297509 375.72098337 -42.33011228 379.45848579 -44.5625 383.375 C-45.00505127 384.16084473 -45.44760254 384.94668945 -45.90356445 385.75634766 C-46.81867981 387.38042869 -47.73592633 389.00331069 -48.65527344 390.625 C-49.91524467 392.85030866 -51.1666302 395.08014394 -52.4140625 397.3125 C-56.44306019 404.51544493 -60.53430001 411.66706624 -64.78515625 418.7421875 C-66.15794241 420.86622328 -66.15794241 420.86622328 -66 423 C-66.66 423 -67.32 423 -68 423 C-68.268125 423.70125 -68.53625 424.4025 -68.8125 425.125 C-72.07535118 433.02453445 -76.58304246 440.28607393 -80.88085938 447.65234375 C-81.40873047 448.56628906 -81.93660156 449.48023438 -82.48046875 450.421875 C-82.96410889 451.25299805 -83.44774902 452.08412109 -83.94604492 452.94042969 C-85.15185055 454.91113983 -85.15185055 454.91113983 -85 457 C-85.66 457 -86.32 457 -87 457 C-87.268125 457.70125 -87.53625 458.4025 -87.8125 459.125 C-90.332426 465.22587347 -93.57691973 470.9202125 -96.875 476.625 C-97.50728516 477.75035156 -97.50728516 477.75035156 -98.15234375 478.8984375 C-100.98667301 483.7870054 -103.62705084 487.87372828 -109.24609375 489.75 C-113.37937582 490.22153307 -115.48136819 490.25442315 -119.3125 488.375 C-125.08539627 483.27337074 -128.24939393 477.09339013 -131.8125 470.375 C-135.54067236 463.43010949 -139.33024558 456.65169391 -143.6640625 450.06640625 C-148 443.35964912 -148 443.35964912 -148 440 C-148.66 439.67 -149.32 439.34 -150 439 C-151.10103609 437.22293916 -152.13403304 435.40320915 -153.125 433.5625 C-153.66382813 432.57378906 -154.20265625 431.58507812 -154.7578125 430.56640625 C-156 428 -156 428 -156 426 C-156.66 425.67 -157.32 425.34 -158 425 C-159.13960951 423.24359153 -160.21222896 421.44343664 -161.25 419.625 C-161.86875 418.54347656 -162.4875 417.46195312 -163.125 416.34765625 C-165.33172425 412.407734 -167.5043356 408.45119522 -169.640625 404.47265625 C-170.57282594 402.77701488 -171.54258549 401.10164326 -172.54296875 399.4453125 C-174.22230824 396.62690359 -175.62613266 393.72904666 -177.03515625 390.76953125 C-177.98814231 388.82364788 -177.98814231 388.82364788 -180 387 C-180.89453978 385.21092044 -181.78547537 383.41996574 -182.66015625 381.62109375 C-184.36100842 378.29377069 -186.2032379 375.05285556 -188.0625 371.8125 C-188.40297363 371.21856445 -188.74344727 370.62462891 -189.09423828 370.01269531 C-190.60809068 367.38279114 -192.14059773 364.77447746 -193.74609375 362.19921875 C-195 360 -195 360 -195 358 C-195.66 357.67 -196.32 357.34 -197 357 C-197.89060133 355.36321917 -198.7109951 353.68810352 -199.5 352 C-201.95880971 346.95825798 -204.62179681 342.12568798 -207.5 337.3125 C-212.5185344 328.91573039 -217.2844629 320.38681384 -222.00195312 311.81762695 C-224.53208714 307.25517949 -227.07833608 302.79260764 -230.046875 298.5 C-232.97718895 294.21801354 -235.20403726 289.70711099 -237.47265625 285.04833984 C-239.91836621 280.16708432 -242.71092299 275.50331122 -245.5 270.8125 C-251.29153296 260.98527358 -256.92341861 251.0786633 -262.46875 241.1105957 C-263.01917969 240.12148193 -263.56960938 239.13236816 -264.13671875 238.11328125 C-264.61842529 237.24485596 -265.10013184 236.37643066 -265.59643555 235.48168945 C-266.58504801 233.73369055 -267.61695977 232.00983206 -268.67895508 230.30541992 C-270 228 -270 228 -270 226 C-270.66 226 -271.32 226 -272 226 C-272.38671875 225.20335937 -272.7734375 224.40671875 -273.171875 223.5859375 C-276.36709269 216.90822182 -276.36709269 216.90822182 -280.25 210.625 C-282.11399427 207.8290086 -282.96576652 205.17657426 -284 202 C-284.66 201.67 -285.32 201.34 -286 201 C-286.97454029 199.40903363 -287.88027783 197.77560175 -288.75 196.125 C-289.21921875 195.24070313 -289.6884375 194.35640625 -290.171875 193.4453125 C-291.07679688 191.73988281 -291.07679688 191.73988281 -292 190 C-295.92866541 182.73038253 -299.93311211 175.50560907 -304 168.3125 C-304.54962402 167.34006348 -305.09924805 166.36762695 -305.66552734 165.36572266 C-312.51196041 153.2875267 -319.43946857 141.24402205 -326.59619141 129.34643555 C-328.05321411 126.91105378 -329.40751057 124.43769801 -330.75 121.9375 C-333.59022055 116.68523286 -336.60491795 111.55155432 -339.6796875 106.43359375 C-341 104 -341 104 -341 102 C-341.66 102 -342.32 102 -343 102 C-343.47050781 101.04738281 -343.94101562 100.09476562 -344.42578125 99.11328125 C-345.05457916 97.84630039 -345.68349148 96.57937631 -346.3125 95.3125 C-346.62123047 94.68666016 -346.92996094 94.06082031 -347.24804688 93.41601562 C-349.0256186 89.8421609 -350.92113193 86.40513327 -353 83 C-360.97597832 69.55316128 -360.97597832 69.55316128 -361.02734375 64.09375 C-359.60979543 59.44605059 -357.20498654 56.52299192 -353 54 C-347.40711234 52.13570411 -341.92381518 53.0359562 -336.21807861 54.05625916 C-335.57309662 54.16989306 -334.92811462 54.28352696 -334.26358771 54.40060431 C-332.12160308 54.77949135 -329.98126246 55.166945 -327.84082031 55.55444336 C-326.29796824 55.82919229 -324.7550223 56.10341457 -323.21199036 56.37715149 C-319.03571947 57.11962558 -314.86082848 57.86960512 -310.68616962 58.62108302 C-306.31476208 59.40678437 -301.94219174 60.18596221 -297.56976318 60.96595764 C-290.23213691 62.27589052 -282.89534153 63.59039413 -275.55908203 64.90795898 C-267.07396914 66.43182804 -258.5878458 67.94995651 -250.1010983 69.46469396 C-241.06463184 71.07755468 -232.02878416 72.69385873 -222.993186 74.31157613 C-220.38852768 74.7777191 -217.78376893 75.24329755 -215.17899323 75.7087841 C-211.09103279 76.43955146 -207.00350229 77.17267864 -202.91629601 77.9076519 C-201.41478624 78.17730661 -199.91313941 78.44619936 -198.41134834 78.71428299 C-196.36517987 79.07968854 -194.31952721 79.44785435 -192.27398682 79.8167572 C-191.12807194 80.02231704 -189.98215706 80.22787687 -188.80151749 80.43966579 C-186 81 -186 81 -183 82 C-183.01160156 80.92363281 -183.02320313 79.84726563 -183.03515625 78.73828125 C-183.0934573 70.8202698 -182.9335994 63.03766007 -182.21875 55.14453125 C-181.90842556 50.68361738 -181.97412091 46.24601164 -182.0625 41.77734375 C-181.95457899 36.9816037 -181.95457899 36.9816037 -181 35 C-175.2319549 31.28653395 -168.58399301 30.50462717 -161.94140625 29.2421875 C-160.59552716 28.9797646 -159.24980272 28.7165475 -157.90422058 28.4526062 C-154.22922828 27.73398306 -150.55222799 27.02615982 -146.87480164 26.32011414 C-142.98006957 25.57038483 -139.08729259 24.81064205 -135.19433594 24.05175781 C-129.32730274 22.90902171 -123.45961404 21.76974586 -117.59116554 20.63430023 C-105.1652954 18.23001683 -92.74429792 15.80118751 -80.32421875 13.3671875 C-76.36321666 12.59122286 -72.4021906 11.81538062 -68.44116211 11.03955078 C-67.4699281 10.84931273 -66.4986941 10.65907467 -65.49802876 10.46307182 C-56.06186647 8.61493151 -46.62544647 6.76811826 -37.18819618 4.92554092 C-35.49651398 4.59514086 -33.80488094 4.26448897 -32.11330223 3.93355942 C-27.07692805 2.94836777 -22.03927763 1.97023827 -17 1 C-15.87501099 0.78218872 -14.75002197 0.56437744 -13.59094238 0.33996582 C-12.60992554 0.1546228 -11.62890869 -0.03072021 -10.61816406 -0.22167969 C-9.79672913 -0.37787781 -8.97529419 -0.53407593 -8.12896729 -0.69500732 C-5.14823204 -1.12202301 -2.84436626 -0.99552819 0 0 Z " fill="#8C72FE" transform="translate(371,6)"/>
<path d="M0 0 C1.9375 1.625 1.9375 1.625 3 4 C2.89198077 6.53845191 2.56059077 8.54267352 2 11 C1.77699219 12.09183594 1.55398438 13.18367188 1.32421875 14.30859375 C-0.13755509 21.15269385 -0.13755509 21.15269385 -1 24 C-1.66 24.33 -2.32 24.66 -3 25 C-2.94070313 25.80566406 -2.88140625 26.61132812 -2.8203125 27.44140625 C-3.04892088 31.96884622 -4.36065424 35.69381015 -5.875 39.9375 C-6.41546868 41.48779174 -6.95455156 43.03856735 -7.4921875 44.58984375 C-7.75346436 45.34305908 -8.01474121 46.09627441 -8.28393555 46.87231445 C-9.29845229 49.88680931 -10.15499632 52.93393922 -11 56 C-11.97454668 59.48047288 -12.95599944 62.95898291 -13.9375 66.4375 C-14.18951172 67.34048828 -14.44152344 68.24347656 -14.70117188 69.17382812 C-15.82155574 73.13098956 -16.96257059 77.02665751 -18.46875 80.85546875 C-20.61349598 86.39343675 -22.03918256 92.14208491 -23.5625 97.875 C-23.86607422 98.99519531 -24.16964844 100.11539063 -24.48242188 101.26953125 C-27.72709923 112.47794093 -27.72709923 112.47794093 -29 124 C-21.70820384 125.22651751 -16.0767363 124.49955988 -8.9375 122.75 C-6.90142296 122.27959656 -4.86496167 121.81085328 -2.828125 121.34375 C-1.83748047 121.11300781 -0.84683594 120.88226563 0.17382812 120.64453125 C26.2180247 114.70494253 26.2180247 114.70494253 31.265625 117.0546875 C33 119 33 119 33.35333061 122.07868576 C32.91198388 126.9768156 31.30144492 130.3545461 29.08108521 134.68634033 C28.4485092 135.96152216 28.4485092 135.96152216 27.80315387 137.26246524 C26.38866518 140.10529689 24.95441274 142.93767371 23.52001953 145.77050781 C22.50057794 147.80905345 21.48236397 149.8482134 20.46528625 151.88793945 C17.69836859 157.42806069 14.91417861 162.95933811 12.12676096 168.48916721 C9.20547382 174.29164106 6.29977716 180.10191194 3.39230347 185.91131592 C-1.49982158 195.68084119 -6.4019694 205.44527735 -11.31152344 215.20605469 C-16.34342249 225.21012441 -21.36847684 235.21758546 -26.38476562 245.22949219 C-26.69274613 245.84417953 -27.00072663 246.45886688 -27.31803988 247.09218112 C-28.55662592 249.56428555 -29.79517993 252.03640603 -31.03368752 254.50854976 C-36.70341066 265.82538532 -42.37836787 277.1395969 -48.0546875 288.453125 C-48.62519758 289.59023957 -49.19570765 290.72735415 -49.78350592 291.89892673 C-53.08525512 298.47886461 -56.38939689 305.05759248 -59.69677162 311.63470459 C-60.6929692 313.61631769 -61.68858381 315.59822401 -62.68352699 317.58046722 C-67.92923663 328.03005632 -73.23476402 338.44128031 -78.7148298 348.7702682 C-81.89080245 354.75803569 -84.90749748 360.81108048 -87.83203125 366.92578125 C-88.82456947 368.97866086 -89.81741623 371.0313913 -90.81054688 373.08398438 C-92.32576026 376.2244601 -93.83823191 379.36618089 -95.34545898 382.51049805 C-96.83348958 385.61093834 -98.33197368 388.70614591 -99.83203125 391.80078125 C-100.2779512 392.73827713 -100.72387115 393.67577301 -101.18330383 394.64167786 C-103.63336023 399.67666012 -106.00923123 404.03189455 -110 408 C-113.6875 408.5 -113.6875 408.5 -117 408 C-119.37015552 405.62984448 -119.3003989 405.15021878 -119.32421875 401.91796875 C-119.16335788 394.24476798 -117.38638899 386.79305259 -115.8125 379.3125 C-115.48757144 377.73338157 -115.16335996 376.15411542 -114.83984375 374.57470703 C-112.74325704 364.38140504 -110.56737803 354.20499345 -108.32421875 344.04296875 C-106.77361228 337.00391963 -105.27750828 329.95337194 -103.78222656 322.90240479 C-103.47375698 321.44787613 -103.1650093 319.99340642 -102.85595703 318.53900146 C-101.48966676 312.10879499 -100.12667241 305.67775937 -98.8046875 299.23828125 C-98.65112793 298.49231689 -98.49756836 297.74635254 -98.33935547 296.9777832 C-97.73077259 293.43092715 -97.37195526 290.25608948 -99 287 C-102.6521079 285.88027222 -105.14025627 286.0280732 -108.765625 287.109375 C-109.65636719 287.36976563 -110.54710937 287.63015625 -111.46484375 287.8984375 C-112.38394531 288.17945313 -113.30304688 288.46046875 -114.25 288.75 C-115.15363281 289.01554687 -116.05726563 289.28109375 -116.98828125 289.5546875 C-122.06740024 291.06015299 -127.08695112 292.68129749 -132.07348633 294.47021484 C-134.99518468 295.27367263 -137.16394889 294.9684077 -140 294 C-143.2754107 289.08688395 -142.1559698 284.42416852 -141.1171875 278.8671875 C-140.71018341 276.86834145 -140.29566987 274.87101471 -139.875 272.875 C-139.65416748 271.80056641 -139.43333496 270.72613281 -139.20581055 269.61914062 C-138.72896234 267.30373157 -138.24895051 264.98897225 -137.76611328 262.67480469 C-136.97085804 258.86021516 -136.18552636 255.04364281 -135.40234375 251.2265625 C-131.29547111 231.25211376 -131.29547111 231.25211376 -129.83984375 224.90234375 C-129.02242907 221.10421693 -128.68415348 217.86911987 -129 214 C-130.74333102 211.81122486 -130.74333102 211.81122486 -132.8137207 211.90258789 C-140.33158985 212.7446467 -147.66935301 214.30230627 -155.04174805 215.95629883 C-157.19252855 216.43862769 -159.3450616 216.91238583 -161.49804688 217.38476562 C-169.1533079 219.06702603 -169.1533079 219.06702603 -176.72387695 221.09008789 C-180.33159061 222.09209615 -183.27261462 222.28672195 -187 222 C-187.99 221.34 -188.98 220.68 -190 220 C-190.27299832 216.9901838 -190.34221705 214.20782915 -190.2734375 211.19921875 C-190.25668472 209.81364021 -190.25668472 209.81364021 -190.23959351 208.40007019 C-190.04780405 196.80299873 -189.44477941 185.21727401 -188.828125 173.63647461 C-188.62621817 169.83543301 -188.43355481 166.03400713 -188.2421875 162.23242188 C-187.57572654 149.2566774 -186.74819948 136.30881508 -185.70561218 123.35800171 C-184.85262883 112.5610268 -184.3692007 101.75823336 -183.9375 90.9375 C-183.78203131 87.15485953 -183.62387934 83.37233578 -183.46484375 79.58984375 C-183.42741058 78.68682022 -183.38997742 77.78379669 -183.35140991 76.85340881 C-183.05159575 69.78313365 -182.64575378 62.72316985 -182.18579102 55.66162109 C-181.94823145 50.97973104 -181.96651011 46.3222253 -182.0625 41.63671875 C-181.95245518 36.99420304 -181.95245518 36.99420304 -181 35 C-175.23362881 31.28509602 -168.58308437 30.50445448 -161.94140625 29.2421875 C-160.59552716 28.9797646 -159.24980272 28.7165475 -157.90422058 28.4526062 C-154.22922828 27.73398306 -150.55222799 27.02615982 -146.87480164 26.32011414 C-142.98006957 25.57038483 -139.08729259 24.81064205 -135.19433594 24.05175781 C-129.32730274 22.90902171 -123.45961404 21.76974586 -117.59116554 20.63430023 C-105.1652954 18.23001683 -92.74429792 15.80118751 -80.32421875 13.3671875 C-76.36321666 12.59122286 -72.4021906 11.81538062 -68.44116211 11.03955078 C-67.4699281 10.84931273 -66.4986941 10.65907467 -65.49802876 10.46307182 C-56.06186647 8.61493151 -46.62544647 6.76811826 -37.18819618 4.92554092 C-35.49651398 4.59514086 -33.80488094 4.26448897 -32.11330223 3.93355942 C-27.07692805 2.94836777 -22.03927763 1.97023827 -17 1 C-15.87501099 0.78218872 -14.75002197 0.56437744 -13.59094238 0.33996582 C-12.60992554 0.1546228 -11.62890869 -0.03072021 -10.61816406 -0.22167969 C-9.79672913 -0.37787781 -8.97529419 -0.53407593 -8.12896729 -0.69500732 C-5.14823204 -1.12202301 -2.84436626 -0.99552819 0 0 Z " fill="#FEC821" transform="translate(371,6)"/>
<path d="M0 0 C1.9375 1.625 1.9375 1.625 3 4 C2.6875 7.75 2.6875 7.75 2 11 C-1.4245628 11.78275721 -4.49994067 12 -8 12 C-9.66842534 12.32441604 -11.33480481 12.65939189 -13 13 C-14.49872484 13.17776846 -15.99891256 13.34342962 -17.5 13.5 C-19.87388742 13.74988289 -22.15790091 14.03158018 -24.5 14.5 C-27.56203228 15.11240646 -30.62299467 15.42005259 -33.7265625 15.75 C-37.63696432 16.18000982 -41.52439002 16.68934527 -45.375 17.5 C-47.72327699 17.94729086 -49.99813898 18.20864683 -52.375 18.4375 C-55.1956287 18.72833406 -57.45643046 19.14319387 -60.1875 20 C-65.10923397 21.29094662 -69.91864375 21.48991875 -74.98828125 21.75390625 C-77.92098318 21.8051227 -77.92098318 21.8051227 -80 23 C-80.66 22.67 -81.32 22.34 -82 22 C-82.33 22.66 -82.66 23.32 -83 24 C-83.56847656 23.97679688 -84.13695312 23.95359375 -84.72265625 23.9296875 C-89.93908903 23.80776754 -93.96153336 24.54823843 -99 26 C-102.01807375 26.34277292 -105.03286098 26.56929447 -108.0625 26.78515625 C-112.55909898 27.11402985 -117.0165578 27.59314006 -121.4375 28.5 C-123.7036292 28.94217155 -125.89279597 29.20883194 -128.1875 29.4375 C-134.10562967 30.06458659 -139.86632148 31.32849746 -145.6796875 32.57421875 C-146.54851562 32.75597656 -147.41734375 32.93773437 -148.3125 33.125 C-149.48232422 33.37636719 -149.48232422 33.37636719 -150.67578125 33.6328125 C-153.15370555 34.02428289 -155.49525291 34.02917343 -158 34 C-159.66842534 34.32441604 -161.33480481 34.65939189 -163 35 C-164.49872484 35.17776846 -165.99891256 35.34342962 -167.5 35.5 C-171.82843801 35.96016617 -175.86020935 36.62006978 -180 38 C-180.495 36.515 -180.495 36.515 -181 35 C-175.09730921 31.41153354 -168.65537664 30.5181938 -161.94140625 29.2421875 C-160.59552716 28.9797646 -159.24980272 28.7165475 -157.90422058 28.4526062 C-154.22922828 27.73398306 -150.55222799 27.02615982 -146.87480164 26.32011414 C-142.98006957 25.57038483 -139.08729259 24.81064205 -135.19433594 24.05175781 C-129.32730274 22.90902171 -123.45961404 21.76974586 -117.59116554 20.63430023 C-105.1652954 18.23001683 -92.74429792 15.80118751 -80.32421875 13.3671875 C-76.36321666 12.59122286 -72.4021906 11.81538062 -68.44116211 11.03955078 C-67.4699281 10.84931273 -66.4986941 10.65907467 -65.49802876 10.46307182 C-56.06186647 8.61493151 -46.62544647 6.76811826 -37.18819618 4.92554092 C-35.49651398 4.59514086 -33.80488094 4.26448897 -32.11330223 3.93355942 C-27.07692805 2.94836777 -22.03927763 1.97023827 -17 1 C-15.87501099 0.78218872 -14.75002197 0.56437744 -13.59094238 0.33996582 C-12.60992554 0.1546228 -11.62890869 -0.03072021 -10.61816406 -0.22167969 C-9.79672913 -0.37787781 -8.97529419 -0.53407593 -8.12896729 -0.69500732 C-5.14823204 -1.12202301 -2.84436626 -0.99552819 0 0 Z " fill="#FDE259" transform="translate(371,6)"/>
<path d="M0 0 C0.66 0.33 1.32 0.66 2 1 C0.75023244 4.65316671 0.32901247 5.78065836 -3 8 C-5.6875 7.625 -5.6875 7.625 -8 7 C-5.42215154 4.35247996 -3.08351902 2.05567935 0 0 Z " fill="#9E5BFF" transform="translate(382,215)"/>
<path d="M0 0 C0.66 0.33 1.32 0.66 2 1 C1.67 2.98 1.34 4.96 1 7 C-0.98 7.66 -2.96 8.32 -5 9 C-4.42647107 5.12867972 -2.51295648 2.91827204 0 0 Z " fill="#9E5AFF" transform="translate(230,327)"/>
<path d="M0 0 C0.93065133 2.60582371 1.14917407 3.64198224 0.0625 6.25 C-0.4634375 7.11625 -0.4634375 7.11625 -1 8 C-2.32 7.67 -3.64 7.34 -5 7 C-3.70700306 4.11562221 -2.34058637 2.12780579 0 0 Z " fill="#9E5AFF" transform="translate(199,350)"/>
<path d="" fill="#B89AC2" transform="translate(0,0)"/>
<path d="" fill="#B89AC2" transform="translate(0,0)"/>
</svg>
