<?xml version="1.0" encoding="UTF-8"?>
<svg version="1.1" xmlns="http://www.w3.org/2000/svg" width="512" height="512">
<path d="M0 0 C16.6390548 -1.0885363 33.53945637 10.75969787 48.09802246 17.87139893 C52.89370096 20.21105161 57.713151 22.49478179 62.55078125 24.74609375 C68.23871437 27.39890112 73.84958901 30.17721402 79.4440918 33.02099609 C85.11214913 35.87108642 90.86839873 38.51853763 96.63525391 41.16137695 C128.64785387 55.83263785 128.64785387 55.83263785 135.92578125 65.74609375 C136.51939453 66.53113281 136.51939453 66.53113281 137.125 67.33203125 C141.15651087 74.71606169 140.53590487 82.69469975 140.53262329 90.87504578 C140.53922806 92.36571646 140.54668077 93.85638358 140.55490625 95.3470462 C140.5748765 99.4354387 140.58236847 103.52377248 140.58768487 107.61220682 C140.59551148 112.02478599 140.61466629 116.43731912 140.6321106 120.84986877 C140.67157582 131.50040124 140.69176113 142.15093734 140.70956618 152.80152461 C140.71834022 157.82030513 140.72907148 162.83908145 140.73954391 167.85785866 C140.77355782 184.54559166 140.80254682 201.23332207 140.8170414 217.9210844 C140.82086099 222.24841503 140.82470169 226.57574563 140.82861328 230.90307617 C140.82958076 231.97857248 140.83054824 233.05406879 140.83154504 234.1621559 C140.84814854 251.58749086 140.89883179 269.01255136 140.96377464 286.43776646 C141.02994093 304.33744795 141.06594093 322.23698997 141.07232988 340.13679439 C141.07665719 350.18315817 141.09411185 360.22912138 141.14525223 370.27536583 C141.1887005 378.8300886 141.20475059 387.38431343 141.18531866 395.93913402 C141.17623923 400.30145771 141.17995843 404.6627544 141.21884155 409.02493668 C141.25418484 413.02463361 141.2520519 417.02255757 141.22104697 421.02227435 C141.21630635 422.4630714 141.22488349 423.90399248 141.24870427 425.3446004 C141.42932455 436.9969195 138.09247664 444.20953899 130.09366953 452.62830275 C128.27502478 454.33658006 126.67637824 455.40336037 124.453125 456.51171875 C123.75767578 456.85976563 123.06222656 457.2078125 122.34570312 457.56640625 C121.62962891 457.91445313 120.91355469 458.2625 120.17578125 458.62109375 C119.45583984 458.98460937 118.73589844 459.348125 117.99414062 459.72265625 C112.63254817 462.37109375 112.63254817 462.37109375 109.23828125 462.37109375 C109.23828125 463.03109375 109.23828125 463.69109375 109.23828125 464.37109375 C107.91828125 464.37109375 106.59828125 464.37109375 105.23828125 464.37109375 C105.23828125 465.03109375 105.23828125 465.69109375 105.23828125 466.37109375 C104.34625 466.70882813 103.45421875 467.0465625 102.53515625 467.39453125 C101.3646875 467.84054687 100.19421875 468.2865625 98.98828125 468.74609375 C97.828125 469.18695313 96.66796875 469.6278125 95.47265625 470.08203125 C91.8564898 471.52325701 88.64118011 473.1310689 85.30078125 475.12109375 C78.47792761 479.04312458 71.07604603 483.16192186 63.23828125 484.37109375 C63.23828125 485.03109375 63.23828125 485.69109375 63.23828125 486.37109375 C60.59828125 487.03109375 57.95828125 487.69109375 55.23828125 488.37109375 C55.23828125 489.03109375 55.23828125 489.69109375 55.23828125 490.37109375 C54.24957031 490.78101563 53.26085937 491.1909375 52.2421875 491.61328125 C47.40387503 493.68493102 42.7635848 496.12996851 38.11132812 498.5859375 C34.14035812 500.62291923 30.7462952 501.90693007 26.23828125 502.37109375 C26.23828125 503.03109375 26.23828125 503.69109375 26.23828125 504.37109375 C14.78158029 509.11974646 3.47036201 513.2497033 -8.88671875 508.93359375 C-17.50945789 504.97217301 -24.34986715 497.97526576 -30.88671875 491.25390625 C-33.29156086 488.83904396 -35.84690902 486.63905636 -38.4296875 484.41796875 C-41.42441817 481.78942793 -44.34150537 479.08185792 -47.26171875 476.37109375 C-50.68127305 473.19873032 -54.10013345 470.03848372 -57.63671875 466.99609375 C-61.56675342 463.59894514 -65.34632868 460.04707603 -69.13671875 456.49609375 C-77.62007769 448.55584491 -86.12926668 440.76182361 -95.21875 433.51171875 C-98.6443549 430.62810664 -101.71427427 427.45424657 -104.82421875 424.23828125 C-108.78097351 420.12463308 -108.78097351 420.12463308 -113.38671875 416.80859375 C-116.30296449 415.04349764 -117.96072817 412.86727314 -120.109375 410.25390625 C-123.01238007 406.94599031 -126.41939578 404.22136917 -129.76171875 401.37109375 C-136.41285443 395.4969049 -142.89890582 389.45152249 -149.37329102 383.38452148 C-152.46182443 380.49628308 -155.55551904 377.62926556 -158.76171875 374.87109375 C-162.60967639 371.55850413 -166.30581247 368.09054109 -170.01171875 364.62109375 C-170.65947266 364.01531494 -171.30722656 363.40953613 -171.97460938 362.78540039 C-177.04491424 358.0430477 -177.04491424 358.0430477 -179.50195312 355.73974609 C-186.32660993 349.25011167 -186.32660993 349.25011167 -193.76171875 343.49609375 C-196.79707211 341.34605178 -198.47953339 339.27569329 -200.76171875 336.37109375 C-202.59830597 334.66192526 -204.49460412 333.03878217 -206.40625 331.4140625 C-210.12140555 328.19179657 -213.67334932 324.7889517 -217.24609375 321.41015625 C-219.57835003 319.51972492 -220.83664829 318.7401447 -223.76171875 318.37109375 C-223.76171875 319.03109375 -223.76171875 319.69109375 -223.76171875 320.37109375 C-224.42171875 320.37109375 -225.08171875 320.37109375 -225.76171875 320.37109375 C-225.76171875 321.03109375 -225.76171875 321.69109375 -225.76171875 322.37109375 C-227.74609375 323.78125 -227.74609375 323.78125 -230.51171875 325.43359375 C-236.89382993 329.38364722 -242.8165761 333.79733687 -248.76171875 338.37109375 C-249.93094277 339.26829018 -251.10021478 340.16542406 -252.26953125 341.0625 C-254.49855782 342.77417301 -256.72489448 344.4892536 -258.94921875 346.20703125 C-259.87734375 346.92117188 -260.80546875 347.6353125 -261.76171875 348.37109375 C-262.50421875 348.96148437 -263.24671875 349.551875 -264.01171875 350.16015625 C-265.76171875 351.37109375 -265.76171875 351.37109375 -267.76171875 351.37109375 C-267.76171875 352.03109375 -267.76171875 352.69109375 -267.76171875 353.37109375 C-269.60546875 354.89453125 -269.60546875 354.89453125 -272.26171875 356.74609375 C-273.26847656 357.46023438 -274.27523437 358.174375 -275.3125 358.91015625 C-276.14515381 359.50038574 -276.14515381 359.50038574 -276.99462891 360.10253906 C-280.18361651 362.39184268 -283.31295022 364.76038339 -286.44921875 367.12109375 C-287.12218994 367.62423096 -287.79516113 368.12736816 -288.48852539 368.64575195 C-292.02990871 371.29667305 -295.54507716 373.97492393 -299.02734375 376.703125 C-299.72641846 377.24420898 -300.42549316 377.78529297 -301.14575195 378.34277344 C-302.46983502 379.36854032 -303.78671258 380.4037099 -305.09448242 381.45019531 C-310.74907692 385.80321121 -317.43255254 389.15887582 -324.76171875 388.43359375 C-334.05227476 387.03501543 -340.32247411 380.10696339 -346.87402344 373.91259766 C-350.94154562 370.07104893 -355.16963795 366.5577044 -359.640625 363.1875 C-362.0378992 361.13458563 -363.84139734 358.86833575 -365.76171875 356.37109375 C-366.53515625 355.65953125 -366.53515625 355.65953125 -367.32421875 354.93359375 C-372.1107927 349.73079597 -372.27942143 344.34551051 -372.1171875 337.5703125 C-371.48375699 331.86943791 -369.29245261 328.17195712 -365.63671875 323.87109375 C-363.76171875 322.37109375 -363.76171875 322.37109375 -361.76171875 322.37109375 C-361.76171875 321.71109375 -361.76171875 321.05109375 -361.76171875 320.37109375 C-361.10171875 320.37109375 -360.44171875 320.37109375 -359.76171875 320.37109375 C-359.76171875 319.71109375 -359.76171875 319.05109375 -359.76171875 318.37109375 C-358.16496697 316.9593861 -356.50658273 315.61709907 -354.82421875 314.30859375 C-350.19186692 310.6086512 -345.99948457 306.71898099 -341.86328125 302.48046875 C-339.34165715 299.94947058 -336.6847644 297.62822605 -333.9765625 295.30078125 C-331.28051758 292.95184617 -328.64411203 290.54070015 -326.01171875 288.12109375 C-325.50874268 287.66001221 -325.0057666 287.19893066 -324.48754883 286.72387695 C-321.7768923 284.23579131 -319.07915713 281.73490746 -316.39453125 279.21875 C-315.84893555 278.71053711 -315.30333984 278.20232422 -314.74121094 277.67871094 C-313.68853712 276.69779577 -312.63956605 275.71288869 -311.59472656 274.72363281 C-307.98675595 271.37109375 -307.98675595 271.37109375 -305.76171875 271.37109375 C-305.76171875 270.71109375 -305.76171875 270.05109375 -305.76171875 269.37109375 C-304.1875 267.78515625 -304.1875 267.78515625 -302.07421875 265.99609375 C-301.3471875 265.37605469 -300.62015625 264.75601562 -299.87109375 264.1171875 C-298.2081354 262.74062753 -296.52045701 261.39393026 -294.82421875 260.05859375 C-292.67191 258.53235617 -292.67191 258.53235617 -291.76171875 256.37109375 C-291.10171875 256.37109375 -290.44171875 256.37109375 -289.76171875 256.37109375 C-292.55644977 252.5283386 -295.69648247 249.58901511 -299.28515625 246.53125 C-301.2011729 244.86002412 -303.07035851 243.16631457 -304.92578125 241.4296875 C-305.48595947 240.90576416 -306.0461377 240.38184082 -306.62329102 239.84204102 C-307.72826204 238.80526829 -308.83047954 237.76555024 -309.92944336 236.72241211 C-312.71628492 234.11486865 -315.51446668 231.79093707 -318.6640625 229.62890625 C-319.68628906 228.88382813 -320.70851563 228.13875 -321.76171875 227.37109375 C-321.76171875 226.71109375 -321.76171875 226.05109375 -321.76171875 225.37109375 C-322.42171875 225.37109375 -323.08171875 225.37109375 -323.76171875 225.37109375 C-324.92589346 223.96723601 -326.08604936 222.55986635 -327.2265625 221.13671875 C-329.44136223 218.58941728 -331.9569017 216.47766589 -334.5234375 214.29296875 C-336.98354766 212.18062285 -339.3701407 209.99811835 -341.76171875 207.80859375 C-345.46400085 204.45017686 -349.25718112 201.41080266 -353.36328125 198.5625 C-354.05550781 197.97275391 -354.05550781 197.97275391 -354.76171875 197.37109375 C-354.76171875 196.71109375 -354.76171875 196.05109375 -354.76171875 195.37109375 C-355.42171875 195.37109375 -356.08171875 195.37109375 -356.76171875 195.37109375 C-359.38671875 192.99609375 -359.38671875 192.99609375 -361.76171875 190.37109375 C-361.76171875 189.71109375 -361.76171875 189.05109375 -361.76171875 188.37109375 C-362.31859375 188.18546875 -362.87546875 187.99984375 -363.44921875 187.80859375 C-367.64428815 185.20084791 -370.21879891 180.99985326 -371.76171875 176.37109375 C-372.42139306 169.48220921 -372.84070884 163.13153356 -368.57421875 157.3984375 C-361.2058729 149.15668859 -353.10681865 141.7627495 -344.57421875 134.74609375 C-341.7342177 132.43533163 -341.7342177 132.43533163 -339.32421875 129.80859375 C-333.86117367 124.61203868 -329.05309557 122.58973105 -321.5703125 122.234375 C-311.77269456 122.7113105 -305.15914516 128.97275803 -297.9609375 134.94921875 C-293.48393471 138.64710122 -288.82810203 142.07676033 -284.13671875 145.49609375 C-277.17420805 150.58628625 -270.29467738 155.7569703 -263.47949219 161.04345703 C-259.35864785 164.22838476 -255.21309264 167.38127432 -251.07348633 170.54174805 C-247.75500892 173.07684718 -244.43997986 175.61582638 -241.140625 178.17578125 C-234.8014782 183.09148064 -228.39099763 187.85181108 -221.76171875 192.37109375 C-219.42489397 190.37505592 -217.09163297 188.37517706 -214.76171875 186.37109375 C-214.17132813 185.86449219 -213.5809375 185.35789063 -212.97265625 184.8359375 C-207.00458242 179.66783952 -201.23254382 174.29081758 -195.44189453 168.92626953 C-188.82834063 162.80474405 -182.21557916 156.68624249 -175.3828125 150.80859375 C-173.72022812 149.3775564 -173.72022812 149.3775564 -172.171875 147.68359375 C-170.76171875 146.37109375 -170.76171875 146.37109375 -168.76171875 146.37109375 C-168.76171875 145.71109375 -168.76171875 145.05109375 -168.76171875 144.37109375 C-167.43359375 143.03125 -167.43359375 143.03125 -165.51171875 141.43359375 C-161.89800926 138.36257915 -158.37190701 135.21151852 -154.88671875 131.99609375 C-150.25594144 127.73138579 -145.58385784 123.51634893 -140.890625 119.3203125 C-139.11763114 117.69696583 -137.42625475 116.04106999 -135.76171875 114.30859375 C-133.76171875 112.37109375 -133.76171875 112.37109375 -131.76171875 112.37109375 C-131.76171875 111.71109375 -131.76171875 111.05109375 -131.76171875 110.37109375 C-130.16496697 108.9593861 -128.50658273 107.61709907 -126.82421875 106.30859375 C-122.20599265 102.61993368 -118.02482665 98.74222751 -113.8984375 94.51953125 C-105.31475592 85.88877281 -105.31475592 85.88877281 -100.76171875 84.37109375 C-100.76171875 83.71109375 -100.76171875 83.05109375 -100.76171875 82.37109375 C-100.10171875 82.37109375 -99.44171875 82.37109375 -98.76171875 82.37109375 C-98.76171875 81.71109375 -98.76171875 81.05109375 -98.76171875 80.37109375 C-97.14453564 78.93822195 -95.46548503 77.57484626 -93.76171875 76.24609375 C-89.43848834 72.79193783 -85.49017794 69.21613243 -81.63671875 65.25390625 C-79.22676061 62.83390662 -76.66499359 60.62978441 -74.078125 58.40234375 C-71.17621413 55.85766642 -68.34352999 53.24326444 -65.51171875 50.62109375 C-64.96193359 50.11320312 -64.41214844 49.6053125 -63.84570312 49.08203125 C-60.99721441 46.44858524 -58.15758416 43.80622595 -55.328125 41.15234375 C-54.24352823 40.1418856 -53.15889428 39.13146735 -52.07421875 38.12109375 C-51.56922852 37.64317383 -51.06423828 37.16525391 -50.54394531 36.67285156 C-46.98764131 33.37109375 -46.98764131 33.37109375 -44.76171875 33.37109375 C-44.76171875 32.71109375 -44.76171875 32.05109375 -44.76171875 31.37109375 C-43.43359375 30.03125 -43.43359375 30.03125 -41.51171875 28.43359375 C-38.45064671 25.83599388 -35.4564623 23.18879972 -32.51611328 20.45483398 C-30.46886876 18.55477046 -28.40414595 16.67446079 -26.33496094 14.79833984 C-25.29106144 13.8513137 -24.25000873 12.90113952 -23.21191406 11.94775391 C-15.85827704 5.24159224 -9.93377605 1.33480725 0 0 Z M5.23828125 144.37109375 C5.23828125 145.03109375 5.23828125 145.69109375 5.23828125 146.37109375 C4.19027344 146.72300781 4.19027344 146.72300781 3.12109375 147.08203125 C-0.28444805 148.6048345 -2.99902194 150.68071364 -5.88671875 152.99609375 C-7.02750477 153.89597966 -8.16945366 154.79439317 -9.3125 155.69140625 C-9.88436035 156.14032227 -10.4562207 156.58923828 -11.04541016 157.05175781 C-14.54875816 159.74480086 -18.18646944 162.25308852 -21.8125 164.77734375 C-22.45574219 165.30328125 -23.09898437 165.82921875 -23.76171875 166.37109375 C-23.76171875 167.03109375 -23.76171875 167.69109375 -23.76171875 168.37109375 C-24.33921875 168.47421875 -24.91671875 168.57734375 -25.51171875 168.68359375 C-28.11833033 169.4800584 -29.73524985 170.56174652 -31.76171875 172.37109375 C-31.76171875 173.03109375 -31.76171875 173.69109375 -31.76171875 174.37109375 C-32.3340625 174.64953125 -32.90640625 174.92796875 -33.49609375 175.21484375 C-35.72789441 176.35383167 -37.87042749 177.57045758 -40.01171875 178.87109375 C-41.07132813 179.5053125 -41.07132813 179.5053125 -42.15234375 180.15234375 C-42.6834375 180.55453125 -43.21453125 180.95671875 -43.76171875 181.37109375 C-43.76171875 182.03109375 -43.76171875 182.69109375 -43.76171875 183.37109375 C-45.41171875 184.03109375 -47.06171875 184.69109375 -48.76171875 185.37109375 C-48.76171875 186.03109375 -48.76171875 186.69109375 -48.76171875 187.37109375 C-49.44234375 187.59796875 -50.12296875 187.82484375 -50.82421875 188.05859375 C-54.46058965 189.68335521 -57.79001138 191.69912632 -60.76171875 194.37109375 C-60.76171875 195.03109375 -60.76171875 195.69109375 -60.76171875 196.37109375 C-61.3347876 196.64518066 -61.90785645 196.91926758 -62.49829102 197.20166016 C-69.66124725 200.902508 -76.02677608 206.00832743 -82.32421875 210.99609375 C-87.00429935 214.67971912 -91.69105803 218.34319718 -96.484375 221.87890625 C-97.59607056 222.6994751 -97.59607056 222.6994751 -98.73022461 223.53662109 C-100.14507448 224.57617455 -101.56374962 225.6105459 -102.98657227 226.63916016 C-104.61374935 227.83637938 -106.19345364 229.09767957 -107.76171875 230.37109375 C-107.76171875 231.03109375 -107.76171875 231.69109375 -107.76171875 232.37109375 C-108.33921875 232.47421875 -108.91671875 232.57734375 -109.51171875 232.68359375 C-112.11833033 233.4800584 -113.73524985 234.56174652 -115.76171875 236.37109375 C-115.76171875 237.03109375 -115.76171875 237.69109375 -115.76171875 238.37109375 C-116.32632813 238.46132812 -116.8909375 238.5515625 -117.47265625 238.64453125 C-120.37347048 239.56526751 -122.06281771 241.0355388 -124.38671875 242.99609375 C-128.73482892 246.59363729 -133.22074068 249.81321595 -137.92578125 252.92578125 C-138.53164062 253.40273437 -139.1375 253.8796875 -139.76171875 254.37109375 C-139.76171875 255.03109375 -139.76171875 255.69109375 -139.76171875 256.37109375 C-138.15088823 257.73175741 -136.46799774 259.00722629 -134.76171875 260.24609375 C-133.66622898 261.04627613 -132.57120206 261.84709244 -131.4765625 262.6484375 C-130.88214355 263.08140137 -130.28772461 263.51436523 -129.67529297 263.96044922 C-127.62497329 265.47189948 -125.60011463 267.01337631 -123.578125 268.5625 C-122.87236328 269.10084473 -122.16660156 269.63918945 -121.43945312 270.19384766 C-120.0512027 271.25362239 -118.66568484 272.31698823 -117.28320312 273.38427734 C-113.89402561 275.95493971 -110.86427416 278.05100366 -106.76171875 279.37109375 C-106.76171875 280.03109375 -106.76171875 280.69109375 -106.76171875 281.37109375 C-105.25042105 282.7526987 -105.25042105 282.7526987 -103.23828125 284.13671875 C-102.09081421 284.96683472 -102.09081421 284.96683472 -100.92016602 285.8137207 C-100.08412842 286.41015381 -99.24809082 287.00658691 -98.38671875 287.62109375 C-91.60728615 292.53073468 -84.91153843 297.51876145 -78.32421875 302.68359375 C-71.53150709 308.00032581 -64.68421419 313.22382588 -57.76171875 318.37109375 C-49.39839681 324.59512224 -41.09026916 330.87496001 -32.88671875 337.30859375 C-26.06338983 342.65770566 -19.10477245 347.77746843 -12.04418945 352.80810547 C-6.90393692 356.48922994 -2.00506077 360.333314 2.78125 364.46875 C5.85109528 366.93676075 5.85109528 366.93676075 12.23828125 370.37109375 C12.23828125 294.47109375 12.23828125 218.57109375 12.23828125 140.37109375 C9.73499811 140.37109375 7.16381184 142.97815672 5.23828125 144.37109375 Z " fill="#0084CE" transform="translate(371.76171875,0.62890625)"/>
<path d="M0 0 C4.7956785 2.33965268 9.61512854 4.62338286 14.45275879 6.87469482 C20.14069191 9.52750219 25.75156655 12.30581509 31.34606934 15.14959717 C37.01412667 17.9996875 42.77037627 20.6471387 48.53723145 23.28997803 C80.54983141 37.96123892 80.54983141 37.96123892 87.82775879 47.87469482 C88.22350098 48.3980542 88.61924316 48.92141357 89.02697754 49.46063232 C93.05848841 56.84466276 92.43788241 64.82330082 92.43460083 73.00364685 C92.4412056 74.49431753 92.44865831 75.98498465 92.45688379 77.47564727 C92.47685404 81.56403977 92.48434601 85.65237355 92.48966241 89.74080789 C92.49748902 94.15338706 92.51664383 98.56592019 92.53408813 102.97846985 C92.57355336 113.62900232 92.59373867 124.27953841 92.61154372 134.93012568 C92.62031776 139.9489062 92.63104902 144.96768253 92.64152145 149.98645973 C92.67553536 166.67419273 92.70452436 183.36192315 92.71901894 200.04968548 C92.72283853 204.3770161 92.72667923 208.7043467 92.73059082 213.03167725 C92.7315583 214.10717356 92.73252578 215.18266987 92.73352258 216.29075698 C92.75012608 233.71609193 92.80080933 251.14115244 92.86575218 268.56636753 C92.93191847 286.46604902 92.96791847 304.36559104 92.97430742 322.26539546 C92.97863473 332.31175925 92.99608939 342.35772246 93.04722977 352.4039669 C93.09067804 360.95868967 93.10672813 369.5129145 93.0872962 378.0677351 C93.07821677 382.43005879 93.08193597 386.79135547 93.12081909 391.15353775 C93.15616238 395.15323468 93.15402944 399.15115865 93.12302451 403.15087543 C93.11828389 404.59167247 93.12686103 406.03259356 93.15068181 407.47320148 C93.33130209 419.12552057 89.99445418 426.33814006 81.99564707 434.75690383 C80.17700232 436.46518114 78.57835578 437.53196144 76.35510254 438.64031982 C75.65965332 438.9883667 74.9642041 439.33641357 74.24768066 439.69500732 C73.53160645 440.0430542 72.81553223 440.39110107 72.07775879 440.74969482 C70.99784668 441.29496826 70.99784668 441.29496826 69.89611816 441.85125732 C64.53452571 444.49969482 64.53452571 444.49969482 61.14025879 444.49969482 C61.14025879 445.15969482 61.14025879 445.81969482 61.14025879 446.49969482 C59.82025879 446.49969482 58.50025879 446.49969482 57.14025879 446.49969482 C57.14025879 447.15969482 57.14025879 447.81969482 57.14025879 448.49969482 C56.24822754 448.8374292 55.35619629 449.17516357 54.43713379 449.52313232 C53.26666504 449.96914795 52.09619629 450.41516357 50.89025879 450.87469482 C49.73010254 451.3155542 48.56994629 451.75641357 47.37463379 452.21063232 C43.75846734 453.65185808 40.54315765 455.25966997 37.20275879 457.24969482 C30.37990515 461.17172566 22.97802356 465.29052294 15.14025879 466.49969482 C15.14025879 467.15969482 15.14025879 467.81969482 15.14025879 468.49969482 C12.50025879 469.15969482 9.86025879 469.81969482 7.14025879 470.49969482 C7.14025879 471.15969482 7.14025879 471.81969482 7.14025879 472.49969482 C6.15154785 472.9096167 5.16283691 473.31953857 4.14416504 473.74188232 C-0.69414743 475.81353209 -5.33443766 478.25856958 -9.98669434 480.71453857 C-13.95766434 482.75152031 -17.35172726 484.03553114 -21.85974121 484.49969482 C-21.85974121 485.15969482 -21.85974121 485.81969482 -21.85974121 486.49969482 C-32.27035375 490.81475757 -42.84058156 495.04506941 -54.25427246 491.82391357 C-56.17224121 490.99969482 -56.17224121 490.99969482 -58.85974121 489.49969482 C-58.85974121 489.16969482 -58.85974121 488.83969482 -58.85974121 488.49969482 C-58.03989746 488.39012451 -57.22005371 488.2805542 -56.37536621 488.16766357 C-54.75888184 487.92983154 -54.75888184 487.92983154 -53.10974121 487.68719482 C-52.04239746 487.53637451 -50.97505371 487.3855542 -49.87536621 487.23016357 C-46.77859718 486.48003947 -45.28112269 485.49024491 -42.85974121 483.49969482 C-42.19974121 483.49969482 -41.53974121 483.49969482 -40.85974121 483.49969482 C-40.1735409 482.1763085 -39.5118766 480.84019535 -38.85974121 479.49969482 C-38.51184426 478.79158513 -38.1639473 478.08347544 -37.80550802 477.35390788 C-36.59982902 473.71531039 -36.58152518 470.30819981 -36.60247231 466.51978588 C-36.59896623 465.71781268 -36.59546016 464.91583948 -36.59184784 464.08956406 C-36.58251412 461.39142279 -36.58746223 458.69349643 -36.59231567 455.99534607 C-36.58858041 454.04569997 -36.58397939 452.09605536 -36.57858503 450.14641315 C-36.56632434 444.78019329 -36.56661911 439.41403563 -36.56897378 434.04780495 C-36.56938117 428.26376321 -36.55835025 422.47974163 -36.54885864 416.69570923 C-36.53223093 405.36048182 -36.5267483 394.0252752 -36.52563389 382.69003662 C-36.52468427 373.47826391 -36.52057829 364.26649808 -36.51423264 355.05472755 C-36.49948325 333.19945504 -36.48718342 311.34418789 -36.48822975 289.48890972 C-36.48826091 288.78984865 -36.48829207 288.09078757 -36.48832417 287.37054283 C-36.48849038 283.82735285 -36.48868847 280.28416287 -36.48889358 276.7409729 C-36.48893347 276.03727371 -36.48897336 275.33357453 -36.48901446 274.60855113 C-36.48909534 273.1854996 -36.48917893 271.76244808 -36.48926525 270.33939655 C-36.4904908 248.19822297 -36.47547732 226.05711064 -36.44812012 203.91595459 C-36.41740213 179.04450923 -36.40021279 154.17310443 -36.40204656 129.3016389 C-36.40271116 116.13119113 -36.39718806 102.96081244 -36.37569046 89.79038048 C-36.35750571 78.57749917 -36.35310908 67.36471825 -36.36670931 56.15182861 C-36.37325255 50.42935451 -36.37330714 44.70707316 -36.35600281 38.98461723 C-36.34032719 33.74696609 -36.34307935 28.50966141 -36.36057107 23.27201901 C-36.36365312 21.37634401 -36.35996346 19.4806435 -36.34885092 17.58499857 C-36.33474707 15.00862158 -36.34530207 12.43346275 -36.36196327 9.85712719 C-36.35202691 9.12071714 -36.34209055 8.3843071 -36.33185309 7.62558159 C-36.4058842 2.21285697 -37.87972087 -1.96753678 -40.85974121 -6.50030518 C-45.78520339 -11.07394863 -48.94826995 -11.64119459 -55.48474121 -11.56280518 C-56.54435059 -11.5560376 -56.54435059 -11.5560376 -57.62536621 -11.5491333 C-59.37019396 -11.53734392 -61.11497821 -11.51940842 -62.85974121 -11.50030518 C-50.04831574 -30.71744338 -14.32642623 -6.99830326 0 0 Z " fill="#20A6EE" transform="translate(419.8597412109375,18.50030517578125)"/>
<path d="M0 0 C6.07211873 3.43637991 9.74660819 7.38267376 12 14 C12.25447559 16.49656105 12.25447559 16.49656105 12.26069641 19.17471313 C12.26778122 20.19536362 12.27486603 21.2160141 12.28216553 22.26759338 C12.27968811 23.37634323 12.27721069 24.48509308 12.2746582 25.62744141 C12.27976913 26.8035347 12.28488007 27.97962799 12.29014587 29.19136047 C12.30164879 32.40815371 12.30411827 35.62478682 12.30158257 38.84159517 C12.30051149 41.52821272 12.3053994 44.21480658 12.310188 46.90141904 C12.3212713 53.23735736 12.32172627 59.57323637 12.31567383 65.90917969 C12.3096249 72.44684861 12.32197085 78.98430281 12.3432439 85.52193511 C12.36084451 91.13733691 12.36686398 96.75267024 12.36360615 102.36809862 C12.36179174 105.7211017 12.36444562 109.07395136 12.37832069 112.42692947 C12.39060389 116.16190607 12.38394267 119.89637962 12.37231445 123.63134766 C12.37995819 124.74414597 12.38760193 125.85694427 12.39547729 127.00346375 C12.38846298 128.01847458 12.38144867 129.03348541 12.3742218 130.07925415 C12.37438954 130.96229029 12.37455729 131.84532642 12.37473011 132.75512123 C11.91726162 135.49565707 11.19579877 136.3440859 9 138 C8.01 138.33 7.02 138.66 6 139 C4.97355362 139.97283494 3.97515235 140.97575496 3 142 C1.86948793 142.91163316 0.7211253 143.80144238 -0.44140625 144.671875 C-1.10325928 145.1683252 -1.7651123 145.66477539 -2.44702148 146.17626953 C-3.14512939 146.69560059 -3.8432373 147.21493164 -4.5625 147.75 C-5.27543213 148.28351074 -5.98836426 148.81702148 -6.72290039 149.36669922 C-11.49756688 152.92543674 -16.33193059 156.37635408 -21.27734375 159.6953125 C-23.13601963 160.90286846 -23.13601963 160.90286846 -24 163 C-26.65756064 164.74839516 -28.97382445 165.99127482 -32 167 C-32 167.66 -32 168.32 -32 169 C-34.1171875 170.7265625 -34.1171875 170.7265625 -36.875 172.625 C-37.77992188 173.25664062 -38.68484375 173.88828125 -39.6171875 174.5390625 C-42 176 -42 176 -44 176 C-44 176.66 -44 177.32 -44 178 C-44.598125 178.268125 -45.19625 178.53625 -45.8125 178.8125 C-48.02476843 180.01344572 -49.23742751 181.22891266 -51 183 C-52.33499 184.08649681 -53.69013755 185.1486088 -55.0625 186.1875 C-55.75472656 186.71730469 -56.44695312 187.24710938 -57.16015625 187.79296875 C-59 189 -59 189 -61 189 C-61 189.66 -61 190.32 -61 191 C-62.74251117 192.31765863 -64.54900461 193.55070426 -66.375 194.75 C-72.87294041 199.10684265 -79.01988292 203.84054903 -85.1652832 208.67773438 C-90.84311227 213.13434933 -96.61309149 217.43897979 -102.49365234 221.62451172 C-105.75254968 223.84962817 -105.75254968 223.84962817 -108 227 C-109.75601346 228.10181237 -111.57088501 229.03718558 -113.40625 230 C-115.17544341 230.91759769 -115.17544341 230.91759769 -116 233 C-117.67824354 233.93981638 -119.35751686 234.87786059 -121.04296875 235.8046875 C-123.67245648 237.41072192 -125.86438128 239.36671371 -128.1640625 241.40625 C-130.16089052 243.13966667 -132.21273419 244.76795902 -134.3125 246.375 C-134.96863281 246.87773437 -135.62476563 247.38046875 -136.30078125 247.8984375 C-138 249 -138 249 -140 249 C-140.33 249.66 -140.66 250.32 -141 251 C-141.76699219 250.3915625 -142.53398437 249.783125 -143.32421875 249.15625 C-157.43295435 238.00005085 -171.77265505 227.1432328 -186.17651367 216.37182617 C-198.20659677 207.36569838 -210.09576453 198.17143706 -222 189 C-217.94795241 183.98825693 -213.59355007 179.70949782 -208.765625 175.4453125 C-205.85459187 172.87143292 -202.98494983 170.25522378 -200.125 167.625 C-199.62564941 167.16673828 -199.12629883 166.70847656 -198.61181641 166.23632812 C-196.02294853 163.86036874 -193.43671178 161.48156664 -190.8515625 159.1015625 C-185.82956556 154.48242473 -180.79455992 149.88779348 -175.62109375 145.4375 C-173.95850937 144.00646265 -173.95850937 144.00646265 -172.41015625 142.3125 C-171 141 -171 141 -169 141 C-169 140.34 -169 139.68 -169 139 C-167.671875 137.66015625 -167.671875 137.66015625 -165.75 136.0625 C-162.13629051 132.9914854 -158.61018826 129.84042477 -155.125 126.625 C-150.49422269 122.36029204 -145.82213909 118.14525518 -141.12890625 113.94921875 C-139.35591239 112.32587208 -137.664536 110.66997624 -136 108.9375 C-134 107 -134 107 -132 107 C-132 106.34 -132 105.68 -132 105 C-130.40324822 103.58829235 -128.74486398 102.24600532 -127.0625 100.9375 C-122.4442739 97.24883993 -118.2631079 93.37113376 -114.13671875 89.1484375 C-105.55303717 80.51767906 -105.55303717 80.51767906 -101 79 C-101 78.34 -101 77.68 -101 77 C-100.34 77 -99.68 77 -99 77 C-99 76.34 -99 75.68 -99 75 C-97.38281689 73.5671282 -95.70376628 72.20375251 -94 70.875 C-89.67676959 67.42084408 -85.72845919 63.84503868 -81.875 59.8828125 C-79.46504186 57.46281287 -76.90327484 55.25869066 -74.31640625 53.03125 C-71.41449538 50.48657267 -68.58181124 47.87217069 -65.75 45.25 C-65.20021484 44.74210937 -64.65042969 44.23421875 -64.08398438 43.7109375 C-61.23549566 41.07749149 -58.39586541 38.4351322 -55.56640625 35.78125 C-54.48180948 34.77079185 -53.39717553 33.7603736 -52.3125 32.75 C-51.80750977 32.27208008 -51.30251953 31.79416016 -50.78222656 31.30175781 C-47.22592256 28 -47.22592256 28 -45 28 C-45 27.34 -45 26.68 -45 26 C-43.671875 24.66015625 -43.671875 24.66015625 -41.75 23.0625 C-38.64567589 20.4251981 -35.5969889 17.74450247 -32.60351562 14.98144531 C-31.56981354 14.02962711 -30.53065278 13.08370569 -29.48632812 12.14355469 C-27.1230408 10.00949736 -24.91175028 7.90066049 -22.79296875 5.515625 C-16.41035716 -1.36734429 -8.81434533 -1.5710543 0 0 Z " fill="#0075B5" transform="translate(372,6)"/>
<path d="M0 0 C3.006818 1.33999498 4.99762609 2.79845291 7.25 5.1875 C9.58814559 7.59441458 11.95157717 9.87972044 14.5 12.0625 C18.6051024 15.59834015 22.5499991 19.29330677 26.5 23 C30.91072454 27.13632958 35.33869417 31.22635411 39.921875 35.171875 C43.36161149 38.19780861 46.70591599 41.32720308 50.06494141 44.44213867 C53.51557815 47.63912599 56.9930072 50.80214375 60.5 53.9375 C63.77200361 56.86844786 66.9454249 59.84360573 70 63 C68.68 63 67.36 63 66 63 C66 63.66 66 64.32 66 65 C65.34 65 64.68 65 64 65 C64 65.66 64 66.32 64 67 C62.015625 68.41015625 62.015625 68.41015625 59.25 70.0625 C52.86788882 74.01255347 46.94514265 78.42624312 41 83 C39.83077598 83.89719643 38.66150397 84.79433031 37.4921875 85.69140625 C35.26316093 87.40307926 33.03682427 89.11815985 30.8125 90.8359375 C29.884375 91.55007813 28.95625 92.26421875 28 93 C27.2575 93.59039062 26.515 94.18078125 25.75 94.7890625 C24 96 24 96 22 96 C22 96.66 22 97.32 22 98 C20.15625 99.5234375 20.15625 99.5234375 17.5 101.375 C16.49324219 102.08914063 15.48648438 102.80328125 14.44921875 103.5390625 C13.89411621 103.93254883 13.33901367 104.32603516 12.76708984 104.73144531 C9.57810224 107.02074893 6.44876853 109.38928964 3.3125 111.75 C2.63952881 112.25313721 1.96655762 112.75627441 1.27319336 113.2746582 C-2.26818996 115.9255793 -5.78335841 118.60383018 -9.265625 121.33203125 C-9.96469971 121.87311523 -10.66377441 122.41419922 -11.3840332 122.97167969 C-12.70811627 123.99744657 -14.02499383 125.03261615 -15.33276367 126.07910156 C-20.98735817 130.43211746 -27.67083379 133.78778207 -35 133.0625 C-44.29055601 131.66392168 -50.56075536 124.73586964 -57.11230469 118.54150391 C-61.17982687 114.69995518 -65.4079192 111.18661065 -69.87890625 107.81640625 C-72.27618045 105.76349188 -74.07967859 103.497242 -76 101 C-76.515625 100.525625 -77.03125 100.05125 -77.5625 99.5625 C-82.34907395 94.35970222 -82.51770268 88.97441676 -82.35546875 82.19921875 C-81.72203824 76.49834416 -79.53073386 72.80086337 -75.875 68.5 C-74 67 -74 67 -72 67 C-72 66.34 -72 65.68 -72 65 C-71.34 65 -70.68 65 -70 65 C-70 64.34 -70 63.68 -70 63 C-68.40324822 61.58829235 -66.74486398 60.24600532 -65.0625 58.9375 C-60.43014817 55.23755745 -56.23776582 51.34788724 -52.1015625 47.109375 C-49.5799384 44.57837683 -46.92304565 42.2571323 -44.21484375 39.9296875 C-41.51879883 37.58075242 -38.88239328 35.1696064 -36.25 32.75 C-35.49553589 32.05837769 -35.49553589 32.05837769 -34.72583008 31.3527832 C-32.01517355 28.86469756 -29.31743838 26.36381371 -26.6328125 23.84765625 C-26.0872168 23.33944336 -25.54162109 22.83123047 -24.97949219 22.30761719 C-23.92681837 21.32670202 -22.8778473 20.34179494 -21.83300781 19.35253906 C-18.2250372 16 -18.2250372 16 -16 16 C-16 15.34 -16 14.68 -16 14 C-14.42578125 12.4140625 -14.42578125 12.4140625 -12.3125 10.625 C-11.58289063 10.00367188 -10.85328125 9.38234375 -10.1015625 8.7421875 C-7.75735955 6.79885197 -5.37766514 4.90213211 -3 3 C-1.9826127 2.01769502 -0.97403883 1.02530403 0 0 Z " fill="#006BAD" transform="translate(82,256)"/>
<path d="M0 0 C1.875 0.375 1.875 0.375 4 1 C5.32 1 6.64 1 8 1 C7.814375 1.7425 7.62875 2.485 7.4375 3.25 C7.00796892 5.94990963 7.14877026 7.44631077 8 10 C6.66666667 8.66666667 5.33333333 7.33333333 4 6 C4 6.66 4 7.32 4 8 C2.125 7.8125 2.125 7.8125 0 7 C-1.25 4.4375 -1.25 4.4375 -2 2 C-1.34 1.34 -0.68 0.68 0 0 Z " fill="#23ACF1" transform="translate(465,151)"/>
<path d="M0 0 C-0.99 0.33 -1.98 0.66 -3 1 C-2.01 1.66 -1.02 2.32 0 3 C-3.63 3.33 -7.26 3.66 -11 4 C-8.14317358 -0.28523962 -4.97227354 -1.84158279 0 0 Z " fill="#158FCD" transform="translate(368,3)"/>
<path d="M0 0 C0.99 0.33 1.98 0.66 3 1 C2.67 2.98 2.34 4.96 2 7 C0.68 6.67 -0.64 6.34 -2 6 C-1.34 4.02 -0.68 2.04 0 0 Z " fill="#23ACF1" transform="translate(436,162)"/>
<path d="M0 0 C0.99 0.33 1.98 0.66 3 1 C3.33 1.99 3.66 2.98 4 4 C3.67 4.66 3.34 5.32 3 6 C1.0625 5.6875 1.0625 5.6875 -1 5 C-1.33 4.01 -1.66 3.02 -2 2 C-1.34 1.34 -0.68 0.68 0 0 Z " fill="#23ACF1" transform="translate(435,151)"/>
<path d="M0 0 C0.99 0.33 1.98 0.66 3 1 C3.33 1.99 3.66 2.98 4 4 C3.67 4.66 3.34 5.32 3 6 C1.0625 5.6875 1.0625 5.6875 -1 5 C-1.33 4.01 -1.66 3.02 -2 2 C-1.34 1.34 -0.68 0.68 0 0 Z " fill="#23ACF1" transform="translate(415,151)"/>
</svg>
